<svg width="497" height="99" viewBox="0 0 497 99" fill="none" xmlns="http://www.w3.org/2000/svg">
<path fill-rule="evenodd" clip-rule="evenodd" d="M43.7315 35.617L37.8217 28.6974L37.569 31.9791C37.926 32.1764 38.1952 32.5215 38.2775 32.9543C38.4039 33.6227 38.0304 34.2747 37.4262 34.5212C37.591 35.9676 37.8766 37.7317 37.948 38.8987C38.0304 40.1752 37.6624 40.6902 36.7781 40.7341C36.2289 40.7615 35.7016 40.3232 35.6961 38.8604C35.6906 38.055 36.0311 36.0114 36.3277 34.5103C35.9048 34.3295 35.5862 33.9514 35.4929 33.4748C35.3501 32.7078 35.8554 31.9682 36.6243 31.8257L36.6463 31.8202L36.9593 27.6893L36.5474 27.2072C36.2563 26.8675 36.2069 26.4073 36.4211 26.0128C36.6353 25.6184 37.0417 25.4485 37.4921 25.465L64.5315 26.5497C65.0752 26.5716 65.5531 26.8291 65.8716 27.2729L81.5746 49.3301C81.8327 49.6972 81.9096 50.1355 81.6954 50.5245C81.4812 50.919 81.0693 51.1272 80.6244 51.0669L69.2934 49.5931C69.1836 50.3218 69.0078 51.0395 68.7826 51.7462L68.6673 52.0969H68.6618L68.5739 52.3325C68.0027 53.8829 67.1788 55.3184 66.2122 56.6552L66.0199 56.9291L65.8497 57.1537C64.8995 58.4083 63.8394 59.5479 62.7574 60.682L62.5817 60.8628L62.318 61.1367C61.7798 61.7065 60.4231 63.0269 60.4341 63.8542V63.8925L60.4451 63.9309C60.489 64.0952 60.8076 64.6267 60.89 64.791C61.1976 65.3718 61.5051 65.9415 61.8127 66.5223C62.1313 67.114 62.4498 67.7057 62.7629 68.3029C62.2741 68.144 61.7633 68.0344 61.2525 67.9851L60.7197 67.9358L60.7307 67.9577L60.5275 67.9687C57.6439 68.0892 55.8864 70.7464 53.6564 72.2475L53.5136 72.3407V72.3571L53.0522 72.6201C51.7505 73.3652 50.4049 73.6994 48.9274 73.7213C48.5814 71.6832 47.9992 69.5027 46.9446 67.7276L46.6261 67.1907L46.6151 67.2126L46.5217 67.0866C46.1263 66.5278 45.6649 66.0182 45.1211 65.5964C44.1655 64.9061 43.1768 64.528 42.0234 64.3801L41.8586 64.3637L41.8696 64.3527L41.2709 64.3199C39.7221 64.2377 38.3215 64.4185 36.9154 63.5693C35.6137 62.7803 36.108 61.2792 36.5694 60.1506L36.9154 59.2959L36.8989 59.3068L36.8934 59.137C36.866 58.3536 35.6521 58.0413 35.5423 57.7399C35.5643 57.4824 36.0146 57.0441 36.2234 56.8798L36.6792 56.5127L36.1465 56.3374C36.0421 56.2826 35.9213 56.1895 35.8334 56.1237C35.6851 56.0196 35.5807 55.4553 35.7071 55.3184C36.1575 54.8472 36.3112 54.4253 36.3881 53.7843C36.4431 53.3022 36.1794 52.8803 35.8664 52.5407L35.773 52.4366L35.8059 52.4311L35.2512 51.9599C35.004 51.7462 34.7459 51.5435 34.5097 51.3244C33.9275 50.793 36.0476 49.1877 36.4266 48.9138C36.877 48.585 37.2944 48.2015 37.6844 47.8071L38.1347 47.3414H38.1183L38.2116 47.2318C38.5192 46.8812 38.8268 46.5141 39.0959 46.1415L39.5683 45.4457L39.431 44.7061C39.3431 43.7967 39.387 42.8762 39.5683 41.9613L39.6122 41.7367H39.6067L39.7111 41.3532C40.2054 39.5178 41.2435 37.9125 42.6001 36.5922L42.7978 36.4004L43.045 36.1813C43.2812 35.9786 43.5009 35.7978 43.7315 35.617Z" fill="#03565C"/>
<path fill-rule="evenodd" clip-rule="evenodd" d="M53.8867 7.56607C65.1188 7.56607 75.2908 12.1079 82.6507 19.4494C90.0106 26.7908 94.5639 36.9373 94.5639 48.1468C94.5639 59.3507 90.0106 69.4972 82.6507 76.8442C82.0411 77.4523 81.4094 78.0385 80.7613 78.6083L82.7716 87.3249C82.9199 87.9714 82.6727 88.6124 82.1235 88.9904C81.5742 89.3684 80.8876 89.3794 80.3329 89.0123L72.8412 84.0651C67.1785 87.0455 60.7303 88.7274 53.8812 88.7274C42.6492 88.7274 32.4771 84.1856 25.1172 76.8442C17.7573 69.5027 13.2041 59.3507 13.2041 48.1468C13.2041 36.9428 17.7573 26.7963 25.1172 19.4494C32.4881 12.1079 42.6547 7.56607 53.8867 7.56607ZM75.6094 26.4785C70.051 20.9341 62.3726 17.5044 53.8867 17.5044C45.4064 17.5044 37.7279 20.9341 32.1641 26.4785C26.6057 32.0284 23.1674 39.6877 23.1674 48.1468C23.1674 56.6113 26.6057 64.2706 32.1641 69.815C37.7224 75.3594 45.4009 78.7891 53.8867 78.7891C62.3726 78.7891 70.051 75.3594 75.6094 69.815C81.1678 64.2706 84.606 56.6113 84.606 48.1468C84.606 39.6877 81.1678 32.0284 75.6094 26.4785Z" fill="#03565C"/>
<path d="M117.044 95.5539C116.742 95.5539 116.495 95.3074 116.495 95.006V4.18572C116.495 3.88439 116.742 3.63785 117.044 3.63785C117.346 3.63785 117.594 3.88439 117.594 4.18572V95.006C117.594 95.3128 117.352 95.5539 117.044 95.5539Z" fill="#03565C"/>
<path d="M157.492 39.2578V42H148.902V39.2578H157.492ZM150.039 24.9375V42H146.523V24.9375H150.039ZM162.379 24V25.7812C162.379 26.2891 162.281 26.8125 162.086 27.3516C161.898 27.8906 161.645 28.4023 161.324 28.8867C161.004 29.3633 160.652 29.7695 160.27 30.1055L158.688 29.1914C158.977 28.7305 159.223 28.2305 159.426 27.6914C159.629 27.1445 159.73 26.5117 159.73 25.793V24H162.379ZM171.062 39.1406V33.4922C171.062 33.0859 170.996 32.7383 170.863 32.4492C170.73 32.1523 170.523 31.9219 170.242 31.7578C169.969 31.5938 169.613 31.5117 169.176 31.5117C168.801 31.5117 168.477 31.5781 168.203 31.7109C167.93 31.8359 167.719 32.0195 167.57 32.2617C167.422 32.4961 167.348 32.7734 167.348 33.0938H163.973C163.973 32.5547 164.098 32.043 164.348 31.5586C164.598 31.0742 164.961 30.6484 165.438 30.2812C165.914 29.9062 166.48 29.6133 167.137 29.4023C167.801 29.1914 168.543 29.0859 169.363 29.0859C170.348 29.0859 171.223 29.25 171.988 29.5781C172.754 29.9062 173.355 30.3984 173.793 31.0547C174.238 31.7109 174.461 32.5312 174.461 33.5156V38.9414C174.461 39.6367 174.504 40.207 174.59 40.6523C174.676 41.0898 174.801 41.4727 174.965 41.8008V42H171.555C171.391 41.6562 171.266 41.2266 171.18 40.7109C171.102 40.1875 171.062 39.6641 171.062 39.1406ZM171.508 34.2773L171.531 36.1875H169.645C169.199 36.1875 168.812 36.2383 168.484 36.3398C168.156 36.4414 167.887 36.5859 167.676 36.7734C167.465 36.9531 167.309 37.1641 167.207 37.4062C167.113 37.6484 167.066 37.9141 167.066 38.2031C167.066 38.4922 167.133 38.7539 167.266 38.9883C167.398 39.2148 167.59 39.3945 167.84 39.5273C168.09 39.6523 168.383 39.7148 168.719 39.7148C169.227 39.7148 169.668 39.6133 170.043 39.4102C170.418 39.207 170.707 38.957 170.91 38.6602C171.121 38.3633 171.23 38.082 171.238 37.8164L172.129 39.2461C172.004 39.5664 171.832 39.8984 171.613 40.2422C171.402 40.5859 171.133 40.9102 170.805 41.2148C170.477 41.5117 170.082 41.7578 169.621 41.9531C169.16 42.1406 168.613 42.2344 167.98 42.2344C167.176 42.2344 166.445 42.0742 165.789 41.7539C165.141 41.4258 164.625 40.9766 164.242 40.4062C163.867 39.8281 163.68 39.1719 163.68 38.4375C163.68 37.7734 163.805 37.1836 164.055 36.668C164.305 36.1523 164.672 35.7188 165.156 35.3672C165.648 35.0078 166.262 34.7383 166.996 34.5586C167.73 34.3711 168.582 34.2773 169.551 34.2773H171.508ZM180.367 32.0273V42H176.992V29.3203H180.156L180.367 32.0273ZM179.875 35.2148H178.961C178.961 34.2773 179.082 33.4336 179.324 32.6836C179.566 31.9258 179.906 31.2812 180.344 30.75C180.781 30.2109 181.301 29.8008 181.902 29.5195C182.512 29.2305 183.191 29.0859 183.941 29.0859C184.535 29.0859 185.078 29.1719 185.57 29.3438C186.062 29.5156 186.484 29.7891 186.836 30.1641C187.195 30.5391 187.469 31.0352 187.656 31.6523C187.852 32.2695 187.949 33.0234 187.949 33.9141V42H184.551V33.9023C184.551 33.3398 184.473 32.9023 184.316 32.5898C184.16 32.2773 183.93 32.0586 183.625 31.9336C183.328 31.8008 182.961 31.7344 182.523 31.7344C182.07 31.7344 181.676 31.8242 181.34 32.0039C181.012 32.1836 180.738 32.4336 180.52 32.7539C180.309 33.0664 180.148 33.4336 180.039 33.8555C179.93 34.2773 179.875 34.7305 179.875 35.2148ZM193.82 32.0273V42H190.445V29.3203H193.609L193.82 32.0273ZM193.328 35.2148H192.414C192.414 34.2773 192.535 33.4336 192.777 32.6836C193.02 31.9258 193.359 31.2812 193.797 30.75C194.234 30.2109 194.754 29.8008 195.355 29.5195C195.965 29.2305 196.645 29.0859 197.395 29.0859C197.988 29.0859 198.531 29.1719 199.023 29.3438C199.516 29.5156 199.938 29.7891 200.289 30.1641C200.648 30.5391 200.922 31.0352 201.109 31.6523C201.305 32.2695 201.402 33.0234 201.402 33.9141V42H198.004V33.9023C198.004 33.3398 197.926 32.9023 197.77 32.5898C197.613 32.2773 197.383 32.0586 197.078 31.9336C196.781 31.8008 196.414 31.7344 195.977 31.7344C195.523 31.7344 195.129 31.8242 194.793 32.0039C194.465 32.1836 194.191 32.4336 193.973 32.7539C193.762 33.0664 193.602 33.4336 193.492 33.8555C193.383 34.2773 193.328 34.7305 193.328 35.2148ZM211.469 38.9648V29.3203H214.844V42H211.668L211.469 38.9648ZM211.844 36.3633L212.84 36.3398C212.84 37.1836 212.742 37.9688 212.547 38.6953C212.352 39.4141 212.059 40.0391 211.668 40.5703C211.277 41.0938 210.785 41.5039 210.191 41.8008C209.598 42.0898 208.898 42.2344 208.094 42.2344C207.477 42.2344 206.906 42.1484 206.383 41.9766C205.867 41.7969 205.422 41.5195 205.047 41.1445C204.68 40.7617 204.391 40.2734 204.18 39.6797C203.977 39.0781 203.875 38.3555 203.875 37.5117V29.3203H207.25V37.5352C207.25 37.9102 207.293 38.2266 207.379 38.4844C207.473 38.7422 207.602 38.9531 207.766 39.1172C207.93 39.2812 208.121 39.3984 208.34 39.4688C208.566 39.5391 208.816 39.5742 209.09 39.5742C209.785 39.5742 210.332 39.4336 210.73 39.1523C211.137 38.8711 211.422 38.4883 211.586 38.0039C211.758 37.5117 211.844 36.9648 211.844 36.3633ZM224.266 39.1406V33.4922C224.266 33.0859 224.199 32.7383 224.066 32.4492C223.934 32.1523 223.727 31.9219 223.445 31.7578C223.172 31.5938 222.816 31.5117 222.379 31.5117C222.004 31.5117 221.68 31.5781 221.406 31.7109C221.133 31.8359 220.922 32.0195 220.773 32.2617C220.625 32.4961 220.551 32.7734 220.551 33.0938H217.176C217.176 32.5547 217.301 32.043 217.551 31.5586C217.801 31.0742 218.164 30.6484 218.641 30.2812C219.117 29.9062 219.684 29.6133 220.34 29.4023C221.004 29.1914 221.746 29.0859 222.566 29.0859C223.551 29.0859 224.426 29.25 225.191 29.5781C225.957 29.9062 226.559 30.3984 226.996 31.0547C227.441 31.7109 227.664 32.5312 227.664 33.5156V38.9414C227.664 39.6367 227.707 40.207 227.793 40.6523C227.879 41.0898 228.004 41.4727 228.168 41.8008V42H224.758C224.594 41.6562 224.469 41.2266 224.383 40.7109C224.305 40.1875 224.266 39.6641 224.266 39.1406ZM224.711 34.2773L224.734 36.1875H222.848C222.402 36.1875 222.016 36.2383 221.688 36.3398C221.359 36.4414 221.09 36.5859 220.879 36.7734C220.668 36.9531 220.512 37.1641 220.41 37.4062C220.316 37.6484 220.27 37.9141 220.27 38.2031C220.27 38.4922 220.336 38.7539 220.469 38.9883C220.602 39.2148 220.793 39.3945 221.043 39.5273C221.293 39.6523 221.586 39.7148 221.922 39.7148C222.43 39.7148 222.871 39.6133 223.246 39.4102C223.621 39.207 223.91 38.957 224.113 38.6602C224.324 38.3633 224.434 38.082 224.441 37.8164L225.332 39.2461C225.207 39.5664 225.035 39.8984 224.816 40.2422C224.605 40.5859 224.336 40.9102 224.008 41.2148C223.68 41.5117 223.285 41.7578 222.824 41.9531C222.363 42.1406 221.816 42.2344 221.184 42.2344C220.379 42.2344 219.648 42.0742 218.992 41.7539C218.344 41.4258 217.828 40.9766 217.445 40.4062C217.07 39.8281 216.883 39.1719 216.883 38.4375C216.883 37.7734 217.008 37.1836 217.258 36.668C217.508 36.1523 217.875 35.7188 218.359 35.3672C218.852 35.0078 219.465 34.7383 220.199 34.5586C220.934 34.3711 221.785 34.2773 222.754 34.2773H224.711ZM233.828 29.3203V42H230.441V29.3203H233.828ZM230.23 26.0156C230.23 25.5234 230.402 25.1172 230.746 24.7969C231.09 24.4766 231.551 24.3164 232.129 24.3164C232.699 24.3164 233.156 24.4766 233.5 24.7969C233.852 25.1172 234.027 25.5234 234.027 26.0156C234.027 26.5078 233.852 26.9141 233.5 27.2344C233.156 27.5547 232.699 27.7148 232.129 27.7148C231.551 27.7148 231.09 27.5547 230.746 27.2344C230.402 26.9141 230.23 26.5078 230.23 26.0156ZM239.992 32.0859V42H236.617V29.3203H239.793L239.992 32.0859ZM243.812 29.2383L243.754 32.3672C243.59 32.3438 243.391 32.3242 243.156 32.3086C242.93 32.2852 242.723 32.2734 242.535 32.2734C242.059 32.2734 241.645 32.3359 241.293 32.4609C240.949 32.5781 240.66 32.7539 240.426 32.9883C240.199 33.2227 240.027 33.5078 239.91 33.8438C239.801 34.1797 239.738 34.5625 239.723 34.9922L239.043 34.7812C239.043 33.9609 239.125 33.207 239.289 32.5195C239.453 31.8242 239.691 31.2188 240.004 30.7031C240.324 30.1875 240.715 29.7891 241.176 29.5078C241.637 29.2266 242.164 29.0859 242.758 29.0859C242.945 29.0859 243.137 29.1016 243.332 29.1328C243.527 29.1562 243.688 29.1914 243.812 29.2383ZM251.008 42.2344C250.023 42.2344 249.141 42.0781 248.359 41.7656C247.578 41.4453 246.914 41.0039 246.367 40.4414C245.828 39.8789 245.414 39.2266 245.125 38.4844C244.836 37.7344 244.691 36.9375 244.691 36.0938V35.625C244.691 34.6641 244.828 33.7852 245.102 32.9883C245.375 32.1914 245.766 31.5 246.273 30.9141C246.789 30.3281 247.414 29.8789 248.148 29.5664C248.883 29.2461 249.711 29.0859 250.633 29.0859C251.531 29.0859 252.328 29.2344 253.023 29.5312C253.719 29.8281 254.301 30.25 254.77 30.7969C255.246 31.3438 255.605 32 255.848 32.7656C256.09 33.5234 256.211 34.3672 256.211 35.2969V36.7031H246.133V34.4531H252.895V34.1953C252.895 33.7266 252.809 33.3086 252.637 32.9414C252.473 32.5664 252.223 32.2695 251.887 32.0508C251.551 31.832 251.121 31.7227 250.598 31.7227C250.152 31.7227 249.77 31.8203 249.449 32.0156C249.129 32.2109 248.867 32.4844 248.664 32.8359C248.469 33.1875 248.32 33.6016 248.219 34.0781C248.125 34.5469 248.078 35.0625 248.078 35.625V36.0938C248.078 36.6016 248.148 37.0703 248.289 37.5C248.438 37.9297 248.645 38.3008 248.91 38.6133C249.184 38.9258 249.512 39.168 249.895 39.3398C250.285 39.5117 250.727 39.5977 251.219 39.5977C251.828 39.5977 252.395 39.4805 252.918 39.2461C253.449 39.0039 253.906 38.6406 254.289 38.1562L255.93 39.9375C255.664 40.3203 255.301 40.6875 254.84 41.0391C254.387 41.3906 253.84 41.6797 253.199 41.9062C252.559 42.125 251.828 42.2344 251.008 42.2344ZM271.598 39.2344V24H274.996V42H271.938L271.598 39.2344ZM263.582 35.8125V35.5664C263.582 34.5977 263.691 33.7188 263.91 32.9297C264.129 32.1328 264.449 31.4492 264.871 30.8789C265.293 30.3086 265.812 29.8672 266.43 29.5547C267.047 29.2422 267.75 29.0859 268.539 29.0859C269.281 29.0859 269.93 29.2422 270.484 29.5547C271.047 29.8672 271.523 30.3125 271.914 30.8906C272.312 31.4609 272.633 32.1367 272.875 32.918C273.117 33.6914 273.293 34.5391 273.402 35.4609V36C273.293 36.8828 273.117 37.7031 272.875 38.4609C272.633 39.2188 272.312 39.8828 271.914 40.4531C271.523 41.0156 271.047 41.4531 270.484 41.7656C269.922 42.0781 269.266 42.2344 268.516 42.2344C267.727 42.2344 267.023 42.0742 266.406 41.7539C265.797 41.4336 265.281 40.9844 264.859 40.4062C264.445 39.8281 264.129 39.1484 263.91 38.3672C263.691 37.5859 263.582 36.7344 263.582 35.8125ZM266.957 35.5664V35.8125C266.957 36.3359 266.996 36.8242 267.074 37.2773C267.16 37.7305 267.297 38.1328 267.484 38.4844C267.68 38.8281 267.93 39.0977 268.234 39.293C268.547 39.4805 268.926 39.5742 269.371 39.5742C269.949 39.5742 270.426 39.4453 270.801 39.1875C271.176 38.9219 271.461 38.5586 271.656 38.0977C271.859 37.6367 271.977 37.1055 272.008 36.5039V34.9688C271.984 34.4766 271.914 34.0352 271.797 33.6445C271.688 33.2461 271.523 32.9062 271.305 32.625C271.094 32.3438 270.828 32.125 270.508 31.9688C270.195 31.8125 269.824 31.7344 269.395 31.7344C268.957 31.7344 268.582 31.8359 268.27 32.0391C267.957 32.2344 267.703 32.5039 267.508 32.8477C267.32 33.1914 267.18 33.5977 267.086 34.0664C267 34.5273 266.957 35.0273 266.957 35.5664ZM283.469 42.2344C282.484 42.2344 281.602 42.0781 280.82 41.7656C280.039 41.4453 279.375 41.0039 278.828 40.4414C278.289 39.8789 277.875 39.2266 277.586 38.4844C277.297 37.7344 277.152 36.9375 277.152 36.0938V35.625C277.152 34.6641 277.289 33.7852 277.562 32.9883C277.836 32.1914 278.227 31.5 278.734 30.9141C279.25 30.3281 279.875 29.8789 280.609 29.5664C281.344 29.2461 282.172 29.0859 283.094 29.0859C283.992 29.0859 284.789 29.2344 285.484 29.5312C286.18 29.8281 286.762 30.25 287.23 30.7969C287.707 31.3438 288.066 32 288.309 32.7656C288.551 33.5234 288.672 34.3672 288.672 35.2969V36.7031H278.594V34.4531H285.355V34.1953C285.355 33.7266 285.27 33.3086 285.098 32.9414C284.934 32.5664 284.684 32.2695 284.348 32.0508C284.012 31.832 283.582 31.7227 283.059 31.7227C282.613 31.7227 282.23 31.8203 281.91 32.0156C281.59 32.2109 281.328 32.4844 281.125 32.8359C280.93 33.1875 280.781 33.6016 280.68 34.0781C280.586 34.5469 280.539 35.0625 280.539 35.625V36.0938C280.539 36.6016 280.609 37.0703 280.75 37.5C280.898 37.9297 281.105 38.3008 281.371 38.6133C281.645 38.9258 281.973 39.168 282.355 39.3398C282.746 39.5117 283.188 39.5977 283.68 39.5977C284.289 39.5977 284.855 39.4805 285.379 39.2461C285.91 39.0039 286.367 38.6406 286.75 38.1562L288.391 39.9375C288.125 40.3203 287.762 40.6875 287.301 41.0391C286.848 41.3906 286.301 41.6797 285.66 41.9062C285.02 42.125 284.289 42.2344 283.469 42.2344ZM297.449 38.4961C297.449 38.2539 297.379 38.0352 297.238 37.8398C297.098 37.6445 296.836 37.4648 296.453 37.3008C296.078 37.1289 295.535 36.9727 294.824 36.832C294.184 36.6914 293.586 36.5156 293.031 36.3047C292.484 36.0859 292.008 35.8242 291.602 35.5195C291.203 35.2148 290.891 34.8555 290.664 34.4414C290.438 34.0195 290.324 33.5391 290.324 33C290.324 32.4688 290.438 31.9688 290.664 31.5C290.898 31.0312 291.23 30.6172 291.66 30.2578C292.098 29.8906 292.629 29.6055 293.254 29.4023C293.887 29.1914 294.598 29.0859 295.387 29.0859C296.488 29.0859 297.434 29.2617 298.223 29.6133C299.02 29.9648 299.629 30.4492 300.051 31.0664C300.48 31.6758 300.695 32.3711 300.695 33.1523H297.32C297.32 32.8242 297.25 32.5312 297.109 32.2734C296.977 32.0078 296.766 31.8008 296.477 31.6523C296.195 31.4961 295.828 31.418 295.375 31.418C295 31.418 294.676 31.4844 294.402 31.6172C294.129 31.7422 293.918 31.9141 293.77 32.1328C293.629 32.3438 293.559 32.5781 293.559 32.8359C293.559 33.0312 293.598 33.207 293.676 33.3633C293.762 33.5117 293.898 33.6484 294.086 33.7734C294.273 33.8984 294.516 34.0156 294.812 34.125C295.117 34.2266 295.492 34.3203 295.938 34.4062C296.852 34.5938 297.668 34.8398 298.387 35.1445C299.105 35.4414 299.676 35.8477 300.098 36.3633C300.52 36.8711 300.73 37.5391 300.73 38.3672C300.73 38.9297 300.605 39.4453 300.355 39.9141C300.105 40.3828 299.746 40.793 299.277 41.1445C298.809 41.4883 298.246 41.7578 297.59 41.9531C296.941 42.1406 296.211 42.2344 295.398 42.2344C294.219 42.2344 293.219 42.0234 292.398 41.6016C291.586 41.1797 290.969 40.6445 290.547 39.9961C290.133 39.3398 289.926 38.668 289.926 37.9805H293.125C293.141 38.4414 293.258 38.8125 293.477 39.0938C293.703 39.375 293.988 39.5781 294.332 39.7031C294.684 39.8281 295.062 39.8906 295.469 39.8906C295.906 39.8906 296.27 39.832 296.559 39.7148C296.848 39.5898 297.066 39.4258 297.215 39.2227C297.371 39.0117 297.449 38.7695 297.449 38.4961ZM314.734 42.2344C313.75 42.2344 312.867 42.0781 312.086 41.7656C311.305 41.4453 310.641 41.0039 310.094 40.4414C309.555 39.8789 309.141 39.2266 308.852 38.4844C308.562 37.7344 308.418 36.9375 308.418 36.0938V35.625C308.418 34.6641 308.555 33.7852 308.828 32.9883C309.102 32.1914 309.492 31.5 310 30.9141C310.516 30.3281 311.141 29.8789 311.875 29.5664C312.609 29.2461 313.438 29.0859 314.359 29.0859C315.258 29.0859 316.055 29.2344 316.75 29.5312C317.445 29.8281 318.027 30.25 318.496 30.7969C318.973 31.3438 319.332 32 319.574 32.7656C319.816 33.5234 319.938 34.3672 319.938 35.2969V36.7031H309.859V34.4531H316.621V34.1953C316.621 33.7266 316.535 33.3086 316.363 32.9414C316.199 32.5664 315.949 32.2695 315.613 32.0508C315.277 31.832 314.848 31.7227 314.324 31.7227C313.879 31.7227 313.496 31.8203 313.176 32.0156C312.855 32.2109 312.594 32.4844 312.391 32.8359C312.195 33.1875 312.047 33.6016 311.945 34.0781C311.852 34.5469 311.805 35.0625 311.805 35.625V36.0938C311.805 36.6016 311.875 37.0703 312.016 37.5C312.164 37.9297 312.371 38.3008 312.637 38.6133C312.91 38.9258 313.238 39.168 313.621 39.3398C314.012 39.5117 314.453 39.5977 314.945 39.5977C315.555 39.5977 316.121 39.4805 316.645 39.2461C317.176 39.0039 317.633 38.6406 318.016 38.1562L319.656 39.9375C319.391 40.3203 319.027 40.6875 318.566 41.0391C318.113 41.3906 317.566 41.6797 316.926 41.9062C316.285 42.125 315.555 42.2344 314.734 42.2344ZM312.355 27.5977L314.652 23.9883H318.32L315.098 27.5977H312.355ZM328.07 29.3203V31.7109H320.688V29.3203H328.07ZM322.516 26.1914H325.891V38.1797C325.891 38.5469 325.938 38.8281 326.031 39.0234C326.133 39.2188 326.281 39.3555 326.477 39.4336C326.672 39.5039 326.918 39.5391 327.215 39.5391C327.426 39.5391 327.613 39.5312 327.777 39.5156C327.949 39.4922 328.094 39.4688 328.211 39.4453L328.223 41.9297C327.934 42.0234 327.621 42.0977 327.285 42.1523C326.949 42.207 326.578 42.2344 326.172 42.2344C325.43 42.2344 324.781 42.1133 324.227 41.8711C323.68 41.6211 323.258 41.2227 322.961 40.6758C322.664 40.1289 322.516 39.4102 322.516 38.5195V26.1914ZM336.836 39.1406V33.4922C336.836 33.0859 336.77 32.7383 336.637 32.4492C336.504 32.1523 336.297 31.9219 336.016 31.7578C335.742 31.5938 335.387 31.5117 334.949 31.5117C334.574 31.5117 334.25 31.5781 333.977 31.7109C333.703 31.8359 333.492 32.0195 333.344 32.2617C333.195 32.4961 333.121 32.7734 333.121 33.0938H329.746C329.746 32.5547 329.871 32.043 330.121 31.5586C330.371 31.0742 330.734 30.6484 331.211 30.2812C331.688 29.9062 332.254 29.6133 332.91 29.4023C333.574 29.1914 334.316 29.0859 335.137 29.0859C336.121 29.0859 336.996 29.25 337.762 29.5781C338.527 29.9062 339.129 30.3984 339.566 31.0547C340.012 31.7109 340.234 32.5312 340.234 33.5156V38.9414C340.234 39.6367 340.277 40.207 340.363 40.6523C340.449 41.0898 340.574 41.4727 340.738 41.8008V42H337.328C337.164 41.6562 337.039 41.2266 336.953 40.7109C336.875 40.1875 336.836 39.6641 336.836 39.1406ZM337.281 34.2773L337.305 36.1875H335.418C334.973 36.1875 334.586 36.2383 334.258 36.3398C333.93 36.4414 333.66 36.5859 333.449 36.7734C333.238 36.9531 333.082 37.1641 332.98 37.4062C332.887 37.6484 332.84 37.9141 332.84 38.2031C332.84 38.4922 332.906 38.7539 333.039 38.9883C333.172 39.2148 333.363 39.3945 333.613 39.5273C333.863 39.6523 334.156 39.7148 334.492 39.7148C335 39.7148 335.441 39.6133 335.816 39.4102C336.191 39.207 336.48 38.957 336.684 38.6602C336.895 38.3633 337.004 38.082 337.012 37.8164L337.902 39.2461C337.777 39.5664 337.605 39.8984 337.387 40.2422C337.176 40.5859 336.906 40.9102 336.578 41.2148C336.25 41.5117 335.855 41.7578 335.395 41.9531C334.934 42.1406 334.387 42.2344 333.754 42.2344C332.949 42.2344 332.219 42.0742 331.562 41.7539C330.914 41.4258 330.398 40.9766 330.016 40.4062C329.641 39.8281 329.453 39.1719 329.453 38.4375C329.453 37.7734 329.578 37.1836 329.828 36.668C330.078 36.1523 330.445 35.7188 330.93 35.3672C331.422 35.0078 332.035 34.7383 332.77 34.5586C333.504 34.3711 334.355 34.2773 335.324 34.2773H337.281ZM342.836 24H346.211V39.0938L345.871 42H342.836V24ZM354.238 35.5312V35.7773C354.238 36.7227 354.137 37.5898 353.934 38.3789C353.738 39.168 353.434 39.8516 353.02 40.4297C352.605 41 352.09 41.4453 351.473 41.7656C350.863 42.0781 350.145 42.2344 349.316 42.2344C348.543 42.2344 347.871 42.0781 347.301 41.7656C346.738 41.4531 346.266 41.0117 345.883 40.4414C345.5 39.8711 345.191 39.2031 344.957 38.4375C344.723 37.6719 344.547 36.8359 344.43 35.9297V35.3906C344.547 34.4844 344.723 33.6484 344.957 32.8828C345.191 32.1172 345.5 31.4492 345.883 30.8789C346.266 30.3086 346.738 29.8672 347.301 29.5547C347.863 29.2422 348.527 29.0859 349.293 29.0859C350.129 29.0859 350.855 29.2461 351.473 29.5664C352.098 29.8789 352.613 30.3242 353.02 30.9023C353.434 31.4727 353.738 32.1523 353.934 32.9414C354.137 33.7227 354.238 34.5859 354.238 35.5312ZM350.863 35.7773V35.5312C350.863 35.0156 350.824 34.5312 350.746 34.0781C350.676 33.6172 350.551 33.2148 350.371 32.8711C350.191 32.5195 349.945 32.2422 349.633 32.0391C349.328 31.8359 348.934 31.7344 348.449 31.7344C347.988 31.7344 347.598 31.8125 347.277 31.9688C346.957 32.125 346.691 32.3438 346.48 32.625C346.277 32.9062 346.125 33.2422 346.023 33.6328C345.922 34.0156 345.859 34.4375 345.836 34.8984V36.4336C345.859 37.0508 345.961 37.5977 346.141 38.0742C346.328 38.543 346.609 38.9141 346.984 39.1875C347.367 39.4531 347.863 39.5859 348.473 39.5859C348.949 39.5859 349.344 39.4922 349.656 39.3047C349.969 39.1172 350.211 38.8516 350.383 38.5078C350.562 38.1641 350.688 37.7617 350.758 37.3008C350.828 36.832 350.863 36.3242 350.863 35.7773ZM359.898 24V42H356.512V24H359.898ZM366.25 29.3203V42H362.863V29.3203H366.25ZM362.652 26.0156C362.652 25.5234 362.824 25.1172 363.168 24.7969C363.512 24.4766 363.973 24.3164 364.551 24.3164C365.121 24.3164 365.578 24.4766 365.922 24.7969C366.273 25.1172 366.449 25.5234 366.449 26.0156C366.449 26.5078 366.273 26.9141 365.922 27.2344C365.578 27.5547 365.121 27.7148 364.551 27.7148C363.973 27.7148 363.512 27.5547 363.168 27.2344C362.824 26.9141 362.652 26.5078 362.652 26.0156ZM375.895 38.4961C375.895 38.2539 375.824 38.0352 375.684 37.8398C375.543 37.6445 375.281 37.4648 374.898 37.3008C374.523 37.1289 373.98 36.9727 373.27 36.832C372.629 36.6914 372.031 36.5156 371.477 36.3047C370.93 36.0859 370.453 35.8242 370.047 35.5195C369.648 35.2148 369.336 34.8555 369.109 34.4414C368.883 34.0195 368.77 33.5391 368.77 33C368.77 32.4688 368.883 31.9688 369.109 31.5C369.344 31.0312 369.676 30.6172 370.105 30.2578C370.543 29.8906 371.074 29.6055 371.699 29.4023C372.332 29.1914 373.043 29.0859 373.832 29.0859C374.934 29.0859 375.879 29.2617 376.668 29.6133C377.465 29.9648 378.074 30.4492 378.496 31.0664C378.926 31.6758 379.141 32.3711 379.141 33.1523H375.766C375.766 32.8242 375.695 32.5312 375.555 32.2734C375.422 32.0078 375.211 31.8008 374.922 31.6523C374.641 31.4961 374.273 31.418 373.82 31.418C373.445 31.418 373.121 31.4844 372.848 31.6172C372.574 31.7422 372.363 31.9141 372.215 32.1328C372.074 32.3438 372.004 32.5781 372.004 32.8359C372.004 33.0312 372.043 33.207 372.121 33.3633C372.207 33.5117 372.344 33.6484 372.531 33.7734C372.719 33.8984 372.961 34.0156 373.258 34.125C373.562 34.2266 373.938 34.3203 374.383 34.4062C375.297 34.5938 376.113 34.8398 376.832 35.1445C377.551 35.4414 378.121 35.8477 378.543 36.3633C378.965 36.8711 379.176 37.5391 379.176 38.3672C379.176 38.9297 379.051 39.4453 378.801 39.9141C378.551 40.3828 378.191 40.793 377.723 41.1445C377.254 41.4883 376.691 41.7578 376.035 41.9531C375.387 42.1406 374.656 42.2344 373.844 42.2344C372.664 42.2344 371.664 42.0234 370.844 41.6016C370.031 41.1797 369.414 40.6445 368.992 39.9961C368.578 39.3398 368.371 38.668 368.371 37.9805H371.57C371.586 38.4414 371.703 38.8125 371.922 39.0938C372.148 39.375 372.434 39.5781 372.777 39.7031C373.129 39.8281 373.508 39.8906 373.914 39.8906C374.352 39.8906 374.715 39.832 375.004 39.7148C375.293 39.5898 375.512 39.4258 375.66 39.2227C375.816 39.0117 375.895 38.7695 375.895 38.4961ZM388.223 38.4961C388.223 38.2539 388.152 38.0352 388.012 37.8398C387.871 37.6445 387.609 37.4648 387.227 37.3008C386.852 37.1289 386.309 36.9727 385.598 36.832C384.957 36.6914 384.359 36.5156 383.805 36.3047C383.258 36.0859 382.781 35.8242 382.375 35.5195C381.977 35.2148 381.664 34.8555 381.438 34.4414C381.211 34.0195 381.098 33.5391 381.098 33C381.098 32.4688 381.211 31.9688 381.438 31.5C381.672 31.0312 382.004 30.6172 382.434 30.2578C382.871 29.8906 383.402 29.6055 384.027 29.4023C384.66 29.1914 385.371 29.0859 386.16 29.0859C387.262 29.0859 388.207 29.2617 388.996 29.6133C389.793 29.9648 390.402 30.4492 390.824 31.0664C391.254 31.6758 391.469 32.3711 391.469 33.1523H388.094C388.094 32.8242 388.023 32.5312 387.883 32.2734C387.75 32.0078 387.539 31.8008 387.25 31.6523C386.969 31.4961 386.602 31.418 386.148 31.418C385.773 31.418 385.449 31.4844 385.176 31.6172C384.902 31.7422 384.691 31.9141 384.543 32.1328C384.402 32.3438 384.332 32.5781 384.332 32.8359C384.332 33.0312 384.371 33.207 384.449 33.3633C384.535 33.5117 384.672 33.6484 384.859 33.7734C385.047 33.8984 385.289 34.0156 385.586 34.125C385.891 34.2266 386.266 34.3203 386.711 34.4062C387.625 34.5938 388.441 34.8398 389.16 35.1445C389.879 35.4414 390.449 35.8477 390.871 36.3633C391.293 36.8711 391.504 37.5391 391.504 38.3672C391.504 38.9297 391.379 39.4453 391.129 39.9141C390.879 40.3828 390.52 40.793 390.051 41.1445C389.582 41.4883 389.02 41.7578 388.363 41.9531C387.715 42.1406 386.984 42.2344 386.172 42.2344C384.992 42.2344 383.992 42.0234 383.172 41.6016C382.359 41.1797 381.742 40.6445 381.32 39.9961C380.906 39.3398 380.699 38.668 380.699 37.9805H383.898C383.914 38.4414 384.031 38.8125 384.25 39.0938C384.477 39.375 384.762 39.5781 385.105 39.7031C385.457 39.8281 385.836 39.8906 386.242 39.8906C386.68 39.8906 387.043 39.832 387.332 39.7148C387.621 39.5898 387.84 39.4258 387.988 39.2227C388.145 39.0117 388.223 38.7695 388.223 38.4961ZM399.531 42.2344C398.547 42.2344 397.664 42.0781 396.883 41.7656C396.102 41.4453 395.438 41.0039 394.891 40.4414C394.352 39.8789 393.938 39.2266 393.648 38.4844C393.359 37.7344 393.215 36.9375 393.215 36.0938V35.625C393.215 34.6641 393.352 33.7852 393.625 32.9883C393.898 32.1914 394.289 31.5 394.797 30.9141C395.312 30.3281 395.938 29.8789 396.672 29.5664C397.406 29.2461 398.234 29.0859 399.156 29.0859C400.055 29.0859 400.852 29.2344 401.547 29.5312C402.242 29.8281 402.824 30.25 403.293 30.7969C403.77 31.3438 404.129 32 404.371 32.7656C404.613 33.5234 404.734 34.3672 404.734 35.2969V36.7031H394.656V34.4531H401.418V34.1953C401.418 33.7266 401.332 33.3086 401.16 32.9414C400.996 32.5664 400.746 32.2695 400.41 32.0508C400.074 31.832 399.645 31.7227 399.121 31.7227C398.676 31.7227 398.293 31.8203 397.973 32.0156C397.652 32.2109 397.391 32.4844 397.188 32.8359C396.992 33.1875 396.844 33.6016 396.742 34.0781C396.648 34.5469 396.602 35.0625 396.602 35.625V36.0938C396.602 36.6016 396.672 37.0703 396.812 37.5C396.961 37.9297 397.168 38.3008 397.434 38.6133C397.707 38.9258 398.035 39.168 398.418 39.3398C398.809 39.5117 399.25 39.5977 399.742 39.5977C400.352 39.5977 400.918 39.4805 401.441 39.2461C401.973 39.0039 402.43 38.6406 402.812 38.1562L404.453 39.9375C404.188 40.3203 403.824 40.6875 403.363 41.0391C402.91 41.3906 402.363 41.6797 401.723 41.9062C401.082 42.125 400.352 42.2344 399.531 42.2344ZM410.031 31.9453V42H406.645V29.3203H409.82L410.031 31.9453ZM409.562 35.2148H408.625C408.625 34.332 408.73 33.5195 408.941 32.7773C409.16 32.0273 409.477 31.3789 409.891 30.832C410.312 30.2773 410.832 29.8477 411.449 29.543C412.066 29.2383 412.781 29.0859 413.594 29.0859C414.156 29.0859 414.672 29.1719 415.141 29.3438C415.609 29.5078 416.012 29.7695 416.348 30.1289C416.691 30.4805 416.957 30.9414 417.145 31.5117C417.332 32.0742 417.426 32.75 417.426 33.5391V42H414.051V33.9141C414.051 33.3359 413.973 32.8906 413.816 32.5781C413.66 32.2656 413.438 32.0469 413.148 31.9219C412.867 31.7969 412.527 31.7344 412.129 31.7344C411.691 31.7344 411.309 31.8242 410.98 32.0039C410.66 32.1836 410.395 32.4336 410.184 32.7539C409.973 33.0664 409.816 33.4336 409.715 33.8555C409.613 34.2773 409.562 34.7305 409.562 35.2148ZM417.109 34.8281L415.902 34.9805C415.902 34.1523 416.004 33.3828 416.207 32.6719C416.418 31.9609 416.727 31.3359 417.133 30.7969C417.547 30.2578 418.059 29.8398 418.668 29.543C419.277 29.2383 419.98 29.0859 420.777 29.0859C421.387 29.0859 421.941 29.1758 422.441 29.3555C422.941 29.5273 423.367 29.8047 423.719 30.1875C424.078 30.5625 424.352 31.0547 424.539 31.6641C424.734 32.2734 424.832 33.0195 424.832 33.9023V42H421.445V33.9023C421.445 33.3164 421.367 32.8711 421.211 32.5664C421.062 32.2539 420.844 32.0391 420.555 31.9219C420.273 31.7969 419.938 31.7344 419.547 31.7344C419.141 31.7344 418.785 31.8164 418.48 31.9805C418.176 32.1367 417.922 32.3555 417.719 32.6367C417.516 32.918 417.363 33.2461 417.262 33.6211C417.16 33.9883 417.109 34.3906 417.109 34.8281ZM433.281 42.2344C432.297 42.2344 431.414 42.0781 430.633 41.7656C429.852 41.4453 429.188 41.0039 428.641 40.4414C428.102 39.8789 427.688 39.2266 427.398 38.4844C427.109 37.7344 426.965 36.9375 426.965 36.0938V35.625C426.965 34.6641 427.102 33.7852 427.375 32.9883C427.648 32.1914 428.039 31.5 428.547 30.9141C429.062 30.3281 429.688 29.8789 430.422 29.5664C431.156 29.2461 431.984 29.0859 432.906 29.0859C433.805 29.0859 434.602 29.2344 435.297 29.5312C435.992 29.8281 436.574 30.25 437.043 30.7969C437.52 31.3438 437.879 32 438.121 32.7656C438.363 33.5234 438.484 34.3672 438.484 35.2969V36.7031H428.406V34.4531H435.168V34.1953C435.168 33.7266 435.082 33.3086 434.91 32.9414C434.746 32.5664 434.496 32.2695 434.16 32.0508C433.824 31.832 433.395 31.7227 432.871 31.7227C432.426 31.7227 432.043 31.8203 431.723 32.0156C431.402 32.2109 431.141 32.4844 430.938 32.8359C430.742 33.1875 430.594 33.6016 430.492 34.0781C430.398 34.5469 430.352 35.0625 430.352 35.625V36.0938C430.352 36.6016 430.422 37.0703 430.562 37.5C430.711 37.9297 430.918 38.3008 431.184 38.6133C431.457 38.9258 431.785 39.168 432.168 39.3398C432.559 39.5117 433 39.5977 433.492 39.5977C434.102 39.5977 434.668 39.4805 435.191 39.2461C435.723 39.0039 436.18 38.6406 436.562 38.1562L438.203 39.9375C437.938 40.3203 437.574 40.6875 437.113 41.0391C436.66 41.3906 436.113 41.6797 435.473 41.9062C434.832 42.125 434.102 42.2344 433.281 42.2344ZM443.711 32.0273V42H440.336V29.3203H443.5L443.711 32.0273ZM443.219 35.2148H442.305C442.305 34.2773 442.426 33.4336 442.668 32.6836C442.91 31.9258 443.25 31.2812 443.688 30.75C444.125 30.2109 444.645 29.8008 445.246 29.5195C445.855 29.2305 446.535 29.0859 447.285 29.0859C447.879 29.0859 448.422 29.1719 448.914 29.3438C449.406 29.5156 449.828 29.7891 450.18 30.1641C450.539 30.5391 450.812 31.0352 451 31.6523C451.195 32.2695 451.293 33.0234 451.293 33.9141V42H447.895V33.9023C447.895 33.3398 447.816 32.9023 447.66 32.5898C447.504 32.2773 447.273 32.0586 446.969 31.9336C446.672 31.8008 446.305 31.7344 445.867 31.7344C445.414 31.7344 445.02 31.8242 444.684 32.0039C444.355 32.1836 444.082 32.4336 443.863 32.7539C443.652 33.0664 443.492 33.4336 443.383 33.8555C443.273 34.2773 443.219 34.7305 443.219 35.2148ZM460.07 29.3203V31.7109H452.688V29.3203H460.07ZM454.516 26.1914H457.891V38.1797C457.891 38.5469 457.938 38.8281 458.031 39.0234C458.133 39.2188 458.281 39.3555 458.477 39.4336C458.672 39.5039 458.918 39.5391 459.215 39.5391C459.426 39.5391 459.613 39.5312 459.777 39.5156C459.949 39.4922 460.094 39.4688 460.211 39.4453L460.223 41.9297C459.934 42.0234 459.621 42.0977 459.285 42.1523C458.949 42.207 458.578 42.2344 458.172 42.2344C457.43 42.2344 456.781 42.1133 456.227 41.8711C455.68 41.6211 455.258 41.2227 454.961 40.6758C454.664 40.1289 454.516 39.4102 454.516 38.5195V26.1914ZM468.848 38.4961C468.848 38.2539 468.777 38.0352 468.637 37.8398C468.496 37.6445 468.234 37.4648 467.852 37.3008C467.477 37.1289 466.934 36.9727 466.223 36.832C465.582 36.6914 464.984 36.5156 464.43 36.3047C463.883 36.0859 463.406 35.8242 463 35.5195C462.602 35.2148 462.289 34.8555 462.062 34.4414C461.836 34.0195 461.723 33.5391 461.723 33C461.723 32.4688 461.836 31.9688 462.062 31.5C462.297 31.0312 462.629 30.6172 463.059 30.2578C463.496 29.8906 464.027 29.6055 464.652 29.4023C465.285 29.1914 465.996 29.0859 466.785 29.0859C467.887 29.0859 468.832 29.2617 469.621 29.6133C470.418 29.9648 471.027 30.4492 471.449 31.0664C471.879 31.6758 472.094 32.3711 472.094 33.1523H468.719C468.719 32.8242 468.648 32.5312 468.508 32.2734C468.375 32.0078 468.164 31.8008 467.875 31.6523C467.594 31.4961 467.227 31.418 466.773 31.418C466.398 31.418 466.074 31.4844 465.801 31.6172C465.527 31.7422 465.316 31.9141 465.168 32.1328C465.027 32.3438 464.957 32.5781 464.957 32.8359C464.957 33.0312 464.996 33.207 465.074 33.3633C465.16 33.5117 465.297 33.6484 465.484 33.7734C465.672 33.8984 465.914 34.0156 466.211 34.125C466.516 34.2266 466.891 34.3203 467.336 34.4062C468.25 34.5938 469.066 34.8398 469.785 35.1445C470.504 35.4414 471.074 35.8477 471.496 36.3633C471.918 36.8711 472.129 37.5391 472.129 38.3672C472.129 38.9297 472.004 39.4453 471.754 39.9141C471.504 40.3828 471.145 40.793 470.676 41.1445C470.207 41.4883 469.645 41.7578 468.988 41.9531C468.34 42.1406 467.609 42.2344 466.797 42.2344C465.617 42.2344 464.617 42.0234 463.797 41.6016C462.984 41.1797 462.367 40.6445 461.945 39.9961C461.531 39.3398 461.324 38.668 461.324 37.9805H464.523C464.539 38.4414 464.656 38.8125 464.875 39.0938C465.102 39.375 465.387 39.5781 465.73 39.7031C466.082 39.8281 466.461 39.8906 466.867 39.8906C467.305 39.8906 467.668 39.832 467.957 39.7148C468.246 39.5898 468.465 39.4258 468.613 39.2227C468.77 39.0117 468.848 38.7695 468.848 38.4961ZM153.801 67.2344V52H157.199V70H154.141L153.801 67.2344ZM145.785 63.8125V63.5664C145.785 62.5977 145.895 61.7188 146.113 60.9297C146.332 60.1328 146.652 59.4492 147.074 58.8789C147.496 58.3086 148.016 57.8672 148.633 57.5547C149.25 57.2422 149.953 57.0859 150.742 57.0859C151.484 57.0859 152.133 57.2422 152.688 57.5547C153.25 57.8672 153.727 58.3125 154.117 58.8906C154.516 59.4609 154.836 60.1367 155.078 60.918C155.32 61.6914 155.496 62.5391 155.605 63.4609V64C155.496 64.8828 155.32 65.7031 155.078 66.4609C154.836 67.2188 154.516 67.8828 154.117 68.4531C153.727 69.0156 153.25 69.4531 152.688 69.7656C152.125 70.0781 151.469 70.2344 150.719 70.2344C149.93 70.2344 149.227 70.0742 148.609 69.7539C148 69.4336 147.484 68.9844 147.062 68.4062C146.648 67.8281 146.332 67.1484 146.113 66.3672C145.895 65.5859 145.785 64.7344 145.785 63.8125ZM149.16 63.5664V63.8125C149.16 64.3359 149.199 64.8242 149.277 65.2773C149.363 65.7305 149.5 66.1328 149.688 66.4844C149.883 66.8281 150.133 67.0977 150.438 67.293C150.75 67.4805 151.129 67.5742 151.574 67.5742C152.152 67.5742 152.629 67.4453 153.004 67.1875C153.379 66.9219 153.664 66.5586 153.859 66.0977C154.062 65.6367 154.18 65.1055 154.211 64.5039V62.9688C154.188 62.4766 154.117 62.0352 154 61.6445C153.891 61.2461 153.727 60.9062 153.508 60.625C153.297 60.3438 153.031 60.125 152.711 59.9688C152.398 59.8125 152.027 59.7344 151.598 59.7344C151.16 59.7344 150.785 59.8359 150.473 60.0391C150.16 60.2344 149.906 60.5039 149.711 60.8477C149.523 61.1914 149.383 61.5977 149.289 62.0664C149.203 62.5273 149.16 63.0273 149.16 63.5664ZM161.734 52V53.6992L161.395 58.375H159.262L159.273 53.875V52H161.734ZM168.836 70.2344C167.852 70.2344 166.969 70.0781 166.188 69.7656C165.406 69.4453 164.742 69.0039 164.195 68.4414C163.656 67.8789 163.242 67.2266 162.953 66.4844C162.664 65.7344 162.52 64.9375 162.52 64.0938V63.625C162.52 62.6641 162.656 61.7852 162.93 60.9883C163.203 60.1914 163.594 59.5 164.102 58.9141C164.617 58.3281 165.242 57.8789 165.977 57.5664C166.711 57.2461 167.539 57.0859 168.461 57.0859C169.359 57.0859 170.156 57.2344 170.852 57.5312C171.547 57.8281 172.129 58.25 172.598 58.7969C173.074 59.3438 173.434 60 173.676 60.7656C173.918 61.5234 174.039 62.3672 174.039 63.2969V64.7031H163.961V62.4531H170.723V62.1953C170.723 61.7266 170.637 61.3086 170.465 60.9414C170.301 60.5664 170.051 60.2695 169.715 60.0508C169.379 59.832 168.949 59.7227 168.426 59.7227C167.98 59.7227 167.598 59.8203 167.277 60.0156C166.957 60.2109 166.695 60.4844 166.492 60.8359C166.297 61.1875 166.148 61.6016 166.047 62.0781C165.953 62.5469 165.906 63.0625 165.906 63.625V64.0938C165.906 64.6016 165.977 65.0703 166.117 65.5C166.266 65.9297 166.473 66.3008 166.738 66.6133C167.012 66.9258 167.34 67.168 167.723 67.3398C168.113 67.5117 168.555 67.5977 169.047 67.5977C169.656 67.5977 170.223 67.4805 170.746 67.2461C171.277 67.0039 171.734 66.6406 172.117 66.1562L173.758 67.9375C173.492 68.3203 173.129 68.6875 172.668 69.0391C172.215 69.3906 171.668 69.6797 171.027 69.9062C170.387 70.125 169.656 70.2344 168.836 70.2344ZM179.266 60.0273V70H175.891V57.3203H179.055L179.266 60.0273ZM178.773 63.2148H177.859C177.859 62.2773 177.98 61.4336 178.223 60.6836C178.465 59.9258 178.805 59.2812 179.242 58.75C179.68 58.2109 180.199 57.8008 180.801 57.5195C181.41 57.2305 182.09 57.0859 182.84 57.0859C183.434 57.0859 183.977 57.1719 184.469 57.3438C184.961 57.5156 185.383 57.7891 185.734 58.1641C186.094 58.5391 186.367 59.0352 186.555 59.6523C186.75 60.2695 186.848 61.0234 186.848 61.9141V70H183.449V61.9023C183.449 61.3398 183.371 60.9023 183.215 60.5898C183.059 60.2773 182.828 60.0586 182.523 59.9336C182.227 59.8008 181.859 59.7344 181.422 59.7344C180.969 59.7344 180.574 59.8242 180.238 60.0039C179.91 60.1836 179.637 60.4336 179.418 60.7539C179.207 61.0664 179.047 61.4336 178.938 61.8555C178.828 62.2773 178.773 62.7305 178.773 63.2148ZM196.27 66.4961C196.27 66.2539 196.199 66.0352 196.059 65.8398C195.918 65.6445 195.656 65.4648 195.273 65.3008C194.898 65.1289 194.355 64.9727 193.645 64.832C193.004 64.6914 192.406 64.5156 191.852 64.3047C191.305 64.0859 190.828 63.8242 190.422 63.5195C190.023 63.2148 189.711 62.8555 189.484 62.4414C189.258 62.0195 189.145 61.5391 189.145 61C189.145 60.4688 189.258 59.9688 189.484 59.5C189.719 59.0312 190.051 58.6172 190.48 58.2578C190.918 57.8906 191.449 57.6055 192.074 57.4023C192.707 57.1914 193.418 57.0859 194.207 57.0859C195.309 57.0859 196.254 57.2617 197.043 57.6133C197.84 57.9648 198.449 58.4492 198.871 59.0664C199.301 59.6758 199.516 60.3711 199.516 61.1523H196.141C196.141 60.8242 196.07 60.5312 195.93 60.2734C195.797 60.0078 195.586 59.8008 195.297 59.6523C195.016 59.4961 194.648 59.418 194.195 59.418C193.82 59.418 193.496 59.4844 193.223 59.6172C192.949 59.7422 192.738 59.9141 192.59 60.1328C192.449 60.3438 192.379 60.5781 192.379 60.8359C192.379 61.0312 192.418 61.207 192.496 61.3633C192.582 61.5117 192.719 61.6484 192.906 61.7734C193.094 61.8984 193.336 62.0156 193.633 62.125C193.938 62.2266 194.312 62.3203 194.758 62.4062C195.672 62.5938 196.488 62.8398 197.207 63.1445C197.926 63.4414 198.496 63.8477 198.918 64.3633C199.34 64.8711 199.551 65.5391 199.551 66.3672C199.551 66.9297 199.426 67.4453 199.176 67.9141C198.926 68.3828 198.566 68.793 198.098 69.1445C197.629 69.4883 197.066 69.7578 196.41 69.9531C195.762 70.1406 195.031 70.2344 194.219 70.2344C193.039 70.2344 192.039 70.0234 191.219 69.6016C190.406 69.1797 189.789 68.6445 189.367 67.9961C188.953 67.3398 188.746 66.668 188.746 65.9805H191.945C191.961 66.4414 192.078 66.8125 192.297 67.0938C192.523 67.375 192.809 67.5781 193.152 67.7031C193.504 67.8281 193.883 67.8906 194.289 67.8906C194.727 67.8906 195.09 67.832 195.379 67.7148C195.668 67.5898 195.887 67.4258 196.035 67.2227C196.191 67.0117 196.27 66.7695 196.27 66.4961ZM207.578 70.2344C206.594 70.2344 205.711 70.0781 204.93 69.7656C204.148 69.4453 203.484 69.0039 202.938 68.4414C202.398 67.8789 201.984 67.2266 201.695 66.4844C201.406 65.7344 201.262 64.9375 201.262 64.0938V63.625C201.262 62.6641 201.398 61.7852 201.672 60.9883C201.945 60.1914 202.336 59.5 202.844 58.9141C203.359 58.3281 203.984 57.8789 204.719 57.5664C205.453 57.2461 206.281 57.0859 207.203 57.0859C208.102 57.0859 208.898 57.2344 209.594 57.5312C210.289 57.8281 210.871 58.25 211.34 58.7969C211.816 59.3438 212.176 60 212.418 60.7656C212.66 61.5234 212.781 62.3672 212.781 63.2969V64.7031H202.703V62.4531H209.465V62.1953C209.465 61.7266 209.379 61.3086 209.207 60.9414C209.043 60.5664 208.793 60.2695 208.457 60.0508C208.121 59.832 207.691 59.7227 207.168 59.7227C206.723 59.7227 206.34 59.8203 206.02 60.0156C205.699 60.2109 205.438 60.4844 205.234 60.8359C205.039 61.1875 204.891 61.6016 204.789 62.0781C204.695 62.5469 204.648 63.0625 204.648 63.625V64.0938C204.648 64.6016 204.719 65.0703 204.859 65.5C205.008 65.9297 205.215 66.3008 205.48 66.6133C205.754 66.9258 206.082 67.168 206.465 67.3398C206.855 67.5117 207.297 67.5977 207.789 67.5977C208.398 67.5977 208.965 67.4805 209.488 67.2461C210.02 67.0039 210.477 66.6406 210.859 66.1562L212.5 67.9375C212.234 68.3203 211.871 68.6875 211.41 69.0391C210.957 69.3906 210.41 69.6797 209.77 69.9062C209.129 70.125 208.398 70.2344 207.578 70.2344ZM218.266 57.3203V70H214.879V57.3203H218.266ZM214.668 54.0156C214.668 53.5234 214.84 53.1172 215.184 52.7969C215.527 52.4766 215.988 52.3164 216.566 52.3164C217.137 52.3164 217.594 52.4766 217.938 52.7969C218.289 53.1172 218.465 53.5234 218.465 54.0156C218.465 54.5078 218.289 54.9141 217.938 55.2344C217.594 55.5547 217.137 55.7148 216.566 55.7148C215.988 55.7148 215.527 55.5547 215.184 55.2344C214.84 54.9141 214.668 54.5078 214.668 54.0156ZM229.082 57.3203H232.141V69.5781C232.141 70.7344 231.883 71.7148 231.367 72.5195C230.859 73.332 230.148 73.9453 229.234 74.3594C228.32 74.7812 227.258 74.9922 226.047 74.9922C225.516 74.9922 224.953 74.9219 224.359 74.7812C223.773 74.6406 223.211 74.4219 222.672 74.125C222.141 73.8281 221.695 73.4531 221.336 73L222.824 71.0078C223.215 71.4609 223.668 71.8125 224.184 72.0625C224.699 72.3203 225.27 72.4492 225.895 72.4492C226.504 72.4492 227.02 72.3359 227.441 72.1094C227.863 71.8906 228.188 71.5664 228.414 71.1367C228.641 70.7148 228.754 70.2031 228.754 69.6016V60.25L229.082 57.3203ZM220.551 63.8125V63.5664C220.551 62.5977 220.668 61.7188 220.902 60.9297C221.145 60.1328 221.484 59.4492 221.922 58.8789C222.367 58.3086 222.906 57.8672 223.539 57.5547C224.172 57.2422 224.887 57.0859 225.684 57.0859C226.527 57.0859 227.234 57.2422 227.805 57.5547C228.375 57.8672 228.844 58.3125 229.211 58.8906C229.578 59.4609 229.863 60.1367 230.066 60.918C230.277 61.6914 230.441 62.5391 230.559 63.4609V64C230.441 64.8828 230.266 65.7031 230.031 66.4609C229.797 67.2188 229.488 67.8828 229.105 68.4531C228.723 69.0156 228.246 69.4531 227.676 69.7656C227.113 70.0781 226.441 70.2344 225.66 70.2344C224.879 70.2344 224.172 70.0742 223.539 69.7539C222.914 69.4336 222.379 68.9844 221.934 68.4062C221.488 67.8281 221.145 67.1484 220.902 66.3672C220.668 65.5859 220.551 64.7344 220.551 63.8125ZM223.926 63.5664V63.8125C223.926 64.3359 223.977 64.8242 224.078 65.2773C224.18 65.7305 224.336 66.1328 224.547 66.4844C224.766 66.8281 225.035 67.0977 225.355 67.293C225.684 67.4805 226.07 67.5742 226.516 67.5742C227.133 67.5742 227.637 67.4453 228.027 67.1875C228.418 66.9219 228.711 66.5586 228.906 66.0977C229.102 65.6367 229.215 65.1055 229.246 64.5039V62.9688C229.23 62.4766 229.164 62.0352 229.047 61.6445C228.93 61.2461 228.766 60.9062 228.555 60.625C228.344 60.3438 228.07 60.125 227.734 59.9688C227.398 59.8125 227 59.7344 226.539 59.7344C226.094 59.7344 225.707 59.8359 225.379 60.0391C225.059 60.2344 224.789 60.5039 224.57 60.8477C224.359 61.1914 224.199 61.5977 224.09 62.0664C223.98 62.5273 223.926 63.0273 223.926 63.5664ZM238.07 60.0273V70H234.695V57.3203H237.859L238.07 60.0273ZM237.578 63.2148H236.664C236.664 62.2773 236.785 61.4336 237.027 60.6836C237.27 59.9258 237.609 59.2812 238.047 58.75C238.484 58.2109 239.004 57.8008 239.605 57.5195C240.215 57.2305 240.895 57.0859 241.645 57.0859C242.238 57.0859 242.781 57.1719 243.273 57.3438C243.766 57.5156 244.188 57.7891 244.539 58.1641C244.898 58.5391 245.172 59.0352 245.359 59.6523C245.555 60.2695 245.652 61.0234 245.652 61.9141V70H242.254V61.9023C242.254 61.3398 242.176 60.9023 242.02 60.5898C241.863 60.2773 241.633 60.0586 241.328 59.9336C241.031 59.8008 240.664 59.7344 240.227 59.7344C239.773 59.7344 239.379 59.8242 239.043 60.0039C238.715 60.1836 238.441 60.4336 238.223 60.7539C238.012 61.0664 237.852 61.4336 237.742 61.8555C237.633 62.2773 237.578 62.7305 237.578 63.2148ZM254.055 70.2344C253.07 70.2344 252.188 70.0781 251.406 69.7656C250.625 69.4453 249.961 69.0039 249.414 68.4414C248.875 67.8789 248.461 67.2266 248.172 66.4844C247.883 65.7344 247.738 64.9375 247.738 64.0938V63.625C247.738 62.6641 247.875 61.7852 248.148 60.9883C248.422 60.1914 248.812 59.5 249.32 58.9141C249.836 58.3281 250.461 57.8789 251.195 57.5664C251.93 57.2461 252.758 57.0859 253.68 57.0859C254.578 57.0859 255.375 57.2344 256.07 57.5312C256.766 57.8281 257.348 58.25 257.816 58.7969C258.293 59.3438 258.652 60 258.895 60.7656C259.137 61.5234 259.258 62.3672 259.258 63.2969V64.7031H249.18V62.4531H255.941V62.1953C255.941 61.7266 255.855 61.3086 255.684 60.9414C255.52 60.5664 255.27 60.2695 254.934 60.0508C254.598 59.832 254.168 59.7227 253.645 59.7227C253.199 59.7227 252.816 59.8203 252.496 60.0156C252.176 60.2109 251.914 60.4844 251.711 60.8359C251.516 61.1875 251.367 61.6016 251.266 62.0781C251.172 62.5469 251.125 63.0625 251.125 63.625V64.0938C251.125 64.6016 251.195 65.0703 251.336 65.5C251.484 65.9297 251.691 66.3008 251.957 66.6133C252.23 66.9258 252.559 67.168 252.941 67.3398C253.332 67.5117 253.773 67.5977 254.266 67.5977C254.875 67.5977 255.441 67.4805 255.965 67.2461C256.496 67.0039 256.953 66.6406 257.336 66.1562L258.977 67.9375C258.711 68.3203 258.348 68.6875 257.887 69.0391C257.434 69.3906 256.887 69.6797 256.246 69.9062C255.605 70.125 254.875 70.2344 254.055 70.2344ZM264.555 59.9453V70H261.168V57.3203H264.344L264.555 59.9453ZM264.086 63.2148H263.148C263.148 62.332 263.254 61.5195 263.465 60.7773C263.684 60.0273 264 59.3789 264.414 58.832C264.836 58.2773 265.355 57.8477 265.973 57.543C266.59 57.2383 267.305 57.0859 268.117 57.0859C268.68 57.0859 269.195 57.1719 269.664 57.3438C270.133 57.5078 270.535 57.7695 270.871 58.1289C271.215 58.4805 271.48 58.9414 271.668 59.5117C271.855 60.0742 271.949 60.75 271.949 61.5391V70H268.574V61.9141C268.574 61.3359 268.496 60.8906 268.34 60.5781C268.184 60.2656 267.961 60.0469 267.672 59.9219C267.391 59.7969 267.051 59.7344 266.652 59.7344C266.215 59.7344 265.832 59.8242 265.504 60.0039C265.184 60.1836 264.918 60.4336 264.707 60.7539C264.496 61.0664 264.34 61.4336 264.238 61.8555C264.137 62.2773 264.086 62.7305 264.086 63.2148ZM271.633 62.8281L270.426 62.9805C270.426 62.1523 270.527 61.3828 270.73 60.6719C270.941 59.9609 271.25 59.3359 271.656 58.7969C272.07 58.2578 272.582 57.8398 273.191 57.543C273.801 57.2383 274.504 57.0859 275.301 57.0859C275.91 57.0859 276.465 57.1758 276.965 57.3555C277.465 57.5273 277.891 57.8047 278.242 58.1875C278.602 58.5625 278.875 59.0547 279.062 59.6641C279.258 60.2734 279.355 61.0195 279.355 61.9023V70H275.969V61.9023C275.969 61.3164 275.891 60.8711 275.734 60.5664C275.586 60.2539 275.367 60.0391 275.078 59.9219C274.797 59.7969 274.461 59.7344 274.07 59.7344C273.664 59.7344 273.309 59.8164 273.004 59.9805C272.699 60.1367 272.445 60.3555 272.242 60.6367C272.039 60.918 271.887 61.2461 271.785 61.6211C271.684 61.9883 271.633 62.3906 271.633 62.8281ZM287.805 70.2344C286.82 70.2344 285.938 70.0781 285.156 69.7656C284.375 69.4453 283.711 69.0039 283.164 68.4414C282.625 67.8789 282.211 67.2266 281.922 66.4844C281.633 65.7344 281.488 64.9375 281.488 64.0938V63.625C281.488 62.6641 281.625 61.7852 281.898 60.9883C282.172 60.1914 282.562 59.5 283.07 58.9141C283.586 58.3281 284.211 57.8789 284.945 57.5664C285.68 57.2461 286.508 57.0859 287.43 57.0859C288.328 57.0859 289.125 57.2344 289.82 57.5312C290.516 57.8281 291.098 58.25 291.566 58.7969C292.043 59.3438 292.402 60 292.645 60.7656C292.887 61.5234 293.008 62.3672 293.008 63.2969V64.7031H282.93V62.4531H289.691V62.1953C289.691 61.7266 289.605 61.3086 289.434 60.9414C289.27 60.5664 289.02 60.2695 288.684 60.0508C288.348 59.832 287.918 59.7227 287.395 59.7227C286.949 59.7227 286.566 59.8203 286.246 60.0156C285.926 60.2109 285.664 60.4844 285.461 60.8359C285.266 61.1875 285.117 61.6016 285.016 62.0781C284.922 62.5469 284.875 63.0625 284.875 63.625V64.0938C284.875 64.6016 284.945 65.0703 285.086 65.5C285.234 65.9297 285.441 66.3008 285.707 66.6133C285.98 66.9258 286.309 67.168 286.691 67.3398C287.082 67.5117 287.523 67.5977 288.016 67.5977C288.625 67.5977 289.191 67.4805 289.715 67.2461C290.246 67.0039 290.703 66.6406 291.086 66.1562L292.727 67.9375C292.461 68.3203 292.098 68.6875 291.637 69.0391C291.184 69.3906 290.637 69.6797 289.996 69.9062C289.355 70.125 288.625 70.2344 287.805 70.2344ZM298.234 60.0273V70H294.859V57.3203H298.023L298.234 60.0273ZM297.742 63.2148H296.828C296.828 62.2773 296.949 61.4336 297.191 60.6836C297.434 59.9258 297.773 59.2812 298.211 58.75C298.648 58.2109 299.168 57.8008 299.77 57.5195C300.379 57.2305 301.059 57.0859 301.809 57.0859C302.402 57.0859 302.945 57.1719 303.438 57.3438C303.93 57.5156 304.352 57.7891 304.703 58.1641C305.062 58.5391 305.336 59.0352 305.523 59.6523C305.719 60.2695 305.816 61.0234 305.816 61.9141V70H302.418V61.9023C302.418 61.3398 302.34 60.9023 302.184 60.5898C302.027 60.2773 301.797 60.0586 301.492 59.9336C301.195 59.8008 300.828 59.7344 300.391 59.7344C299.938 59.7344 299.543 59.8242 299.207 60.0039C298.879 60.1836 298.605 60.4336 298.387 60.7539C298.176 61.0664 298.016 61.4336 297.906 61.8555C297.797 62.2773 297.742 62.7305 297.742 63.2148ZM314.594 57.3203V59.7109H307.211V57.3203H314.594ZM309.039 54.1914H312.414V66.1797C312.414 66.5469 312.461 66.8281 312.555 67.0234C312.656 67.2188 312.805 67.3555 313 67.4336C313.195 67.5039 313.441 67.5391 313.738 67.5391C313.949 67.5391 314.137 67.5312 314.301 67.5156C314.473 67.4922 314.617 67.4688 314.734 67.4453L314.746 69.9297C314.457 70.0234 314.145 70.0977 313.809 70.1523C313.473 70.207 313.102 70.2344 312.695 70.2344C311.953 70.2344 311.305 70.1133 310.75 69.8711C310.203 69.6211 309.781 69.2227 309.484 68.6758C309.188 68.1289 309.039 67.4102 309.039 66.5195V54.1914ZM329.348 66.4961C329.348 66.2539 329.277 66.0352 329.137 65.8398C328.996 65.6445 328.734 65.4648 328.352 65.3008C327.977 65.1289 327.434 64.9727 326.723 64.832C326.082 64.6914 325.484 64.5156 324.93 64.3047C324.383 64.0859 323.906 63.8242 323.5 63.5195C323.102 63.2148 322.789 62.8555 322.562 62.4414C322.336 62.0195 322.223 61.5391 322.223 61C322.223 60.4688 322.336 59.9688 322.562 59.5C322.797 59.0312 323.129 58.6172 323.559 58.2578C323.996 57.8906 324.527 57.6055 325.152 57.4023C325.785 57.1914 326.496 57.0859 327.285 57.0859C328.387 57.0859 329.332 57.2617 330.121 57.6133C330.918 57.9648 331.527 58.4492 331.949 59.0664C332.379 59.6758 332.594 60.3711 332.594 61.1523H329.219C329.219 60.8242 329.148 60.5312 329.008 60.2734C328.875 60.0078 328.664 59.8008 328.375 59.6523C328.094 59.4961 327.727 59.418 327.273 59.418C326.898 59.418 326.574 59.4844 326.301 59.6172C326.027 59.7422 325.816 59.9141 325.668 60.1328C325.527 60.3438 325.457 60.5781 325.457 60.8359C325.457 61.0312 325.496 61.207 325.574 61.3633C325.66 61.5117 325.797 61.6484 325.984 61.7734C326.172 61.8984 326.414 62.0156 326.711 62.125C327.016 62.2266 327.391 62.3203 327.836 62.4062C328.75 62.5938 329.566 62.8398 330.285 63.1445C331.004 63.4414 331.574 63.8477 331.996 64.3633C332.418 64.8711 332.629 65.5391 332.629 66.3672C332.629 66.9297 332.504 67.4453 332.254 67.9141C332.004 68.3828 331.645 68.793 331.176 69.1445C330.707 69.4883 330.145 69.7578 329.488 69.9531C328.84 70.1406 328.109 70.2344 327.297 70.2344C326.117 70.2344 325.117 70.0234 324.297 69.6016C323.484 69.1797 322.867 68.6445 322.445 67.9961C322.031 67.3398 321.824 66.668 321.824 65.9805H325.023C325.039 66.4414 325.156 66.8125 325.375 67.0938C325.602 67.375 325.887 67.5781 326.23 67.7031C326.582 67.8281 326.961 67.8906 327.367 67.8906C327.805 67.8906 328.168 67.832 328.457 67.7148C328.746 67.5898 328.965 67.4258 329.113 67.2227C329.27 67.0117 329.348 66.7695 329.348 66.4961ZM342.32 66.9648V57.3203H345.695V70H342.52L342.32 66.9648ZM342.695 64.3633L343.691 64.3398C343.691 65.1836 343.594 65.9688 343.398 66.6953C343.203 67.4141 342.91 68.0391 342.52 68.5703C342.129 69.0938 341.637 69.5039 341.043 69.8008C340.449 70.0898 339.75 70.2344 338.945 70.2344C338.328 70.2344 337.758 70.1484 337.234 69.9766C336.719 69.7969 336.273 69.5195 335.898 69.1445C335.531 68.7617 335.242 68.2734 335.031 67.6797C334.828 67.0781 334.727 66.3555 334.727 65.5117V57.3203H338.102V65.5352C338.102 65.9102 338.145 66.2266 338.23 66.4844C338.324 66.7422 338.453 66.9531 338.617 67.1172C338.781 67.2812 338.973 67.3984 339.191 67.4688C339.418 67.5391 339.668 67.5742 339.941 67.5742C340.637 67.5742 341.184 67.4336 341.582 67.1523C341.988 66.8711 342.273 66.4883 342.438 66.0039C342.609 65.5117 342.695 64.9648 342.695 64.3633ZM351.648 59.7578V74.875H348.273V57.3203H351.402L351.648 59.7578ZM359.676 63.5195V63.7656C359.676 64.6875 359.566 65.543 359.348 66.332C359.137 67.1211 358.824 67.8086 358.41 68.3945C357.996 68.9727 357.48 69.4258 356.863 69.7539C356.254 70.0742 355.551 70.2344 354.754 70.2344C353.98 70.2344 353.309 70.0781 352.738 69.7656C352.168 69.4531 351.688 69.0156 351.297 68.4531C350.914 67.8828 350.605 67.2227 350.371 66.4727C350.137 65.7227 349.957 64.918 349.832 64.0586V63.4141C349.957 62.4922 350.137 61.6484 350.371 60.8828C350.605 60.1094 350.914 59.4414 351.297 58.8789C351.688 58.3086 352.164 57.8672 352.727 57.5547C353.297 57.2422 353.965 57.0859 354.73 57.0859C355.535 57.0859 356.242 57.2383 356.852 57.543C357.469 57.8477 357.984 58.2852 358.398 58.8555C358.82 59.4258 359.137 60.1055 359.348 60.8945C359.566 61.6836 359.676 62.5586 359.676 63.5195ZM356.289 63.7656V63.5195C356.289 62.9805 356.242 62.4844 356.148 62.0312C356.062 61.5703 355.922 61.168 355.727 60.8242C355.539 60.4805 355.289 60.2148 354.977 60.0273C354.672 59.832 354.301 59.7344 353.863 59.7344C353.402 59.7344 353.008 59.8086 352.68 59.957C352.359 60.1055 352.098 60.3203 351.895 60.6016C351.691 60.8828 351.539 61.2188 351.438 61.6094C351.336 62 351.273 62.4414 351.25 62.9336V64.5625C351.289 65.1406 351.398 65.6602 351.578 66.1211C351.758 66.5742 352.035 66.9336 352.41 67.1992C352.785 67.4648 353.277 67.5977 353.887 67.5977C354.332 67.5977 354.707 67.5 355.012 67.3047C355.316 67.1016 355.562 66.8242 355.75 66.4727C355.945 66.1211 356.082 65.7148 356.16 65.2539C356.246 64.793 356.289 64.2969 356.289 63.7656ZM367.609 70.2344C366.625 70.2344 365.742 70.0781 364.961 69.7656C364.18 69.4453 363.516 69.0039 362.969 68.4414C362.43 67.8789 362.016 67.2266 361.727 66.4844C361.438 65.7344 361.293 64.9375 361.293 64.0938V63.625C361.293 62.6641 361.43 61.7852 361.703 60.9883C361.977 60.1914 362.367 59.5 362.875 58.9141C363.391 58.3281 364.016 57.8789 364.75 57.5664C365.484 57.2461 366.312 57.0859 367.234 57.0859C368.133 57.0859 368.93 57.2344 369.625 57.5312C370.32 57.8281 370.902 58.25 371.371 58.7969C371.848 59.3438 372.207 60 372.449 60.7656C372.691 61.5234 372.812 62.3672 372.812 63.2969V64.7031H362.734V62.4531H369.496V62.1953C369.496 61.7266 369.41 61.3086 369.238 60.9414C369.074 60.5664 368.824 60.2695 368.488 60.0508C368.152 59.832 367.723 59.7227 367.199 59.7227C366.754 59.7227 366.371 59.8203 366.051 60.0156C365.73 60.2109 365.469 60.4844 365.266 60.8359C365.07 61.1875 364.922 61.6016 364.82 62.0781C364.727 62.5469 364.68 63.0625 364.68 63.625V64.0938C364.68 64.6016 364.75 65.0703 364.891 65.5C365.039 65.9297 365.246 66.3008 365.512 66.6133C365.785 66.9258 366.113 67.168 366.496 67.3398C366.887 67.5117 367.328 67.5977 367.82 67.5977C368.43 67.5977 368.996 67.4805 369.52 67.2461C370.051 67.0039 370.508 66.6406 370.891 66.1562L372.531 67.9375C372.266 68.3203 371.902 68.6875 371.441 69.0391C370.988 69.3906 370.441 69.6797 369.801 69.9062C369.16 70.125 368.43 70.2344 367.609 70.2344ZM365.23 55.5977L367.527 51.9883H371.195L367.973 55.5977H365.23ZM378.109 60.0859V70H374.734V57.3203H377.91L378.109 60.0859ZM381.93 57.2383L381.871 60.3672C381.707 60.3438 381.508 60.3242 381.273 60.3086C381.047 60.2852 380.84 60.2734 380.652 60.2734C380.176 60.2734 379.762 60.3359 379.41 60.4609C379.066 60.5781 378.777 60.7539 378.543 60.9883C378.316 61.2227 378.145 61.5078 378.027 61.8438C377.918 62.1797 377.855 62.5625 377.84 62.9922L377.16 62.7812C377.16 61.9609 377.242 61.207 377.406 60.5195C377.57 59.8242 377.809 59.2188 378.121 58.7031C378.441 58.1875 378.832 57.7891 379.293 57.5078C379.754 57.2266 380.281 57.0859 380.875 57.0859C381.062 57.0859 381.254 57.1016 381.449 57.1328C381.645 57.1562 381.805 57.1914 381.93 57.2383ZM387.086 57.3203V70H383.699V57.3203H387.086ZM383.488 54.0156C383.488 53.5234 383.66 53.1172 384.004 52.7969C384.348 52.4766 384.809 52.3164 385.387 52.3164C385.957 52.3164 386.414 52.4766 386.758 52.7969C387.109 53.1172 387.285 53.5234 387.285 54.0156C387.285 54.5078 387.109 54.9141 386.758 55.2344C386.414 55.5547 385.957 55.7148 385.387 55.7148C384.809 55.7148 384.348 55.5547 384.004 55.2344C383.66 54.9141 383.488 54.5078 383.488 54.0156ZM395.711 70.2344C394.727 70.2344 393.844 70.0781 393.062 69.7656C392.281 69.4453 391.617 69.0039 391.07 68.4414C390.531 67.8789 390.117 67.2266 389.828 66.4844C389.539 65.7344 389.395 64.9375 389.395 64.0938V63.625C389.395 62.6641 389.531 61.7852 389.805 60.9883C390.078 60.1914 390.469 59.5 390.977 58.9141C391.492 58.3281 392.117 57.8789 392.852 57.5664C393.586 57.2461 394.414 57.0859 395.336 57.0859C396.234 57.0859 397.031 57.2344 397.727 57.5312C398.422 57.8281 399.004 58.25 399.473 58.7969C399.949 59.3438 400.309 60 400.551 60.7656C400.793 61.5234 400.914 62.3672 400.914 63.2969V64.7031H390.836V62.4531H397.598V62.1953C397.598 61.7266 397.512 61.3086 397.34 60.9414C397.176 60.5664 396.926 60.2695 396.59 60.0508C396.254 59.832 395.824 59.7227 395.301 59.7227C394.855 59.7227 394.473 59.8203 394.152 60.0156C393.832 60.2109 393.57 60.4844 393.367 60.8359C393.172 61.1875 393.023 61.6016 392.922 62.0781C392.828 62.5469 392.781 63.0625 392.781 63.625V64.0938C392.781 64.6016 392.852 65.0703 392.992 65.5C393.141 65.9297 393.348 66.3008 393.613 66.6133C393.887 66.9258 394.215 67.168 394.598 67.3398C394.988 67.5117 395.43 67.5977 395.922 67.5977C396.531 67.5977 397.098 67.4805 397.621 67.2461C398.152 67.0039 398.609 66.6406 398.992 66.1562L400.633 67.9375C400.367 68.3203 400.004 68.6875 399.543 69.0391C399.09 69.3906 398.543 69.6797 397.902 69.9062C397.262 70.125 396.531 70.2344 395.711 70.2344ZM410.336 66.9648V57.3203H413.711V70H410.535L410.336 66.9648ZM410.711 64.3633L411.707 64.3398C411.707 65.1836 411.609 65.9688 411.414 66.6953C411.219 67.4141 410.926 68.0391 410.535 68.5703C410.145 69.0938 409.652 69.5039 409.059 69.8008C408.465 70.0898 407.766 70.2344 406.961 70.2344C406.344 70.2344 405.773 70.1484 405.25 69.9766C404.734 69.7969 404.289 69.5195 403.914 69.1445C403.547 68.7617 403.258 68.2734 403.047 67.6797C402.844 67.0781 402.742 66.3555 402.742 65.5117V57.3203H406.117V65.5352C406.117 65.9102 406.16 66.2266 406.246 66.4844C406.34 66.7422 406.469 66.9531 406.633 67.1172C406.797 67.2812 406.988 67.3984 407.207 67.4688C407.434 67.5391 407.684 67.5742 407.957 67.5742C408.652 67.5742 409.199 67.4336 409.598 67.1523C410.004 66.8711 410.289 66.4883 410.453 66.0039C410.625 65.5117 410.711 64.9648 410.711 64.3633ZM419.664 60.0859V70H416.289V57.3203H419.465L419.664 60.0859ZM423.484 57.2383L423.426 60.3672C423.262 60.3438 423.062 60.3242 422.828 60.3086C422.602 60.2852 422.395 60.2734 422.207 60.2734C421.73 60.2734 421.316 60.3359 420.965 60.4609C420.621 60.5781 420.332 60.7539 420.098 60.9883C419.871 61.2227 419.699 61.5078 419.582 61.8438C419.473 62.1797 419.41 62.5625 419.395 62.9922L418.715 62.7812C418.715 61.9609 418.797 61.207 418.961 60.5195C419.125 59.8242 419.363 59.2188 419.676 58.7031C419.996 58.1875 420.387 57.7891 420.848 57.5078C421.309 57.2266 421.836 57.0859 422.43 57.0859C422.617 57.0859 422.809 57.1016 423.004 57.1328C423.199 57.1562 423.359 57.1914 423.484 57.2383Z" fill="#03565C"/>
</svg>
