<svg width="242" height="197" viewBox="0 0 242 197" fill="none" xmlns="http://www.w3.org/2000/svg">
<path fill-rule="evenodd" clip-rule="evenodd" d="M30.5271 28.0509L24.6172 21.1313L24.3645 24.4131C24.7216 24.6103 24.9907 24.9555 25.0731 25.3883C25.1994 26.0567 24.8259 26.7087 24.2217 26.9552C24.3865 28.4016 24.6721 30.1657 24.7435 31.3327C24.8259 32.6092 24.4579 33.1242 23.5736 33.168C23.0244 33.1954 22.4971 32.7571 22.4916 31.2943C22.4861 30.489 22.8267 28.4454 23.1232 26.9442C22.7003 26.7634 22.3818 26.3854 22.2884 25.9088C22.1456 25.1417 22.6509 24.4021 23.4198 24.2597L23.4418 24.2542L23.7549 20.1233L23.3429 19.6411C23.0518 19.3015 23.0024 18.8412 23.2166 18.4468C23.4308 18.0523 23.8373 17.8825 24.2876 17.8989L51.327 18.9837C51.8708 19.0056 52.3486 19.2631 52.6672 19.7069L68.3701 41.7641C68.6283 42.1312 68.7052 42.5695 68.4909 42.9585C68.2767 43.3529 67.8648 43.5611 67.4199 43.5008L56.089 42.0271C55.9791 42.7557 55.8034 43.4735 55.5782 44.1802L55.4628 44.5308H55.4573L55.3695 44.7664C54.7982 46.3169 53.9744 47.7523 53.0077 49.0891L52.8155 49.3631L52.6452 49.5877C51.695 50.8423 50.635 51.9819 49.553 53.116L49.3772 53.2967L49.1136 53.5707C48.5753 54.1405 47.2187 55.4608 47.2296 56.2881V56.3265L47.2406 56.3648C47.2846 56.5292 47.6031 57.0606 47.6855 57.225C47.9931 57.8057 48.3007 58.3755 48.6082 58.9562C48.9268 59.5479 49.2454 60.1396 49.5584 60.7368C49.0696 60.5779 48.5588 60.4684 48.048 60.4191L47.5153 60.3697L47.5262 60.3917L47.323 60.4026C44.4395 60.5231 42.6819 63.1803 40.452 64.6815L40.3091 64.7746V64.7911L39.8478 65.054C38.5461 65.7991 37.2004 66.1333 35.7229 66.1552C35.3769 64.1172 34.7947 61.9367 33.7402 60.1616L33.4216 59.6246L33.4106 59.6466L33.3172 59.5205C32.9218 58.9617 32.4604 58.4522 31.9167 58.0303C30.961 57.34 29.9723 56.962 28.8189 56.8141L28.6542 56.7976L28.6651 56.7867L28.0665 56.7538C26.5176 56.6716 25.117 56.8524 23.7109 56.0032C22.4092 55.2143 22.9036 53.7131 23.3649 52.5845L23.7109 51.7298L23.6945 51.7408L23.689 51.571C23.6615 50.7875 22.4477 50.4752 22.3378 50.1739C22.3598 49.9164 22.8102 49.4781 23.0189 49.3137L23.4748 48.9467L22.942 48.7714C22.8376 48.7166 22.7168 48.6234 22.6289 48.5577C22.4806 48.4536 22.3763 47.8893 22.5026 47.7523C22.953 47.2811 23.1068 46.8593 23.1837 46.2183C23.2386 45.7362 22.975 45.3143 22.6619 44.9746L22.5685 44.8705L22.6015 44.865L22.0467 44.3939C21.7996 44.1802 21.5414 43.9775 21.3052 43.7583C20.723 43.2269 22.8431 41.6217 23.2221 41.3477C23.6725 41.019 24.0899 40.6355 24.4799 40.241L24.9303 39.7753H24.9138L25.0072 39.6658C25.3147 39.3151 25.6223 38.9481 25.8914 38.5755L26.3638 37.8797L26.2265 37.1401C26.1386 36.2306 26.1825 35.3102 26.3638 34.3953L26.4077 34.1706H26.4022L26.5066 33.7871C27.0009 31.9518 28.039 30.3465 29.3956 29.0261L29.5934 28.8344L29.8405 28.6152C30.0767 28.4125 30.2964 28.2317 30.5271 28.0509Z" fill="white"/>
<path fill-rule="evenodd" clip-rule="evenodd" d="M40.6826 0C51.9147 0 62.0867 4.54184 69.4466 11.8833C76.8065 19.2247 81.3598 29.3713 81.3598 40.5807C81.3598 51.7846 76.8065 61.9312 69.4466 69.2781C68.837 69.8862 68.2053 70.4724 67.5572 71.0422L69.5675 79.7588C69.7158 80.4053 69.4686 81.0463 68.9193 81.4243C68.3701 81.8024 67.6835 81.8133 67.1288 81.4463L59.6371 76.499C53.9744 79.4794 47.5262 81.1614 40.6771 81.1614C29.4451 81.1614 19.273 76.6195 11.9131 69.2781C4.55325 61.9366 0 51.7846 0 40.5807C0 29.3768 4.55325 19.2302 11.9131 11.8833C19.284 4.54184 29.4506 0 40.6826 0ZM62.4053 18.9125C56.8469 13.368 49.1685 9.93835 40.6826 9.93835C32.2023 9.93835 24.5238 13.368 18.96 18.9125C13.4016 24.4624 9.96332 32.1216 9.96332 40.5807C9.96332 49.0453 13.4016 56.7045 18.96 62.2489C24.5183 67.7934 32.1968 71.223 40.6826 71.223C49.1685 71.223 56.8469 67.7934 62.4053 62.2489C67.9637 56.7045 71.4019 49.0453 71.4019 40.5807C71.4019 32.1216 67.9637 24.4624 62.4053 18.9125Z" fill="white"/>
<path d="M11.4512 110.486V113H3.57715V110.486H11.4512ZM4.61914 97.3594V113H1.39648V97.3594H4.61914ZM15.9307 96.5V98.1328C15.9307 98.5983 15.8411 99.0781 15.6621 99.5723C15.4902 100.066 15.2575 100.535 14.9639 100.979C14.6702 101.416 14.348 101.789 13.9971 102.097L12.5469 101.259C12.8118 100.836 13.0374 100.378 13.2236 99.8838C13.4098 99.3825 13.5029 98.8024 13.5029 98.1436V96.5H15.9307ZM23.8906 110.379V105.201C23.8906 104.829 23.8298 104.51 23.708 104.245C23.5863 103.973 23.3965 103.762 23.1387 103.611C22.888 103.461 22.5622 103.386 22.1611 103.386C21.8174 103.386 21.5202 103.447 21.2695 103.568C21.0189 103.683 20.8255 103.851 20.6895 104.073C20.5534 104.288 20.4854 104.542 20.4854 104.836H17.3916C17.3916 104.342 17.5062 103.873 17.7354 103.429C17.9645 102.985 18.2975 102.594 18.7344 102.258C19.1712 101.914 19.6904 101.646 20.292 101.452C20.9007 101.259 21.5811 101.162 22.333 101.162C23.2354 101.162 24.0374 101.312 24.7393 101.613C25.4411 101.914 25.9925 102.365 26.3936 102.967C26.8018 103.568 27.0059 104.32 27.0059 105.223V110.196C27.0059 110.834 27.0452 111.356 27.124 111.765C27.2028 112.166 27.3174 112.517 27.4678 112.817V113H24.3418C24.1914 112.685 24.0768 112.291 23.998 111.818C23.9264 111.339 23.8906 110.859 23.8906 110.379ZM24.2988 105.921L24.3203 107.672H22.5908C22.1826 107.672 21.8281 107.718 21.5273 107.812C21.2266 107.905 20.9795 108.037 20.7861 108.209C20.5928 108.374 20.4495 108.567 20.3564 108.789C20.2705 109.011 20.2275 109.255 20.2275 109.52C20.2275 109.785 20.2884 110.024 20.4102 110.239C20.5319 110.447 20.7074 110.612 20.9365 110.733C21.1657 110.848 21.4342 110.905 21.7422 110.905C22.2077 110.905 22.6123 110.812 22.9561 110.626C23.2998 110.44 23.5648 110.211 23.751 109.938C23.9443 109.666 24.0446 109.409 24.0518 109.165L24.8682 110.476C24.7536 110.769 24.596 111.074 24.3955 111.389C24.2021 111.704 23.9551 112.001 23.6543 112.28C23.3535 112.552 22.9919 112.778 22.5693 112.957C22.1468 113.129 21.6455 113.215 21.0654 113.215C20.3278 113.215 19.6582 113.068 19.0566 112.774C18.4622 112.474 17.9896 112.062 17.6387 111.539C17.2949 111.009 17.123 110.408 17.123 109.734C17.123 109.126 17.2376 108.585 17.4668 108.112C17.696 107.64 18.0326 107.242 18.4766 106.92C18.9277 106.59 19.4899 106.343 20.1631 106.179C20.8363 106.007 21.6169 105.921 22.5049 105.921H24.2988ZM32.4199 103.858V113H29.3262V101.377H32.2266L32.4199 103.858ZM31.9688 106.78H31.1309C31.1309 105.921 31.2419 105.147 31.4639 104.46C31.6859 103.765 31.9974 103.174 32.3984 102.688C32.7995 102.193 33.2757 101.817 33.8271 101.56C34.3857 101.295 35.0088 101.162 35.6963 101.162C36.2406 101.162 36.7383 101.241 37.1895 101.398C37.6406 101.556 38.0273 101.807 38.3496 102.15C38.679 102.494 38.9297 102.949 39.1016 103.515C39.2806 104.08 39.3701 104.771 39.3701 105.588V113H36.2549V105.577C36.2549 105.062 36.1833 104.66 36.04 104.374C35.8968 104.088 35.6855 103.887 35.4062 103.772C35.1341 103.651 34.7975 103.59 34.3965 103.59C33.9811 103.59 33.6195 103.672 33.3115 103.837C33.0107 104.002 32.7601 104.231 32.5596 104.524C32.3662 104.811 32.2194 105.147 32.1191 105.534C32.0189 105.921 31.9688 106.336 31.9688 106.78ZM44.752 103.858V113H41.6582V101.377H44.5586L44.752 103.858ZM44.3008 106.78H43.4629C43.4629 105.921 43.5739 105.147 43.7959 104.46C44.0179 103.765 44.3294 103.174 44.7305 102.688C45.1315 102.193 45.6077 101.817 46.1592 101.56C46.7178 101.295 47.3408 101.162 48.0283 101.162C48.5726 101.162 49.0703 101.241 49.5215 101.398C49.9727 101.556 50.3594 101.807 50.6816 102.15C51.0111 102.494 51.2617 102.949 51.4336 103.515C51.6126 104.08 51.7021 104.771 51.7021 105.588V113H48.5869V105.577C48.5869 105.062 48.5153 104.66 48.3721 104.374C48.2288 104.088 48.0176 103.887 47.7383 103.772C47.4661 103.651 47.1296 103.59 46.7285 103.59C46.3132 103.59 45.9515 103.672 45.6436 103.837C45.3428 104.002 45.0921 104.231 44.8916 104.524C44.6982 104.811 44.5514 105.147 44.4512 105.534C44.3509 105.921 44.3008 106.336 44.3008 106.78ZM60.9297 110.218V101.377H64.0234V113H61.1123L60.9297 110.218ZM61.2734 107.833L62.1865 107.812C62.1865 108.585 62.097 109.305 61.918 109.971C61.7389 110.63 61.4704 111.202 61.1123 111.689C60.7542 112.169 60.3031 112.545 59.7588 112.817C59.2145 113.082 58.5736 113.215 57.8359 113.215C57.2702 113.215 56.7474 113.136 56.2676 112.979C55.7949 112.814 55.3867 112.56 55.043 112.216C54.7064 111.865 54.4414 111.417 54.248 110.873C54.0618 110.322 53.9688 109.659 53.9688 108.886V101.377H57.0625V108.907C57.0625 109.251 57.1019 109.541 57.1807 109.777C57.2666 110.014 57.3848 110.207 57.5352 110.357C57.6855 110.508 57.861 110.615 58.0615 110.68C58.2692 110.744 58.4984 110.776 58.749 110.776C59.3864 110.776 59.8877 110.647 60.2529 110.39C60.6253 110.132 60.8867 109.781 61.0371 109.337C61.1947 108.886 61.2734 108.384 61.2734 107.833ZM72.6602 110.379V105.201C72.6602 104.829 72.5993 104.51 72.4775 104.245C72.3558 103.973 72.166 103.762 71.9082 103.611C71.6576 103.461 71.3317 103.386 70.9307 103.386C70.5869 103.386 70.2897 103.447 70.0391 103.568C69.7884 103.683 69.5951 103.851 69.459 104.073C69.3229 104.288 69.2549 104.542 69.2549 104.836H66.1611C66.1611 104.342 66.2757 103.873 66.5049 103.429C66.734 102.985 67.0671 102.594 67.5039 102.258C67.9408 101.914 68.46 101.646 69.0615 101.452C69.6702 101.259 70.3506 101.162 71.1025 101.162C72.0049 101.162 72.807 101.312 73.5088 101.613C74.2106 101.914 74.762 102.365 75.1631 102.967C75.5713 103.568 75.7754 104.32 75.7754 105.223V110.196C75.7754 110.834 75.8148 111.356 75.8936 111.765C75.9723 112.166 76.0869 112.517 76.2373 112.817V113H73.1113C72.9609 112.685 72.8464 112.291 72.7676 111.818C72.696 111.339 72.6602 110.859 72.6602 110.379ZM73.0684 105.921L73.0898 107.672H71.3604C70.9521 107.672 70.5977 107.718 70.2969 107.812C69.9961 107.905 69.749 108.037 69.5557 108.209C69.3623 108.374 69.2191 108.567 69.126 108.789C69.04 109.011 68.9971 109.255 68.9971 109.52C68.9971 109.785 69.0579 110.024 69.1797 110.239C69.3014 110.447 69.4769 110.612 69.7061 110.733C69.9352 110.848 70.2038 110.905 70.5117 110.905C70.9772 110.905 71.3818 110.812 71.7256 110.626C72.0693 110.44 72.3343 110.211 72.5205 109.938C72.7139 109.666 72.8141 109.409 72.8213 109.165L73.6377 110.476C73.5231 110.769 73.3656 111.074 73.165 111.389C72.9717 111.704 72.7246 112.001 72.4238 112.28C72.123 112.552 71.7614 112.778 71.3389 112.957C70.9163 113.129 70.415 113.215 69.835 113.215C69.0973 113.215 68.4277 113.068 67.8262 112.774C67.2318 112.474 66.7591 112.062 66.4082 111.539C66.0645 111.009 65.8926 110.408 65.8926 109.734C65.8926 109.126 66.0072 108.585 66.2363 108.112C66.4655 107.64 66.8021 107.242 67.2461 106.92C67.6973 106.59 68.2594 106.343 68.9326 106.179C69.6058 106.007 70.3864 105.921 71.2744 105.921H73.0684ZM81.4258 101.377V113H78.3213V101.377H81.4258ZM78.1279 98.3477C78.1279 97.8965 78.2855 97.5241 78.6006 97.2305C78.9157 96.9368 79.3382 96.79 79.8682 96.79C80.391 96.79 80.8099 96.9368 81.125 97.2305C81.4473 97.5241 81.6084 97.8965 81.6084 98.3477C81.6084 98.7988 81.4473 99.1712 81.125 99.4648C80.8099 99.7585 80.391 99.9053 79.8682 99.9053C79.3382 99.9053 78.9157 99.7585 78.6006 99.4648C78.2855 99.1712 78.1279 98.7988 78.1279 98.3477ZM87.0762 103.912V113H83.9824V101.377H86.8936L87.0762 103.912ZM90.5781 101.302L90.5244 104.17C90.374 104.148 90.1914 104.131 89.9766 104.116C89.7689 104.095 89.5791 104.084 89.4072 104.084C88.9704 104.084 88.5908 104.141 88.2686 104.256C87.9535 104.363 87.6885 104.524 87.4736 104.739C87.266 104.954 87.1084 105.215 87.001 105.523C86.9007 105.831 86.8434 106.182 86.8291 106.576L86.2061 106.383C86.2061 105.631 86.2812 104.94 86.4316 104.31C86.582 103.672 86.8005 103.117 87.0869 102.645C87.3805 102.172 87.7386 101.807 88.1611 101.549C88.5837 101.291 89.0671 101.162 89.6113 101.162C89.7832 101.162 89.9587 101.176 90.1377 101.205C90.3167 101.227 90.4635 101.259 90.5781 101.302ZM97.1738 113.215C96.2715 113.215 95.4622 113.072 94.7461 112.785C94.0299 112.492 93.4212 112.087 92.9199 111.571C92.4258 111.056 92.0462 110.458 91.7812 109.777C91.5163 109.09 91.3838 108.359 91.3838 107.586V107.156C91.3838 106.275 91.5091 105.47 91.7598 104.739C92.0104 104.009 92.3685 103.375 92.834 102.838C93.3066 102.301 93.8796 101.889 94.5527 101.603C95.2259 101.309 95.985 101.162 96.8301 101.162C97.6536 101.162 98.3841 101.298 99.0215 101.57C99.6589 101.842 100.192 102.229 100.622 102.73C101.059 103.232 101.388 103.833 101.61 104.535C101.832 105.23 101.943 106.003 101.943 106.855V108.145H92.7051V106.082H98.9033V105.846C98.9033 105.416 98.8245 105.033 98.667 104.696C98.5166 104.353 98.2874 104.08 97.9795 103.88C97.6715 103.679 97.2777 103.579 96.7979 103.579C96.3896 103.579 96.0387 103.669 95.7451 103.848C95.4515 104.027 95.2116 104.277 95.0254 104.6C94.8464 104.922 94.7103 105.301 94.6172 105.738C94.5312 106.168 94.4883 106.641 94.4883 107.156V107.586C94.4883 108.051 94.5527 108.481 94.6816 108.875C94.8177 109.269 95.0075 109.609 95.251 109.896C95.5016 110.182 95.8024 110.404 96.1533 110.562C96.5114 110.719 96.916 110.798 97.3672 110.798C97.9258 110.798 98.445 110.69 98.9248 110.476C99.4118 110.254 99.8307 109.921 100.182 109.477L101.686 111.109C101.442 111.46 101.109 111.797 100.687 112.119C100.271 112.441 99.7699 112.706 99.1826 112.914C98.5954 113.115 97.9258 113.215 97.1738 113.215ZM116.048 110.465V96.5H119.163V113H116.359L116.048 110.465ZM108.7 107.328V107.103C108.7 106.215 108.8 105.409 109.001 104.686C109.201 103.955 109.495 103.328 109.882 102.806C110.269 102.283 110.745 101.878 111.311 101.592C111.876 101.305 112.521 101.162 113.244 101.162C113.924 101.162 114.519 101.305 115.027 101.592C115.543 101.878 115.98 102.286 116.338 102.816C116.703 103.339 116.997 103.959 117.219 104.675C117.441 105.384 117.602 106.161 117.702 107.006V107.5C117.602 108.309 117.441 109.061 117.219 109.756C116.997 110.451 116.703 111.059 116.338 111.582C115.98 112.098 115.543 112.499 115.027 112.785C114.512 113.072 113.91 113.215 113.223 113.215C112.499 113.215 111.855 113.068 111.289 112.774C110.73 112.481 110.258 112.069 109.871 111.539C109.492 111.009 109.201 110.386 109.001 109.67C108.8 108.954 108.7 108.173 108.7 107.328ZM111.794 107.103V107.328C111.794 107.808 111.83 108.256 111.901 108.671C111.98 109.086 112.105 109.455 112.277 109.777C112.456 110.092 112.686 110.34 112.965 110.519C113.251 110.69 113.599 110.776 114.007 110.776C114.537 110.776 114.974 110.658 115.317 110.422C115.661 110.178 115.923 109.845 116.102 109.423C116.288 109 116.395 108.513 116.424 107.962V106.555C116.402 106.104 116.338 105.699 116.23 105.341C116.13 104.976 115.98 104.664 115.779 104.406C115.586 104.148 115.342 103.948 115.049 103.805C114.762 103.661 114.422 103.59 114.028 103.59C113.627 103.59 113.284 103.683 112.997 103.869C112.711 104.048 112.478 104.295 112.299 104.61C112.127 104.925 111.998 105.298 111.912 105.728C111.833 106.15 111.794 106.608 111.794 107.103ZM126.93 113.215C126.027 113.215 125.218 113.072 124.502 112.785C123.786 112.492 123.177 112.087 122.676 111.571C122.182 111.056 121.802 110.458 121.537 109.777C121.272 109.09 121.14 108.359 121.14 107.586V107.156C121.14 106.275 121.265 105.47 121.516 104.739C121.766 104.009 122.124 103.375 122.59 102.838C123.062 102.301 123.635 101.889 124.309 101.603C124.982 101.309 125.741 101.162 126.586 101.162C127.41 101.162 128.14 101.298 128.777 101.57C129.415 101.842 129.948 102.229 130.378 102.73C130.815 103.232 131.144 103.833 131.366 104.535C131.588 105.23 131.699 106.003 131.699 106.855V108.145H122.461V106.082H128.659V105.846C128.659 105.416 128.58 105.033 128.423 104.696C128.272 104.353 128.043 104.08 127.735 103.88C127.427 103.679 127.034 103.579 126.554 103.579C126.146 103.579 125.795 103.669 125.501 103.848C125.207 104.027 124.967 104.277 124.781 104.6C124.602 104.922 124.466 105.301 124.373 105.738C124.287 106.168 124.244 106.641 124.244 107.156V107.586C124.244 108.051 124.309 108.481 124.438 108.875C124.574 109.269 124.763 109.609 125.007 109.896C125.257 110.182 125.558 110.404 125.909 110.562C126.267 110.719 126.672 110.798 127.123 110.798C127.682 110.798 128.201 110.69 128.681 110.476C129.168 110.254 129.587 109.921 129.938 109.477L131.441 111.109C131.198 111.46 130.865 111.797 130.442 112.119C130.027 112.441 129.526 112.706 128.938 112.914C128.351 113.115 127.682 113.215 126.93 113.215ZM139.745 109.788C139.745 109.566 139.681 109.366 139.552 109.187C139.423 109.007 139.183 108.843 138.832 108.692C138.488 108.535 137.991 108.392 137.339 108.263C136.752 108.134 136.204 107.973 135.695 107.779C135.194 107.579 134.757 107.339 134.385 107.06C134.02 106.78 133.733 106.451 133.525 106.071C133.318 105.685 133.214 105.244 133.214 104.75C133.214 104.263 133.318 103.805 133.525 103.375C133.74 102.945 134.045 102.566 134.438 102.236C134.84 101.9 135.326 101.638 135.899 101.452C136.479 101.259 137.131 101.162 137.854 101.162C138.864 101.162 139.731 101.323 140.454 101.646C141.185 101.968 141.743 102.412 142.13 102.978C142.524 103.536 142.721 104.174 142.721 104.89H139.627C139.627 104.589 139.562 104.32 139.434 104.084C139.312 103.84 139.118 103.651 138.854 103.515C138.596 103.371 138.259 103.3 137.844 103.3C137.5 103.3 137.203 103.361 136.952 103.482C136.701 103.597 136.508 103.755 136.372 103.955C136.243 104.148 136.179 104.363 136.179 104.6C136.179 104.779 136.215 104.94 136.286 105.083C136.365 105.219 136.49 105.344 136.662 105.459C136.834 105.574 137.056 105.681 137.328 105.781C137.607 105.874 137.951 105.96 138.359 106.039C139.197 106.211 139.946 106.437 140.604 106.716C141.263 106.988 141.786 107.36 142.173 107.833C142.56 108.299 142.753 108.911 142.753 109.67C142.753 110.186 142.638 110.658 142.409 111.088C142.18 111.518 141.851 111.894 141.421 112.216C140.991 112.531 140.476 112.778 139.874 112.957C139.28 113.129 138.61 113.215 137.865 113.215C136.784 113.215 135.867 113.021 135.115 112.635C134.37 112.248 133.805 111.757 133.418 111.163C133.038 110.562 132.849 109.946 132.849 109.315H135.781C135.796 109.738 135.903 110.078 136.104 110.336C136.311 110.594 136.573 110.78 136.888 110.895C137.21 111.009 137.557 111.066 137.93 111.066C138.331 111.066 138.664 111.013 138.929 110.905C139.194 110.791 139.394 110.64 139.53 110.454C139.674 110.261 139.745 110.039 139.745 109.788ZM6.55273 139.215C5.65039 139.215 4.84115 139.072 4.125 138.785C3.40885 138.492 2.80013 138.087 2.29883 137.571C1.80469 137.056 1.42513 136.458 1.16016 135.777C0.895182 135.09 0.762695 134.359 0.762695 133.586V133.156C0.762695 132.275 0.888021 131.47 1.13867 130.739C1.38932 130.009 1.7474 129.375 2.21289 128.838C2.68555 128.301 3.25846 127.889 3.93164 127.603C4.60482 127.309 5.36393 127.162 6.20898 127.162C7.03255 127.162 7.76302 127.298 8.40039 127.57C9.03776 127.842 9.57129 128.229 10.001 128.73C10.4378 129.232 10.7673 129.833 10.9893 130.535C11.2113 131.23 11.3223 132.003 11.3223 132.855V134.145H2.08398V132.082H8.28223V131.846C8.28223 131.416 8.20345 131.033 8.0459 130.696C7.89551 130.353 7.66634 130.08 7.3584 129.88C7.05046 129.679 6.65658 129.579 6.17676 129.579C5.76855 129.579 5.41764 129.669 5.12402 129.848C4.8304 130.027 4.59049 130.277 4.4043 130.6C4.22526 130.922 4.08919 131.301 3.99609 131.738C3.91016 132.168 3.86719 132.641 3.86719 133.156V133.586C3.86719 134.051 3.93164 134.481 4.06055 134.875C4.19661 135.269 4.38639 135.609 4.62988 135.896C4.88053 136.182 5.18132 136.404 5.53223 136.562C5.8903 136.719 6.29492 136.798 6.74609 136.798C7.30469 136.798 7.82389 136.69 8.30371 136.476C8.79069 136.254 9.20964 135.921 9.56055 135.477L11.0645 137.109C10.821 137.46 10.488 137.797 10.0654 138.119C9.65007 138.441 9.14876 138.706 8.56152 138.914C7.97428 139.115 7.30469 139.215 6.55273 139.215ZM4.37207 125.798L6.47754 122.489H9.83984L6.88574 125.798H4.37207ZM18.7773 127.377V129.568H12.0098V127.377H18.7773ZM13.6855 124.509H16.7793V135.498C16.7793 135.835 16.8223 136.092 16.9082 136.271C17.0013 136.451 17.1374 136.576 17.3164 136.647C17.4954 136.712 17.721 136.744 17.9932 136.744C18.1865 136.744 18.3584 136.737 18.5088 136.723C18.6663 136.701 18.7988 136.68 18.9062 136.658L18.917 138.936C18.652 139.021 18.3656 139.09 18.0576 139.14C17.7497 139.19 17.4095 139.215 17.0371 139.215C16.3568 139.215 15.7624 139.104 15.2539 138.882C14.7526 138.653 14.3659 138.287 14.0938 137.786C13.8216 137.285 13.6855 136.626 13.6855 135.81V124.509ZM26.8125 136.379V131.201C26.8125 130.829 26.7516 130.51 26.6299 130.245C26.5081 129.973 26.3184 129.762 26.0605 129.611C25.8099 129.461 25.484 129.386 25.083 129.386C24.7393 129.386 24.4421 129.447 24.1914 129.568C23.9408 129.683 23.7474 129.851 23.6113 130.073C23.4753 130.288 23.4072 130.542 23.4072 130.836H20.3135C20.3135 130.342 20.4281 129.873 20.6572 129.429C20.8864 128.985 21.2194 128.594 21.6562 128.258C22.0931 127.914 22.6123 127.646 23.2139 127.452C23.8226 127.259 24.5029 127.162 25.2549 127.162C26.1572 127.162 26.9593 127.312 27.6611 127.613C28.363 127.914 28.9144 128.365 29.3154 128.967C29.7236 129.568 29.9277 130.32 29.9277 131.223V136.196C29.9277 136.834 29.9671 137.356 30.0459 137.765C30.1247 138.166 30.2393 138.517 30.3896 138.817V139H27.2637C27.1133 138.685 26.9987 138.291 26.9199 137.818C26.8483 137.339 26.8125 136.859 26.8125 136.379ZM27.2207 131.921L27.2422 133.672H25.5127C25.1045 133.672 24.75 133.718 24.4492 133.812C24.1484 133.905 23.9014 134.037 23.708 134.209C23.5146 134.374 23.3714 134.567 23.2783 134.789C23.1924 135.011 23.1494 135.255 23.1494 135.52C23.1494 135.785 23.2103 136.024 23.332 136.239C23.4538 136.447 23.6292 136.612 23.8584 136.733C24.0876 136.848 24.3561 136.905 24.6641 136.905C25.1296 136.905 25.5342 136.812 25.8779 136.626C26.2217 136.44 26.4867 136.211 26.6729 135.938C26.8662 135.666 26.9665 135.409 26.9736 135.165L27.79 136.476C27.6755 136.769 27.5179 137.074 27.3174 137.389C27.124 137.704 26.877 138.001 26.5762 138.28C26.2754 138.552 25.9137 138.778 25.4912 138.957C25.0687 139.129 24.5674 139.215 23.9873 139.215C23.2497 139.215 22.5801 139.068 21.9785 138.774C21.3841 138.474 20.9115 138.062 20.5605 137.539C20.2168 137.009 20.0449 136.408 20.0449 135.734C20.0449 135.126 20.1595 134.585 20.3887 134.112C20.6178 133.64 20.9544 133.242 21.3984 132.92C21.8496 132.59 22.4118 132.343 23.085 132.179C23.7581 132.007 24.5387 131.921 25.4268 131.921H27.2207ZM32.3125 122.5H35.4062V136.336L35.0947 139H32.3125V122.5ZM42.7646 133.07V133.296C42.7646 134.162 42.6715 134.957 42.4854 135.681C42.3063 136.404 42.027 137.031 41.6475 137.561C41.2679 138.083 40.7952 138.492 40.2295 138.785C39.6709 139.072 39.012 139.215 38.2529 139.215C37.5439 139.215 36.9281 139.072 36.4053 138.785C35.8896 138.499 35.4564 138.094 35.1055 137.571C34.7546 137.049 34.4717 136.436 34.2568 135.734C34.042 135.033 33.8809 134.266 33.7734 133.436V132.941C33.8809 132.111 34.042 131.344 34.2568 130.643C34.4717 129.941 34.7546 129.328 35.1055 128.806C35.4564 128.283 35.8896 127.878 36.4053 127.592C36.9209 127.305 37.5296 127.162 38.2314 127.162C38.9977 127.162 39.6637 127.309 40.2295 127.603C40.8024 127.889 41.2751 128.297 41.6475 128.827C42.027 129.35 42.3063 129.973 42.4854 130.696C42.6715 131.412 42.7646 132.204 42.7646 133.07ZM39.6709 133.296V133.07C39.6709 132.598 39.6351 132.154 39.5635 131.738C39.499 131.316 39.3844 130.947 39.2197 130.632C39.055 130.31 38.8294 130.055 38.543 129.869C38.2637 129.683 37.902 129.59 37.458 129.59C37.0355 129.59 36.6774 129.661 36.3838 129.805C36.0902 129.948 35.8467 130.148 35.6533 130.406C35.4671 130.664 35.3275 130.972 35.2344 131.33C35.1413 131.681 35.084 132.068 35.0625 132.49V133.897C35.084 134.463 35.1771 134.965 35.3418 135.401C35.5137 135.831 35.7715 136.171 36.1152 136.422C36.4661 136.665 36.9209 136.787 37.4795 136.787C37.9163 136.787 38.278 136.701 38.5645 136.529C38.8509 136.357 39.0729 136.114 39.2305 135.799C39.3952 135.484 39.5098 135.115 39.5742 134.692C39.6387 134.263 39.6709 133.797 39.6709 133.296ZM47.9531 122.5V139H44.8486V122.5H47.9531ZM53.7754 127.377V139H50.6709V127.377H53.7754ZM50.4775 124.348C50.4775 123.896 50.6351 123.524 50.9502 123.23C51.2653 122.937 51.6878 122.79 52.2178 122.79C52.7406 122.79 53.1595 122.937 53.4746 123.23C53.7969 123.524 53.958 123.896 53.958 124.348C53.958 124.799 53.7969 125.171 53.4746 125.465C53.1595 125.758 52.7406 125.905 52.2178 125.905C51.6878 125.905 51.2653 125.758 50.9502 125.465C50.6351 125.171 50.4775 124.799 50.4775 124.348ZM62.6162 135.788C62.6162 135.566 62.5518 135.366 62.4229 135.187C62.2939 135.007 62.054 134.843 61.7031 134.692C61.3594 134.535 60.8617 134.392 60.21 134.263C59.6227 134.134 59.0749 133.973 58.5664 133.779C58.0651 133.579 57.6283 133.339 57.2559 133.06C56.8906 132.78 56.6042 132.451 56.3965 132.071C56.1888 131.685 56.085 131.244 56.085 130.75C56.085 130.263 56.1888 129.805 56.3965 129.375C56.6113 128.945 56.9157 128.566 57.3096 128.236C57.7106 127.9 58.1976 127.638 58.7705 127.452C59.3506 127.259 60.0023 127.162 60.7256 127.162C61.7354 127.162 62.6019 127.323 63.3252 127.646C64.0557 127.968 64.6143 128.412 65.001 128.978C65.3949 129.536 65.5918 130.174 65.5918 130.89H62.498C62.498 130.589 62.4336 130.32 62.3047 130.084C62.1829 129.84 61.9896 129.651 61.7246 129.515C61.4668 129.371 61.1302 129.3 60.7148 129.3C60.3711 129.3 60.0739 129.361 59.8232 129.482C59.5726 129.597 59.3792 129.755 59.2432 129.955C59.1143 130.148 59.0498 130.363 59.0498 130.6C59.0498 130.779 59.0856 130.94 59.1572 131.083C59.236 131.219 59.3613 131.344 59.5332 131.459C59.7051 131.574 59.9271 131.681 60.1992 131.781C60.4785 131.874 60.8223 131.96 61.2305 132.039C62.0684 132.211 62.8167 132.437 63.4756 132.716C64.1344 132.988 64.6572 133.36 65.0439 133.833C65.4307 134.299 65.624 134.911 65.624 135.67C65.624 136.186 65.5094 136.658 65.2803 137.088C65.0511 137.518 64.7217 137.894 64.292 138.216C63.8623 138.531 63.3467 138.778 62.7451 138.957C62.1507 139.129 61.4811 139.215 60.7363 139.215C59.6549 139.215 58.7383 139.021 57.9863 138.635C57.2415 138.248 56.6758 137.757 56.2891 137.163C55.9095 136.562 55.7197 135.946 55.7197 135.315H58.6523C58.6667 135.738 58.7741 136.078 58.9746 136.336C59.1823 136.594 59.4437 136.78 59.7588 136.895C60.0811 137.009 60.4284 137.066 60.8008 137.066C61.2018 137.066 61.5348 137.013 61.7998 136.905C62.0648 136.791 62.2653 136.64 62.4014 136.454C62.5446 136.261 62.6162 136.039 62.6162 135.788ZM73.917 135.788C73.917 135.566 73.8525 135.366 73.7236 135.187C73.5947 135.007 73.3548 134.843 73.0039 134.692C72.6602 134.535 72.1624 134.392 71.5107 134.263C70.9235 134.134 70.3757 133.973 69.8672 133.779C69.3659 133.579 68.929 133.339 68.5566 133.06C68.1914 132.78 67.9049 132.451 67.6973 132.071C67.4896 131.685 67.3857 131.244 67.3857 130.75C67.3857 130.263 67.4896 129.805 67.6973 129.375C67.9121 128.945 68.2165 128.566 68.6104 128.236C69.0114 127.9 69.4984 127.638 70.0713 127.452C70.6514 127.259 71.3031 127.162 72.0264 127.162C73.0361 127.162 73.9027 127.323 74.626 127.646C75.3564 127.968 75.915 128.412 76.3018 128.978C76.6956 129.536 76.8926 130.174 76.8926 130.89H73.7988C73.7988 130.589 73.7344 130.32 73.6055 130.084C73.4837 129.84 73.2904 129.651 73.0254 129.515C72.7676 129.371 72.431 129.3 72.0156 129.3C71.6719 129.3 71.3747 129.361 71.124 129.482C70.8734 129.597 70.68 129.755 70.5439 129.955C70.415 130.148 70.3506 130.363 70.3506 130.6C70.3506 130.779 70.3864 130.94 70.458 131.083C70.5368 131.219 70.6621 131.344 70.834 131.459C71.0059 131.574 71.2279 131.681 71.5 131.781C71.7793 131.874 72.123 131.96 72.5312 132.039C73.3691 132.211 74.1175 132.437 74.7764 132.716C75.4352 132.988 75.958 133.36 76.3447 133.833C76.7314 134.299 76.9248 134.911 76.9248 135.67C76.9248 136.186 76.8102 136.658 76.5811 137.088C76.3519 137.518 76.0225 137.894 75.5928 138.216C75.1631 138.531 74.6475 138.778 74.0459 138.957C73.4515 139.129 72.7819 139.215 72.0371 139.215C70.9557 139.215 70.0391 139.021 69.2871 138.635C68.5423 138.248 67.9766 137.757 67.5898 137.163C67.2103 136.562 67.0205 135.946 67.0205 135.315H69.9531C69.9674 135.738 70.0749 136.078 70.2754 136.336C70.4831 136.594 70.7445 136.78 71.0596 136.895C71.3818 137.009 71.7292 137.066 72.1016 137.066C72.5026 137.066 72.8356 137.013 73.1006 136.905C73.3656 136.791 73.5661 136.64 73.7021 136.454C73.8454 136.261 73.917 136.039 73.917 135.788ZM84.2832 139.215C83.3809 139.215 82.5716 139.072 81.8555 138.785C81.1393 138.492 80.5306 138.087 80.0293 137.571C79.5352 137.056 79.1556 136.458 78.8906 135.777C78.6257 135.09 78.4932 134.359 78.4932 133.586V133.156C78.4932 132.275 78.6185 131.47 78.8691 130.739C79.1198 130.009 79.4779 129.375 79.9434 128.838C80.416 128.301 80.9889 127.889 81.6621 127.603C82.3353 127.309 83.0944 127.162 83.9395 127.162C84.763 127.162 85.4935 127.298 86.1309 127.57C86.7682 127.842 87.3018 128.229 87.7314 128.73C88.1683 129.232 88.4977 129.833 88.7197 130.535C88.9417 131.23 89.0527 132.003 89.0527 132.855V134.145H79.8145V132.082H86.0127V131.846C86.0127 131.416 85.9339 131.033 85.7764 130.696C85.626 130.353 85.3968 130.08 85.0889 129.88C84.7809 129.679 84.387 129.579 83.9072 129.579C83.499 129.579 83.1481 129.669 82.8545 129.848C82.5609 130.027 82.321 130.277 82.1348 130.6C81.9557 130.922 81.8197 131.301 81.7266 131.738C81.6406 132.168 81.5977 132.641 81.5977 133.156V133.586C81.5977 134.051 81.6621 134.481 81.791 134.875C81.9271 135.269 82.1169 135.609 82.3604 135.896C82.611 136.182 82.9118 136.404 83.2627 136.562C83.6208 136.719 84.0254 136.798 84.4766 136.798C85.0352 136.798 85.5544 136.69 86.0342 136.476C86.5212 136.254 86.9401 135.921 87.291 135.477L88.7949 137.109C88.5514 137.46 88.2184 137.797 87.7959 138.119C87.3805 138.441 86.8792 138.706 86.292 138.914C85.7048 139.115 85.0352 139.215 84.2832 139.215ZM93.9082 129.783V139H90.8037V127.377H93.7148L93.9082 129.783ZM93.4785 132.78H92.6191C92.6191 131.971 92.7158 131.226 92.9092 130.546C93.1097 129.858 93.3997 129.264 93.7793 128.763C94.166 128.254 94.6423 127.86 95.208 127.581C95.7738 127.302 96.429 127.162 97.1738 127.162C97.6895 127.162 98.1621 127.241 98.5918 127.398C99.0215 127.549 99.3903 127.789 99.6982 128.118C100.013 128.44 100.257 128.863 100.429 129.386C100.601 129.901 100.687 130.521 100.687 131.244V139H97.5928V131.588C97.5928 131.058 97.5212 130.65 97.3779 130.363C97.2347 130.077 97.0306 129.876 96.7656 129.762C96.5078 129.647 96.1963 129.59 95.8311 129.59C95.43 129.59 95.0791 129.672 94.7783 129.837C94.4847 130.002 94.2412 130.231 94.0479 130.524C93.8545 130.811 93.7113 131.147 93.6182 131.534C93.5251 131.921 93.4785 132.336 93.4785 132.78ZM100.396 132.426L99.29 132.565C99.29 131.806 99.3831 131.101 99.5693 130.449C99.7627 129.798 100.046 129.225 100.418 128.73C100.798 128.236 101.267 127.853 101.825 127.581C102.384 127.302 103.028 127.162 103.759 127.162C104.317 127.162 104.826 127.244 105.284 127.409C105.743 127.567 106.133 127.821 106.455 128.172C106.785 128.516 107.035 128.967 107.207 129.525C107.386 130.084 107.476 130.768 107.476 131.577V139H104.371V131.577C104.371 131.04 104.299 130.632 104.156 130.353C104.02 130.066 103.82 129.869 103.555 129.762C103.297 129.647 102.989 129.59 102.631 129.59C102.258 129.59 101.933 129.665 101.653 129.815C101.374 129.959 101.141 130.159 100.955 130.417C100.769 130.675 100.629 130.976 100.536 131.319C100.443 131.656 100.396 132.025 100.396 132.426ZM115.221 139.215C114.318 139.215 113.509 139.072 112.793 138.785C112.077 138.492 111.468 138.087 110.967 137.571C110.473 137.056 110.093 136.458 109.828 135.777C109.563 135.09 109.431 134.359 109.431 133.586V133.156C109.431 132.275 109.556 131.47 109.807 130.739C110.057 130.009 110.415 129.375 110.881 128.838C111.354 128.301 111.926 127.889 112.6 127.603C113.273 127.309 114.032 127.162 114.877 127.162C115.701 127.162 116.431 127.298 117.068 127.57C117.706 127.842 118.239 128.229 118.669 128.73C119.106 129.232 119.435 129.833 119.657 130.535C119.879 131.23 119.99 132.003 119.99 132.855V134.145H110.752V132.082H116.95V131.846C116.95 131.416 116.871 131.033 116.714 130.696C116.563 130.353 116.334 130.08 116.026 129.88C115.718 129.679 115.325 129.579 114.845 129.579C114.437 129.579 114.086 129.669 113.792 129.848C113.498 130.027 113.258 130.277 113.072 130.6C112.893 130.922 112.757 131.301 112.664 131.738C112.578 132.168 112.535 132.641 112.535 133.156V133.586C112.535 134.051 112.6 134.481 112.729 134.875C112.865 135.269 113.054 135.609 113.298 135.896C113.549 136.182 113.849 136.404 114.2 136.562C114.558 136.719 114.963 136.798 115.414 136.798C115.973 136.798 116.492 136.69 116.972 136.476C117.459 136.254 117.878 135.921 118.229 135.477L119.732 137.109C119.489 137.46 119.156 137.797 118.733 138.119C118.318 138.441 117.817 138.706 117.229 138.914C116.642 139.115 115.973 139.215 115.221 139.215ZM124.781 129.858V139H121.688V127.377H124.588L124.781 129.858ZM124.33 132.78H123.492C123.492 131.921 123.603 131.147 123.825 130.46C124.047 129.765 124.359 129.174 124.76 128.688C125.161 128.193 125.637 127.817 126.188 127.56C126.747 127.295 127.37 127.162 128.058 127.162C128.602 127.162 129.1 127.241 129.551 127.398C130.002 127.556 130.389 127.807 130.711 128.15C131.04 128.494 131.291 128.949 131.463 129.515C131.642 130.08 131.731 130.771 131.731 131.588V139H128.616V131.577C128.616 131.062 128.545 130.66 128.401 130.374C128.258 130.088 128.047 129.887 127.768 129.772C127.495 129.651 127.159 129.59 126.758 129.59C126.342 129.59 125.981 129.672 125.673 129.837C125.372 130.002 125.121 130.231 124.921 130.524C124.728 130.811 124.581 131.147 124.48 131.534C124.38 131.921 124.33 132.336 124.33 132.78ZM139.777 127.377V129.568H133.01V127.377H139.777ZM134.686 124.509H137.779V135.498C137.779 135.835 137.822 136.092 137.908 136.271C138.001 136.451 138.137 136.576 138.316 136.647C138.495 136.712 138.721 136.744 138.993 136.744C139.187 136.744 139.358 136.737 139.509 136.723C139.666 136.701 139.799 136.68 139.906 136.658L139.917 138.936C139.652 139.021 139.366 139.09 139.058 139.14C138.75 139.19 138.41 139.215 138.037 139.215C137.357 139.215 136.762 139.104 136.254 138.882C135.753 138.653 135.366 138.287 135.094 137.786C134.822 137.285 134.686 136.626 134.686 135.81V124.509ZM147.823 135.788C147.823 135.566 147.759 135.366 147.63 135.187C147.501 135.007 147.261 134.843 146.91 134.692C146.566 134.535 146.069 134.392 145.417 134.263C144.83 134.134 144.282 133.973 143.773 133.779C143.272 133.579 142.835 133.339 142.463 133.06C142.098 132.78 141.811 132.451 141.604 132.071C141.396 131.685 141.292 131.244 141.292 130.75C141.292 130.263 141.396 129.805 141.604 129.375C141.818 128.945 142.123 128.566 142.517 128.236C142.918 127.9 143.405 127.638 143.978 127.452C144.558 127.259 145.209 127.162 145.933 127.162C146.942 127.162 147.809 127.323 148.532 127.646C149.263 127.968 149.821 128.412 150.208 128.978C150.602 129.536 150.799 130.174 150.799 130.89H147.705C147.705 130.589 147.641 130.32 147.512 130.084C147.39 129.84 147.197 129.651 146.932 129.515C146.674 129.371 146.337 129.3 145.922 129.3C145.578 129.3 145.281 129.361 145.03 129.482C144.78 129.597 144.586 129.755 144.45 129.955C144.321 130.148 144.257 130.363 144.257 130.6C144.257 130.779 144.293 130.94 144.364 131.083C144.443 131.219 144.568 131.344 144.74 131.459C144.912 131.574 145.134 131.681 145.406 131.781C145.686 131.874 146.029 131.96 146.438 132.039C147.275 132.211 148.024 132.437 148.683 132.716C149.341 132.988 149.864 133.36 150.251 133.833C150.638 134.299 150.831 134.911 150.831 135.67C150.831 136.186 150.716 136.658 150.487 137.088C150.258 137.518 149.929 137.894 149.499 138.216C149.069 138.531 148.554 138.778 147.952 138.957C147.358 139.129 146.688 139.215 145.943 139.215C144.862 139.215 143.945 139.021 143.193 138.635C142.449 138.248 141.883 137.757 141.496 137.163C141.117 136.562 140.927 135.946 140.927 135.315H143.859C143.874 135.738 143.981 136.078 144.182 136.336C144.389 136.594 144.651 136.78 144.966 136.895C145.288 137.009 145.635 137.066 146.008 137.066C146.409 137.066 146.742 137.013 147.007 136.905C147.272 136.791 147.472 136.64 147.608 136.454C147.752 136.261 147.823 136.039 147.823 135.788ZM8.06738 162.465V148.5H11.1826V165H8.37891L8.06738 162.465ZM0.719727 159.328V159.103C0.719727 158.215 0.819987 157.409 1.02051 156.686C1.22103 155.955 1.51465 155.328 1.90137 154.806C2.28809 154.283 2.76432 153.878 3.33008 153.592C3.89583 153.305 4.54036 153.162 5.26367 153.162C5.94401 153.162 6.53841 153.305 7.04688 153.592C7.5625 153.878 7.99935 154.286 8.35742 154.816C8.72266 155.339 9.01628 155.959 9.23828 156.675C9.46029 157.384 9.62142 158.161 9.72168 159.006V159.5C9.62142 160.309 9.46029 161.061 9.23828 161.756C9.01628 162.451 8.72266 163.059 8.35742 163.582C7.99935 164.098 7.5625 164.499 7.04688 164.785C6.53125 165.072 5.92969 165.215 5.24219 165.215C4.51888 165.215 3.87435 165.068 3.30859 164.774C2.75 164.481 2.27734 164.069 1.89062 163.539C1.51107 163.009 1.22103 162.386 1.02051 161.67C0.819987 160.954 0.719727 160.173 0.719727 159.328ZM3.81348 159.103V159.328C3.81348 159.808 3.84928 160.256 3.9209 160.671C3.99967 161.086 4.125 161.455 4.29688 161.777C4.47591 162.092 4.70508 162.34 4.98438 162.519C5.27083 162.69 5.61816 162.776 6.02637 162.776C6.55632 162.776 6.99316 162.658 7.33691 162.422C7.68066 162.178 7.94206 161.845 8.12109 161.423C8.30729 161 8.41471 160.513 8.44336 159.962V158.555C8.42188 158.104 8.35742 157.699 8.25 157.341C8.14974 156.976 7.99935 156.664 7.79883 156.406C7.60547 156.148 7.36198 155.948 7.06836 155.805C6.7819 155.661 6.44173 155.59 6.04785 155.59C5.64681 155.59 5.30306 155.683 5.0166 155.869C4.73014 156.048 4.4974 156.295 4.31836 156.61C4.14648 156.925 4.01758 157.298 3.93164 157.728C3.85286 158.15 3.81348 158.608 3.81348 159.103ZM15.3398 148.5V150.058L15.0283 154.344H13.0732L13.084 150.219V148.5H15.3398ZM21.8496 165.215C20.9473 165.215 20.138 165.072 19.4219 164.785C18.7057 164.492 18.097 164.087 17.5957 163.571C17.1016 163.056 16.722 162.458 16.457 161.777C16.1921 161.09 16.0596 160.359 16.0596 159.586V159.156C16.0596 158.275 16.1849 157.47 16.4355 156.739C16.6862 156.009 17.0443 155.375 17.5098 154.838C17.9824 154.301 18.5553 153.889 19.2285 153.603C19.9017 153.309 20.6608 153.162 21.5059 153.162C22.3294 153.162 23.0599 153.298 23.6973 153.57C24.3346 153.842 24.8682 154.229 25.2979 154.73C25.7347 155.232 26.0641 155.833 26.2861 156.535C26.5081 157.23 26.6191 158.003 26.6191 158.855V160.145H17.3809V158.082H23.5791V157.846C23.5791 157.416 23.5003 157.033 23.3428 156.696C23.1924 156.353 22.9632 156.08 22.6553 155.88C22.3473 155.679 21.9535 155.579 21.4736 155.579C21.0654 155.579 20.7145 155.669 20.4209 155.848C20.1273 156.027 19.8874 156.277 19.7012 156.6C19.5221 156.922 19.3861 157.301 19.293 157.738C19.207 158.168 19.1641 158.641 19.1641 159.156V159.586C19.1641 160.051 19.2285 160.481 19.3574 160.875C19.4935 161.269 19.6833 161.609 19.9268 161.896C20.1774 162.182 20.4782 162.404 20.8291 162.562C21.1872 162.719 21.5918 162.798 22.043 162.798C22.6016 162.798 23.1208 162.69 23.6006 162.476C24.0876 162.254 24.5065 161.921 24.8574 161.477L26.3613 163.109C26.1178 163.46 25.7848 163.797 25.3623 164.119C24.9469 164.441 24.4456 164.706 23.8584 164.914C23.2712 165.115 22.6016 165.215 21.8496 165.215ZM31.4102 155.858V165H28.3164V153.377H31.2168L31.4102 155.858ZM30.959 158.78H30.1211C30.1211 157.921 30.2321 157.147 30.4541 156.46C30.6761 155.765 30.9876 155.174 31.3887 154.688C31.7897 154.193 32.266 153.817 32.8174 153.56C33.376 153.295 33.999 153.162 34.6865 153.162C35.2308 153.162 35.7285 153.241 36.1797 153.398C36.6309 153.556 37.0176 153.807 37.3398 154.15C37.6693 154.494 37.9199 154.949 38.0918 155.515C38.2708 156.08 38.3604 156.771 38.3604 157.588V165H35.2451V157.577C35.2451 157.062 35.1735 156.66 35.0303 156.374C34.887 156.088 34.6758 155.887 34.3965 155.772C34.1243 155.651 33.7878 155.59 33.3867 155.59C32.9714 155.59 32.6097 155.672 32.3018 155.837C32.001 156.002 31.7503 156.231 31.5498 156.524C31.3564 156.811 31.2096 157.147 31.1094 157.534C31.0091 157.921 30.959 158.336 30.959 158.78ZM46.9971 161.788C46.9971 161.566 46.9326 161.366 46.8037 161.187C46.6748 161.007 46.4349 160.843 46.084 160.692C45.7402 160.535 45.2425 160.392 44.5908 160.263C44.0036 160.134 43.4557 159.973 42.9473 159.779C42.446 159.579 42.0091 159.339 41.6367 159.06C41.2715 158.78 40.985 158.451 40.7773 158.071C40.5697 157.685 40.4658 157.244 40.4658 156.75C40.4658 156.263 40.5697 155.805 40.7773 155.375C40.9922 154.945 41.2965 154.566 41.6904 154.236C42.0915 153.9 42.5785 153.638 43.1514 153.452C43.7314 153.259 44.3831 153.162 45.1064 153.162C46.1162 153.162 46.9827 153.323 47.7061 153.646C48.4365 153.968 48.9951 154.412 49.3818 154.978C49.7757 155.536 49.9727 156.174 49.9727 156.89H46.8789C46.8789 156.589 46.8145 156.32 46.6855 156.084C46.5638 155.84 46.3704 155.651 46.1055 155.515C45.8477 155.371 45.5111 155.3 45.0957 155.3C44.752 155.3 44.4548 155.361 44.2041 155.482C43.9535 155.597 43.7601 155.755 43.624 155.955C43.4951 156.148 43.4307 156.363 43.4307 156.6C43.4307 156.779 43.4665 156.94 43.5381 157.083C43.6169 157.219 43.7422 157.344 43.9141 157.459C44.0859 157.574 44.3079 157.681 44.5801 157.781C44.8594 157.874 45.2031 157.96 45.6113 158.039C46.4492 158.211 47.1976 158.437 47.8564 158.716C48.5153 158.988 49.0381 159.36 49.4248 159.833C49.8115 160.299 50.0049 160.911 50.0049 161.67C50.0049 162.186 49.8903 162.658 49.6611 163.088C49.432 163.518 49.1025 163.894 48.6729 164.216C48.2432 164.531 47.7275 164.778 47.126 164.957C46.5316 165.129 45.862 165.215 45.1172 165.215C44.0358 165.215 43.1191 165.021 42.3672 164.635C41.6224 164.248 41.0566 163.757 40.6699 163.163C40.2904 162.562 40.1006 161.946 40.1006 161.315H43.0332C43.0475 161.738 43.1549 162.078 43.3555 162.336C43.5632 162.594 43.8245 162.78 44.1396 162.895C44.4619 163.009 44.8092 163.066 45.1816 163.066C45.5827 163.066 45.9157 163.013 46.1807 162.905C46.4456 162.791 46.6462 162.64 46.7822 162.454C46.9255 162.261 46.9971 162.039 46.9971 161.788ZM57.3633 165.215C56.4609 165.215 55.6517 165.072 54.9355 164.785C54.2194 164.492 53.6107 164.087 53.1094 163.571C52.6152 163.056 52.2357 162.458 51.9707 161.777C51.7057 161.09 51.5732 160.359 51.5732 159.586V159.156C51.5732 158.275 51.6986 157.47 51.9492 156.739C52.1999 156.009 52.5579 155.375 53.0234 154.838C53.4961 154.301 54.069 153.889 54.7422 153.603C55.4154 153.309 56.1745 153.162 57.0195 153.162C57.8431 153.162 58.5736 153.298 59.2109 153.57C59.8483 153.842 60.3818 154.229 60.8115 154.73C61.2484 155.232 61.5778 155.833 61.7998 156.535C62.0218 157.23 62.1328 158.003 62.1328 158.855V160.145H52.8945V158.082H59.0928V157.846C59.0928 157.416 59.014 157.033 58.8564 156.696C58.7061 156.353 58.4769 156.08 58.1689 155.88C57.861 155.679 57.4671 155.579 56.9873 155.579C56.5791 155.579 56.2282 155.669 55.9346 155.848C55.641 156.027 55.401 156.277 55.2148 156.6C55.0358 156.922 54.8997 157.301 54.8066 157.738C54.7207 158.168 54.6777 158.641 54.6777 159.156V159.586C54.6777 160.051 54.7422 160.481 54.8711 160.875C55.0072 161.269 55.1969 161.609 55.4404 161.896C55.6911 162.182 55.9919 162.404 56.3428 162.562C56.7008 162.719 57.1055 162.798 57.5566 162.798C58.1152 162.798 58.6344 162.69 59.1143 162.476C59.6012 162.254 60.0202 161.921 60.3711 161.477L61.875 163.109C61.6315 163.46 61.2985 163.797 60.876 164.119C60.4606 164.441 59.9593 164.706 59.3721 164.914C58.7848 165.115 58.1152 165.215 57.3633 165.215ZM67.1602 153.377V165H64.0557V153.377H67.1602ZM63.8623 150.348C63.8623 149.896 64.0199 149.524 64.335 149.23C64.6501 148.937 65.0726 148.79 65.6025 148.79C66.1253 148.79 66.5443 148.937 66.8594 149.23C67.1816 149.524 67.3428 149.896 67.3428 150.348C67.3428 150.799 67.1816 151.171 66.8594 151.465C66.5443 151.758 66.1253 151.905 65.6025 151.905C65.0726 151.905 64.6501 151.758 64.335 151.465C64.0199 151.171 63.8623 150.799 63.8623 150.348ZM77.0752 153.377H79.8789V164.613C79.8789 165.673 79.6426 166.572 79.1699 167.31C78.7044 168.054 78.0527 168.617 77.2148 168.996C76.377 169.383 75.403 169.576 74.293 169.576C73.806 169.576 73.2904 169.512 72.7461 169.383C72.209 169.254 71.6934 169.053 71.1992 168.781C70.7122 168.509 70.304 168.165 69.9746 167.75L71.3389 165.924C71.6969 166.339 72.1123 166.661 72.585 166.891C73.0576 167.127 73.5804 167.245 74.1533 167.245C74.7119 167.245 75.1846 167.141 75.5713 166.934C75.958 166.733 76.2552 166.436 76.4629 166.042C76.6706 165.655 76.7744 165.186 76.7744 164.635V156.062L77.0752 153.377ZM69.2549 159.328V159.103C69.2549 158.215 69.3623 157.409 69.5771 156.686C69.7992 155.955 70.1107 155.328 70.5117 154.806C70.9199 154.283 71.4141 153.878 71.9941 153.592C72.5742 153.305 73.2295 153.162 73.96 153.162C74.7334 153.162 75.3815 153.305 75.9043 153.592C76.4271 153.878 76.8568 154.286 77.1934 154.816C77.5299 155.339 77.7913 155.959 77.9775 156.675C78.1709 157.384 78.3213 158.161 78.4287 159.006V159.5C78.3213 160.309 78.1602 161.061 77.9453 161.756C77.7305 162.451 77.4476 163.059 77.0967 163.582C76.7458 164.098 76.3089 164.499 75.7861 164.785C75.2705 165.072 74.6546 165.215 73.9385 165.215C73.2223 165.215 72.5742 165.068 71.9941 164.774C71.4212 164.481 70.9307 164.069 70.5225 163.539C70.1143 163.009 69.7992 162.386 69.5771 161.67C69.3623 160.954 69.2549 160.173 69.2549 159.328ZM72.3486 159.103V159.328C72.3486 159.808 72.3952 160.256 72.4883 160.671C72.5814 161.086 72.7246 161.455 72.918 161.777C73.1185 162.092 73.3656 162.34 73.6592 162.519C73.96 162.69 74.3145 162.776 74.7227 162.776C75.2884 162.776 75.7503 162.658 76.1084 162.422C76.4665 162.178 76.735 161.845 76.9141 161.423C77.0931 161 77.1969 160.513 77.2256 159.962V158.555C77.2113 158.104 77.1504 157.699 77.043 157.341C76.9355 156.976 76.7852 156.664 76.5918 156.406C76.3984 156.148 76.1478 155.948 75.8398 155.805C75.5319 155.661 75.1667 155.59 74.7441 155.59C74.3359 155.59 73.9814 155.683 73.6807 155.869C73.387 156.048 73.14 156.295 72.9395 156.61C72.7461 156.925 72.5993 157.298 72.499 157.728C72.3988 158.15 72.3486 158.608 72.3486 159.103ZM85.3145 155.858V165H82.2207V153.377H85.1211L85.3145 155.858ZM84.8633 158.78H84.0254C84.0254 157.921 84.1364 157.147 84.3584 156.46C84.5804 155.765 84.8919 155.174 85.293 154.688C85.694 154.193 86.1702 153.817 86.7217 153.56C87.2803 153.295 87.9033 153.162 88.5908 153.162C89.1351 153.162 89.6328 153.241 90.084 153.398C90.5352 153.556 90.9219 153.807 91.2441 154.15C91.5736 154.494 91.8242 154.949 91.9961 155.515C92.1751 156.08 92.2646 156.771 92.2646 157.588V165H89.1494V157.577C89.1494 157.062 89.0778 156.66 88.9346 156.374C88.7913 156.088 88.5801 155.887 88.3008 155.772C88.0286 155.651 87.6921 155.59 87.291 155.59C86.8757 155.59 86.514 155.672 86.2061 155.837C85.9053 156.002 85.6546 156.231 85.4541 156.524C85.2607 156.811 85.1139 157.147 85.0137 157.534C84.9134 157.921 84.8633 158.336 84.8633 158.78ZM99.9668 165.215C99.0645 165.215 98.2552 165.072 97.5391 164.785C96.8229 164.492 96.2142 164.087 95.7129 163.571C95.2188 163.056 94.8392 162.458 94.5742 161.777C94.3092 161.09 94.1768 160.359 94.1768 159.586V159.156C94.1768 158.275 94.3021 157.47 94.5527 156.739C94.8034 156.009 95.1615 155.375 95.627 154.838C96.0996 154.301 96.6725 153.889 97.3457 153.603C98.0189 153.309 98.778 153.162 99.623 153.162C100.447 153.162 101.177 153.298 101.814 153.57C102.452 153.842 102.985 154.229 103.415 154.73C103.852 155.232 104.181 155.833 104.403 156.535C104.625 157.23 104.736 158.003 104.736 158.855V160.145H95.498V158.082H101.696V157.846C101.696 157.416 101.618 157.033 101.46 156.696C101.31 156.353 101.08 156.08 100.772 155.88C100.465 155.679 100.071 155.579 99.5908 155.579C99.1826 155.579 98.8317 155.669 98.5381 155.848C98.2445 156.027 98.0046 156.277 97.8184 156.6C97.6393 156.922 97.5033 157.301 97.4102 157.738C97.3242 158.168 97.2812 158.641 97.2812 159.156V159.586C97.2812 160.051 97.3457 160.481 97.4746 160.875C97.6107 161.269 97.8005 161.609 98.0439 161.896C98.2946 162.182 98.5954 162.404 98.9463 162.562C99.3044 162.719 99.709 162.798 100.16 162.798C100.719 162.798 101.238 162.69 101.718 162.476C102.205 162.254 102.624 161.921 102.975 161.477L104.479 163.109C104.235 163.46 103.902 163.797 103.479 164.119C103.064 164.441 102.563 164.706 101.976 164.914C101.388 165.115 100.719 165.215 99.9668 165.215ZM109.592 155.783V165H106.487V153.377H109.398L109.592 155.783ZM109.162 158.78H108.303C108.303 157.971 108.399 157.226 108.593 156.546C108.793 155.858 109.083 155.264 109.463 154.763C109.85 154.254 110.326 153.86 110.892 153.581C111.457 153.302 112.113 153.162 112.857 153.162C113.373 153.162 113.846 153.241 114.275 153.398C114.705 153.549 115.074 153.789 115.382 154.118C115.697 154.44 115.94 154.863 116.112 155.386C116.284 155.901 116.37 156.521 116.37 157.244V165H113.276V157.588C113.276 157.058 113.205 156.65 113.062 156.363C112.918 156.077 112.714 155.876 112.449 155.762C112.191 155.647 111.88 155.59 111.515 155.59C111.114 155.59 110.763 155.672 110.462 155.837C110.168 156.002 109.925 156.231 109.731 156.524C109.538 156.811 109.395 157.147 109.302 157.534C109.209 157.921 109.162 158.336 109.162 158.78ZM116.08 158.426L114.974 158.565C114.974 157.806 115.067 157.101 115.253 156.449C115.446 155.798 115.729 155.225 116.102 154.73C116.481 154.236 116.95 153.853 117.509 153.581C118.067 153.302 118.712 153.162 119.442 153.162C120.001 153.162 120.509 153.244 120.968 153.409C121.426 153.567 121.816 153.821 122.139 154.172C122.468 154.516 122.719 154.967 122.891 155.525C123.07 156.084 123.159 156.768 123.159 157.577V165H120.055V157.577C120.055 157.04 119.983 156.632 119.84 156.353C119.704 156.066 119.503 155.869 119.238 155.762C118.98 155.647 118.673 155.59 118.314 155.59C117.942 155.59 117.616 155.665 117.337 155.815C117.058 155.959 116.825 156.159 116.639 156.417C116.452 156.675 116.313 156.976 116.22 157.319C116.127 157.656 116.08 158.025 116.08 158.426ZM130.904 165.215C130.002 165.215 129.193 165.072 128.477 164.785C127.76 164.492 127.152 164.087 126.65 163.571C126.156 163.056 125.777 162.458 125.512 161.777C125.247 161.09 125.114 160.359 125.114 159.586V159.156C125.114 158.275 125.24 157.47 125.49 156.739C125.741 156.009 126.099 155.375 126.564 154.838C127.037 154.301 127.61 153.889 128.283 153.603C128.956 153.309 129.715 153.162 130.561 153.162C131.384 153.162 132.115 153.298 132.752 153.57C133.389 153.842 133.923 154.229 134.353 154.73C134.789 155.232 135.119 155.833 135.341 156.535C135.563 157.23 135.674 158.003 135.674 158.855V160.145H126.436V158.082H132.634V157.846C132.634 157.416 132.555 157.033 132.397 156.696C132.247 156.353 132.018 156.08 131.71 155.88C131.402 155.679 131.008 155.579 130.528 155.579C130.12 155.579 129.769 155.669 129.476 155.848C129.182 156.027 128.942 156.277 128.756 156.6C128.577 156.922 128.441 157.301 128.348 157.738C128.262 158.168 128.219 158.641 128.219 159.156V159.586C128.219 160.051 128.283 160.481 128.412 160.875C128.548 161.269 128.738 161.609 128.981 161.896C129.232 162.182 129.533 162.404 129.884 162.562C130.242 162.719 130.646 162.798 131.098 162.798C131.656 162.798 132.175 162.69 132.655 162.476C133.142 162.254 133.561 161.921 133.912 161.477L135.416 163.109C135.173 163.46 134.84 163.797 134.417 164.119C134.002 164.441 133.5 164.706 132.913 164.914C132.326 165.115 131.656 165.215 130.904 165.215ZM140.465 155.858V165H137.371V153.377H140.271L140.465 155.858ZM140.014 158.78H139.176C139.176 157.921 139.287 157.147 139.509 156.46C139.731 155.765 140.042 155.174 140.443 154.688C140.844 154.193 141.321 153.817 141.872 153.56C142.431 153.295 143.054 153.162 143.741 153.162C144.285 153.162 144.783 153.241 145.234 153.398C145.686 153.556 146.072 153.807 146.395 154.15C146.724 154.494 146.975 154.949 147.146 155.515C147.326 156.08 147.415 156.771 147.415 157.588V165H144.3V157.577C144.3 157.062 144.228 156.66 144.085 156.374C143.942 156.088 143.73 155.887 143.451 155.772C143.179 155.651 142.842 155.59 142.441 155.59C142.026 155.59 141.664 155.672 141.356 155.837C141.056 156.002 140.805 156.231 140.604 156.524C140.411 156.811 140.264 157.147 140.164 157.534C140.064 157.921 140.014 158.336 140.014 158.78ZM155.461 153.377V155.568H148.693V153.377H155.461ZM150.369 150.509H153.463V161.498C153.463 161.835 153.506 162.092 153.592 162.271C153.685 162.451 153.821 162.576 154 162.647C154.179 162.712 154.405 162.744 154.677 162.744C154.87 162.744 155.042 162.737 155.192 162.723C155.35 162.701 155.482 162.68 155.59 162.658L155.601 164.936C155.336 165.021 155.049 165.09 154.741 165.14C154.433 165.19 154.093 165.215 153.721 165.215C153.04 165.215 152.446 165.104 151.938 164.882C151.436 164.653 151.049 164.287 150.777 163.786C150.505 163.285 150.369 162.626 150.369 161.81V150.509ZM7.4873 187.788C7.4873 187.566 7.42285 187.366 7.29395 187.187C7.16504 187.007 6.92513 186.843 6.57422 186.692C6.23047 186.535 5.73275 186.392 5.08105 186.263C4.49382 186.134 3.94596 185.973 3.4375 185.779C2.9362 185.579 2.49935 185.339 2.12695 185.06C1.76172 184.78 1.47526 184.451 1.26758 184.071C1.0599 183.685 0.956055 183.244 0.956055 182.75C0.956055 182.263 1.0599 181.805 1.26758 181.375C1.48242 180.945 1.78678 180.566 2.18066 180.236C2.58171 179.9 3.06868 179.638 3.6416 179.452C4.22168 179.259 4.87337 179.162 5.59668 179.162C6.60645 179.162 7.47298 179.323 8.19629 179.646C8.92676 179.968 9.48535 180.412 9.87207 180.978C10.266 181.536 10.4629 182.174 10.4629 182.89H7.36914C7.36914 182.589 7.30469 182.32 7.17578 182.084C7.05404 181.84 6.86068 181.651 6.5957 181.515C6.33789 181.371 6.0013 181.3 5.58594 181.3C5.24219 181.3 4.94499 181.361 4.69434 181.482C4.44368 181.597 4.25033 181.755 4.11426 181.955C3.98535 182.148 3.9209 182.363 3.9209 182.6C3.9209 182.779 3.95671 182.94 4.02832 183.083C4.1071 183.219 4.23242 183.344 4.4043 183.459C4.57617 183.574 4.79818 183.681 5.07031 183.781C5.34961 183.874 5.69336 183.96 6.10156 184.039C6.93945 184.211 7.68783 184.437 8.34668 184.716C9.00553 184.988 9.52832 185.36 9.91504 185.833C10.3018 186.299 10.4951 186.911 10.4951 187.67C10.4951 188.186 10.3805 188.658 10.1514 189.088C9.9222 189.518 9.59277 189.894 9.16309 190.216C8.7334 190.531 8.21777 190.778 7.61621 190.957C7.02181 191.129 6.35221 191.215 5.60742 191.215C4.52604 191.215 3.60938 191.021 2.85742 190.635C2.11263 190.248 1.54688 189.757 1.16016 189.163C0.780599 188.562 0.59082 187.946 0.59082 187.315H3.52344C3.53776 187.738 3.64518 188.078 3.8457 188.336C4.05339 188.594 4.31478 188.78 4.62988 188.895C4.95215 189.009 5.29948 189.066 5.67188 189.066C6.07292 189.066 6.40592 189.013 6.6709 188.905C6.93587 188.791 7.13639 188.64 7.27246 188.454C7.41569 188.261 7.4873 188.039 7.4873 187.788ZM19.3789 188.218V179.377H22.4727V191H19.5615L19.3789 188.218ZM19.7227 185.833L20.6357 185.812C20.6357 186.585 20.5462 187.305 20.3672 187.971C20.1882 188.63 19.9196 189.202 19.5615 189.689C19.2035 190.169 18.7523 190.545 18.208 190.817C17.6637 191.082 17.0228 191.215 16.2852 191.215C15.7194 191.215 15.1966 191.136 14.7168 190.979C14.2441 190.814 13.8359 190.56 13.4922 190.216C13.1556 189.865 12.8906 189.417 12.6973 188.873C12.5111 188.322 12.418 187.659 12.418 186.886V179.377H15.5117V186.907C15.5117 187.251 15.5511 187.541 15.6299 187.777C15.7158 188.014 15.834 188.207 15.9844 188.357C16.1348 188.508 16.3102 188.615 16.5107 188.68C16.7184 188.744 16.9476 188.776 17.1982 188.776C17.8356 188.776 18.3369 188.647 18.7021 188.39C19.0745 188.132 19.3359 187.781 19.4863 187.337C19.6439 186.886 19.7227 186.384 19.7227 185.833ZM27.9297 181.611V195.469H24.8359V179.377H27.7041L27.9297 181.611ZM35.2881 185.06V185.285C35.2881 186.13 35.1878 186.914 34.9873 187.638C34.7939 188.361 34.5075 188.991 34.1279 189.528C33.7484 190.058 33.2757 190.474 32.71 190.774C32.1514 191.068 31.5068 191.215 30.7764 191.215C30.0674 191.215 29.4515 191.072 28.9287 190.785C28.4059 190.499 27.9655 190.098 27.6074 189.582C27.2565 189.059 26.9736 188.454 26.7588 187.767C26.5439 187.079 26.3792 186.341 26.2646 185.554V184.963C26.3792 184.118 26.5439 183.344 26.7588 182.643C26.9736 181.934 27.2565 181.321 27.6074 180.806C27.9655 180.283 28.4023 179.878 28.918 179.592C29.4408 179.305 30.0531 179.162 30.7549 179.162C31.4925 179.162 32.1406 179.302 32.6992 179.581C33.265 179.86 33.7376 180.261 34.1172 180.784C34.5039 181.307 34.7939 181.93 34.9873 182.653C35.1878 183.377 35.2881 184.179 35.2881 185.06ZM32.1836 185.285V185.06C32.1836 184.565 32.1406 184.111 32.0547 183.695C31.9759 183.273 31.847 182.904 31.668 182.589C31.4961 182.274 31.2669 182.03 30.9805 181.858C30.7012 181.679 30.361 181.59 29.96 181.59C29.5374 181.59 29.1758 181.658 28.875 181.794C28.5814 181.93 28.3415 182.127 28.1553 182.385C27.9691 182.643 27.8294 182.951 27.7363 183.309C27.6432 183.667 27.5859 184.071 27.5645 184.522V186.016C27.6003 186.546 27.7005 187.022 27.8652 187.444C28.0299 187.86 28.2842 188.189 28.6279 188.433C28.9717 188.676 29.4229 188.798 29.9814 188.798C30.3896 188.798 30.7334 188.708 31.0127 188.529C31.292 188.343 31.5176 188.089 31.6895 187.767C31.8685 187.444 31.9938 187.072 32.0654 186.649C32.1442 186.227 32.1836 185.772 32.1836 185.285ZM42.5605 191.215C41.6582 191.215 40.849 191.072 40.1328 190.785C39.4167 190.492 38.8079 190.087 38.3066 189.571C37.8125 189.056 37.4329 188.458 37.168 187.777C36.903 187.09 36.7705 186.359 36.7705 185.586V185.156C36.7705 184.275 36.8958 183.47 37.1465 182.739C37.3971 182.009 37.7552 181.375 38.2207 180.838C38.6934 180.301 39.2663 179.889 39.9395 179.603C40.6126 179.309 41.3717 179.162 42.2168 179.162C43.0404 179.162 43.7708 179.298 44.4082 179.57C45.0456 179.842 45.5791 180.229 46.0088 180.73C46.4456 181.232 46.7751 181.833 46.9971 182.535C47.2191 183.23 47.3301 184.003 47.3301 184.855V186.145H38.0918V184.082H44.29V183.846C44.29 183.416 44.2113 183.033 44.0537 182.696C43.9033 182.353 43.6742 182.08 43.3662 181.88C43.0583 181.679 42.6644 181.579 42.1846 181.579C41.7764 181.579 41.4255 181.669 41.1318 181.848C40.8382 182.027 40.5983 182.277 40.4121 182.6C40.2331 182.922 40.097 183.301 40.0039 183.738C39.918 184.168 39.875 184.641 39.875 185.156V185.586C39.875 186.051 39.9395 186.481 40.0684 186.875C40.2044 187.269 40.3942 187.609 40.6377 187.896C40.8883 188.182 41.1891 188.404 41.54 188.562C41.8981 188.719 42.3027 188.798 42.7539 188.798C43.3125 188.798 43.8317 188.69 44.3115 188.476C44.7985 188.254 45.2174 187.921 45.5684 187.477L47.0723 189.109C46.8288 189.46 46.4958 189.797 46.0732 190.119C45.6579 190.441 45.1566 190.706 44.5693 190.914C43.9821 191.115 43.3125 191.215 42.5605 191.215ZM40.3799 177.798L42.4854 174.489H45.8477L42.8936 177.798H40.3799ZM52.1855 181.912V191H49.0918V179.377H52.0029L52.1855 181.912ZM55.6875 179.302L55.6338 182.17C55.4834 182.148 55.3008 182.131 55.0859 182.116C54.8783 182.095 54.6885 182.084 54.5166 182.084C54.0798 182.084 53.7002 182.141 53.3779 182.256C53.0628 182.363 52.7979 182.524 52.583 182.739C52.3753 182.954 52.2178 183.215 52.1104 183.523C52.0101 183.831 51.9528 184.182 51.9385 184.576L51.3154 184.383C51.3154 183.631 51.3906 182.94 51.541 182.31C51.6914 181.672 51.9098 181.117 52.1963 180.645C52.4899 180.172 52.848 179.807 53.2705 179.549C53.693 179.291 54.1764 179.162 54.7207 179.162C54.8926 179.162 55.068 179.176 55.2471 179.205C55.4261 179.227 55.5729 179.259 55.6875 179.302ZM60.4141 179.377V191H57.3096V179.377H60.4141ZM57.1162 176.348C57.1162 175.896 57.2738 175.524 57.5889 175.23C57.904 174.937 58.3265 174.79 58.8564 174.79C59.3792 174.79 59.7982 174.937 60.1133 175.23C60.4355 175.524 60.5967 175.896 60.5967 176.348C60.5967 176.799 60.4355 177.171 60.1133 177.465C59.7982 177.758 59.3792 177.905 58.8564 177.905C58.3265 177.905 57.904 177.758 57.5889 177.465C57.2738 177.171 57.1162 176.799 57.1162 176.348ZM68.3203 191.215C67.418 191.215 66.6087 191.072 65.8926 190.785C65.1764 190.492 64.5677 190.087 64.0664 189.571C63.5723 189.056 63.1927 188.458 62.9277 187.777C62.6628 187.09 62.5303 186.359 62.5303 185.586V185.156C62.5303 184.275 62.6556 183.47 62.9062 182.739C63.1569 182.009 63.515 181.375 63.9805 180.838C64.4531 180.301 65.026 179.889 65.6992 179.603C66.3724 179.309 67.1315 179.162 67.9766 179.162C68.8001 179.162 69.5306 179.298 70.168 179.57C70.8053 179.842 71.3389 180.229 71.7686 180.73C72.2054 181.232 72.5348 181.833 72.7568 182.535C72.9788 183.23 73.0898 184.003 73.0898 184.855V186.145H63.8516V184.082H70.0498V183.846C70.0498 183.416 69.971 183.033 69.8135 182.696C69.6631 182.353 69.4339 182.08 69.126 181.88C68.818 181.679 68.4242 181.579 67.9443 181.579C67.5361 181.579 67.1852 181.669 66.8916 181.848C66.598 182.027 66.3581 182.277 66.1719 182.6C65.9928 182.922 65.8568 183.301 65.7637 183.738C65.6777 184.168 65.6348 184.641 65.6348 185.156V185.586C65.6348 186.051 65.6992 186.481 65.8281 186.875C65.9642 187.269 66.154 187.609 66.3975 187.896C66.6481 188.182 66.9489 188.404 67.2998 188.562C67.6579 188.719 68.0625 188.798 68.5137 188.798C69.0723 188.798 69.5915 188.69 70.0713 188.476C70.5583 188.254 70.9772 187.921 71.3281 187.477L72.832 189.109C72.5885 189.46 72.2555 189.797 71.833 190.119C71.4176 190.441 70.9163 190.706 70.3291 190.914C69.7419 191.115 69.0723 191.215 68.3203 191.215ZM81.7266 188.218V179.377H84.8203V191H81.9092L81.7266 188.218ZM82.0703 185.833L82.9834 185.812C82.9834 186.585 82.8939 187.305 82.7148 187.971C82.5358 188.63 82.2673 189.202 81.9092 189.689C81.5511 190.169 81.0999 190.545 80.5557 190.817C80.0114 191.082 79.3704 191.215 78.6328 191.215C78.0671 191.215 77.5443 191.136 77.0645 190.979C76.5918 190.814 76.1836 190.56 75.8398 190.216C75.5033 189.865 75.2383 189.417 75.0449 188.873C74.8587 188.322 74.7656 187.659 74.7656 186.886V179.377H77.8594V186.907C77.8594 187.251 77.8988 187.541 77.9775 187.777C78.0635 188.014 78.1816 188.207 78.332 188.357C78.4824 188.508 78.6579 188.615 78.8584 188.68C79.0661 188.744 79.2952 188.776 79.5459 188.776C80.1833 188.776 80.6846 188.647 81.0498 188.39C81.4222 188.132 81.6836 187.781 81.834 187.337C81.9915 186.886 82.0703 186.384 82.0703 185.833ZM90.2773 181.912V191H87.1836V179.377H90.0947L90.2773 181.912ZM93.7793 179.302L93.7256 182.17C93.5752 182.148 93.3926 182.131 93.1777 182.116C92.9701 182.095 92.7803 182.084 92.6084 182.084C92.1715 182.084 91.792 182.141 91.4697 182.256C91.1546 182.363 90.8896 182.524 90.6748 182.739C90.4671 182.954 90.3096 183.215 90.2021 183.523C90.1019 183.831 90.0446 184.182 90.0303 184.576L89.4072 184.383C89.4072 183.631 89.4824 182.94 89.6328 182.31C89.7832 181.672 90.0016 181.117 90.2881 180.645C90.5817 180.172 90.9398 179.807 91.3623 179.549C91.7848 179.291 92.2682 179.162 92.8125 179.162C92.9844 179.162 93.1598 179.176 93.3389 179.205C93.5179 179.227 93.6647 179.259 93.7793 179.302Z" fill="white"/>
</svg>
