<svg width="249" height="50" viewBox="0 0 249 50" fill="none" xmlns="http://www.w3.org/2000/svg">
<g clip-path="url(#clip0_469_449)">
<path d="M7.71728 -3.94394H0V49.3975H7.71728V-3.94394Z" fill="white"/>
<path d="M19.2157 24.246C19.9154 25.3477 20.4617 26.5397 20.8397 27.7889V13.429C20.6701 13.9269 20.4953 14.3961 20.3224 14.826C19.7831 16.2676 18.9586 17.5857 17.8981 18.7013C16.9792 19.6232 15.8426 20.2986 14.5935 20.665C15.0888 20.8177 15.5672 21.0205 16.0212 21.2704C17.3179 21.9798 18.4161 23.0028 19.2157 24.246Z" fill="white"/>
<path d="M27.0765 48.4758C26.5161 48.8336 25.9259 49.1424 25.3124 49.3989H34.6429V38.7728C34.0084 40.5699 33.1238 42.2686 32.0151 43.8188C30.6816 45.6725 29.0049 47.2531 27.0758 48.4751" fill="white"/>
<path d="M27.0765 -3.07757C26.5161 -3.43586 25.9259 -3.74516 25.3124 -4.00201L34.6429 -4.00201V6.62476C34.0084 4.82762 33.1238 3.12889 32.0151 1.57869C30.6815 -0.274895 29.0048 -1.85553 27.0758 -3.07757" fill="white"/>
<path d="M49.2612 21.9685C50.6041 22.9592 52.0858 23.7464 53.6585 24.3047C55.2555 24.8538 56.5771 25.2948 57.6232 25.6276L67.6927 28.7854C69.1611 29.2379 70.6349 29.7686 72.0739 30.3606C73.529 30.9545 74.9023 31.732 76.1602 32.6741C77.4155 33.6217 78.467 34.8126 79.2519 36.1756C80.1084 37.7423 80.5353 39.5076 80.4894 41.2924C80.5224 42.9473 80.2214 44.5918 79.6043 46.1276C80.3362 45.1247 80.9459 44.0382 81.4205 42.891C82.2617 40.8254 82.6846 38.6134 82.6647 36.3832C82.6647 32.8456 81.6468 30.1203 79.5549 28.0545C77.3977 25.9233 74.1277 24.1725 69.8326 22.8443L60.2664 19.9361C58.9437 19.5477 57.6538 19.0549 56.4091 18.4623C54.9993 17.7995 53.6894 16.9421 52.5178 15.9153C51.2801 14.8226 50.2583 13.5074 49.5055 12.0379C48.662 10.3198 48.2458 8.42342 48.292 6.50996C48.3143 4.9239 48.5532 3.34833 49.0022 1.827C49.5095 0.0583875 50.3766 -1.58636 51.5493 -3.00415C51.6013 -3.07089 51.6567 -3.13764 51.7121 -3.19571C48.9787 -1.26435 46.8494 1.4029 45.5714 4.4962C44.6592 6.71975 44.194 9.10125 44.2024 11.5046C44.1121 13.731 44.6169 15.9412 45.6649 17.9077C46.5726 19.4933 47.7962 20.8756 49.2599 21.9692" fill="white"/>
<path d="M73.9655 -3.07757C73.4052 -3.43589 72.815 -3.74519 72.2014 -4.00201L81.532 -4.00201V6.62476C80.8976 4.82755 80.013 3.12879 78.9042 1.57869C77.5706 -0.274906 75.8938 -1.85554 73.9649 -3.07757" fill="white"/>
<path d="M52.4557 48.4758C53.0161 48.8336 53.6064 49.1424 54.2198 49.3989H44.8893V38.7728C45.5238 40.5699 46.4084 42.2686 47.5171 43.8188C48.8506 45.6725 50.5274 47.2531 52.4564 48.4751" fill="white"/>
<path d="M120.696 -0.322255C118.803 -1.6185 116.701 -2.57921 114.482 -3.16234L114.365 -3.19571C114.863 -2.88258 115.329 -2.52082 115.755 -2.11574C117.072 -0.807721 118.02 0.824704 118.504 2.61661C119.101 4.8777 119.377 7.21112 119.327 9.54895C119.327 14.3861 118.137 18.0925 115.789 20.5522C115.242 21.1265 114.635 21.6411 113.979 22.0874C116.128 21.5167 118.182 20.634 120.075 19.4675C121.841 18.375 123.351 16.9157 124.504 15.1884C125.589 13.5098 126.152 11.5464 126.12 9.54761C126.144 7.60704 125.654 5.69464 124.701 4.00428C123.701 2.28376 122.334 0.80578 120.696 -0.32359" fill="white"/>
<path d="M99.4142 -3.94461H91.6969V49.3969H99.4142V-3.94461Z" fill="white"/>
<path d="M164.872 7.80886H161.23C161.221 7.8072 161.211 7.80778 161.203 7.81055C161.194 7.81332 161.186 7.81819 161.179 7.82475C161.172 7.83131 161.168 7.83937 161.165 7.84823C161.162 7.85708 161.161 7.86648 161.163 7.87561V9.87802C161.161 9.88715 161.162 9.89655 161.165 9.9054C161.168 9.91426 161.172 9.92232 161.179 9.92888C161.186 9.93544 161.194 9.94031 161.203 9.94308C161.211 9.94585 161.221 9.94643 161.23 9.94477H163.657C163.681 9.94142 163.705 9.94361 163.728 9.95115C163.75 9.95869 163.771 9.97138 163.788 9.98821C163.804 10.005 163.817 10.0256 163.825 10.0481C163.832 10.0707 163.834 10.0947 163.831 10.1183V10.8525C163.835 10.8761 163.832 10.9002 163.825 10.9228C163.817 10.9455 163.805 10.9661 163.788 10.9829C163.771 10.9998 163.75 11.0125 163.728 11.02C163.705 11.0275 163.681 11.0295 163.657 11.0261H161.23C161.221 11.0244 161.211 11.025 161.203 11.0278C161.194 11.0305 161.186 11.0354 161.179 11.042C161.172 11.0485 161.168 11.0566 161.165 11.0654C161.162 11.0743 161.161 11.0837 161.163 11.0928V13.162C161.161 13.1711 161.162 13.1805 161.165 13.1894C161.168 13.1982 161.172 13.2063 161.179 13.2128C161.186 13.2194 161.194 13.2243 161.203 13.227C161.211 13.2298 161.221 13.2304 161.23 13.2287H164.872C164.896 13.2254 164.92 13.2276 164.942 13.2351C164.965 13.2426 164.986 13.2553 165.002 13.2722C165.019 13.289 165.032 13.3095 165.039 13.3321C165.047 13.3547 165.049 13.3787 165.046 13.4023V14.1365C165.049 14.1601 165.047 14.1842 165.04 14.2068C165.032 14.2294 165.02 14.25 165.003 14.2669C164.986 14.2837 164.965 14.2964 164.943 14.3039C164.92 14.3114 164.896 14.3135 164.872 14.31H160.081C160.058 14.3134 160.034 14.3112 160.011 14.3036C159.988 14.2961 159.968 14.2834 159.951 14.2666C159.934 14.2497 159.922 14.2292 159.914 14.2066C159.906 14.1841 159.904 14.16 159.908 14.1365V6.89844C159.904 6.87487 159.906 6.85084 159.914 6.82827C159.922 6.80569 159.934 6.78517 159.951 6.76834C159.968 6.75151 159.988 6.73882 160.011 6.73128C160.034 6.72374 160.058 6.72155 160.081 6.72489H164.872C164.896 6.72155 164.92 6.72374 164.942 6.73128C164.965 6.73882 164.986 6.75151 165.002 6.76834C165.019 6.78517 165.032 6.80569 165.039 6.82827C165.047 6.85084 165.049 6.87487 165.046 6.89844V7.63265C165.049 7.65625 165.047 7.68033 165.04 7.70298C165.032 7.72562 165.02 7.7462 165.003 7.76307C164.986 7.77993 164.965 7.79262 164.943 7.8001C164.92 7.80759 164.896 7.80968 164.872 7.8062M161.848 5.77909C161.847 5.74862 161.854 5.71841 161.87 5.69232L162.433 4.66308C162.452 4.62532 162.482 4.59392 162.519 4.5727C162.555 4.55149 162.597 4.54138 162.64 4.54361H163.496C163.59 4.54361 163.637 4.57609 163.637 4.64106C163.634 4.67908 163.623 4.71601 163.604 4.74919L162.91 5.79111C162.889 5.82628 162.859 5.85498 162.822 5.87406C162.786 5.89314 162.745 5.90185 162.704 5.89923H161.999C161.898 5.89923 161.847 5.85919 161.847 5.77976" fill="white"/>
<path d="M169.599 14.0797C169.201 13.88 168.87 13.5693 168.645 13.1853C168.415 12.7785 168.3 12.3173 168.311 11.8504V9.1745C168.3 8.70758 168.415 8.24636 168.645 7.83956C168.869 7.45653 169.201 7.14765 169.599 6.95116C170.044 6.73405 170.534 6.62628 171.03 6.63678C171.52 6.62727 172.006 6.7312 172.45 6.94048C172.844 7.12725 173.176 7.42482 173.404 7.79684C173.632 8.18377 173.747 8.62667 173.738 9.07571C173.738 9.1478 173.683 9.19118 173.575 9.2092L172.654 9.26327H172.614C172.527 9.26327 172.483 9.24525 172.483 9.2092V9.14246C172.492 8.95292 172.461 8.76373 172.393 8.58666C172.324 8.40959 172.221 8.24844 172.088 8.11322C171.947 7.98037 171.78 7.87732 171.599 7.81023C171.417 7.74314 171.224 7.71338 171.03 7.72275C170.836 7.71374 170.642 7.74364 170.46 7.8107C170.278 7.87776 170.11 7.98062 169.968 8.11322C169.834 8.24763 169.729 8.40854 169.66 8.58573C169.591 8.76292 169.56 8.95251 169.568 9.14246V11.9064C169.56 12.0947 169.592 12.2825 169.661 12.4579C169.73 12.6333 169.835 12.7923 169.968 12.925C170.264 13.1762 170.639 13.3146 171.027 13.3155C171.415 13.3165 171.791 13.18 172.088 12.9303C172.221 12.7963 172.325 12.636 172.393 12.4597C172.461 12.2833 172.492 12.0947 172.483 11.9058C172.484 11.8877 172.488 11.8699 172.497 11.8538C172.505 11.8378 172.517 11.8241 172.532 11.8137C172.55 11.8008 172.57 11.7918 172.592 11.7872C172.613 11.7826 172.635 11.7825 172.657 11.787L173.567 11.8304C173.683 11.845 173.741 11.8631 173.741 11.8844V11.9385C173.751 12.3926 173.636 12.8408 173.407 13.2334C173.179 13.6081 172.846 13.9073 172.449 14.0937C172.006 14.3031 171.52 14.4071 171.029 14.3974C170.533 14.408 170.042 14.2983 169.598 14.0777" fill="white"/>
<path d="M178.378 14.0937C177.97 13.8843 177.632 13.5593 177.407 13.1593C177.174 12.7309 177.056 12.2489 177.066 11.7609V9.2913C177.056 8.80806 177.176 8.33109 177.413 7.90964C177.64 7.51152 177.977 7.18713 178.383 6.97518C178.833 6.75753 179.325 6.64447 179.825 6.64447C180.324 6.64447 180.817 6.75753 181.267 6.97518C181.673 7.1873 182.009 7.51166 182.236 7.90964C182.473 8.33106 182.593 8.80805 182.583 9.2913V11.7609C182.593 12.2495 182.474 12.732 182.236 13.1593C182.01 13.5577 181.673 13.8822 181.267 14.0937C180.816 14.3114 180.322 14.4244 179.822 14.4244C179.322 14.4244 178.828 14.3114 178.378 14.0937ZM180.914 12.9177C181.054 12.7684 181.162 12.5928 181.233 12.401C181.304 12.2092 181.335 12.0052 181.326 11.801V9.27261C181.336 9.06663 181.305 8.86073 181.234 8.66701C181.163 8.4733 181.054 8.29568 180.914 8.14459C180.771 8.00223 180.6 7.89118 180.411 7.81845C180.223 7.74572 180.021 7.7129 179.819 7.72208C179.619 7.7135 179.42 7.74663 179.233 7.81937C179.046 7.89211 178.877 8.00286 178.735 8.14459C178.595 8.29558 178.486 8.47317 178.415 8.6669C178.344 8.86063 178.313 9.06658 178.323 9.27261V11.7976C178.314 12.0019 178.345 12.2059 178.416 12.3977C178.487 12.5895 178.596 12.7652 178.735 12.9143C178.877 13.0562 179.046 13.167 179.233 13.2399C179.42 13.3127 179.619 13.346 179.819 13.3375C180.021 13.3465 180.223 13.3136 180.411 13.2408C180.6 13.1679 180.771 13.0568 180.914 12.9143" fill="white"/>
<path d="M186.152 14.1398V6.89576C186.148 6.87217 186.15 6.84808 186.158 6.82544C186.165 6.80279 186.178 6.78221 186.195 6.76535C186.212 6.74848 186.232 6.7358 186.255 6.72831C186.278 6.72082 186.302 6.71874 186.325 6.72222H187.236C187.259 6.71888 187.283 6.72107 187.306 6.72861C187.329 6.73615 187.349 6.74883 187.366 6.76566C187.383 6.7825 187.395 6.80301 187.403 6.82559C187.41 6.84817 187.413 6.87219 187.409 6.89576V13.1613C187.408 13.1704 187.408 13.1798 187.411 13.1887C187.414 13.1975 187.419 13.2056 187.425 13.2122C187.432 13.2187 187.44 13.2236 187.449 13.2264C187.457 13.2291 187.467 13.2297 187.476 13.228H191.053C191.077 13.2247 191.101 13.2269 191.123 13.2344C191.146 13.242 191.166 13.2547 191.183 13.2715C191.2 13.2883 191.213 13.3088 191.22 13.3314C191.228 13.354 191.23 13.378 191.227 13.4016V14.1358C191.23 14.1594 191.228 14.1835 191.22 14.2061C191.213 14.2288 191.2 14.2493 191.183 14.2662C191.167 14.2831 191.146 14.2958 191.123 14.3033C191.101 14.3107 191.077 14.3128 191.053 14.3093H186.327C186.303 14.3128 186.279 14.3107 186.256 14.3033C186.234 14.2958 186.213 14.2831 186.196 14.2662C186.179 14.2493 186.167 14.2288 186.159 14.2061C186.152 14.1835 186.15 14.1594 186.153 14.1358" fill="white"/>
<path d="M199.472 7.80886H195.83C195.821 7.8072 195.812 7.80778 195.803 7.81054C195.794 7.81331 195.786 7.81818 195.779 7.82475C195.773 7.83131 195.768 7.83936 195.765 7.84822C195.762 7.85708 195.762 7.86648 195.763 7.87561V9.87801C195.762 9.88714 195.762 9.89654 195.765 9.9054C195.768 9.91426 195.773 9.92231 195.779 9.92888C195.786 9.93544 195.794 9.94031 195.803 9.94308C195.812 9.94584 195.821 9.94642 195.83 9.94476H198.258C198.282 9.94128 198.306 9.94336 198.329 9.95085C198.351 9.95834 198.372 9.97102 198.389 9.98789C198.406 10.0048 198.418 10.0253 198.426 10.048C198.433 10.0706 198.435 10.0947 198.432 10.1183V10.8525C198.435 10.8761 198.433 10.9002 198.426 10.9228C198.418 10.9455 198.406 10.9661 198.389 10.9829C198.372 10.9998 198.351 11.0125 198.329 11.02C198.306 11.0275 198.282 11.0295 198.258 11.0261H195.83C195.821 11.0244 195.812 11.025 195.803 11.0277C195.794 11.0305 195.786 11.0354 195.779 11.0419C195.773 11.0485 195.768 11.0566 195.765 11.0654C195.762 11.0743 195.762 11.0837 195.763 11.0928V13.162C195.762 13.1711 195.762 13.1805 195.765 13.1893C195.768 13.1982 195.773 13.2063 195.779 13.2128C195.786 13.2194 195.794 13.2243 195.803 13.227C195.812 13.2298 195.821 13.2304 195.83 13.2287H199.472C199.496 13.2254 199.52 13.2276 199.543 13.2351C199.565 13.2426 199.586 13.2553 199.603 13.2722C199.619 13.289 199.632 13.3095 199.64 13.3321C199.647 13.3547 199.649 13.3787 199.646 13.4023V14.1365C199.65 14.1601 199.647 14.1841 199.64 14.2068C199.632 14.2294 199.62 14.25 199.603 14.2669C199.586 14.2837 199.565 14.2964 199.543 14.3039C199.52 14.3114 199.496 14.3135 199.472 14.31H194.681C194.658 14.3135 194.634 14.3114 194.611 14.3039C194.588 14.2964 194.568 14.2837 194.551 14.2669C194.534 14.25 194.521 14.2294 194.514 14.2068C194.506 14.1841 194.504 14.1601 194.508 14.1365V6.89576C194.505 6.87219 194.507 6.84817 194.514 6.82559C194.522 6.80301 194.534 6.7825 194.551 6.76567C194.568 6.74883 194.589 6.73615 194.611 6.72861C194.634 6.72107 194.658 6.71888 194.681 6.72222H199.472C199.496 6.71888 199.52 6.72107 199.543 6.72861C199.565 6.73615 199.586 6.74883 199.603 6.76567C199.619 6.7825 199.632 6.80301 199.64 6.82559C199.647 6.84817 199.649 6.87219 199.646 6.89576V7.62998C199.65 7.65357 199.647 7.67766 199.64 7.7003C199.632 7.72295 199.62 7.74353 199.603 7.76039C199.586 7.77726 199.565 7.78994 199.543 7.79743C199.52 7.80492 199.496 7.80701 199.472 7.80352" fill="white"/>
<path d="M160.898 26.5174C160.512 26.36 160.179 26.0947 159.939 25.7531C159.713 25.4152 159.597 25.0161 159.605 24.6097V24.3821C159.602 24.3586 159.604 24.3345 159.612 24.312C159.619 24.2894 159.632 24.2689 159.649 24.252C159.666 24.2352 159.686 24.2225 159.709 24.215C159.731 24.2074 159.755 24.2052 159.779 24.2086H160.668C160.784 24.2086 160.841 24.2629 160.841 24.3715V24.545C160.841 24.7085 160.881 24.8695 160.958 25.014C161.034 25.1585 161.145 25.2821 161.28 25.374C161.621 25.6102 162.031 25.7274 162.445 25.7077C162.8 25.7335 163.153 25.6338 163.443 25.4261C163.55 25.3387 163.636 25.2277 163.694 25.1018C163.752 24.9759 163.78 24.8384 163.776 24.6998C163.781 24.5111 163.716 24.3274 163.592 24.1846C163.443 24.0243 163.264 23.8938 163.066 23.8001C162.839 23.6848 162.497 23.5405 162.042 23.3669C161.616 23.2154 161.199 23.0371 160.795 22.8329C160.482 22.6706 160.209 22.4389 159.998 22.1555C159.777 21.8443 159.665 21.469 159.679 21.0875C159.667 20.7994 159.724 20.5126 159.844 20.2507C159.965 19.9889 160.146 19.7593 160.373 19.581C160.909 19.1891 161.563 18.9937 162.226 19.0277C162.72 19.0181 163.21 19.1141 163.663 19.3094C164.053 19.4765 164.388 19.7485 164.633 20.095C164.866 20.4382 164.987 20.8454 164.98 21.2604V21.4012C164.983 21.4248 164.981 21.4489 164.974 21.4715C164.966 21.4942 164.954 21.5148 164.937 21.5316C164.92 21.5485 164.899 21.5612 164.877 21.5687C164.854 21.5762 164.83 21.5782 164.806 21.5748H163.918C163.873 21.5768 163.829 21.5634 163.793 21.5367C163.778 21.5264 163.766 21.5126 163.757 21.4966C163.749 21.4806 163.744 21.4627 163.744 21.4446V21.3251C163.745 21.1592 163.708 20.9953 163.636 20.8459C163.563 20.6966 163.458 20.5657 163.327 20.4634C162.997 20.2115 162.587 20.0865 162.172 20.111C161.844 20.0911 161.519 20.1785 161.245 20.36C161.136 20.4412 161.049 20.5479 160.991 20.6708C160.932 20.7937 160.905 20.929 160.912 21.0648C160.903 21.258 160.964 21.4478 161.085 21.5988C161.231 21.7581 161.408 21.8854 161.606 21.9726C161.837 22.0847 162.194 22.2275 162.679 22.4011C163.098 22.5565 163.509 22.7348 163.909 22.9351C164.219 23.0966 164.489 23.3245 164.701 23.6025C164.93 23.9105 165.047 24.287 165.034 24.6705C165.042 25.0654 164.928 25.4531 164.709 25.7818C164.477 26.1162 164.152 26.3759 163.775 26.5294C163.322 26.7165 162.834 26.8074 162.344 26.7964C161.848 26.8066 161.355 26.7143 160.897 26.5254" fill="white"/>
<path d="M169.707 26.474C169.307 26.2755 168.973 25.9647 168.748 25.5796C168.515 25.1726 168.397 24.71 168.406 24.2413V19.2873C168.403 19.2638 168.405 19.2397 168.413 19.2172C168.42 19.1946 168.433 19.1741 168.45 19.1572C168.467 19.1404 168.487 19.1277 168.51 19.1202C168.532 19.1126 168.556 19.1105 168.58 19.1138H169.49C169.514 19.1105 169.538 19.1126 169.561 19.1202C169.583 19.1277 169.604 19.1404 169.62 19.1572C169.637 19.1741 169.65 19.1946 169.658 19.2172C169.665 19.2397 169.667 19.2638 169.664 19.2873V24.2633C169.656 24.4549 169.688 24.646 169.757 24.825C169.826 25.0039 169.93 25.1669 170.064 25.3039C170.358 25.5625 170.736 25.7052 171.127 25.7052C171.518 25.7052 171.896 25.5625 172.189 25.3039C172.323 25.1669 172.428 25.0039 172.497 24.825C172.566 24.646 172.597 24.4549 172.589 24.2633V19.2873C172.586 19.2638 172.588 19.2397 172.596 19.2172C172.603 19.1946 172.616 19.1741 172.633 19.1572C172.65 19.1404 172.67 19.1277 172.693 19.1202C172.715 19.1126 172.739 19.1105 172.763 19.1138H173.673C173.697 19.1105 173.721 19.1126 173.744 19.1202C173.766 19.1277 173.787 19.1404 173.804 19.1572C173.82 19.1741 173.833 19.1946 173.841 19.2172C173.848 19.2397 173.85 19.2638 173.847 19.2873V24.2413C173.857 24.7092 173.742 25.1713 173.513 25.5796C173.29 25.9652 172.959 26.2764 172.559 26.474C172.113 26.6809 171.626 26.7881 171.134 26.7881C170.642 26.7881 170.155 26.6809 169.709 26.474" fill="white"/>
<path d="M181.782 19.3848C182.122 19.5666 182.403 19.8431 182.59 20.1811C182.786 20.5452 182.885 20.954 182.877 21.3678C182.885 21.7772 182.784 22.1812 182.584 22.5386C182.391 22.8763 182.103 23.1496 181.755 23.3242C181.37 23.5148 180.944 23.6096 180.514 23.6005H178.793C178.784 23.5989 178.774 23.5994 178.766 23.6022C178.757 23.605 178.749 23.6098 178.742 23.6164C178.736 23.623 178.731 23.631 178.728 23.6399C178.725 23.6487 178.725 23.6581 178.726 23.6673V26.5287C178.73 26.5523 178.727 26.5763 178.72 26.5989C178.712 26.6215 178.7 26.642 178.683 26.6588C178.666 26.6756 178.645 26.6883 178.623 26.6959C178.6 26.7034 178.576 26.7056 178.553 26.7022H177.642C177.619 26.7057 177.595 26.7036 177.572 26.6962C177.549 26.6887 177.529 26.676 177.512 26.6591C177.495 26.6423 177.482 26.6217 177.475 26.599C177.467 26.5764 177.465 26.5523 177.469 26.5287V19.2767C177.465 19.2531 177.468 19.2291 177.475 19.2065C177.483 19.1839 177.495 19.1634 177.512 19.1466C177.529 19.1297 177.549 19.117 177.572 19.1095C177.595 19.102 177.619 19.0998 177.642 19.1031H180.579C180.997 19.0945 181.41 19.1914 181.781 19.3848M181.282 22.2549C181.394 22.1433 181.482 22.0095 181.539 21.862C181.597 21.7145 181.623 21.5567 181.616 21.3985C181.623 21.2372 181.597 21.0762 181.539 20.9253C181.482 20.7744 181.394 20.6367 181.282 20.5208C181.164 20.4078 181.025 20.3199 180.872 20.2625C180.719 20.2051 180.556 20.1795 180.394 20.1871H178.792C178.782 20.1854 178.773 20.186 178.764 20.1888C178.755 20.1915 178.747 20.1964 178.741 20.203C178.734 20.2095 178.729 20.2176 178.727 20.2264C178.724 20.2353 178.723 20.2447 178.725 20.2538V22.5179C178.723 22.527 178.724 22.5364 178.727 22.5453C178.729 22.5541 178.734 22.5622 178.741 22.5687C178.747 22.5753 178.755 22.5802 178.764 22.5829C178.773 22.5857 178.782 22.5863 178.792 22.5846H180.394C180.556 22.5922 180.718 22.5673 180.87 22.5115C181.023 22.4557 181.163 22.37 181.282 22.2596" fill="white"/>
<path d="M191.115 20.1978H187.473C187.464 20.1961 187.455 20.1967 187.446 20.1995C187.437 20.2022 187.429 20.2071 187.422 20.2137C187.416 20.2202 187.411 20.2283 187.408 20.2371C187.406 20.246 187.405 20.2554 187.407 20.2645V22.2669C187.405 22.2761 187.406 22.2855 187.408 22.2943C187.411 22.3032 187.416 22.3112 187.422 22.3178C187.429 22.3243 187.437 22.3292 187.446 22.332C187.455 22.3348 187.464 22.3353 187.473 22.3337H189.901C189.925 22.3303 189.949 22.3325 189.971 22.3401C189.994 22.3476 190.014 22.3603 190.031 22.3771C190.048 22.394 190.061 22.4145 190.068 22.437C190.076 22.4596 190.078 22.4836 190.074 22.5072V23.2414C190.078 23.265 190.076 23.289 190.068 23.3116C190.061 23.3342 190.048 23.3547 190.031 23.3715C190.014 23.3884 189.994 23.401 189.971 23.4086C189.949 23.4161 189.925 23.4183 189.901 23.415H187.473C187.464 23.4133 187.455 23.4139 187.446 23.4167C187.437 23.4194 187.429 23.4243 187.422 23.4309C187.416 23.4374 187.411 23.4455 187.408 23.4543C187.406 23.4632 187.405 23.4726 187.407 23.4817V25.5509C187.405 25.56 187.406 25.5694 187.408 25.5783C187.411 25.5871 187.416 25.5952 187.422 25.6017C187.429 25.6083 187.437 25.6132 187.446 25.6159C187.455 25.6187 187.464 25.6193 187.473 25.6176H191.115C191.139 25.6143 191.163 25.6165 191.185 25.624C191.208 25.6315 191.228 25.6442 191.245 25.6611C191.262 25.6779 191.275 25.6984 191.282 25.721C191.29 25.7436 191.292 25.7676 191.289 25.7912V26.5254C191.292 26.549 191.29 26.5731 191.283 26.5957C191.275 26.6183 191.262 26.6389 191.245 26.6558C191.229 26.6727 191.208 26.6853 191.185 26.6928C191.163 26.7003 191.139 26.7024 191.115 26.6989H186.324C186.3 26.7023 186.276 26.7001 186.254 26.6925C186.231 26.685 186.211 26.6723 186.194 26.6555C186.177 26.6386 186.164 26.6181 186.157 26.5955C186.149 26.573 186.147 26.5489 186.15 26.5254V19.2873C186.147 19.2638 186.149 19.2397 186.157 19.2172C186.164 19.1946 186.177 19.1741 186.194 19.1572C186.211 19.1404 186.231 19.1277 186.254 19.1202C186.276 19.1126 186.3 19.1105 186.324 19.1138H191.115C191.139 19.1103 191.163 19.1124 191.185 19.1199C191.208 19.1274 191.229 19.1401 191.245 19.1569C191.262 19.1738 191.275 19.1944 191.283 19.217C191.29 19.2397 191.292 19.2637 191.289 19.2873V20.0216C191.292 20.0452 191.29 20.0692 191.283 20.0919C191.275 20.1145 191.262 20.1351 191.245 20.152C191.229 20.1688 191.208 20.1815 191.185 20.189C191.163 20.1965 191.139 20.1986 191.115 20.1951M188.091 18.168C188.089 18.1375 188.097 18.1073 188.113 18.0812L188.676 17.052C188.695 17.0143 188.725 16.9831 188.762 16.962C188.798 16.9409 188.84 16.9309 188.882 16.9332H189.739C189.833 16.9332 189.88 16.9659 189.88 17.0306C189.877 17.0686 189.866 17.1056 189.847 17.1388L189.153 18.1793C189.132 18.2145 189.101 18.2432 189.065 18.2623C189.029 18.2814 188.988 18.2901 188.947 18.2875H188.242C188.141 18.2875 188.091 18.2474 188.091 18.168Z" fill="white"/>
<path d="M198.822 26.5714L197.402 23.471C197.395 23.4423 197.369 23.4276 197.326 23.4276H196.058C196.049 23.426 196.039 23.4266 196.03 23.4293C196.021 23.4321 196.013 23.437 196.007 23.4435C196 23.4501 195.995 23.4581 195.993 23.467C195.99 23.4759 195.989 23.4853 195.991 23.4944V26.5294C195.994 26.5529 195.992 26.577 195.985 26.5995C195.977 26.6221 195.964 26.6426 195.948 26.6595C195.931 26.6763 195.91 26.689 195.888 26.6965C195.865 26.7041 195.841 26.7063 195.817 26.7029H194.907C194.883 26.7064 194.859 26.7043 194.837 26.6968C194.814 26.6893 194.793 26.6766 194.777 26.6598C194.76 26.6429 194.747 26.6223 194.74 26.5997C194.732 26.577 194.73 26.553 194.733 26.5294V19.2767C194.73 19.2531 194.732 19.2291 194.74 19.2065C194.747 19.1839 194.76 19.1634 194.777 19.1466C194.794 19.1297 194.814 19.117 194.837 19.1095C194.859 19.102 194.883 19.0998 194.907 19.1031H197.844C198.251 19.0951 198.654 19.1902 199.015 19.3794C199.348 19.5578 199.623 19.8288 199.806 20.1597C199.998 20.5136 200.095 20.9116 200.088 21.3144C200.101 21.7695 199.966 22.2165 199.703 22.588C199.442 22.9412 199.069 23.1954 198.646 23.3088C198.636 23.3115 198.627 23.3163 198.619 23.3229C198.612 23.3295 198.606 23.3377 198.602 23.3469C198.598 23.3551 198.598 23.3642 198.599 23.373C198.601 23.3818 198.606 23.3897 198.613 23.3956L200.109 26.496L200.131 26.5828C200.131 26.6624 200.08 26.702 199.978 26.7016H199.025C198.981 26.7055 198.937 26.6948 198.9 26.6713C198.863 26.6478 198.834 26.6127 198.819 26.5714M195.99 20.2518V22.3877C195.988 22.3969 195.989 22.4063 195.991 22.4151C195.994 22.424 195.999 22.432 196.006 22.4386C196.012 22.4452 196.02 22.45 196.029 22.4528C196.038 22.4556 196.047 22.4561 196.056 22.4545H197.671C197.825 22.4613 197.978 22.4375 198.122 22.3844C198.266 22.3313 198.399 22.2501 198.511 22.1454C198.618 22.0406 198.702 21.9145 198.757 21.7754C198.812 21.6363 198.837 21.4873 198.831 21.3378C198.837 21.1851 198.812 21.0329 198.757 20.8903C198.702 20.7478 198.618 20.618 198.511 20.5088C198.4 20.4011 198.269 20.3171 198.124 20.2622C197.98 20.2072 197.825 20.1823 197.671 20.1891H196.059C196.05 20.1874 196.041 20.188 196.032 20.1908C196.023 20.1935 196.015 20.1984 196.008 20.205C196.002 20.2115 195.997 20.2196 195.994 20.2284C195.991 20.2373 195.991 20.2467 195.992 20.2558" fill="white"/>
<path d="M203.549 26.5287V19.2873C203.545 19.2637 203.547 19.2397 203.555 19.217C203.562 19.1944 203.575 19.1738 203.592 19.1569C203.609 19.1401 203.629 19.1274 203.652 19.1199C203.675 19.1124 203.699 19.1103 203.722 19.1138H204.633C204.656 19.1105 204.68 19.1126 204.703 19.1202C204.725 19.1277 204.746 19.1404 204.763 19.1572C204.78 19.1741 204.792 19.1946 204.8 19.2172C204.807 19.2397 204.81 19.2638 204.806 19.2873V26.5287C204.81 26.5523 204.807 26.5763 204.8 26.5989C204.792 26.6215 204.78 26.642 204.763 26.6588C204.746 26.6756 204.725 26.6883 204.703 26.6959C204.68 26.7034 204.656 26.7056 204.633 26.7023H203.722C203.699 26.7057 203.675 26.7036 203.652 26.6962C203.629 26.6887 203.609 26.676 203.592 26.6591C203.575 26.6423 203.562 26.6217 203.555 26.599C203.547 26.5764 203.545 26.5523 203.549 26.5287Z" fill="white"/>
<path d="M213.521 20.1971H209.88C209.87 20.1954 209.861 20.196 209.852 20.1988C209.843 20.2015 209.835 20.2064 209.829 20.213C209.822 20.2195 209.817 20.2276 209.815 20.2365C209.812 20.2453 209.811 20.2547 209.813 20.2638V22.2662C209.811 22.2754 209.812 22.2848 209.815 22.2936C209.817 22.3025 209.822 22.3105 209.829 22.3171C209.835 22.3237 209.843 22.3285 209.852 22.3313C209.861 22.3341 209.87 22.3347 209.88 22.333H212.307C212.331 22.3297 212.355 22.3318 212.377 22.3394C212.4 22.3469 212.42 22.3596 212.437 22.3764C212.454 22.3933 212.467 22.4138 212.474 22.4364C212.482 22.4589 212.484 22.483 212.481 22.5065V23.2407C212.484 23.2643 212.482 23.2884 212.475 23.3111C212.467 23.3337 212.454 23.3543 212.438 23.3712C212.421 23.388 212.4 23.4007 212.377 23.4082C212.355 23.4157 212.331 23.4178 212.307 23.4143H209.88C209.87 23.4126 209.861 23.4132 209.852 23.416C209.843 23.4187 209.835 23.4236 209.829 23.4302C209.822 23.4367 209.817 23.4448 209.815 23.4537C209.812 23.4625 209.811 23.4719 209.813 23.481V25.5502C209.811 25.5593 209.812 25.5687 209.815 25.5776C209.817 25.5864 209.822 25.5945 209.829 25.6011C209.835 25.6076 209.843 25.6125 209.852 25.6153C209.861 25.618 209.87 25.6186 209.88 25.6169H213.521C213.545 25.6135 213.569 25.6155 213.592 25.623C213.614 25.6305 213.635 25.6432 213.652 25.6601C213.669 25.6769 213.681 25.6975 213.689 25.7202C213.696 25.7428 213.698 25.7669 213.695 25.7905V26.5247C213.698 26.5483 213.696 26.5724 213.689 26.595C213.681 26.6177 213.669 26.6382 213.652 26.6551C213.635 26.672 213.614 26.6847 213.592 26.6922C213.569 26.6996 213.545 26.7017 213.521 26.6982H208.73C208.707 26.7017 208.683 26.6996 208.66 26.6922C208.637 26.6847 208.617 26.672 208.6 26.6551C208.583 26.6382 208.57 26.6177 208.563 26.595C208.555 26.5724 208.553 26.5483 208.557 26.5247V19.2867C208.553 19.2631 208.556 19.2391 208.563 19.2165C208.571 19.1939 208.583 19.1734 208.6 19.1566C208.617 19.1397 208.637 19.127 208.66 19.1195C208.683 19.112 208.707 19.1098 208.73 19.1131H213.521C213.545 19.1098 213.569 19.112 213.591 19.1195C213.614 19.127 213.635 19.1397 213.651 19.1566C213.668 19.1734 213.681 19.1939 213.688 19.2165C213.696 19.2391 213.698 19.2631 213.695 19.2867V20.0209C213.698 20.0445 213.696 20.0686 213.689 20.0912C213.681 20.1139 213.669 20.1344 213.652 20.1513C213.635 20.1682 213.614 20.1808 213.592 20.1883C213.569 20.1958 213.545 20.1979 213.521 20.1944" fill="white"/>
<path d="M218.378 26.474C217.978 26.2757 217.644 25.9649 217.418 25.5796C217.185 25.1726 217.067 24.71 217.077 24.2413V19.2873C217.074 19.2638 217.076 19.2397 217.083 19.2172C217.091 19.1946 217.104 19.1741 217.12 19.1572C217.137 19.1404 217.158 19.1277 217.18 19.1202C217.203 19.1126 217.227 19.1105 217.251 19.1138H218.161C218.185 19.1105 218.209 19.1126 218.231 19.1202C218.254 19.1277 218.274 19.1404 218.291 19.1572C218.308 19.1741 218.321 19.1946 218.328 19.2172C218.336 19.2397 218.338 19.2638 218.334 19.2873V24.2633C218.327 24.4549 218.358 24.646 218.427 24.825C218.496 25.0039 218.601 25.1669 218.735 25.3039C219.028 25.5625 219.406 25.7052 219.797 25.7052C220.188 25.7052 220.566 25.5625 220.86 25.3039C220.994 25.1669 221.098 25.0039 221.167 24.825C221.236 24.646 221.268 24.4549 221.26 24.2633V19.2873C221.257 19.2638 221.259 19.2397 221.266 19.2172C221.274 19.1946 221.287 19.1741 221.303 19.1572C221.32 19.1404 221.341 19.1277 221.363 19.1202C221.386 19.1126 221.41 19.1105 221.434 19.1138H222.344C222.368 19.1105 222.392 19.1126 222.414 19.1202C222.437 19.1277 222.457 19.1404 222.474 19.1572C222.491 19.1741 222.504 19.1946 222.511 19.2172C222.519 19.2397 222.521 19.2638 222.518 19.2873V24.2413C222.528 24.7092 222.412 25.1713 222.184 25.5796C221.961 25.9652 221.629 26.2764 221.23 26.474C220.783 26.6809 220.297 26.7881 219.805 26.7881C219.312 26.7881 218.826 26.6809 218.379 26.474" fill="white"/>
<path d="M230.291 26.5714L228.871 23.471C228.864 23.4423 228.838 23.4276 228.795 23.4276H227.527C227.518 23.426 227.508 23.4266 227.499 23.4293C227.491 23.4321 227.483 23.437 227.476 23.4435C227.469 23.4501 227.464 23.4581 227.462 23.467C227.459 23.4759 227.458 23.4853 227.46 23.4944V26.5294C227.464 26.553 227.461 26.577 227.454 26.5997C227.446 26.6223 227.434 26.6429 227.417 26.6598C227.4 26.6766 227.38 26.6893 227.357 26.6968C227.334 26.7043 227.31 26.7064 227.287 26.7029H226.376C226.353 26.7064 226.328 26.7043 226.306 26.6968C226.283 26.6893 226.263 26.6766 226.246 26.6598C226.229 26.6429 226.216 26.6223 226.209 26.5997C226.201 26.577 226.199 26.553 226.203 26.5294V19.2767C226.199 19.2531 226.201 19.2291 226.209 19.2065C226.216 19.1839 226.229 19.1634 226.246 19.1466C226.263 19.1297 226.283 19.117 226.306 19.1095C226.329 19.102 226.353 19.0998 226.376 19.1031H229.313C229.72 19.0951 230.123 19.1902 230.484 19.3794C230.817 19.5578 231.092 19.8287 231.275 20.1597C231.467 20.5136 231.565 20.9116 231.557 21.3144C231.57 21.7695 231.435 22.2165 231.172 22.588C230.911 22.9412 230.539 23.1954 230.115 23.3088C230.105 23.3115 230.096 23.3163 230.089 23.3229C230.081 23.3295 230.075 23.3377 230.071 23.3469C230.068 23.3551 230.067 23.3642 230.069 23.373C230.07 23.3818 230.075 23.3897 230.082 23.3956L231.578 26.496L231.6 26.5828C231.6 26.6624 231.549 26.702 231.448 26.7016H230.497C230.453 26.7056 230.409 26.6951 230.372 26.6715C230.335 26.648 230.306 26.6128 230.291 26.5714M227.461 20.2518V22.3877C227.46 22.3969 227.46 22.4063 227.463 22.4151C227.466 22.424 227.471 22.432 227.477 22.4386C227.484 22.4452 227.492 22.45 227.501 22.4528C227.51 22.4556 227.519 22.4561 227.528 22.4545H229.143C229.297 22.4613 229.45 22.4375 229.595 22.3844C229.739 22.3313 229.871 22.2501 229.984 22.1454C230.09 22.0406 230.174 21.9145 230.229 21.7754C230.284 21.6363 230.309 21.4873 230.304 21.3378C230.309 21.1851 230.284 21.0329 230.229 20.8903C230.174 20.7478 230.091 20.618 229.984 20.5088C229.873 20.4011 229.741 20.3171 229.597 20.2622C229.452 20.2072 229.298 20.1823 229.143 20.1891H227.528C227.519 20.1874 227.51 20.188 227.501 20.1908C227.492 20.1935 227.484 20.1984 227.477 20.205C227.471 20.2115 227.466 20.2196 227.463 20.2284C227.46 20.2373 227.46 20.2467 227.461 20.2558" fill="white"/>
<path d="M239.982 20.1971H236.34C236.331 20.1954 236.322 20.196 236.313 20.1988C236.304 20.2015 236.296 20.2064 236.289 20.213C236.283 20.2195 236.278 20.2276 236.275 20.2365C236.272 20.2453 236.272 20.2547 236.273 20.2638V22.2662C236.272 22.2754 236.272 22.2848 236.275 22.2936C236.278 22.3025 236.283 22.3105 236.289 22.3171C236.296 22.3237 236.304 22.3285 236.313 22.3313C236.322 22.3341 236.331 22.3347 236.34 22.333H238.768C238.791 22.3297 238.815 22.3318 238.838 22.3394C238.86 22.3469 238.881 22.3596 238.898 22.3764C238.915 22.3933 238.927 22.4138 238.935 22.4364C238.942 22.4589 238.945 22.483 238.941 22.5065V23.2407C238.945 23.2643 238.943 23.2884 238.935 23.3111C238.928 23.3337 238.915 23.3543 238.898 23.3712C238.881 23.388 238.861 23.4007 238.838 23.4082C238.815 23.4157 238.791 23.4178 238.768 23.4143H236.34C236.331 23.4126 236.322 23.4132 236.313 23.416C236.304 23.4187 236.296 23.4236 236.289 23.4302C236.283 23.4367 236.278 23.4448 236.275 23.4537C236.272 23.4625 236.272 23.4719 236.273 23.481V25.5502C236.272 25.5593 236.272 25.5687 236.275 25.5776C236.278 25.5864 236.283 25.5945 236.289 25.6011C236.296 25.6076 236.304 25.6125 236.313 25.6153C236.322 25.618 236.331 25.6186 236.34 25.6169H239.982C240.005 25.6135 240.029 25.6155 240.052 25.623C240.075 25.6305 240.095 25.6432 240.112 25.6601C240.129 25.6769 240.142 25.6975 240.149 25.7202C240.157 25.7428 240.159 25.7669 240.155 25.7905V26.5247C240.159 26.5483 240.157 26.5724 240.149 26.595C240.142 26.6177 240.129 26.6382 240.112 26.6551C240.095 26.672 240.075 26.6847 240.052 26.6922C240.029 26.6996 240.005 26.7017 239.982 26.6982H235.191C235.167 26.7016 235.143 26.6994 235.121 26.6919C235.098 26.6843 235.077 26.6716 235.061 26.6548C235.044 26.638 235.031 26.6174 235.024 26.5949C235.016 26.5723 235.014 26.5483 235.017 26.5247V19.2867C235.014 19.2631 235.016 19.2391 235.024 19.2165C235.031 19.1939 235.044 19.1734 235.061 19.1566C235.077 19.1397 235.098 19.127 235.121 19.1195C235.143 19.112 235.167 19.1098 235.191 19.1131H239.982C240.005 19.1098 240.029 19.112 240.052 19.1195C240.075 19.127 240.095 19.1397 240.112 19.1566C240.129 19.1734 240.141 19.1939 240.149 19.2165C240.157 19.2391 240.159 19.2631 240.155 19.2867V20.0209C240.159 20.0445 240.157 20.0686 240.149 20.0912C240.142 20.1139 240.129 20.1344 240.112 20.1513C240.095 20.1682 240.075 20.1808 240.052 20.1883C240.029 20.1958 240.005 20.1979 239.982 20.1944" fill="white"/>
<path d="M159.908 38.9169V31.6755C159.904 31.652 159.906 31.628 159.914 31.6054C159.921 31.5828 159.934 31.5623 159.951 31.5455C159.968 31.5286 159.988 31.5159 160.011 31.5084C160.033 31.5009 160.058 31.4987 160.081 31.502H162.684C163.15 31.4923 163.613 31.5848 164.039 31.773C164.41 31.937 164.725 32.2065 164.944 32.5479C165.162 32.901 165.273 33.3094 165.264 33.724V36.8678C165.273 37.2825 165.162 37.6909 164.944 38.0439C164.725 38.3851 164.41 38.6546 164.039 38.8188C163.613 39.007 163.15 39.0995 162.684 39.0898H160.081C160.057 39.0933 160.033 39.0912 160.011 39.0837C159.988 39.0762 159.968 39.0635 159.951 39.0467C159.934 39.0298 159.921 39.0092 159.914 38.9866C159.906 38.9639 159.904 38.9399 159.908 38.9163M161.23 38.0058H162.736C162.906 38.0138 163.075 37.9855 163.233 37.9229C163.391 37.8603 163.534 37.7648 163.652 37.6427C163.889 37.3763 164.015 37.0293 164.004 36.6729V33.9303C164.023 33.5701 163.898 33.2173 163.657 32.9491C163.536 32.8263 163.39 32.7306 163.229 32.668C163.068 32.6055 162.895 32.5775 162.723 32.586H161.227C161.218 32.5843 161.209 32.5849 161.2 32.5877C161.191 32.5904 161.183 32.5953 161.176 32.6019C161.17 32.6084 161.165 32.6165 161.162 32.6253C161.159 32.6342 161.159 32.6436 161.16 32.6527V37.9424C161.159 37.9515 161.159 37.9609 161.162 37.9698C161.165 37.9787 161.17 37.9867 161.176 37.9933C161.183 37.9998 161.191 38.0047 161.2 38.0075C161.209 38.0102 161.218 38.0108 161.227 38.0092" fill="white"/>
<path d="M173.739 32.586H170.096C170.087 32.5843 170.078 32.5849 170.069 32.5877C170.06 32.5904 170.052 32.5953 170.046 32.6019C170.039 32.6084 170.034 32.6165 170.031 32.6253C170.029 32.6342 170.028 32.6436 170.03 32.6527V34.6551C170.028 34.6643 170.029 34.6737 170.031 34.6825C170.034 34.6914 170.039 34.6994 170.046 34.706C170.052 34.7126 170.06 34.7174 170.069 34.7202C170.078 34.723 170.087 34.7235 170.096 34.7219H172.527C172.55 34.7185 172.574 34.7207 172.597 34.7283C172.619 34.7358 172.64 34.7485 172.657 34.7653C172.674 34.7822 172.686 34.8027 172.694 34.8252C172.701 34.8478 172.704 34.8719 172.7 34.8954V35.6296C172.704 35.6532 172.702 35.6773 172.694 35.7C172.687 35.7226 172.674 35.7432 172.657 35.76C172.64 35.7769 172.62 35.7896 172.597 35.7971C172.574 35.8046 172.55 35.8067 172.527 35.8032H170.099C170.09 35.8015 170.081 35.8021 170.072 35.8049C170.063 35.8076 170.055 35.8125 170.048 35.8191C170.042 35.8256 170.037 35.8337 170.034 35.8425C170.031 35.8514 170.031 35.8608 170.032 35.8699V37.9391C170.031 37.9482 170.031 37.9576 170.034 37.9665C170.037 37.9753 170.042 37.9834 170.048 37.9899C170.055 37.9965 170.063 38.0014 170.072 38.0041C170.081 38.0069 170.09 38.0075 170.099 38.0058H173.742C173.765 38.0023 173.789 38.0044 173.812 38.0119C173.835 38.0194 173.855 38.0321 173.872 38.049C173.889 38.0658 173.901 38.0864 173.909 38.109C173.916 38.1317 173.919 38.1558 173.915 38.1794V38.9136C173.919 38.9372 173.916 38.9613 173.909 38.9839C173.901 39.0066 173.889 39.0271 173.872 39.044C173.855 39.0609 173.835 39.0735 173.812 39.081C173.789 39.0885 173.765 39.0906 173.742 39.0871H168.95C168.927 39.0905 168.903 39.0883 168.88 39.0807C168.858 39.0732 168.837 39.0605 168.82 39.0437C168.804 39.0268 168.791 39.0063 168.783 38.9837C168.776 38.9612 168.774 38.9372 168.777 38.9136V31.6755C168.774 31.652 168.776 31.628 168.783 31.6054C168.791 31.5828 168.804 31.5623 168.82 31.5455C168.837 31.5286 168.858 31.5159 168.88 31.5084C168.903 31.5009 168.927 31.4987 168.95 31.502H173.742C173.765 31.4987 173.789 31.5009 173.812 31.5084C173.834 31.5159 173.855 31.5286 173.872 31.5455C173.888 31.5623 173.901 31.5828 173.909 31.6054C173.916 31.628 173.918 31.652 173.915 31.6755V32.4098C173.919 32.4334 173.916 32.4574 173.909 32.4801C173.901 32.5027 173.889 32.5233 173.872 32.5402C173.855 32.557 173.835 32.5697 173.812 32.5772C173.789 32.5847 173.765 32.5868 173.742 32.5833" fill="white"/>
<path d="M185.944 31.775C186.285 31.9567 186.565 32.2333 186.752 32.5713C186.949 32.9356 187.048 33.3447 187.04 33.7587C187.047 34.168 186.946 34.5721 186.747 34.9295C186.553 35.2671 186.265 35.5404 185.918 35.7151C185.532 35.9056 185.107 36.0004 184.677 35.9914H182.953C182.944 35.9897 182.935 35.9903 182.926 35.9931C182.917 35.9959 182.909 36.0007 182.902 36.0073C182.896 36.0139 182.891 36.0219 182.888 36.0308C182.885 36.0396 182.885 36.049 182.887 36.0582V38.9169C182.89 38.9405 182.888 38.9645 182.88 38.9871C182.873 39.0097 182.86 39.0302 182.843 39.047C182.826 39.0639 182.806 39.0765 182.783 39.0841C182.761 39.0916 182.737 39.0938 182.713 39.0905H181.803C181.779 39.094 181.755 39.0919 181.732 39.0844C181.71 39.0769 181.689 39.0642 181.672 39.0473C181.655 39.0305 181.643 39.0099 181.635 38.9872C181.628 38.9646 181.626 38.9405 181.629 38.9169V31.6649C181.626 31.6413 181.628 31.6172 181.635 31.5945C181.643 31.5719 181.655 31.5513 181.672 31.5345C181.689 31.5176 181.71 31.5049 181.732 31.4974C181.755 31.4899 181.779 31.4878 181.803 31.4913H184.739C185.157 31.4827 185.57 31.5796 185.941 31.773M185.442 34.6431C185.555 34.5315 185.642 34.3977 185.7 34.2502C185.757 34.1028 185.783 33.9449 185.776 33.7868C185.783 33.6255 185.757 33.4644 185.7 33.3135C185.642 33.1626 185.555 33.025 185.442 32.909C185.325 32.796 185.185 32.7081 185.032 32.6507C184.88 32.5934 184.717 32.5677 184.554 32.5753H182.952C182.943 32.5736 182.933 32.5742 182.925 32.577C182.916 32.5797 182.908 32.5846 182.901 32.5912C182.895 32.5977 182.89 32.6058 182.887 32.6147C182.884 32.6235 182.884 32.6329 182.885 32.642V34.9074C182.884 34.9166 182.884 34.926 182.887 34.9348C182.89 34.9437 182.895 34.9517 182.901 34.9583C182.908 34.9649 182.916 34.9697 182.925 34.9725C182.933 34.9753 182.943 34.9758 182.952 34.9742H184.554C184.716 34.9816 184.878 34.9567 185.031 34.9007C185.183 34.8448 185.323 34.759 185.442 34.6485" fill="white"/>
<path d="M191.548 38.8622C191.148 38.6637 190.815 38.3529 190.589 37.9678C190.356 37.5606 190.238 37.0978 190.248 36.6288V31.6749C190.245 31.6513 190.247 31.6273 190.254 31.6047C190.262 31.5821 190.275 31.5616 190.291 31.5448C190.308 31.528 190.329 31.5153 190.351 31.5077C190.374 31.5002 190.398 31.498 190.422 31.5013H191.333C191.356 31.498 191.38 31.5002 191.403 31.5077C191.425 31.5153 191.446 31.528 191.463 31.5448C191.48 31.5616 191.492 31.5821 191.5 31.6047C191.507 31.6273 191.51 31.6513 191.506 31.6749V36.6502C191.499 36.8418 191.53 37.0329 191.599 37.2118C191.668 37.3908 191.773 37.5538 191.907 37.6908C192.2 37.9494 192.578 38.0921 192.969 38.0921C193.36 38.0921 193.738 37.9494 194.031 37.6908C194.165 37.5538 194.27 37.3908 194.339 37.2118C194.408 37.0329 194.439 36.8418 194.432 36.6502V31.6749C194.428 31.6513 194.431 31.6273 194.438 31.6047C194.446 31.5821 194.458 31.5616 194.475 31.5448C194.492 31.528 194.512 31.5153 194.535 31.5077C194.558 31.5002 194.582 31.498 194.605 31.5013H195.516C195.539 31.498 195.563 31.5002 195.586 31.5077C195.608 31.5153 195.629 31.528 195.646 31.5448C195.663 31.5616 195.675 31.5821 195.683 31.6047C195.69 31.6273 195.693 31.6513 195.689 31.6749V36.6288C195.7 37.0969 195.584 37.5593 195.355 37.9678C195.133 38.3535 194.801 38.6646 194.402 38.8622C193.955 39.0692 193.469 39.1765 192.976 39.1765C192.484 39.1765 191.998 39.0692 191.551 38.8622" fill="white"/>
<path d="M203.591 35.1611C203.591 35.1791 203.606 35.1951 203.635 35.2098C203.976 35.3596 204.262 35.6103 204.456 35.9282C204.65 36.246 204.742 36.6157 204.719 36.9873C204.737 37.2843 204.684 37.5814 204.564 37.8539C204.445 38.1264 204.262 38.3664 204.031 38.5538C203.51 38.9298 202.878 39.118 202.236 39.0878H199.548C199.524 39.0913 199.5 39.0892 199.478 39.0817C199.455 39.0742 199.434 39.0615 199.417 39.0447C199.401 39.0278 199.388 39.0072 199.38 38.9846C199.373 38.9619 199.371 38.9378 199.374 38.9142V31.6755C199.371 31.652 199.373 31.628 199.381 31.6054C199.388 31.5828 199.401 31.5623 199.418 31.5454C199.435 31.5286 199.455 31.5159 199.478 31.5084C199.5 31.5008 199.524 31.4987 199.548 31.502H202.151C202.798 31.4607 203.44 31.6405 203.972 32.012C204.191 32.2006 204.364 32.4381 204.475 32.7054C204.586 32.9728 204.633 33.2624 204.611 33.5511C204.631 33.8818 204.548 34.2105 204.374 34.4921C204.199 34.7736 203.941 34.994 203.636 35.123C203.607 35.1304 203.593 35.143 203.593 35.1611M200.633 32.6514V34.6351C200.632 34.6442 200.632 34.6536 200.635 34.6625C200.638 34.6713 200.643 34.6794 200.649 34.686C200.656 34.6925 200.664 34.6974 200.673 34.7002C200.681 34.7029 200.691 34.7035 200.7 34.7019H202.152C202.478 34.7193 202.799 34.6201 203.057 34.4222C203.168 34.3289 203.256 34.2115 203.313 34.0789C203.371 33.9464 203.398 33.8024 203.391 33.6579C203.398 33.5103 203.371 33.3632 203.314 33.2272C203.256 33.0912 203.168 32.9699 203.057 32.8723C202.801 32.6687 202.479 32.5663 202.152 32.5846H200.7C200.691 32.583 200.681 32.5836 200.673 32.5863C200.664 32.5891 200.656 32.594 200.649 32.6005C200.643 32.6071 200.638 32.6151 200.635 32.624C200.632 32.6329 200.632 32.6423 200.633 32.6514ZM203.132 37.6921C203.243 37.587 203.331 37.459 203.389 37.3168C203.446 37.1746 203.472 37.0217 203.465 36.8684C203.474 36.7141 203.449 36.5598 203.391 36.4164C203.333 36.273 203.245 36.1441 203.132 36.0388C202.876 35.8291 202.551 35.7227 202.221 35.7404H200.703C200.694 35.7388 200.685 35.7393 200.676 35.7421C200.667 35.7449 200.659 35.7497 200.652 35.7563C200.646 35.7629 200.641 35.7709 200.638 35.7798C200.635 35.7886 200.635 35.798 200.637 35.8072V37.9317C200.635 37.9409 200.635 37.9503 200.638 37.9591C200.641 37.968 200.646 37.976 200.652 37.9826C200.659 37.9892 200.667 37.994 200.676 37.9968C200.685 37.9996 200.694 38.0001 200.703 37.9985H202.242C202.569 38.0158 202.889 37.9071 203.137 37.6948" fill="white"/>
<path d="M208.286 38.9169V31.6755C208.282 31.6519 208.284 31.6279 208.292 31.6052C208.299 31.5826 208.312 31.562 208.329 31.5451C208.346 31.5283 208.366 31.5156 208.389 31.5081C208.412 31.5006 208.436 31.4985 208.459 31.502H209.37C209.393 31.4987 209.417 31.5009 209.44 31.5084C209.462 31.5159 209.483 31.5286 209.5 31.5455C209.517 31.5623 209.529 31.5828 209.537 31.6054C209.544 31.628 209.547 31.652 209.543 31.6755V37.9411C209.542 37.9502 209.542 37.9596 209.545 37.9685C209.548 37.9773 209.553 37.9854 209.559 37.9919C209.566 37.9985 209.574 38.0034 209.583 38.0061C209.591 38.0089 209.601 38.0095 209.61 38.0078H213.187C213.211 38.0045 213.235 38.0067 213.257 38.0142C213.28 38.0217 213.3 38.0344 213.317 38.0513C213.334 38.0681 213.347 38.0886 213.354 38.1112C213.362 38.1338 213.364 38.1578 213.36 38.1814V38.9156C213.364 38.9392 213.362 38.9633 213.354 38.9859C213.347 39.0086 213.334 39.0291 213.317 39.046C213.3 39.0629 213.28 39.0756 213.257 39.083C213.235 39.0905 213.211 39.0926 213.187 39.0891H208.461C208.437 39.0926 208.413 39.0905 208.39 39.083C208.368 39.0756 208.347 39.0629 208.33 39.046C208.313 39.0291 208.301 39.0086 208.293 38.9859C208.286 38.9633 208.284 38.9392 208.287 38.9156" fill="white"/>
<path d="M216.643 38.9169V31.6755C216.64 31.652 216.642 31.628 216.649 31.6054C216.657 31.5828 216.67 31.5623 216.687 31.5455C216.703 31.5286 216.724 31.5159 216.746 31.5084C216.769 31.5009 216.793 31.4987 216.817 31.502H217.727C217.751 31.4987 217.775 31.5009 217.797 31.5084C217.82 31.5159 217.84 31.5286 217.857 31.5455C217.874 31.5623 217.887 31.5828 217.894 31.6054C217.902 31.628 217.904 31.652 217.901 31.6755V38.9169C217.904 38.9405 217.902 38.9645 217.894 38.9871C217.887 39.0097 217.874 39.0302 217.857 39.047C217.84 39.0638 217.82 39.0765 217.797 39.0841C217.775 39.0916 217.751 39.0938 217.727 39.0905H216.817C216.793 39.0939 216.769 39.0919 216.746 39.0844C216.724 39.0769 216.703 39.0642 216.686 39.0473C216.669 39.0305 216.657 39.0099 216.649 38.9872C216.642 38.9646 216.64 38.9405 216.643 38.9169Z" fill="white"/>
<path d="M222.757 38.8569C222.359 38.6571 222.028 38.3464 221.803 37.9624C221.574 37.5557 221.458 37.0944 221.469 36.6275V33.9503C221.458 33.4834 221.574 33.0222 221.803 32.6154C222.027 32.2323 222.359 31.9234 222.757 31.7269C223.202 31.5098 223.693 31.402 224.188 31.4126C224.679 31.403 225.165 31.507 225.608 31.7163C226.003 31.903 226.334 32.2006 226.562 32.5726C226.791 32.9597 226.906 33.4029 226.896 33.8522C226.896 33.9247 226.842 33.9681 226.734 33.9823L225.813 34.0371H225.769C225.683 34.0371 225.639 34.019 225.639 33.9823V33.9156C225.647 33.7259 225.617 33.5366 225.548 33.3595C225.48 33.1823 225.377 33.021 225.243 32.8857C225.103 32.7529 224.936 32.65 224.755 32.5829C224.573 32.5158 224.38 32.486 224.187 32.4952C223.993 32.4862 223.799 32.5161 223.616 32.5832C223.434 32.6502 223.267 32.7531 223.125 32.8857C222.99 33.0202 222.885 33.1812 222.816 33.3585C222.747 33.5358 222.716 33.7255 222.724 33.9156V36.6809C222.717 36.8692 222.748 37.057 222.817 37.2323C222.886 37.4077 222.991 37.5668 223.125 37.6995C223.42 37.9507 223.795 38.089 224.183 38.09C224.571 38.091 224.947 37.9545 225.244 37.7048C225.377 37.5709 225.481 37.4107 225.549 37.2344C225.618 37.0582 225.648 36.8697 225.64 36.6809C225.64 36.6628 225.644 36.645 225.653 36.6289C225.661 36.6129 225.674 36.5991 225.689 36.5888C225.706 36.576 225.727 36.567 225.748 36.5624C225.77 36.5578 225.792 36.5577 225.813 36.5621L226.724 36.6055C226.839 36.6202 226.897 36.6382 226.897 36.6595V36.7136C226.908 37.1678 226.792 37.616 226.564 38.0085C226.337 38.3834 226.006 38.6833 225.61 38.8709C225.166 39.0803 224.68 39.1842 224.189 39.1746C223.694 39.1851 223.203 39.0754 222.758 38.8548" fill="white"/>
<path d="M230.41 38.9169V31.6755C230.406 31.6519 230.408 31.6279 230.416 31.6052C230.423 31.5826 230.436 31.562 230.453 31.5451C230.47 31.5283 230.49 31.5156 230.513 31.5081C230.535 31.5006 230.56 31.4985 230.583 31.502H231.494C231.517 31.4987 231.541 31.5009 231.564 31.5084C231.586 31.5159 231.607 31.5286 231.624 31.5455C231.641 31.5623 231.653 31.5828 231.661 31.6054C231.668 31.628 231.67 31.652 231.667 31.6755V38.9169C231.67 38.9405 231.668 38.9645 231.661 38.9871C231.653 39.0097 231.641 39.0302 231.624 39.047C231.607 39.0638 231.586 39.0765 231.564 39.0841C231.541 39.0916 231.517 39.0938 231.494 39.0905H230.583C230.56 39.0939 230.535 39.0919 230.513 39.0844C230.49 39.0769 230.47 39.0642 230.453 39.0473C230.436 39.0305 230.423 39.0099 230.416 38.9872C230.408 38.9646 230.406 38.9405 230.41 38.9169Z" fill="white"/>
<path d="M240.534 31.6755V32.4238C240.537 32.4474 240.535 32.4715 240.528 32.4941C240.52 32.5167 240.508 32.5373 240.491 32.5542C240.474 32.5711 240.453 32.5837 240.431 32.5912C240.408 32.5987 240.384 32.6008 240.36 32.5973H238.42C238.411 32.5957 238.401 32.5962 238.393 32.599C238.384 32.6018 238.376 32.6066 238.369 32.6132C238.362 32.6198 238.358 32.6278 238.355 32.6367C238.352 32.6455 238.352 32.6549 238.353 32.6641V38.9189C238.357 38.9425 238.354 38.9665 238.347 38.9891C238.339 39.0117 238.326 39.0322 238.31 39.049C238.293 39.0659 238.272 39.0785 238.25 39.0861C238.227 39.0936 238.203 39.0958 238.18 39.0925H237.269C237.245 39.0959 237.221 39.0939 237.198 39.0864C237.175 39.0789 237.155 39.0662 237.138 39.0493C237.121 39.0325 237.108 39.0119 237.101 38.9892C237.094 38.9666 237.091 38.9425 237.095 38.9189V32.6641C237.097 32.6549 237.096 32.6455 237.093 32.6367C237.091 32.6278 237.086 32.6198 237.079 32.6132C237.073 32.6066 237.064 32.6018 237.056 32.599C237.047 32.5962 237.037 32.5957 237.028 32.5973H235.164C235.14 32.6007 235.116 32.5985 235.094 32.5909C235.071 32.5834 235.051 32.5707 235.034 32.5539C235.017 32.537 235.004 32.5165 234.997 32.494C234.989 32.4714 234.987 32.4473 234.99 32.4238V31.6755C234.987 31.652 234.989 31.628 234.997 31.6054C235.004 31.5828 235.017 31.5623 235.034 31.5455C235.051 31.5286 235.071 31.5159 235.094 31.5084C235.116 31.5009 235.14 31.4987 235.164 31.502H240.356C240.38 31.4985 240.404 31.5006 240.427 31.5081C240.449 31.5156 240.47 31.5283 240.487 31.5451C240.503 31.562 240.516 31.5826 240.524 31.6052C240.531 31.6279 240.533 31.6519 240.53 31.6755" fill="white"/>
<path d="M248.827 32.5833H245.184C245.175 32.5817 245.166 32.5822 245.157 32.585C245.148 32.5878 245.14 32.5926 245.133 32.5992C245.127 32.6058 245.122 32.6138 245.119 32.6227C245.116 32.6315 245.116 32.6409 245.117 32.6501V34.6525C245.116 34.6616 245.116 34.671 245.119 34.6799C245.122 34.6887 245.127 34.6968 245.133 34.7033C245.14 34.7099 245.148 34.7148 245.157 34.7175C245.166 34.7203 245.175 34.7209 245.184 34.7192H247.612C247.635 34.7159 247.659 34.7181 247.682 34.7256C247.704 34.7331 247.725 34.7458 247.742 34.7627C247.759 34.7795 247.771 34.8 247.779 34.8226C247.786 34.8452 247.789 34.8692 247.785 34.8928V35.627C247.789 35.6506 247.787 35.6747 247.779 35.6973C247.772 35.72 247.759 35.7405 247.742 35.7574C247.725 35.7743 247.705 35.7869 247.682 35.7944C247.659 35.8019 247.635 35.804 247.612 35.8005H245.184C245.175 35.7989 245.166 35.7994 245.157 35.8022C245.148 35.805 245.14 35.8098 245.133 35.8164C245.127 35.823 245.122 35.831 245.119 35.8399C245.116 35.8487 245.116 35.8581 245.117 35.8673V37.9364C245.116 37.9455 245.116 37.9549 245.119 37.9638C245.122 37.9727 245.127 37.9807 245.133 37.9873C245.14 37.9938 245.148 37.9987 245.157 38.0015C245.166 38.0043 245.175 38.0048 245.184 38.0032H248.827C248.85 37.9997 248.874 38.0018 248.897 38.0093C248.919 38.0167 248.94 38.0294 248.957 38.0463C248.974 38.0632 248.986 38.0837 248.994 38.1064C249.001 38.129 249.004 38.1531 249 38.1767V38.9109C249.004 38.9345 249.001 38.9586 248.994 38.9813C248.986 39.0039 248.974 39.0245 248.957 39.0413C248.94 39.0582 248.919 39.0709 248.897 39.0784C248.874 39.0859 248.85 39.0879 248.827 39.0845H244.035C244.012 39.0878 243.988 39.0856 243.965 39.0781C243.943 39.0705 243.922 39.0579 243.905 39.041C243.888 39.0242 243.876 39.0037 243.868 38.9811C243.861 38.9585 243.859 38.9345 243.862 38.9109V31.6756C243.859 31.652 243.861 31.628 243.868 31.6054C243.876 31.5828 243.888 31.5623 243.905 31.5455C243.922 31.5286 243.943 31.5159 243.965 31.5084C243.988 31.5009 244.012 31.4987 244.035 31.502H248.827C248.85 31.4987 248.874 31.5009 248.897 31.5084C248.919 31.5159 248.94 31.5286 248.957 31.5455C248.973 31.5623 248.986 31.5828 248.994 31.6054C249.001 31.628 249.003 31.652 249 31.6756V32.4098C249.004 32.4334 249.001 32.4575 248.994 32.4801C248.986 32.5027 248.974 32.5233 248.957 32.5402C248.94 32.5571 248.919 32.5697 248.897 32.5772C248.874 32.5847 248.85 32.5868 248.827 32.5833ZM245.802 30.5562C245.801 30.5257 245.808 30.4955 245.824 30.4694L246.388 29.4402C246.407 29.4026 246.436 29.3712 246.473 29.35C246.509 29.3288 246.551 29.3186 246.593 29.3207H247.45C247.543 29.3207 247.59 29.3532 247.59 29.4182C247.588 29.4562 247.577 29.4932 247.558 29.5263L246.864 30.5669C246.843 30.6021 246.813 30.6309 246.776 30.6499C246.74 30.669 246.699 30.6777 246.658 30.675H245.954C245.852 30.675 245.802 30.635 245.802 30.5555" fill="white"/>
<path d="M150.629 -4H150.001V49.3975H150.629V-4Z" fill="white"/>
</g>
<defs>
<clipPath id="clip0_469_449">
<rect width="249" height="53.3975" fill="white" transform="translate(0 -4)"/>
</clipPath>
</defs>
</svg>
