<svg width="491" height="93" viewBox="0 0 491 93" fill="none" xmlns="http://www.w3.org/2000/svg">
<g clip-path="url(#clip0_122_766)">
<path fill-rule="evenodd" clip-rule="evenodd" d="M43.7309 35.617L37.821 28.6974L37.5684 31.9791C37.9254 32.1764 38.1945 32.5215 38.2769 32.9543C38.4032 33.6227 38.0298 34.2747 37.4256 34.5212C37.5904 35.9676 37.876 37.7317 37.9474 38.8987C38.0297 40.1752 37.6618 40.6902 36.7775 40.7341C36.2282 40.7615 35.7009 40.3232 35.6955 38.8604C35.69 38.055 36.0305 36.0114 36.3271 34.5103C35.9042 34.3295 35.5856 33.9514 35.4922 33.4748C35.3494 32.7078 35.8547 31.9682 36.6237 31.8257L36.6457 31.8202L36.9587 27.6893L36.5468 27.2072C36.2557 26.8675 36.2063 26.4073 36.4205 26.0128C36.6347 25.6184 37.0411 25.4485 37.4915 25.465L64.5309 26.5497C65.0746 26.5716 65.5525 26.8291 65.871 27.2729L81.574 49.3301C81.8321 49.6972 81.909 50.1355 81.6948 50.5245C81.4806 50.919 81.0686 51.1272 80.6238 51.0669L69.2928 49.5931C69.183 50.3218 69.0072 51.0395 68.782 51.7462L68.6667 52.0969H68.6612L68.5733 52.3325C68.0021 53.8829 67.1782 55.3184 66.2116 56.6552L66.0193 56.9291L65.849 57.1537C64.8989 58.4083 63.8388 59.5479 62.7568 60.682L62.581 60.8628L62.3174 61.1367C61.7791 61.7065 60.4225 63.0269 60.4335 63.8542V63.8925L60.4445 63.9309C60.4884 64.0952 60.807 64.6267 60.8894 64.791C61.1969 65.3718 61.5045 65.9415 61.8121 66.5223C62.1307 67.114 62.4492 67.7057 62.7623 68.3029C62.2735 68.144 61.7627 68.0344 61.2519 67.9851L60.7191 67.9358L60.7301 67.9577L60.5269 67.9687C57.6433 68.0892 55.8857 70.7464 53.6558 72.2475L53.513 72.3407V72.3571L53.0516 72.6201C51.7499 73.3652 50.4043 73.6994 48.9268 73.7213C48.5808 71.6832 47.9986 69.5027 46.944 67.7276L46.6254 67.1907L46.6145 67.2126L46.5211 67.0866C46.1256 66.5278 45.6643 66.0182 45.1205 65.5964C44.1648 64.9061 43.1762 64.528 42.0228 64.3801L41.858 64.3637L41.869 64.3527L41.2703 64.3199C39.7214 64.2377 38.3209 64.4185 36.9148 63.5693C35.6131 62.7803 36.1074 61.2792 36.5688 60.1506L36.9148 59.2959L36.8983 59.3068L36.8928 59.137C36.8653 58.3536 35.6515 58.0413 35.5417 57.7399C35.5636 57.4824 36.014 57.0441 36.2227 56.8798L36.6786 56.5127L36.1458 56.3374C36.0415 56.2826 35.9206 56.1895 35.8328 56.1237C35.6845 56.0196 35.5801 55.4553 35.7064 55.3184C36.1568 54.8472 36.3106 54.4253 36.3875 53.7843C36.4424 53.3022 36.1788 52.8803 35.8657 52.5407L35.7724 52.4366L35.8053 52.4311L35.2506 51.9599C35.0034 51.7462 34.7453 51.5435 34.5091 51.3244C33.9269 50.793 36.047 49.1877 36.426 48.9138C36.8763 48.585 37.2938 48.2015 37.6837 47.8071L38.1341 47.3414H38.1176L38.211 47.2318C38.5186 46.8812 38.8262 46.5141 39.0953 46.1415L39.5676 45.4457L39.4303 44.7061C39.3424 43.7967 39.3864 42.8762 39.5676 41.9613L39.6116 41.7367H39.6061L39.7104 41.3532C40.2048 39.5178 41.2428 37.9125 42.5995 36.5922L42.7972 36.4004L43.0444 36.1813C43.2805 35.9786 43.5002 35.7978 43.7309 35.617Z" fill="white"/>
<path fill-rule="evenodd" clip-rule="evenodd" d="M53.8865 7.56607C65.1186 7.56607 75.2906 12.1079 82.6505 19.4494C90.0104 26.7908 94.5636 36.9373 94.5636 48.1468C94.5636 59.3507 90.0104 69.4972 82.6505 76.8442C82.0408 77.4523 81.4092 78.0385 80.7611 78.6083L82.7713 87.3249C82.9196 87.9714 82.6724 88.6124 82.1232 88.9904C81.574 89.3684 80.8874 89.3794 80.3327 89.0123L72.8409 84.0651C67.1782 87.0455 60.7301 88.7274 53.881 88.7274C42.6489 88.7274 32.4769 84.1856 25.117 76.8442C17.7571 69.5027 13.2039 59.3507 13.2039 48.1468C13.2039 36.9428 17.7571 26.7963 25.117 19.4494C32.4879 12.1079 42.6544 7.56607 53.8865 7.56607ZM75.6091 26.4785C70.0508 20.9341 62.3723 17.5044 53.8865 17.5044C45.4061 17.5044 37.7277 20.9341 32.1638 26.4785C26.6055 32.0284 23.1672 39.6877 23.1672 48.1468C23.1672 56.6113 26.6055 64.2706 32.1638 69.815C37.7222 75.3594 45.4006 78.7891 53.8865 78.7891C62.3723 78.7891 70.0508 75.3594 75.6091 69.815C81.1675 64.2706 84.6058 56.6113 84.6058 48.1468C84.6058 39.6877 81.1675 32.0284 75.6091 26.4785Z" fill="white"/>
<path d="M117.044 95.5539C116.742 95.5539 116.495 95.3074 116.495 95.006V4.18572C116.495 3.88439 116.742 3.63785 117.044 3.63785C117.346 3.63785 117.594 3.88439 117.594 4.18572V95.006C117.594 95.3128 117.352 95.5539 117.044 95.5539Z" fill="white"/>
<path d="M155.742 36.4093V39.1515H147.152V36.4093H155.742ZM148.289 22.089V39.1515H144.773V22.089H148.289ZM160.628 21.1515V22.9328C160.628 23.4406 160.531 23.964 160.335 24.5031C160.148 25.0421 159.894 25.5539 159.574 26.0382C159.253 26.5148 158.902 26.9211 158.519 27.257L156.937 26.3429C157.226 25.882 157.472 25.382 157.675 24.8429C157.878 24.2961 157.98 23.6632 157.98 22.9445V21.1515H160.628ZM169.312 36.2921V30.6437C169.312 30.2375 169.246 29.8898 169.113 29.6007C168.98 29.3039 168.773 29.0734 168.492 28.9093C168.218 28.7453 167.863 28.6632 167.425 28.6632C167.05 28.6632 166.726 28.7296 166.453 28.8625C166.179 28.9875 165.968 29.1711 165.82 29.4132C165.671 29.6476 165.597 29.925 165.597 30.2453H162.222C162.222 29.7062 162.347 29.1945 162.597 28.7101C162.847 28.2257 163.21 27.8 163.687 27.4328C164.164 27.0578 164.73 26.7648 165.386 26.5539C166.05 26.3429 166.792 26.2375 167.613 26.2375C168.597 26.2375 169.472 26.4015 170.238 26.7296C171.003 27.0578 171.605 27.55 172.042 28.2062C172.488 28.8625 172.71 29.6828 172.71 30.6671V36.0929C172.71 36.7882 172.753 37.3586 172.839 37.8039C172.925 38.2414 173.05 38.6242 173.214 38.9523V39.1515H169.804C169.64 38.8078 169.515 38.3781 169.429 37.8625C169.351 37.339 169.312 36.8156 169.312 36.2921ZM169.757 31.4289L169.781 33.339H167.894C167.449 33.339 167.062 33.3898 166.734 33.4914C166.406 33.5929 166.136 33.7375 165.925 33.925C165.714 34.1046 165.558 34.3156 165.457 34.5578C165.363 34.8 165.316 35.0656 165.316 35.3546C165.316 35.6437 165.382 35.9054 165.515 36.1398C165.648 36.3664 165.839 36.5461 166.089 36.6789C166.339 36.8039 166.632 36.8664 166.968 36.8664C167.476 36.8664 167.917 36.7648 168.292 36.5617C168.667 36.3586 168.957 36.1086 169.16 35.8117C169.371 35.5148 169.48 35.2336 169.488 34.9679L170.378 36.3976C170.253 36.7179 170.082 37.05 169.863 37.3937C169.652 37.7375 169.382 38.0617 169.054 38.3664C168.726 38.6632 168.332 38.9093 167.871 39.1046C167.41 39.2921 166.863 39.3859 166.23 39.3859C165.425 39.3859 164.695 39.2257 164.039 38.9054C163.39 38.5773 162.874 38.1281 162.492 37.5578C162.117 36.9796 161.929 36.3234 161.929 35.589C161.929 34.925 162.054 34.3351 162.304 33.8195C162.554 33.3039 162.921 32.8703 163.406 32.5187C163.898 32.1593 164.511 31.8898 165.246 31.7101C165.98 31.5226 166.832 31.4289 167.8 31.4289H169.757ZM178.617 29.1789V39.1515H175.242V26.4718H178.406L178.617 29.1789ZM178.124 32.3664H177.21C177.21 31.4289 177.332 30.5851 177.574 29.8351C177.816 29.0773 178.156 28.4328 178.593 27.9015C179.031 27.3625 179.55 26.9523 180.152 26.6711C180.761 26.382 181.441 26.2375 182.191 26.2375C182.785 26.2375 183.328 26.3234 183.82 26.4953C184.312 26.6671 184.734 26.9406 185.085 27.3156C185.445 27.6906 185.718 28.1867 185.906 28.8039C186.101 29.4211 186.199 30.175 186.199 31.0656V39.1515H182.8V31.0539C182.8 30.4914 182.722 30.0539 182.566 29.7414C182.41 29.4289 182.179 29.2101 181.874 29.0851C181.578 28.9523 181.21 28.8859 180.773 28.8859C180.32 28.8859 179.925 28.9757 179.589 29.1554C179.261 29.3351 178.988 29.5851 178.769 29.9054C178.558 30.2179 178.398 30.5851 178.289 31.007C178.179 31.4289 178.124 31.882 178.124 32.3664ZM192.07 29.1789V39.1515H188.695V26.4718H191.859L192.07 29.1789ZM191.578 32.3664H190.664C190.664 31.4289 190.785 30.5851 191.027 29.8351C191.269 29.0773 191.609 28.4328 192.046 27.9015C192.484 27.3625 193.003 26.9523 193.605 26.6711C194.214 26.382 194.894 26.2375 195.644 26.2375C196.238 26.2375 196.781 26.3234 197.273 26.4953C197.765 26.6671 198.187 26.9406 198.539 27.3156C198.898 27.6906 199.171 28.1867 199.359 28.8039C199.554 29.4211 199.652 30.175 199.652 31.0656V39.1515H196.253V31.0539C196.253 30.4914 196.175 30.0539 196.019 29.7414C195.863 29.4289 195.632 29.2101 195.328 29.0851C195.031 28.9523 194.664 28.8859 194.226 28.8859C193.773 28.8859 193.378 28.9757 193.042 29.1554C192.714 29.3351 192.441 29.5851 192.222 29.9054C192.011 30.2179 191.851 30.5851 191.742 31.007C191.632 31.4289 191.578 31.882 191.578 32.3664ZM209.718 36.1164V26.4718H213.093V39.1515H209.917L209.718 36.1164ZM210.093 33.5148L211.089 33.4914C211.089 34.3351 210.992 35.1203 210.796 35.8468C210.601 36.5656 210.308 37.1906 209.917 37.7218C209.527 38.2453 209.035 38.6554 208.441 38.9523C207.847 39.2414 207.148 39.3859 206.343 39.3859C205.726 39.3859 205.156 39.3 204.632 39.1281C204.117 38.9484 203.671 38.6711 203.296 38.2961C202.929 37.9132 202.64 37.425 202.429 36.8312C202.226 36.2296 202.124 35.507 202.124 34.6632V26.4718H205.499V34.6867C205.499 35.0617 205.542 35.3781 205.628 35.6359C205.722 35.8937 205.851 36.1046 206.015 36.2687C206.179 36.4328 206.371 36.55 206.589 36.6203C206.816 36.6906 207.066 36.7257 207.339 36.7257C208.035 36.7257 208.582 36.5851 208.98 36.3039C209.386 36.0226 209.671 35.6398 209.835 35.1554C210.007 34.6632 210.093 34.1164 210.093 33.5148ZM222.515 36.2921V30.6437C222.515 30.2375 222.449 29.8898 222.316 29.6007C222.183 29.3039 221.976 29.0734 221.695 28.9093C221.421 28.7453 221.066 28.6632 220.628 28.6632C220.253 28.6632 219.929 28.7296 219.656 28.8625C219.382 28.9875 219.171 29.1711 219.023 29.4132C218.874 29.6476 218.8 29.925 218.8 30.2453H215.425C215.425 29.7062 215.55 29.1945 215.8 28.7101C216.05 28.2257 216.414 27.8 216.89 27.4328C217.367 27.0578 217.933 26.7648 218.589 26.5539C219.253 26.3429 219.996 26.2375 220.816 26.2375C221.8 26.2375 222.675 26.4015 223.441 26.7296C224.207 27.0578 224.808 27.55 225.246 28.2062C225.691 28.8625 225.914 29.6828 225.914 30.6671V36.0929C225.914 36.7882 225.957 37.3586 226.042 37.8039C226.128 38.2414 226.253 38.6242 226.417 38.9523V39.1515H223.007C222.843 38.8078 222.718 38.3781 222.632 37.8625C222.554 37.339 222.515 36.8156 222.515 36.2921ZM222.96 31.4289L222.984 33.339H221.097C220.652 33.339 220.265 33.3898 219.937 33.4914C219.609 33.5929 219.339 33.7375 219.128 33.925C218.917 34.1046 218.761 34.3156 218.66 34.5578C218.566 34.8 218.519 35.0656 218.519 35.3546C218.519 35.6437 218.585 35.9054 218.718 36.1398C218.851 36.3664 219.042 36.5461 219.292 36.6789C219.542 36.8039 219.835 36.8664 220.171 36.8664C220.679 36.8664 221.121 36.7648 221.496 36.5617C221.871 36.3586 222.16 36.1086 222.363 35.8117C222.574 35.5148 222.683 35.2336 222.691 34.9679L223.582 36.3976C223.457 36.7179 223.285 37.05 223.066 37.3937C222.855 37.7375 222.585 38.0617 222.257 38.3664C221.929 38.6632 221.535 38.9093 221.074 39.1046C220.613 39.2921 220.066 39.3859 219.433 39.3859C218.628 39.3859 217.898 39.2257 217.242 38.9054C216.593 38.5773 216.078 38.1281 215.695 37.5578C215.32 36.9796 215.132 36.3234 215.132 35.589C215.132 34.925 215.257 34.3351 215.507 33.8195C215.757 33.3039 216.124 32.8703 216.609 32.5187C217.101 32.1593 217.714 31.8898 218.449 31.7101C219.183 31.5226 220.035 31.4289 221.003 31.4289H222.96ZM232.078 26.4718V39.1515H228.691V26.4718H232.078ZM228.48 23.1671C228.48 22.675 228.652 22.2687 228.996 21.9484C229.339 21.6281 229.8 21.4679 230.378 21.4679C230.949 21.4679 231.406 21.6281 231.749 21.9484C232.101 22.2687 232.277 22.675 232.277 23.1671C232.277 23.6593 232.101 24.0656 231.749 24.3859C231.406 24.7062 230.949 24.8664 230.378 24.8664C229.8 24.8664 229.339 24.7062 228.996 24.3859C228.652 24.0656 228.48 23.6593 228.48 23.1671ZM238.242 29.2375V39.1515H234.867V26.4718H238.042L238.242 29.2375ZM242.062 26.3898L242.003 29.5187C241.839 29.4953 241.64 29.4757 241.406 29.4601C241.179 29.4367 240.972 29.425 240.785 29.425C240.308 29.425 239.894 29.4875 239.542 29.6125C239.199 29.7296 238.91 29.9054 238.675 30.1398C238.449 30.3742 238.277 30.6593 238.16 30.9953C238.05 31.3312 237.988 31.714 237.972 32.1437L237.292 31.9328C237.292 31.1125 237.374 30.3586 237.539 29.6711C237.703 28.9757 237.941 28.3703 238.253 27.8546C238.574 27.339 238.964 26.9406 239.425 26.6593C239.886 26.3781 240.414 26.2375 241.007 26.2375C241.195 26.2375 241.386 26.2531 241.582 26.2843C241.777 26.3078 241.937 26.3429 242.062 26.3898ZM249.257 39.3859C248.273 39.3859 247.39 39.2296 246.609 38.9171C245.828 38.5968 245.164 38.1554 244.617 37.5929C244.078 37.0304 243.664 36.3781 243.374 35.6359C243.085 34.8859 242.941 34.089 242.941 33.2453V32.7765C242.941 31.8156 243.078 30.9367 243.351 30.1398C243.624 29.3429 244.015 28.6515 244.523 28.0656C245.039 27.4796 245.664 27.0304 246.398 26.7179C247.132 26.3976 247.96 26.2375 248.882 26.2375C249.781 26.2375 250.578 26.3859 251.273 26.6828C251.968 26.9796 252.55 27.4015 253.019 27.9484C253.496 28.4953 253.855 29.1515 254.097 29.9171C254.339 30.675 254.46 31.5187 254.46 32.4484V33.8546H244.382V31.6046H251.144V31.3468C251.144 30.8781 251.058 30.4601 250.886 30.0929C250.722 29.7179 250.472 29.4211 250.136 29.2023C249.8 28.9836 249.371 28.8742 248.847 28.8742C248.402 28.8742 248.019 28.9718 247.699 29.1671C247.378 29.3625 247.117 29.6359 246.914 29.9875C246.718 30.339 246.57 30.7531 246.468 31.2296C246.374 31.6984 246.328 32.214 246.328 32.7765V33.2453C246.328 33.7531 246.398 34.2218 246.539 34.6515C246.687 35.0812 246.894 35.4523 247.16 35.7648C247.433 36.0773 247.761 36.3195 248.144 36.4914C248.535 36.6632 248.976 36.7492 249.468 36.7492C250.078 36.7492 250.644 36.632 251.167 36.3976C251.699 36.1554 252.156 35.7921 252.539 35.3078L254.179 37.089C253.914 37.4718 253.55 37.839 253.089 38.1906C252.636 38.5421 252.089 38.8312 251.449 39.0578C250.808 39.2765 250.078 39.3859 249.257 39.3859ZM269.847 36.3859V21.1515H273.246V39.1515H270.187L269.847 36.3859ZM261.832 32.964V32.7179C261.832 31.7492 261.941 30.8703 262.16 30.0812C262.378 29.2843 262.699 28.6007 263.121 28.0304C263.542 27.4601 264.062 27.0187 264.679 26.7062C265.296 26.3937 265.999 26.2375 266.789 26.2375C267.531 26.2375 268.179 26.3937 268.734 26.7062C269.296 27.0187 269.773 27.464 270.164 28.0421C270.562 28.6125 270.882 29.2882 271.124 30.0695C271.367 30.8429 271.542 31.6906 271.652 32.6125V33.1515C271.542 34.0343 271.367 34.8546 271.124 35.6125C270.882 36.3703 270.562 37.0343 270.164 37.6046C269.773 38.1671 269.296 38.6046 268.734 38.9171C268.171 39.2296 267.515 39.3859 266.765 39.3859C265.976 39.3859 265.273 39.2257 264.656 38.9054C264.046 38.5851 263.531 38.1359 263.109 37.5578C262.695 36.9796 262.378 36.3 262.16 35.5187C261.941 34.7375 261.832 33.8859 261.832 32.964ZM265.207 32.7179V32.964C265.207 33.4875 265.246 33.9757 265.324 34.4289C265.41 34.882 265.546 35.2843 265.734 35.6359C265.929 35.9796 266.179 36.2492 266.484 36.4445C266.796 36.632 267.175 36.7257 267.621 36.7257C268.199 36.7257 268.675 36.5968 269.05 36.339C269.425 36.0734 269.71 35.7101 269.906 35.2492C270.109 34.7882 270.226 34.257 270.257 33.6554V32.1203C270.234 31.6281 270.164 31.1867 270.046 30.7961C269.937 30.3976 269.773 30.0578 269.554 29.7765C269.343 29.4953 269.078 29.2765 268.757 29.1203C268.445 28.964 268.074 28.8859 267.644 28.8859C267.207 28.8859 266.832 28.9875 266.519 29.1906C266.207 29.3859 265.953 29.6554 265.757 29.9992C265.57 30.3429 265.429 30.7492 265.335 31.2179C265.249 31.6789 265.207 32.1789 265.207 32.7179ZM281.718 39.3859C280.734 39.3859 279.851 39.2296 279.07 38.9171C278.289 38.5968 277.624 38.1554 277.078 37.5929C276.539 37.0304 276.124 36.3781 275.835 35.6359C275.546 34.8859 275.402 34.089 275.402 33.2453V32.7765C275.402 31.8156 275.539 30.9367 275.812 30.1398C276.085 29.3429 276.476 28.6515 276.984 28.0656C277.499 27.4796 278.124 27.0304 278.859 26.7179C279.593 26.3976 280.421 26.2375 281.343 26.2375C282.242 26.2375 283.039 26.3859 283.734 26.6828C284.429 26.9796 285.011 27.4015 285.48 27.9484C285.957 28.4953 286.316 29.1515 286.558 29.9171C286.8 30.675 286.921 31.5187 286.921 32.4484V33.8546H276.843V31.6046H283.605V31.3468C283.605 30.8781 283.519 30.4601 283.347 30.0929C283.183 29.7179 282.933 29.4211 282.597 29.2023C282.261 28.9836 281.832 28.8742 281.308 28.8742C280.863 28.8742 280.48 28.9718 280.16 29.1671C279.839 29.3625 279.578 29.6359 279.374 29.9875C279.179 30.339 279.031 30.7531 278.929 31.2296C278.835 31.6984 278.789 32.214 278.789 32.7765V33.2453C278.789 33.7531 278.859 34.2218 278.999 34.6515C279.148 35.0812 279.355 35.4523 279.621 35.7648C279.894 36.0773 280.222 36.3195 280.605 36.4914C280.996 36.6632 281.437 36.7492 281.929 36.7492C282.539 36.7492 283.105 36.632 283.628 36.3976C284.16 36.1554 284.617 35.7921 284.999 35.3078L286.64 37.089C286.374 37.4718 286.011 37.839 285.55 38.1906C285.097 38.5421 284.55 38.8312 283.91 39.0578C283.269 39.2765 282.539 39.3859 281.718 39.3859ZM295.699 35.6476C295.699 35.4054 295.628 35.1867 295.488 34.9914C295.347 34.7961 295.085 34.6164 294.703 34.4523C294.328 34.2804 293.785 34.1242 293.074 33.9836C292.433 33.8429 291.835 33.6671 291.281 33.4562C290.734 33.2375 290.257 32.9757 289.851 32.6711C289.453 32.3664 289.14 32.007 288.914 31.5929C288.687 31.1711 288.574 30.6906 288.574 30.1515C288.574 29.6203 288.687 29.1203 288.914 28.6515C289.148 28.1828 289.48 27.7687 289.91 27.4093C290.347 27.0421 290.878 26.757 291.503 26.5539C292.136 26.3429 292.847 26.2375 293.636 26.2375C294.738 26.2375 295.683 26.4132 296.472 26.7648C297.269 27.1164 297.878 27.6007 298.3 28.2179C298.73 28.8273 298.945 29.5226 298.945 30.3039H295.57C295.57 29.9757 295.499 29.6828 295.359 29.425C295.226 29.1593 295.015 28.9523 294.726 28.8039C294.445 28.6476 294.078 28.5695 293.624 28.5695C293.249 28.5695 292.925 28.6359 292.652 28.7687C292.378 28.8937 292.167 29.0656 292.019 29.2843C291.878 29.4953 291.808 29.7296 291.808 29.9875C291.808 30.1828 291.847 30.3586 291.925 30.5148C292.011 30.6632 292.148 30.8 292.335 30.925C292.523 31.05 292.765 31.1671 293.062 31.2765C293.367 31.3781 293.742 31.4718 294.187 31.5578C295.101 31.7453 295.917 31.9914 296.636 32.2961C297.355 32.5929 297.925 32.9992 298.347 33.5148C298.769 34.0226 298.98 34.6906 298.98 35.5187C298.98 36.0812 298.855 36.5968 298.605 37.0656C298.355 37.5343 297.996 37.9445 297.527 38.2961C297.058 38.6398 296.496 38.9093 295.839 39.1046C295.191 39.2921 294.46 39.3859 293.648 39.3859C292.468 39.3859 291.468 39.175 290.648 38.7531C289.835 38.3312 289.218 37.7961 288.796 37.1476C288.382 36.4914 288.175 35.8195 288.175 35.132H291.374C291.39 35.5929 291.507 35.964 291.726 36.2453C291.953 36.5265 292.238 36.7296 292.582 36.8546C292.933 36.9796 293.312 37.0421 293.718 37.0421C294.156 37.0421 294.519 36.9836 294.808 36.8664C295.097 36.7414 295.316 36.5773 295.464 36.3742C295.621 36.1632 295.699 35.9211 295.699 35.6476ZM312.984 39.3859C311.999 39.3859 311.117 39.2296 310.335 38.9171C309.554 38.5968 308.89 38.1554 308.343 37.5929C307.804 37.0304 307.39 36.3781 307.101 35.6359C306.812 34.8859 306.667 34.089 306.667 33.2453V32.7765C306.667 31.8156 306.804 30.9367 307.078 30.1398C307.351 29.3429 307.742 28.6515 308.249 28.0656C308.765 27.4796 309.39 27.0304 310.124 26.7179C310.859 26.3976 311.687 26.2375 312.609 26.2375C313.507 26.2375 314.304 26.3859 314.999 26.6828C315.695 26.9796 316.277 27.4015 316.746 27.9484C317.222 28.4953 317.582 29.1515 317.824 29.9171C318.066 30.675 318.187 31.5187 318.187 32.4484V33.8546H308.109V31.6046H314.871V31.3468C314.871 30.8781 314.785 30.4601 314.613 30.0929C314.449 29.7179 314.199 29.4211 313.863 29.2023C313.527 28.9836 313.097 28.8742 312.574 28.8742C312.128 28.8742 311.746 28.9718 311.425 29.1671C311.105 29.3625 310.843 29.6359 310.64 29.9875C310.445 30.339 310.296 30.7531 310.195 31.2296C310.101 31.6984 310.054 32.214 310.054 32.7765V33.2453C310.054 33.7531 310.124 34.2218 310.265 34.6515C310.414 35.0812 310.621 35.4523 310.886 35.7648C311.16 36.0773 311.488 36.3195 311.871 36.4914C312.261 36.6632 312.703 36.7492 313.195 36.7492C313.804 36.7492 314.371 36.632 314.894 36.3976C315.425 36.1554 315.882 35.7921 316.265 35.3078L317.906 37.089C317.64 37.4718 317.277 37.839 316.816 38.1906C316.363 38.5421 315.816 38.8312 315.175 39.0578C314.535 39.2765 313.804 39.3859 312.984 39.3859ZM310.605 24.7492L312.902 21.1398H316.57L313.347 24.7492H310.605ZM326.32 26.4718V28.8625H318.937V26.4718H326.32ZM320.765 23.3429H324.14V35.3312C324.14 35.6984 324.187 35.9796 324.281 36.175C324.382 36.3703 324.531 36.507 324.726 36.5851C324.921 36.6554 325.167 36.6906 325.464 36.6906C325.675 36.6906 325.863 36.6828 326.027 36.6671C326.199 36.6437 326.343 36.6203 326.46 36.5968L326.472 39.0812C326.183 39.175 325.871 39.2492 325.535 39.3039C325.199 39.3586 324.828 39.3859 324.421 39.3859C323.679 39.3859 323.031 39.2648 322.476 39.0226C321.929 38.7726 321.507 38.3742 321.21 37.8273C320.914 37.2804 320.765 36.5617 320.765 35.6711V23.3429ZM335.085 36.2921V30.6437C335.085 30.2375 335.019 29.8898 334.886 29.6007C334.753 29.3039 334.546 29.0734 334.265 28.9093C333.992 28.7453 333.636 28.6632 333.199 28.6632C332.824 28.6632 332.499 28.7296 332.226 28.8625C331.953 28.9875 331.742 29.1711 331.593 29.4132C331.445 29.6476 331.371 29.925 331.371 30.2453H327.996C327.996 29.7062 328.121 29.1945 328.371 28.7101C328.621 28.2257 328.984 27.8 329.46 27.4328C329.937 27.0578 330.503 26.7648 331.16 26.5539C331.824 26.3429 332.566 26.2375 333.386 26.2375C334.371 26.2375 335.246 26.4015 336.011 26.7296C336.777 27.0578 337.378 27.55 337.816 28.2062C338.261 28.8625 338.484 29.6828 338.484 30.6671V36.0929C338.484 36.7882 338.527 37.3586 338.613 37.8039C338.699 38.2414 338.824 38.6242 338.988 38.9523V39.1515H335.578C335.414 38.8078 335.289 38.3781 335.203 37.8625C335.124 37.339 335.085 36.8156 335.085 36.2921ZM335.531 31.4289L335.554 33.339H333.667C333.222 33.339 332.835 33.3898 332.507 33.4914C332.179 33.5929 331.91 33.7375 331.699 33.925C331.488 34.1046 331.332 34.3156 331.23 34.5578C331.136 34.8 331.089 35.0656 331.089 35.3546C331.089 35.6437 331.156 35.9054 331.289 36.1398C331.421 36.3664 331.613 36.5461 331.863 36.6789C332.113 36.8039 332.406 36.8664 332.742 36.8664C333.249 36.8664 333.691 36.7648 334.066 36.5617C334.441 36.3586 334.73 36.1086 334.933 35.8117C335.144 35.5148 335.253 35.2336 335.261 34.9679L336.152 36.3976C336.027 36.7179 335.855 37.05 335.636 37.3937C335.425 37.7375 335.156 38.0617 334.828 38.3664C334.499 38.6632 334.105 38.9093 333.644 39.1046C333.183 39.2921 332.636 39.3859 332.003 39.3859C331.199 39.3859 330.468 39.2257 329.812 38.9054C329.164 38.5773 328.648 38.1281 328.265 37.5578C327.89 36.9796 327.703 36.3234 327.703 35.589C327.703 34.925 327.828 34.3351 328.078 33.8195C328.328 33.3039 328.695 32.8703 329.179 32.5187C329.671 32.1593 330.285 31.8898 331.019 31.7101C331.753 31.5226 332.605 31.4289 333.574 31.4289H335.531ZM341.085 21.1515H344.46V36.2453L344.121 39.1515H341.085V21.1515ZM352.488 32.6828V32.9289C352.488 33.8742 352.386 34.7414 352.183 35.5304C351.988 36.3195 351.683 37.0031 351.269 37.5812C350.855 38.1515 350.339 38.5968 349.722 38.9171C349.113 39.2296 348.394 39.3859 347.566 39.3859C346.792 39.3859 346.121 39.2296 345.55 38.9171C344.988 38.6046 344.515 38.1632 344.132 37.5929C343.749 37.0226 343.441 36.3546 343.207 35.589C342.972 34.8234 342.796 33.9875 342.679 33.0812V32.5421C342.796 31.6359 342.972 30.8 343.207 30.0343C343.441 29.2687 343.749 28.6007 344.132 28.0304C344.515 27.4601 344.988 27.0187 345.55 26.7062C346.113 26.3937 346.777 26.2375 347.542 26.2375C348.378 26.2375 349.105 26.3976 349.722 26.7179C350.347 27.0304 350.863 27.4757 351.269 28.0539C351.683 28.6242 351.988 29.3039 352.183 30.0929C352.386 30.8742 352.488 31.7375 352.488 32.6828ZM349.113 32.9289V32.6828C349.113 32.1671 349.074 31.6828 348.996 31.2296C348.925 30.7687 348.8 30.3664 348.621 30.0226C348.441 29.6711 348.195 29.3937 347.882 29.1906C347.578 28.9875 347.183 28.8859 346.699 28.8859C346.238 28.8859 345.847 28.964 345.527 29.1203C345.207 29.2765 344.941 29.4953 344.73 29.7765C344.527 30.0578 344.374 30.3937 344.273 30.7843C344.171 31.1671 344.109 31.589 344.085 32.05V33.5851C344.109 34.2023 344.21 34.7492 344.39 35.2257C344.578 35.6945 344.859 36.0656 345.234 36.339C345.617 36.6046 346.113 36.7375 346.722 36.7375C347.199 36.7375 347.593 36.6437 347.906 36.4562C348.218 36.2687 348.46 36.0031 348.632 35.6593C348.812 35.3156 348.937 34.9132 349.007 34.4523C349.078 33.9836 349.113 33.4757 349.113 32.9289ZM358.148 21.1515V39.1515H354.761V21.1515H358.148ZM364.499 26.4718V39.1515H361.113V26.4718H364.499ZM360.902 23.1671C360.902 22.675 361.074 22.2687 361.417 21.9484C361.761 21.6281 362.222 21.4679 362.8 21.4679C363.371 21.4679 363.828 21.6281 364.171 21.9484C364.523 22.2687 364.699 22.675 364.699 23.1671C364.699 23.6593 364.523 24.0656 364.171 24.3859C363.828 24.7062 363.371 24.8664 362.8 24.8664C362.222 24.8664 361.761 24.7062 361.417 24.3859C361.074 24.0656 360.902 23.6593 360.902 23.1671ZM374.144 35.6476C374.144 35.4054 374.074 35.1867 373.933 34.9914C373.792 34.7961 373.531 34.6164 373.148 34.4523C372.773 34.2804 372.23 34.1242 371.519 33.9836C370.878 33.8429 370.281 33.6671 369.726 33.4562C369.179 33.2375 368.703 32.9757 368.296 32.6711C367.898 32.3664 367.585 32.007 367.359 31.5929C367.132 31.1711 367.019 30.6906 367.019 30.1515C367.019 29.6203 367.132 29.1203 367.359 28.6515C367.593 28.1828 367.925 27.7687 368.355 27.4093C368.792 27.0421 369.324 26.757 369.949 26.5539C370.582 26.3429 371.292 26.2375 372.082 26.2375C373.183 26.2375 374.128 26.4132 374.917 26.7648C375.714 27.1164 376.324 27.6007 376.746 28.2179C377.175 28.8273 377.39 29.5226 377.39 30.3039H374.015C374.015 29.9757 373.945 29.6828 373.804 29.425C373.671 29.1593 373.46 28.9523 373.171 28.8039C372.89 28.6476 372.523 28.5695 372.07 28.5695C371.695 28.5695 371.371 28.6359 371.097 28.7687C370.824 28.8937 370.613 29.0656 370.464 29.2843C370.324 29.4953 370.253 29.7296 370.253 29.9875C370.253 30.1828 370.292 30.3586 370.371 30.5148C370.457 30.6632 370.593 30.8 370.781 30.925C370.968 31.05 371.21 31.1671 371.507 31.2765C371.812 31.3781 372.187 31.4718 372.632 31.5578C373.546 31.7453 374.363 31.9914 375.082 32.2961C375.8 32.5929 376.371 32.9992 376.792 33.5148C377.214 34.0226 377.425 34.6906 377.425 35.5187C377.425 36.0812 377.3 36.5968 377.05 37.0656C376.8 37.5343 376.441 37.9445 375.972 38.2961C375.503 38.6398 374.941 38.9093 374.285 39.1046C373.636 39.2921 372.906 39.3859 372.093 39.3859C370.914 39.3859 369.914 39.175 369.093 38.7531C368.281 38.3312 367.664 37.7961 367.242 37.1476C366.828 36.4914 366.621 35.8195 366.621 35.132H369.82C369.835 35.5929 369.953 35.964 370.171 36.2453C370.398 36.5265 370.683 36.7296 371.027 36.8546C371.378 36.9796 371.757 37.0421 372.164 37.0421C372.601 37.0421 372.964 36.9836 373.253 36.8664C373.542 36.7414 373.761 36.5773 373.91 36.3742C374.066 36.1632 374.144 35.9211 374.144 35.6476ZM386.472 35.6476C386.472 35.4054 386.402 35.1867 386.261 34.9914C386.121 34.7961 385.859 34.6164 385.476 34.4523C385.101 34.2804 384.558 34.1242 383.847 33.9836C383.207 33.8429 382.609 33.6671 382.054 33.4562C381.507 33.2375 381.031 32.9757 380.624 32.6711C380.226 32.3664 379.914 32.007 379.687 31.5929C379.46 31.1711 379.347 30.6906 379.347 30.1515C379.347 29.6203 379.46 29.1203 379.687 28.6515C379.921 28.1828 380.253 27.7687 380.683 27.4093C381.121 27.0421 381.652 26.757 382.277 26.5539C382.91 26.3429 383.621 26.2375 384.41 26.2375C385.511 26.2375 386.457 26.4132 387.246 26.7648C388.042 27.1164 388.652 27.6007 389.074 28.2179C389.503 28.8273 389.718 29.5226 389.718 30.3039H386.343C386.343 29.9757 386.273 29.6828 386.132 29.425C385.999 29.1593 385.789 28.9523 385.499 28.8039C385.218 28.6476 384.851 28.5695 384.398 28.5695C384.023 28.5695 383.699 28.6359 383.425 28.7687C383.152 28.8937 382.941 29.0656 382.792 29.2843C382.652 29.4953 382.582 29.7296 382.582 29.9875C382.582 30.1828 382.621 30.3586 382.699 30.5148C382.785 30.6632 382.921 30.8 383.109 30.925C383.296 31.05 383.539 31.1671 383.835 31.2765C384.14 31.3781 384.515 31.4718 384.96 31.5578C385.874 31.7453 386.691 31.9914 387.41 32.2961C388.128 32.5929 388.699 32.9992 389.121 33.5148C389.542 34.0226 389.753 34.6906 389.753 35.5187C389.753 36.0812 389.628 36.5968 389.378 37.0656C389.128 37.5343 388.769 37.9445 388.3 38.2961C387.832 38.6398 387.269 38.9093 386.613 39.1046C385.964 39.2921 385.234 39.3859 384.421 39.3859C383.242 39.3859 382.242 39.175 381.421 38.7531C380.609 38.3312 379.992 37.7961 379.57 37.1476C379.156 36.4914 378.949 35.8195 378.949 35.132H382.148C382.164 35.5929 382.281 35.964 382.499 36.2453C382.726 36.5265 383.011 36.7296 383.355 36.8546C383.707 36.9796 384.085 37.0421 384.492 37.0421C384.929 37.0421 385.292 36.9836 385.582 36.8664C385.871 36.7414 386.089 36.5773 386.238 36.3742C386.394 36.1632 386.472 35.9211 386.472 35.6476ZM397.781 39.3859C396.796 39.3859 395.914 39.2296 395.132 38.9171C394.351 38.5968 393.687 38.1554 393.14 37.5929C392.601 37.0304 392.187 36.3781 391.898 35.6359C391.609 34.8859 391.464 34.089 391.464 33.2453V32.7765C391.464 31.8156 391.601 30.9367 391.874 30.1398C392.148 29.3429 392.539 28.6515 393.046 28.0656C393.562 27.4796 394.187 27.0304 394.921 26.7179C395.656 26.3976 396.484 26.2375 397.406 26.2375C398.304 26.2375 399.101 26.3859 399.796 26.6828C400.492 26.9796 401.074 27.4015 401.542 27.9484C402.019 28.4953 402.378 29.1515 402.621 29.9171C402.863 30.675 402.984 31.5187 402.984 32.4484V33.8546H392.906V31.6046H399.667V31.3468C399.667 30.8781 399.582 30.4601 399.41 30.0929C399.246 29.7179 398.996 29.4211 398.66 29.2023C398.324 28.9836 397.894 28.8742 397.371 28.8742C396.925 28.8742 396.542 28.9718 396.222 29.1671C395.902 29.3625 395.64 29.6359 395.437 29.9875C395.242 30.339 395.093 30.7531 394.992 31.2296C394.898 31.6984 394.851 32.214 394.851 32.7765V33.2453C394.851 33.7531 394.921 34.2218 395.062 34.6515C395.21 35.0812 395.417 35.4523 395.683 35.7648C395.957 36.0773 396.285 36.3195 396.667 36.4914C397.058 36.6632 397.499 36.7492 397.992 36.7492C398.601 36.7492 399.167 36.632 399.691 36.3976C400.222 36.1554 400.679 35.7921 401.062 35.3078L402.703 37.089C402.437 37.4718 402.074 37.839 401.613 38.1906C401.16 38.5421 400.613 38.8312 399.972 39.0578C399.332 39.2765 398.601 39.3859 397.781 39.3859ZM408.281 29.0968V39.1515H404.894V26.4718H408.07L408.281 29.0968ZM407.812 32.3664H406.874C406.874 31.4836 406.98 30.6711 407.191 29.9289C407.41 29.1789 407.726 28.5304 408.14 27.9836C408.562 27.4289 409.082 26.9992 409.699 26.6945C410.316 26.3898 411.031 26.2375 411.843 26.2375C412.406 26.2375 412.921 26.3234 413.39 26.4953C413.859 26.6593 414.261 26.9211 414.597 27.2804C414.941 27.632 415.207 28.0929 415.394 28.6632C415.582 29.2257 415.675 29.9015 415.675 30.6906V39.1515H412.3V31.0656C412.3 30.4875 412.222 30.0421 412.066 29.7296C411.91 29.4171 411.687 29.1984 411.398 29.0734C411.117 28.9484 410.777 28.8859 410.378 28.8859C409.941 28.8859 409.558 28.9757 409.23 29.1554C408.91 29.3351 408.644 29.5851 408.433 29.9054C408.222 30.2179 408.066 30.5851 407.964 31.007C407.863 31.4289 407.812 31.882 407.812 32.3664ZM415.359 31.9796L414.152 32.132C414.152 31.3039 414.253 30.5343 414.457 29.8234C414.667 29.1125 414.976 28.4875 415.382 27.9484C415.796 27.4093 416.308 26.9914 416.917 26.6945C417.527 26.3898 418.23 26.2375 419.027 26.2375C419.636 26.2375 420.191 26.3273 420.691 26.507C421.191 26.6789 421.617 26.9562 421.968 27.339C422.328 27.714 422.601 28.2062 422.789 28.8156C422.984 29.425 423.082 30.1711 423.082 31.0539V39.1515H419.695V31.0539C419.695 30.4679 419.617 30.0226 419.46 29.7179C419.312 29.4054 419.093 29.1906 418.804 29.0734C418.523 28.9484 418.187 28.8859 417.796 28.8859C417.39 28.8859 417.035 28.9679 416.73 29.132C416.425 29.2882 416.171 29.507 415.968 29.7882C415.765 30.0695 415.613 30.3976 415.511 30.7726C415.41 31.1398 415.359 31.5421 415.359 31.9796ZM431.531 39.3859C430.546 39.3859 429.664 39.2296 428.882 38.9171C428.101 38.5968 427.437 38.1554 426.89 37.5929C426.351 37.0304 425.937 36.3781 425.648 35.6359C425.359 34.8859 425.214 34.089 425.214 33.2453V32.7765C425.214 31.8156 425.351 30.9367 425.624 30.1398C425.898 29.3429 426.289 28.6515 426.796 28.0656C427.312 27.4796 427.937 27.0304 428.671 26.7179C429.406 26.3976 430.234 26.2375 431.156 26.2375C432.054 26.2375 432.851 26.3859 433.546 26.6828C434.242 26.9796 434.824 27.4015 435.292 27.9484C435.769 28.4953 436.128 29.1515 436.371 29.9171C436.613 30.675 436.734 31.5187 436.734 32.4484V33.8546H426.656V31.6046H433.417V31.3468C433.417 30.8781 433.332 30.4601 433.16 30.0929C432.996 29.7179 432.746 29.4211 432.41 29.2023C432.074 28.9836 431.644 28.8742 431.121 28.8742C430.675 28.8742 430.292 28.9718 429.972 29.1671C429.652 29.3625 429.39 29.6359 429.187 29.9875C428.992 30.339 428.843 30.7531 428.742 31.2296C428.648 31.6984 428.601 32.214 428.601 32.7765V33.2453C428.601 33.7531 428.671 34.2218 428.812 34.6515C428.96 35.0812 429.167 35.4523 429.433 35.7648C429.707 36.0773 430.035 36.3195 430.417 36.4914C430.808 36.6632 431.249 36.7492 431.742 36.7492C432.351 36.7492 432.917 36.632 433.441 36.3976C433.972 36.1554 434.429 35.7921 434.812 35.3078L436.453 37.089C436.187 37.4718 435.824 37.839 435.363 38.1906C434.91 38.5421 434.363 38.8312 433.722 39.0578C433.082 39.2765 432.351 39.3859 431.531 39.3859ZM441.96 29.1789V39.1515H438.585V26.4718H441.749L441.96 29.1789ZM441.468 32.3664H440.554C440.554 31.4289 440.675 30.5851 440.917 29.8351C441.16 29.0773 441.499 28.4328 441.937 27.9015C442.374 27.3625 442.894 26.9523 443.496 26.6711C444.105 26.382 444.785 26.2375 445.535 26.2375C446.128 26.2375 446.671 26.3234 447.164 26.4953C447.656 26.6671 448.078 26.9406 448.429 27.3156C448.789 27.6906 449.062 28.1867 449.249 28.8039C449.445 29.4211 449.542 30.175 449.542 31.0656V39.1515H446.144V31.0539C446.144 30.4914 446.066 30.0539 445.91 29.7414C445.753 29.4289 445.523 29.2101 445.218 29.0851C444.921 28.9523 444.554 28.8859 444.117 28.8859C443.664 28.8859 443.269 28.9757 442.933 29.1554C442.605 29.3351 442.332 29.5851 442.113 29.9054C441.902 30.2179 441.742 30.5851 441.632 31.007C441.523 31.4289 441.468 31.882 441.468 32.3664ZM458.32 26.4718V28.8625H450.937V26.4718H458.32ZM452.765 23.3429H456.14V35.3312C456.14 35.6984 456.187 35.9796 456.281 36.175C456.382 36.3703 456.531 36.507 456.726 36.5851C456.921 36.6554 457.167 36.6906 457.464 36.6906C457.675 36.6906 457.863 36.6828 458.027 36.6671C458.199 36.6437 458.343 36.6203 458.46 36.5968L458.472 39.0812C458.183 39.175 457.871 39.2492 457.535 39.3039C457.199 39.3586 456.828 39.3859 456.421 39.3859C455.679 39.3859 455.031 39.2648 454.476 39.0226C453.929 38.7726 453.507 38.3742 453.21 37.8273C452.914 37.2804 452.765 36.5617 452.765 35.6711V23.3429ZM467.097 35.6476C467.097 35.4054 467.027 35.1867 466.886 34.9914C466.746 34.7961 466.484 34.6164 466.101 34.4523C465.726 34.2804 465.183 34.1242 464.472 33.9836C463.832 33.8429 463.234 33.6671 462.679 33.4562C462.132 33.2375 461.656 32.9757 461.249 32.6711C460.851 32.3664 460.539 32.007 460.312 31.5929C460.085 31.1711 459.972 30.6906 459.972 30.1515C459.972 29.6203 460.085 29.1203 460.312 28.6515C460.546 28.1828 460.878 27.7687 461.308 27.4093C461.746 27.0421 462.277 26.757 462.902 26.5539C463.535 26.3429 464.246 26.2375 465.035 26.2375C466.136 26.2375 467.082 26.4132 467.871 26.7648C468.667 27.1164 469.277 27.6007 469.699 28.2179C470.128 28.8273 470.343 29.5226 470.343 30.3039H466.968C466.968 29.9757 466.898 29.6828 466.757 29.425C466.624 29.1593 466.414 28.9523 466.124 28.8039C465.843 28.6476 465.476 28.5695 465.023 28.5695C464.648 28.5695 464.324 28.6359 464.05 28.7687C463.777 28.8937 463.566 29.0656 463.417 29.2843C463.277 29.4953 463.207 29.7296 463.207 29.9875C463.207 30.1828 463.246 30.3586 463.324 30.5148C463.41 30.6632 463.546 30.8 463.734 30.925C463.921 31.05 464.164 31.1671 464.46 31.2765C464.765 31.3781 465.14 31.4718 465.585 31.5578C466.499 31.7453 467.316 31.9914 468.035 32.2961C468.753 32.5929 469.324 32.9992 469.746 33.5148C470.167 34.0226 470.378 34.6906 470.378 35.5187C470.378 36.0812 470.253 36.5968 470.003 37.0656C469.753 37.5343 469.394 37.9445 468.925 38.2961C468.457 38.6398 467.894 38.9093 467.238 39.1046C466.589 39.2921 465.859 39.3859 465.046 39.3859C463.867 39.3859 462.867 39.175 462.046 38.7531C461.234 38.3312 460.617 37.7961 460.195 37.1476C459.781 36.4914 459.574 35.8195 459.574 35.132H462.773C462.789 35.5929 462.906 35.964 463.124 36.2453C463.351 36.5265 463.636 36.7296 463.98 36.8546C464.332 36.9796 464.71 37.0421 465.117 37.0421C465.554 37.0421 465.917 36.9836 466.207 36.8664C466.496 36.7414 466.714 36.5773 466.863 36.3742C467.019 36.1632 467.097 35.9211 467.097 35.6476ZM152.05 64.3859V49.1515H155.449V67.1515H152.39L152.05 64.3859ZM144.035 60.964V60.7179C144.035 59.7492 144.144 58.8703 144.363 58.0812C144.582 57.2843 144.902 56.6007 145.324 56.0304C145.746 55.4601 146.265 55.0187 146.882 54.7062C147.499 54.3937 148.203 54.2375 148.992 54.2375C149.734 54.2375 150.382 54.3937 150.937 54.7062C151.499 55.0187 151.976 55.464 152.367 56.0421C152.765 56.6125 153.085 57.2882 153.328 58.0695C153.57 58.8429 153.746 59.6906 153.855 60.6125V61.1515C153.746 62.0343 153.57 62.8546 153.328 63.6125C153.085 64.3703 152.765 65.0343 152.367 65.6046C151.976 66.1671 151.499 66.6046 150.937 66.9171C150.374 67.2296 149.718 67.3859 148.968 67.3859C148.179 67.3859 147.476 67.2257 146.859 66.9054C146.249 66.5851 145.734 66.1359 145.312 65.5578C144.898 64.9796 144.582 64.3 144.363 63.5187C144.144 62.7375 144.035 61.8859 144.035 60.964ZM147.41 60.7179V60.964C147.41 61.4875 147.449 61.9757 147.527 62.4289C147.613 62.882 147.749 63.2843 147.937 63.6359C148.132 63.9796 148.382 64.2492 148.687 64.4445C148.999 64.632 149.378 64.7257 149.824 64.7257C150.402 64.7257 150.878 64.5968 151.253 64.339C151.628 64.0734 151.914 63.7101 152.109 63.2492C152.312 62.7882 152.429 62.257 152.46 61.6554V60.1203C152.437 59.6281 152.367 59.1867 152.249 58.7961C152.14 58.3976 151.976 58.0578 151.757 57.7765C151.546 57.4953 151.281 57.2765 150.96 57.1203C150.648 56.964 150.277 56.8859 149.847 56.8859C149.41 56.8859 149.035 56.9875 148.722 57.1906C148.41 57.3859 148.156 57.6554 147.96 57.9992C147.773 58.3429 147.632 58.7492 147.539 59.2179C147.453 59.6789 147.41 60.1789 147.41 60.7179ZM159.984 49.1515V50.8507L159.644 55.5265H157.511L157.523 51.0265V49.1515H159.984ZM167.085 67.3859C166.101 67.3859 165.218 67.2296 164.437 66.9171C163.656 66.5968 162.992 66.1554 162.445 65.5929C161.906 65.0304 161.492 64.3781 161.203 63.6359C160.914 62.8859 160.769 62.089 160.769 61.2453V60.7765C160.769 59.8156 160.906 58.9367 161.179 58.1398C161.453 57.3429 161.843 56.6515 162.351 56.0656C162.867 55.4796 163.492 55.0304 164.226 54.7179C164.96 54.3976 165.789 54.2375 166.71 54.2375C167.609 54.2375 168.406 54.3859 169.101 54.6828C169.796 54.9796 170.378 55.4015 170.847 55.9484C171.324 56.4953 171.683 57.1515 171.925 57.9171C172.167 58.675 172.289 59.5187 172.289 60.4484V61.8546H162.21V59.6046H168.972V59.3468C168.972 58.8781 168.886 58.4601 168.714 58.0929C168.55 57.7179 168.3 57.4211 167.964 57.2023C167.628 56.9836 167.199 56.8742 166.675 56.8742C166.23 56.8742 165.847 56.9718 165.527 57.1671C165.207 57.3625 164.945 57.6359 164.742 57.9875C164.546 58.339 164.398 58.7531 164.296 59.2296C164.203 59.6984 164.156 60.214 164.156 60.7765V61.2453C164.156 61.7531 164.226 62.2218 164.367 62.6515C164.515 63.0812 164.722 63.4523 164.988 63.7648C165.261 64.0773 165.589 64.3195 165.972 64.4914C166.363 64.6632 166.804 64.7492 167.296 64.7492C167.906 64.7492 168.472 64.632 168.996 64.3976C169.527 64.1554 169.984 63.7921 170.367 63.3078L172.007 65.089C171.742 65.4718 171.378 65.839 170.917 66.1906C170.464 66.5421 169.917 66.8312 169.277 67.0578C168.636 67.2765 167.906 67.3859 167.085 67.3859ZM177.515 57.1789V67.1515H174.14V54.4718H177.304L177.515 57.1789ZM177.023 60.3664H176.109C176.109 59.4289 176.23 58.5851 176.472 57.8351C176.714 57.0773 177.054 56.4328 177.492 55.9015C177.929 55.3625 178.449 54.9523 179.05 54.6711C179.66 54.382 180.339 54.2375 181.089 54.2375C181.683 54.2375 182.226 54.3234 182.718 54.4953C183.21 54.6671 183.632 54.9406 183.984 55.3156C184.343 55.6906 184.617 56.1867 184.804 56.8039C184.999 57.4211 185.097 58.175 185.097 59.0656V67.1515H181.699V59.0539C181.699 58.4914 181.621 58.0539 181.464 57.7414C181.308 57.4289 181.078 57.2101 180.773 57.0851C180.476 56.9523 180.109 56.8859 179.671 56.8859C179.218 56.8859 178.824 56.9757 178.488 57.1554C178.16 57.3351 177.886 57.5851 177.667 57.9054C177.457 58.2179 177.296 58.5851 177.187 59.007C177.078 59.4289 177.023 59.882 177.023 60.3664ZM194.519 63.6476C194.519 63.4054 194.449 63.1867 194.308 62.9914C194.167 62.7961 193.906 62.6164 193.523 62.4523C193.148 62.2804 192.605 62.1242 191.894 61.9836C191.253 61.8429 190.656 61.6671 190.101 61.4562C189.554 61.2375 189.078 60.9757 188.671 60.6711C188.273 60.3664 187.96 60.007 187.734 59.5929C187.507 59.1711 187.394 58.6906 187.394 58.1515C187.394 57.6203 187.507 57.1203 187.734 56.6515C187.968 56.1828 188.3 55.7687 188.73 55.4093C189.167 55.0421 189.699 54.757 190.324 54.5539C190.957 54.3429 191.667 54.2375 192.457 54.2375C193.558 54.2375 194.503 54.4132 195.292 54.7648C196.089 55.1164 196.699 55.6007 197.121 56.2179C197.55 56.8273 197.765 57.5226 197.765 58.3039H194.39C194.39 57.9757 194.32 57.6828 194.179 57.425C194.046 57.1593 193.835 56.9523 193.546 56.8039C193.265 56.6476 192.898 56.5695 192.445 56.5695C192.07 56.5695 191.746 56.6359 191.472 56.7687C191.199 56.8937 190.988 57.0656 190.839 57.2843C190.699 57.4953 190.628 57.7296 190.628 57.9875C190.628 58.1828 190.667 58.3586 190.746 58.5148C190.832 58.6632 190.968 58.8 191.156 58.925C191.343 59.05 191.585 59.1671 191.882 59.2765C192.187 59.3781 192.562 59.4718 193.007 59.5578C193.921 59.7453 194.738 59.9914 195.457 60.2961C196.175 60.5929 196.746 60.9992 197.167 61.5148C197.589 62.0226 197.8 62.6906 197.8 63.5187C197.8 64.0812 197.675 64.5968 197.425 65.0656C197.175 65.5343 196.816 65.9445 196.347 66.2961C195.878 66.6398 195.316 66.9093 194.66 67.1046C194.011 67.2921 193.281 67.3859 192.468 67.3859C191.289 67.3859 190.289 67.175 189.468 66.7531C188.656 66.3312 188.039 65.7961 187.617 65.1476C187.203 64.4914 186.996 63.8195 186.996 63.132H190.195C190.21 63.5929 190.328 63.964 190.546 64.2453C190.773 64.5265 191.058 64.7296 191.402 64.8546C191.753 64.9796 192.132 65.0421 192.539 65.0421C192.976 65.0421 193.339 64.9836 193.628 64.8664C193.917 64.7414 194.136 64.5773 194.285 64.3742C194.441 64.1632 194.519 63.9211 194.519 63.6476ZM205.828 67.3859C204.843 67.3859 203.96 67.2296 203.179 66.9171C202.398 66.5968 201.734 66.1554 201.187 65.5929C200.648 65.0304 200.234 64.3781 199.945 63.6359C199.656 62.8859 199.511 62.089 199.511 61.2453V60.7765C199.511 59.8156 199.648 58.9367 199.921 58.1398C200.195 57.3429 200.585 56.6515 201.093 56.0656C201.609 55.4796 202.234 55.0304 202.968 54.7179C203.703 54.3976 204.531 54.2375 205.453 54.2375C206.351 54.2375 207.148 54.3859 207.843 54.6828C208.539 54.9796 209.121 55.4015 209.589 55.9484C210.066 56.4953 210.425 57.1515 210.667 57.9171C210.91 58.675 211.031 59.5187 211.031 60.4484V61.8546H200.953V59.6046H207.714V59.3468C207.714 58.8781 207.628 58.4601 207.457 58.0929C207.292 57.7179 207.042 57.4211 206.707 57.2023C206.371 56.9836 205.941 56.8742 205.417 56.8742C204.972 56.8742 204.589 56.9718 204.269 57.1671C203.949 57.3625 203.687 57.6359 203.484 57.9875C203.289 58.339 203.14 58.7531 203.039 59.2296C202.945 59.6984 202.898 60.214 202.898 60.7765V61.2453C202.898 61.7531 202.968 62.2218 203.109 62.6515C203.257 63.0812 203.464 63.4523 203.73 63.7648C204.003 64.0773 204.332 64.3195 204.714 64.4914C205.105 64.6632 205.546 64.7492 206.039 64.7492C206.648 64.7492 207.214 64.632 207.738 64.3976C208.269 64.1554 208.726 63.7921 209.109 63.3078L210.749 65.089C210.484 65.4718 210.121 65.839 209.66 66.1906C209.207 66.5421 208.66 66.8312 208.019 67.0578C207.378 67.2765 206.648 67.3859 205.828 67.3859ZM216.515 54.4718V67.1515H213.128V54.4718H216.515ZM212.917 51.1671C212.917 50.675 213.089 50.2687 213.433 49.9484C213.777 49.6281 214.238 49.4679 214.816 49.4679C215.386 49.4679 215.843 49.6281 216.187 49.9484C216.539 50.2687 216.714 50.675 216.714 51.1671C216.714 51.6593 216.539 52.0656 216.187 52.3859C215.843 52.7062 215.386 52.8664 214.816 52.8664C214.238 52.8664 213.777 52.7062 213.433 52.3859C213.089 52.0656 212.917 51.6593 212.917 51.1671ZM227.332 54.4718H230.39V66.7296C230.39 67.8859 230.132 68.8664 229.617 69.6711C229.109 70.4836 228.398 71.0968 227.484 71.5109C226.57 71.9328 225.507 72.1437 224.296 72.1437C223.765 72.1437 223.203 72.0734 222.609 71.9328C222.023 71.7921 221.46 71.5734 220.921 71.2765C220.39 70.9796 219.945 70.6046 219.585 70.1515L221.074 68.1593C221.464 68.6125 221.917 68.964 222.433 69.214C222.949 69.4718 223.519 69.6007 224.144 69.6007C224.753 69.6007 225.269 69.4875 225.691 69.2609C226.113 69.0421 226.437 68.7179 226.664 68.2882C226.89 67.8664 227.003 67.3546 227.003 66.7531V57.4015L227.332 54.4718ZM218.8 60.964V60.7179C218.8 59.7492 218.917 58.8703 219.152 58.0812C219.394 57.2843 219.734 56.6007 220.171 56.0304C220.617 55.4601 221.156 55.0187 221.789 54.7062C222.421 54.3937 223.136 54.2375 223.933 54.2375C224.777 54.2375 225.484 54.3937 226.054 54.7062C226.624 55.0187 227.093 55.464 227.46 56.0421C227.828 56.6125 228.113 57.2882 228.316 58.0695C228.527 58.8429 228.691 59.6906 228.808 60.6125V61.1515C228.691 62.0343 228.515 62.8546 228.281 63.6125C228.046 64.3703 227.738 65.0343 227.355 65.6046C226.972 66.1671 226.496 66.6046 225.925 66.9171C225.363 67.2296 224.691 67.3859 223.91 67.3859C223.128 67.3859 222.421 67.2257 221.789 66.9054C221.164 66.5851 220.628 66.1359 220.183 65.5578C219.738 64.9796 219.394 64.3 219.152 63.5187C218.917 62.7375 218.8 61.8859 218.8 60.964ZM222.175 60.7179V60.964C222.175 61.4875 222.226 61.9757 222.328 62.4289C222.429 62.882 222.585 63.2843 222.796 63.6359C223.015 63.9796 223.285 64.2492 223.605 64.4445C223.933 64.632 224.32 64.7257 224.765 64.7257C225.382 64.7257 225.886 64.5968 226.277 64.339C226.667 64.0734 226.96 63.7101 227.156 63.2492C227.351 62.7882 227.464 62.257 227.496 61.6554V60.1203C227.48 59.6281 227.414 59.1867 227.296 58.7961C227.179 58.3976 227.015 58.0578 226.804 57.7765C226.593 57.4953 226.32 57.2765 225.984 57.1203C225.648 56.964 225.249 56.8859 224.789 56.8859C224.343 56.8859 223.957 56.9875 223.628 57.1906C223.308 57.3859 223.039 57.6554 222.82 57.9992C222.609 58.3429 222.449 58.7492 222.339 59.2179C222.23 59.6789 222.175 60.1789 222.175 60.7179ZM236.32 57.1789V67.1515H232.945V54.4718H236.109L236.32 57.1789ZM235.828 60.3664H234.914C234.914 59.4289 235.035 58.5851 235.277 57.8351C235.519 57.0773 235.859 56.4328 236.296 55.9015C236.734 55.3625 237.253 54.9523 237.855 54.6711C238.464 54.382 239.144 54.2375 239.894 54.2375C240.488 54.2375 241.031 54.3234 241.523 54.4953C242.015 54.6671 242.437 54.9406 242.789 55.3156C243.148 55.6906 243.421 56.1867 243.609 56.8039C243.804 57.4211 243.902 58.175 243.902 59.0656V67.1515H240.503V59.0539C240.503 58.4914 240.425 58.0539 240.269 57.7414C240.113 57.4289 239.882 57.2101 239.578 57.0851C239.281 56.9523 238.914 56.8859 238.476 56.8859C238.023 56.8859 237.628 56.9757 237.292 57.1554C236.964 57.3351 236.691 57.5851 236.472 57.9054C236.261 58.2179 236.101 58.5851 235.992 59.007C235.882 59.4289 235.828 59.882 235.828 60.3664ZM252.304 67.3859C251.32 67.3859 250.437 67.2296 249.656 66.9171C248.874 66.5968 248.21 66.1554 247.664 65.5929C247.124 65.0304 246.71 64.3781 246.421 63.6359C246.132 62.8859 245.988 62.089 245.988 61.2453V60.7765C245.988 59.8156 246.124 58.9367 246.398 58.1398C246.671 57.3429 247.062 56.6515 247.57 56.0656C248.085 55.4796 248.71 55.0304 249.445 54.7179C250.179 54.3976 251.007 54.2375 251.929 54.2375C252.828 54.2375 253.624 54.3859 254.32 54.6828C255.015 54.9796 255.597 55.4015 256.066 55.9484C256.542 56.4953 256.902 57.1515 257.144 57.9171C257.386 58.675 257.507 59.5187 257.507 60.4484V61.8546H247.429V59.6046H254.191V59.3468C254.191 58.8781 254.105 58.4601 253.933 58.0929C253.769 57.7179 253.519 57.4211 253.183 57.2023C252.847 56.9836 252.417 56.8742 251.894 56.8742C251.449 56.8742 251.066 56.9718 250.746 57.1671C250.425 57.3625 250.164 57.6359 249.96 57.9875C249.765 58.339 249.617 58.7531 249.515 59.2296C249.421 59.6984 249.374 60.214 249.374 60.7765V61.2453C249.374 61.7531 249.445 62.2218 249.585 62.6515C249.734 63.0812 249.941 63.4523 250.207 63.7648C250.48 64.0773 250.808 64.3195 251.191 64.4914C251.582 64.6632 252.023 64.7492 252.515 64.7492C253.124 64.7492 253.691 64.632 254.214 64.3976C254.746 64.1554 255.203 63.7921 255.585 63.3078L257.226 65.089C256.96 65.4718 256.597 65.839 256.136 66.1906C255.683 66.5421 255.136 66.8312 254.496 67.0578C253.855 67.2765 253.124 67.3859 252.304 67.3859ZM262.804 57.0968V67.1515H259.417V54.4718H262.593L262.804 57.0968ZM262.335 60.3664H261.398C261.398 59.4836 261.503 58.6711 261.714 57.9289C261.933 57.1789 262.249 56.5304 262.664 55.9836C263.085 55.4289 263.605 54.9992 264.222 54.6945C264.839 54.3898 265.554 54.2375 266.367 54.2375C266.929 54.2375 267.445 54.3234 267.914 54.4953C268.382 54.6593 268.785 54.9211 269.121 55.2804C269.464 55.632 269.73 56.0929 269.917 56.6632C270.105 57.2257 270.199 57.9015 270.199 58.6906V67.1515H266.824V59.0656C266.824 58.4875 266.746 58.0421 266.589 57.7296C266.433 57.4171 266.21 57.1984 265.921 57.0734C265.64 56.9484 265.3 56.8859 264.902 56.8859C264.464 56.8859 264.082 56.9757 263.753 57.1554C263.433 57.3351 263.167 57.5851 262.957 57.9054C262.746 58.2179 262.589 58.5851 262.488 59.007C262.386 59.4289 262.335 59.882 262.335 60.3664ZM269.882 59.9796L268.675 60.132C268.675 59.3039 268.777 58.5343 268.98 57.8234C269.191 57.1125 269.499 56.4875 269.906 55.9484C270.32 55.4093 270.832 54.9914 271.441 54.6945C272.05 54.3898 272.753 54.2375 273.55 54.2375C274.16 54.2375 274.714 54.3273 275.214 54.507C275.714 54.6789 276.14 54.9562 276.492 55.339C276.851 55.714 277.124 56.2062 277.312 56.8156C277.507 57.425 277.605 58.1711 277.605 59.0539V67.1515H274.218V59.0539C274.218 58.4679 274.14 58.0226 273.984 57.7179C273.835 57.4054 273.617 57.1906 273.328 57.0734C273.046 56.9484 272.71 56.8859 272.32 56.8859C271.914 56.8859 271.558 56.9679 271.253 57.132C270.949 57.2882 270.695 57.507 270.492 57.7882C270.289 58.0695 270.136 58.3976 270.035 58.7726C269.933 59.1398 269.882 59.5421 269.882 59.9796ZM286.054 67.3859C285.07 67.3859 284.187 67.2296 283.406 66.9171C282.624 66.5968 281.96 66.1554 281.414 65.5929C280.874 65.0304 280.46 64.3781 280.171 63.6359C279.882 62.8859 279.738 62.089 279.738 61.2453V60.7765C279.738 59.8156 279.874 58.9367 280.148 58.1398C280.421 57.3429 280.812 56.6515 281.32 56.0656C281.835 55.4796 282.46 55.0304 283.195 54.7179C283.929 54.3976 284.757 54.2375 285.679 54.2375C286.578 54.2375 287.374 54.3859 288.07 54.6828C288.765 54.9796 289.347 55.4015 289.816 55.9484C290.292 56.4953 290.652 57.1515 290.894 57.9171C291.136 58.675 291.257 59.5187 291.257 60.4484V61.8546H281.179V59.6046H287.941V59.3468C287.941 58.8781 287.855 58.4601 287.683 58.0929C287.519 57.7179 287.269 57.4211 286.933 57.2023C286.597 56.9836 286.167 56.8742 285.644 56.8742C285.199 56.8742 284.816 56.9718 284.496 57.1671C284.175 57.3625 283.914 57.6359 283.71 57.9875C283.515 58.339 283.367 58.7531 283.265 59.2296C283.171 59.6984 283.124 60.214 283.124 60.7765V61.2453C283.124 61.7531 283.195 62.2218 283.335 62.6515C283.484 63.0812 283.691 63.4523 283.957 63.7648C284.23 64.0773 284.558 64.3195 284.941 64.4914C285.332 64.6632 285.773 64.7492 286.265 64.7492C286.874 64.7492 287.441 64.632 287.964 64.3976C288.496 64.1554 288.953 63.7921 289.335 63.3078L290.976 65.089C290.71 65.4718 290.347 65.839 289.886 66.1906C289.433 66.5421 288.886 66.8312 288.246 67.0578C287.605 67.2765 286.874 67.3859 286.054 67.3859ZM296.484 57.1789V67.1515H293.109V54.4718H296.273L296.484 57.1789ZM295.992 60.3664H295.078C295.078 59.4289 295.199 58.5851 295.441 57.8351C295.683 57.0773 296.023 56.4328 296.46 55.9015C296.898 55.3625 297.417 54.9523 298.019 54.6711C298.628 54.382 299.308 54.2375 300.058 54.2375C300.652 54.2375 301.195 54.3234 301.687 54.4953C302.179 54.6671 302.601 54.9406 302.953 55.3156C303.312 55.6906 303.585 56.1867 303.773 56.8039C303.968 57.4211 304.066 58.175 304.066 59.0656V67.1515H300.667V59.0539C300.667 58.4914 300.589 58.0539 300.433 57.7414C300.277 57.4289 300.046 57.2101 299.742 57.0851C299.445 56.9523 299.078 56.8859 298.64 56.8859C298.187 56.8859 297.792 56.9757 297.457 57.1554C297.128 57.3351 296.855 57.5851 296.636 57.9054C296.425 58.2179 296.265 58.5851 296.156 59.007C296.046 59.4289 295.992 59.882 295.992 60.3664ZM312.843 54.4718V56.8625H305.46V54.4718H312.843ZM307.289 51.3429H310.664V63.3312C310.664 63.6984 310.71 63.9796 310.804 64.175C310.906 64.3703 311.054 64.507 311.249 64.5851C311.445 64.6554 311.691 64.6906 311.988 64.6906C312.199 64.6906 312.386 64.6828 312.55 64.6671C312.722 64.6437 312.867 64.6203 312.984 64.5968L312.996 67.0812C312.707 67.175 312.394 67.2492 312.058 67.3039C311.722 67.3586 311.351 67.3859 310.945 67.3859C310.203 67.3859 309.554 67.2648 308.999 67.0226C308.453 66.7726 308.031 66.3742 307.734 65.8273C307.437 65.2804 307.289 64.5617 307.289 63.6711V51.3429ZM327.597 63.6476C327.597 63.4054 327.527 63.1867 327.386 62.9914C327.246 62.7961 326.984 62.6164 326.601 62.4523C326.226 62.2804 325.683 62.1242 324.972 61.9836C324.332 61.8429 323.734 61.6671 323.179 61.4562C322.632 61.2375 322.156 60.9757 321.749 60.6711C321.351 60.3664 321.039 60.007 320.812 59.5929C320.585 59.1711 320.472 58.6906 320.472 58.1515C320.472 57.6203 320.585 57.1203 320.812 56.6515C321.046 56.1828 321.378 55.7687 321.808 55.4093C322.246 55.0421 322.777 54.757 323.402 54.5539C324.035 54.3429 324.746 54.2375 325.535 54.2375C326.636 54.2375 327.582 54.4132 328.371 54.7648C329.167 55.1164 329.777 55.6007 330.199 56.2179C330.628 56.8273 330.843 57.5226 330.843 58.3039H327.468C327.468 57.9757 327.398 57.6828 327.257 57.425C327.124 57.1593 326.914 56.9523 326.624 56.8039C326.343 56.6476 325.976 56.5695 325.523 56.5695C325.148 56.5695 324.824 56.6359 324.55 56.7687C324.277 56.8937 324.066 57.0656 323.917 57.2843C323.777 57.4953 323.707 57.7296 323.707 57.9875C323.707 58.1828 323.746 58.3586 323.824 58.5148C323.91 58.6632 324.046 58.8 324.234 58.925C324.421 59.05 324.664 59.1671 324.96 59.2765C325.265 59.3781 325.64 59.4718 326.085 59.5578C326.999 59.7453 327.816 59.9914 328.535 60.2961C329.253 60.5929 329.824 60.9992 330.246 61.5148C330.667 62.0226 330.878 62.6906 330.878 63.5187C330.878 64.0812 330.753 64.5968 330.503 65.0656C330.253 65.5343 329.894 65.9445 329.425 66.2961C328.957 66.6398 328.394 66.9093 327.738 67.1046C327.089 67.2921 326.359 67.3859 325.546 67.3859C324.367 67.3859 323.367 67.175 322.546 66.7531C321.734 66.3312 321.117 65.7961 320.695 65.1476C320.281 64.4914 320.074 63.8195 320.074 63.132H323.273C323.289 63.5929 323.406 63.964 323.624 64.2453C323.851 64.5265 324.136 64.7296 324.48 64.8546C324.832 64.9796 325.21 65.0421 325.617 65.0421C326.054 65.0421 326.417 64.9836 326.707 64.8664C326.996 64.7414 327.214 64.5773 327.363 64.3742C327.519 64.1632 327.597 63.9211 327.597 63.6476ZM340.57 64.1164V54.4718H343.945V67.1515H340.769L340.57 64.1164ZM340.945 61.5148L341.941 61.4914C341.941 62.3351 341.843 63.1203 341.648 63.8468C341.453 64.5656 341.16 65.1906 340.769 65.7218C340.378 66.2453 339.886 66.6554 339.292 66.9523C338.699 67.2414 337.999 67.3859 337.195 67.3859C336.578 67.3859 336.007 67.3 335.484 67.1281C334.968 66.9484 334.523 66.6711 334.148 66.2961C333.781 65.9132 333.492 65.425 333.281 64.8312C333.078 64.2296 332.976 63.507 332.976 62.6632V54.4718H336.351V62.6867C336.351 63.0617 336.394 63.3781 336.48 63.6359C336.574 63.8937 336.703 64.1046 336.867 64.2687C337.031 64.4328 337.222 64.55 337.441 64.6203C337.667 64.6906 337.917 64.7257 338.191 64.7257C338.886 64.7257 339.433 64.5851 339.832 64.3039C340.238 64.0226 340.523 63.6398 340.687 63.1554C340.859 62.6632 340.945 62.1164 340.945 61.5148ZM349.898 56.9093V72.0265H346.523V54.4718H349.652L349.898 56.9093ZM357.925 60.6711V60.9171C357.925 61.839 357.816 62.6945 357.597 63.4836C357.386 64.2726 357.074 64.9601 356.66 65.5461C356.246 66.1242 355.73 66.5773 355.113 66.9054C354.503 67.2257 353.8 67.3859 353.003 67.3859C352.23 67.3859 351.558 67.2296 350.988 66.9171C350.417 66.6046 349.937 66.1671 349.546 65.6046C349.164 65.0343 348.855 64.3742 348.621 63.6242C348.386 62.8742 348.207 62.0695 348.082 61.2101V60.5656C348.207 59.6437 348.386 58.8 348.621 58.0343C348.855 57.2609 349.164 56.5929 349.546 56.0304C349.937 55.4601 350.414 55.0187 350.976 54.7062C351.546 54.3937 352.214 54.2375 352.98 54.2375C353.785 54.2375 354.492 54.3898 355.101 54.6945C355.718 54.9992 356.234 55.4367 356.648 56.007C357.07 56.5773 357.386 57.257 357.597 58.0461C357.816 58.8351 357.925 59.7101 357.925 60.6711ZM354.539 60.9171V60.6711C354.539 60.132 354.492 59.6359 354.398 59.1828C354.312 58.7218 354.171 58.3195 353.976 57.9757C353.789 57.632 353.539 57.3664 353.226 57.1789C352.921 56.9836 352.55 56.8859 352.113 56.8859C351.652 56.8859 351.257 56.9601 350.929 57.1086C350.609 57.257 350.347 57.4718 350.144 57.7531C349.941 58.0343 349.789 58.3703 349.687 58.7609C349.585 59.1515 349.523 59.5929 349.499 60.0851V61.714C349.539 62.2921 349.648 62.8117 349.828 63.2726C350.007 63.7257 350.285 64.0851 350.66 64.3507C351.035 64.6164 351.527 64.7492 352.136 64.7492C352.582 64.7492 352.957 64.6515 353.261 64.4562C353.566 64.2531 353.812 63.9757 353.999 63.6242C354.195 63.2726 354.332 62.8664 354.41 62.4054C354.496 61.9445 354.539 61.4484 354.539 60.9171ZM365.859 67.3859C364.874 67.3859 363.992 67.2296 363.21 66.9171C362.429 66.5968 361.765 66.1554 361.218 65.5929C360.679 65.0304 360.265 64.3781 359.976 63.6359C359.687 62.8859 359.542 62.089 359.542 61.2453V60.7765C359.542 59.8156 359.679 58.9367 359.953 58.1398C360.226 57.3429 360.617 56.6515 361.124 56.0656C361.64 55.4796 362.265 55.0304 362.999 54.7179C363.734 54.3976 364.562 54.2375 365.484 54.2375C366.382 54.2375 367.179 54.3859 367.874 54.6828C368.57 54.9796 369.152 55.4015 369.621 55.9484C370.097 56.4953 370.457 57.1515 370.699 57.9171C370.941 58.675 371.062 59.5187 371.062 60.4484V61.8546H360.984V59.6046H367.746V59.3468C367.746 58.8781 367.66 58.4601 367.488 58.0929C367.324 57.7179 367.074 57.4211 366.738 57.2023C366.402 56.9836 365.972 56.8742 365.449 56.8742C365.003 56.8742 364.621 56.9718 364.3 57.1671C363.98 57.3625 363.718 57.6359 363.515 57.9875C363.32 58.339 363.171 58.7531 363.07 59.2296C362.976 59.6984 362.929 60.214 362.929 60.7765V61.2453C362.929 61.7531 362.999 62.2218 363.14 62.6515C363.289 63.0812 363.496 63.4523 363.761 63.7648C364.035 64.0773 364.363 64.3195 364.746 64.4914C365.136 64.6632 365.578 64.7492 366.07 64.7492C366.679 64.7492 367.246 64.632 367.769 64.3976C368.3 64.1554 368.757 63.7921 369.14 63.3078L370.781 65.089C370.515 65.4718 370.152 65.839 369.691 66.1906C369.238 66.5421 368.691 66.8312 368.05 67.0578C367.41 67.2765 366.679 67.3859 365.859 67.3859ZM363.48 52.7492L365.777 49.1398H369.445L366.222 52.7492H363.48ZM376.359 57.2375V67.1515H372.984V54.4718H376.16L376.359 57.2375ZM380.179 54.3898L380.121 57.5187C379.957 57.4953 379.757 57.4757 379.523 57.4601C379.296 57.4367 379.089 57.425 378.902 57.425C378.425 57.425 378.011 57.4875 377.66 57.6125C377.316 57.7296 377.027 57.9054 376.792 58.1398C376.566 58.3742 376.394 58.6593 376.277 58.9953C376.167 59.3312 376.105 59.714 376.089 60.1437L375.41 59.9328C375.41 59.1125 375.492 58.3586 375.656 57.6711C375.82 56.9757 376.058 56.3703 376.371 55.8546C376.691 55.339 377.082 54.9406 377.542 54.6593C378.003 54.3781 378.531 54.2375 379.124 54.2375C379.312 54.2375 379.503 54.2531 379.699 54.2843C379.894 54.3078 380.054 54.3429 380.179 54.3898ZM385.335 54.4718V67.1515H381.949V54.4718H385.335ZM381.738 51.1671C381.738 50.675 381.91 50.2687 382.253 49.9484C382.597 49.6281 383.058 49.4679 383.636 49.4679C384.207 49.4679 384.664 49.6281 385.007 49.9484C385.359 50.2687 385.535 50.675 385.535 51.1671C385.535 51.6593 385.359 52.0656 385.007 52.3859C384.664 52.7062 384.207 52.8664 383.636 52.8664C383.058 52.8664 382.597 52.7062 382.253 52.3859C381.91 52.0656 381.738 51.6593 381.738 51.1671ZM393.96 67.3859C392.976 67.3859 392.093 67.2296 391.312 66.9171C390.531 66.5968 389.867 66.1554 389.32 65.5929C388.781 65.0304 388.367 64.3781 388.078 63.6359C387.789 62.8859 387.644 62.089 387.644 61.2453V60.7765C387.644 59.8156 387.781 58.9367 388.054 58.1398C388.328 57.3429 388.718 56.6515 389.226 56.0656C389.742 55.4796 390.367 55.0304 391.101 54.7179C391.835 54.3976 392.664 54.2375 393.585 54.2375C394.484 54.2375 395.281 54.3859 395.976 54.6828C396.671 54.9796 397.253 55.4015 397.722 55.9484C398.199 56.4953 398.558 57.1515 398.8 57.9171C399.042 58.675 399.164 59.5187 399.164 60.4484V61.8546H389.085V59.6046H395.847V59.3468C395.847 58.8781 395.761 58.4601 395.589 58.0929C395.425 57.7179 395.175 57.4211 394.839 57.2023C394.503 56.9836 394.074 56.8742 393.55 56.8742C393.105 56.8742 392.722 56.9718 392.402 57.1671C392.082 57.3625 391.82 57.6359 391.617 57.9875C391.421 58.339 391.273 58.7531 391.171 59.2296C391.078 59.6984 391.031 60.214 391.031 60.7765V61.2453C391.031 61.7531 391.101 62.2218 391.242 62.6515C391.39 63.0812 391.597 63.4523 391.863 63.7648C392.136 64.0773 392.464 64.3195 392.847 64.4914C393.238 64.6632 393.679 64.7492 394.171 64.7492C394.781 64.7492 395.347 64.632 395.871 64.3976C396.402 64.1554 396.859 63.7921 397.242 63.3078L398.882 65.089C398.617 65.4718 398.253 65.839 397.792 66.1906C397.339 66.5421 396.792 66.8312 396.152 67.0578C395.511 67.2765 394.781 67.3859 393.96 67.3859ZM408.585 64.1164V54.4718H411.96V67.1515H408.785L408.585 64.1164ZM408.96 61.5148L409.957 61.4914C409.957 62.3351 409.859 63.1203 409.664 63.8468C409.468 64.5656 409.175 65.1906 408.785 65.7218C408.394 66.2453 407.902 66.6554 407.308 66.9523C406.714 67.2414 406.015 67.3859 405.21 67.3859C404.593 67.3859 404.023 67.3 403.499 67.1281C402.984 66.9484 402.539 66.6711 402.164 66.2961C401.796 65.9132 401.507 65.425 401.296 64.8312C401.093 64.2296 400.992 63.507 400.992 62.6632V54.4718H404.367V62.6867C404.367 63.0617 404.41 63.3781 404.496 63.6359C404.589 63.8937 404.718 64.1046 404.882 64.2687C405.046 64.4328 405.238 64.55 405.457 64.6203C405.683 64.6906 405.933 64.7257 406.207 64.7257C406.902 64.7257 407.449 64.5851 407.847 64.3039C408.253 64.0226 408.539 63.6398 408.703 63.1554C408.874 62.6632 408.96 62.1164 408.96 61.5148ZM417.914 57.2375V67.1515H414.539V54.4718H417.714L417.914 57.2375ZM421.734 54.3898L421.675 57.5187C421.511 57.4953 421.312 57.4757 421.078 57.4601C420.851 57.4367 420.644 57.425 420.457 57.425C419.98 57.425 419.566 57.4875 419.214 57.6125C418.871 57.7296 418.582 57.9054 418.347 58.1398C418.121 58.3742 417.949 58.6593 417.832 58.9953C417.722 59.3312 417.66 59.714 417.644 60.1437L416.964 59.9328C416.964 59.1125 417.046 58.3586 417.21 57.6711C417.374 56.9757 417.613 56.3703 417.925 55.8546C418.246 55.339 418.636 54.9406 419.097 54.6593C419.558 54.3781 420.085 54.2375 420.679 54.2375C420.867 54.2375 421.058 54.2531 421.253 54.2843C421.449 54.3078 421.609 54.3429 421.734 54.3898Z" fill="white"/>
</g>
<defs>
<clipPath id="clip0_122_766">
<rect width="491" height="93" fill="white"/>
</clipPath>
</defs>
</svg>
