<svg width="249" height="38" viewBox="0 0 249 38" fill="none" xmlns="http://www.w3.org/2000/svg">
<g clip-path="url(#clip0_373_119)">
<path d="M96.9299 27.56H87.9999V19.15H94.6999C94.9899 19.15 95.2299 18.91 95.2299 18.62C95.2299 18.33 94.9899 18.09 94.6999 18.09H87.9999V11.33H96.2099C96.4999 11.33 96.7399 11.09 96.7399 10.8C96.7399 10.51 96.4999 10.27 96.2099 10.27H87.4699C87.1799 10.27 86.9399 10.51 86.9399 10.8V28.08C86.9399 28.37 87.1799 28.61 87.4699 28.61H96.9199C97.2099 28.61 97.4499 28.37 97.4499 28.08C97.4499 27.79 97.2099 27.55 96.9199 27.55L96.9299 27.56Z" fill="#898A8A"/>
<path d="M110.87 10.28H103.88C103.59 10.28 103.35 10.52 103.35 10.81V28.08C103.35 28.37 103.59 28.61 103.88 28.61H111.68C111.75 28.61 118.39 28.3 118.39 20.06C118.39 11.82 112.11 10.28 110.87 10.28ZM111.66 27.56H104.4V11.33H110.86C110.92 11.33 117.32 12.12 117.32 20.06C117.32 27.26 111.86 27.55 111.65 27.56H111.66Z" fill="#898A8A"/>
<path d="M138.12 10.28C137.83 10.28 137.59 10.52 137.59 10.81V23.12C137.59 23.58 137.42 27.6 131.36 27.6C125.87 27.6 125.77 23.8 125.77 23.64V10.86C125.77 10.57 125.53 10.33 125.24 10.33C124.95 10.33 124.71 10.57 124.71 10.86V23.64C124.71 23.69 124.79 28.65 131.35 28.65C137.1 28.65 138.63 25.17 138.63 23.12V10.81C138.63 10.52 138.39 10.28 138.1 10.28H138.12Z" fill="#898A8A"/>
<path d="M160.7 24.74C160.7 24.74 158.41 27.6 154.36 27.6C150.06 27.6 146.43 23.82 146.43 19.35C146.43 14.88 149.65 11.34 153.93 11.34C158.21 11.34 159.8 13.37 159.87 13.46C160.05 13.69 160.38 13.73 160.61 13.55C160.84 13.37 160.88 13.04 160.7 12.81C160.62 12.71 158.66 10.29 153.93 10.29C149.2 10.29 145.38 14.19 145.38 19.36C145.38 24.53 149.5 28.66 154.37 28.66C158.94 28.66 161.43 25.53 161.54 25.39C161.72 25.16 161.68 24.83 161.45 24.65C161.22 24.47 160.89 24.51 160.71 24.74H160.7Z" fill="#898A8A"/>
<path d="M174.69 10.59C174.61 10.4 174.42 10.28 174.22 10.28C174.01 10.3 173.83 10.4 173.74 10.58L165.56 27.9C165.44 28.16 165.55 28.48 165.81 28.6C166.07 28.72 166.39 28.61 166.51 28.35L169.2 22.65C169.2 22.65 169.21 22.65 169.22 22.65H178.83C178.83 22.65 178.85 22.65 178.86 22.65L181.37 28.34C181.46 28.54 181.65 28.65 181.85 28.65C181.92 28.65 181.99 28.64 182.06 28.6C182.33 28.48 182.45 28.17 182.33 27.91L174.69 10.59ZM169.7 21.6L174.2 12.07L178.4 21.6H169.7Z" fill="#898A8A"/>
<path d="M195.87 10.28H184.03C183.74 10.28 183.5 10.52 183.5 10.81C183.5 11.1 183.74 11.34 184.03 11.34H189.42V28.12C189.42 28.41 189.66 28.65 189.95 28.65C190.24 28.65 190.48 28.41 190.48 28.12V11.33H195.87C196.16 11.33 196.4 11.09 196.4 10.8C196.4 10.51 196.16 10.27 195.87 10.27V10.28Z" fill="#898A8A"/>
<path d="M202.46 10.28C202.17 10.28 201.93 10.52 201.93 10.81V28.12C201.93 28.41 202.17 28.65 202.46 28.65C202.75 28.65 202.99 28.41 202.99 28.12V10.81C202.99 10.52 202.75 10.28 202.46 10.28Z" fill="#898A8A"/>
<path d="M218.29 10.3201C213.24 10.3201 209.12 14.4301 209.12 19.4801C209.12 24.5301 213.23 28.6401 218.29 28.6401C223.35 28.6401 227.46 24.5301 227.46 19.4801C227.46 14.4301 223.35 10.3201 218.29 10.3201ZM218.29 27.6001C213.82 27.6001 210.18 23.9601 210.18 19.4901C210.18 15.0201 213.82 11.3801 218.29 11.3801C222.76 11.3801 226.4 15.0201 226.4 19.4901C226.4 23.9601 222.76 27.6001 218.29 27.6001Z" fill="#898A8A"/>
<path d="M248.17 10.28C247.88 10.28 247.64 10.52 247.64 10.81V26.63L234.64 10.48C234.5 10.31 234.27 10.24 234.06 10.31C233.85 10.38 233.71 10.58 233.71 10.81V28.12C233.71 28.41 233.95 28.65 234.24 28.65C234.53 28.65 234.77 28.41 234.77 28.12V12.3L247.77 28.45C247.87 28.58 248.02 28.65 248.18 28.65C248.24 28.65 248.3 28.65 248.35 28.62C248.56 28.55 248.7 28.35 248.7 28.12V10.81C248.7 10.52 248.46 10.28 248.17 10.28Z" fill="#898A8A"/>
<path d="M9.26005 11.8901L20.5 34.3301H29.35L13.18 2.58008L8.80005 11.2401L9.26005 11.8901Z" fill="white"/>
<path d="M31.49 2.58008V34.3201H34.14C35.45 34.3201 38.93 33.2801 38.93 30.0001V2.58008H31.49Z" fill="white"/>
<path d="M43.78 2.58988C43.78 2.58988 49.16 6.45988 49.16 19.2699C49.16 32.0799 44 34.3299 44 34.3299C44 34.3299 49.16 34.3299 53.33 29.7199C57.5 25.1099 57.87 21.6999 57.87 17.7899C57.87 13.8799 55.57 8.24988 51.1 5.30988C46.63 2.35988 43.78 2.58988 43.78 2.58988Z" fill="white"/>
<path d="M4.88 34.4099C7.57515 34.4099 9.76 32.2251 9.76 29.5299C9.76 26.8348 7.57515 24.6499 4.88 24.6499C2.18485 24.6499 0 26.8348 0 29.5299C0 32.2251 2.18485 34.4099 4.88 34.4099Z" fill="#898A8A"/>
<path d="M73.5601 0H72.5601V37.94H73.5601V0Z" fill="white"/>
</g>
<defs>
<clipPath id="clip0_373_119">
<rect width="248.7" height="37.94" fill="white"/>
</clipPath>
</defs>
</svg>
