<svg width="199" height="57" viewBox="0 0 199 57" fill="none" xmlns="http://www.w3.org/2000/svg">
<g clip-path="url(#clip0_469_1140)">
<path d="M86.0375 46.0528C82.6392 46.0528 78.7411 44.2669 78.7411 39.1873V35.9504C78.7411 30.8723 82.6392 29.0854 85.98 29.0854C90.2683 29.0854 93.3308 31.8758 93.3308 35.9504V39.1873C93.3308 44.2664 89.4328 46.0528 86.0345 46.0528M20.943 36.1156H6.3558V35.8941C6.3558 30.816 10.2539 29.0281 13.5947 29.0281C17.8825 29.0281 20.941 31.818 20.941 35.8941L20.943 36.1156ZM93.3328 12.2299V24.619C91.0837 23.3669 88.5531 22.714 85.982 22.7226C84.3137 22.715 82.6567 22.9977 81.0844 23.5583C79.4916 24.0858 78.0162 24.92 76.7406 26.0142C73.901 28.4134 72.4522 31.818 72.3973 35.7259V36.1226H59.7406C58.0529 35.0326 56.0824 34.4676 54.0764 34.4984H47.8955C45.7781 34.4984 44.4972 33.2147 44.3868 32.7672V31.707C44.3868 30.2003 47.3353 29.0833 49.8451 29.0833C52.3548 29.0833 55.2424 30.4775 55.2424 31.707H61.5362C61.5658 30.2182 61.1383 28.7564 60.3118 27.5204C59.5592 26.3654 58.5235 25.4245 57.3043 24.7882C55.048 23.4363 52.47 22.7225 49.8431 22.7226C47.1811 22.7223 44.5673 23.4353 42.2709 24.7882C41.0721 25.4545 40.0423 26.3894 39.2614 27.5204C38.4586 28.7674 38.0335 30.2218 38.0375 31.707V32.7672C38.0165 34.0296 38.3243 35.2755 38.9303 36.3814C39.5363 37.4873 40.4195 38.4147 41.4922 39.0718C43.4279 40.2288 45.6435 40.8272 47.8955 40.8015H54.0764C56.1919 40.8015 56.6362 42.1977 56.6362 42.5306C56.6362 44.9318 54.6896 46.103 50.8466 46.103H50.1219C48.6712 46.1827 47.2183 45.9937 45.8356 45.5456C42.9945 44.5968 42.9945 42.9761 42.9945 42.4171C42.9716 41.8601 43.1294 41.3107 43.4443 40.8517C42.4946 40.5834 41.588 40.1799 40.7521 39.6534C39.8021 39.0494 38.9952 38.2437 38.3883 37.2929C38.1538 36.9189 37.9556 36.5232 37.7966 36.1111H27.2923V35.8896C27.3718 33.1586 26.5682 30.4753 25.0021 28.242C23.4359 26.0087 21.1916 24.3458 18.6057 23.5025C16.9947 22.9405 15.3005 22.6574 13.5952 22.6653C11.9256 22.6572 10.2673 22.9405 8.69413 23.5025C7.10114 24.0281 5.62583 24.8617 4.35131 25.9564C2.97109 27.1626 1.86794 28.6556 1.11813 30.3322C0.368312 32.0088 -0.0102938 33.8291 0.00847791 35.6671V39.685C0.00466783 41.4594 0.325159 43.2195 0.954005 44.8776C1.11652 45.2592 1.30005 45.6314 1.50373 45.9925C2.13717 47.1205 2.96967 48.123 3.9605 48.9512C6.53421 51.148 10.0255 52.3162 14.3788 52.3553C14.4518 52.3553 14.5242 52.3553 14.5972 52.3553H27.2908V45.9925H14.4133C12.3778 45.9765 10.6597 45.6947 9.3618 44.9881C8.23042 44.4674 7.32213 43.5565 6.80158 42.4207H36.6472C36.6472 46.2703 38.5962 49.2852 42.3273 50.9586C44.704 51.9022 47.2342 52.3946 49.7896 52.4111C52.3218 52.4543 54.8379 51.9988 57.1959 51.0701C60.981 49.5082 62.9865 46.6068 62.9865 42.5322C62.9865 42.495 62.9865 42.4583 62.9865 42.4212H72.7316C73.3281 45.1244 74.8193 47.5444 76.9615 49.2857C79.5363 51.3507 82.7435 52.4555 86.0375 52.4121C88.5906 52.4126 91.1017 51.7592 93.3338 50.5137V52.3548H99.6806V12.2299H93.3328Z" fill="white"/>
<path d="M27.2924 6.20862H0V12.5152H27.2924V6.20862Z" fill="#F0E514"/>
<path d="M86.0375 40.029C82.6392 40.029 78.7411 38.2431 78.7411 33.1635V29.9266C78.7411 24.849 82.6392 23.0616 85.98 23.0616C90.2684 23.0616 93.3308 25.852 93.3308 29.9266V33.1635C93.3308 38.2431 89.4328 40.029 86.0345 40.029M20.943 30.0943H6.35582V29.8714C6.35582 24.7938 10.2539 23.0053 13.5947 23.0053C17.8826 23.0053 20.941 25.7952 20.941 29.8714L20.943 30.0943ZM93.3328 6.20862V18.5977C91.0841 17.3456 88.5539 16.6926 85.983 16.7008C84.3147 16.6932 82.6578 16.976 81.0855 17.5365C79.4926 18.0641 78.0173 18.8982 76.7416 19.9924C73.9021 22.3916 72.4533 25.7962 72.3983 29.7041V30.1009H59.7406C58.0529 29.0109 56.0825 28.4458 54.0765 28.4767H47.8956C45.7781 28.4767 44.4973 27.1934 44.3868 26.7455V25.6857C44.3868 24.179 47.3353 23.0621 49.8451 23.0621C52.3548 23.0621 55.2424 24.4568 55.2424 25.6857H61.5362C61.5658 24.1969 61.1383 22.7351 60.3118 21.4991C59.5593 20.3441 58.5236 19.4032 57.3043 18.767C55.0481 17.4149 52.47 16.7012 49.8431 16.7013C47.1818 16.7013 44.5687 17.4143 42.2729 18.767C41.0742 19.4332 40.0443 20.3681 39.2634 21.4991C38.4607 22.7461 38.0355 24.2005 38.0395 25.6857V26.7455C38.0178 28.008 38.325 29.2542 38.9306 30.3606C39.5362 31.4669 40.4191 32.3949 41.4918 33.0525C43.4275 34.2095 45.643 34.808 47.8951 34.7822H54.076C56.1914 34.7822 56.6357 36.1784 56.6357 36.5114C56.6357 38.9126 54.6892 40.0838 50.8461 40.0838H50.1214C48.6707 40.1634 47.2178 39.9744 45.8351 39.5263C42.994 38.5776 42.994 36.9569 42.994 36.3979C42.9711 35.8409 43.1289 35.2914 43.4438 34.8324C42.4941 34.5641 41.5875 34.1606 40.7516 33.6341C39.8016 33.0302 38.9948 32.2245 38.3878 31.2736C38.1533 30.8997 37.9551 30.5039 37.7961 30.0918H27.2924V29.8714C27.3724 27.1398 26.5691 24.4559 25.0029 22.222C23.4367 19.9881 21.1921 18.3247 18.6057 17.4813C16.9947 16.9193 15.3005 16.6362 13.5952 16.644C11.9256 16.636 10.2673 16.9193 8.69416 17.4813C7.1012 18.0069 5.62591 18.8405 4.35133 19.9352C2.97085 21.1415 1.86751 22.6347 1.11761 24.3116C0.367698 25.9885 -0.0108959 27.809 0.00799815 29.6474V33.6652C0.00454257 35.4392 0.3252 37.1987 0.954025 38.8563C1.11655 39.2379 1.30007 39.6102 1.50375 39.9713C2.13742 41.099 2.97008 42.1014 3.96102 42.9294C6.53473 45.1262 10.026 46.2944 14.3793 46.3331C14.4523 46.3331 14.5247 46.3331 14.5977 46.3331H27.2914V39.9713H14.4133C12.3778 39.9552 10.6597 39.6729 9.36182 38.9668C8.23047 38.4461 7.32218 37.5352 6.8016 36.3994H36.6472C36.6472 40.249 38.5962 43.2639 42.3273 44.9374C44.7041 45.8807 47.2343 46.3731 49.7896 46.3893C52.3218 46.4326 54.8379 45.977 57.1959 45.0484C60.981 43.4864 62.9865 40.585 62.9865 36.5104C62.9865 36.4732 62.9865 36.4366 62.9865 36.3994H72.7316C73.3281 39.1026 74.8193 41.5227 76.9615 43.2639C79.5363 45.329 82.7435 46.4338 86.0375 46.3903C88.5906 46.3908 91.1017 45.7374 93.3338 44.4919V46.3331H99.6807V6.20862H93.3328Z" fill="#F0E514"/>
<path d="M27.2924 0H0V6.30655H27.2924V0Z" fill="#21203A"/>
<path d="M86.0377 33.8204C82.6394 33.8204 78.7414 32.034 78.7414 26.9549V23.718C78.7414 18.6404 82.6394 16.8529 85.9803 16.8529C90.2686 16.8529 93.3311 19.6433 93.3311 23.718V26.9549C93.3311 32.034 89.433 33.8204 86.0347 33.8204M20.9433 23.8857H6.35608V23.6642C6.35608 18.5866 10.2541 16.7982 13.595 16.7982C17.8828 16.7982 20.9413 19.5881 20.9413 23.6642L20.9433 23.8857ZM93.3331 -0.000518799V12.3891C91.0843 11.137 88.5541 10.484 85.9833 10.4921C84.315 10.4846 82.658 10.7673 81.0857 11.3279C79.4929 11.8554 78.0175 12.6896 76.7419 13.7838C73.9023 16.183 72.4535 19.5876 72.3986 23.495V23.8917H59.7409C58.0531 22.8017 56.0827 22.2367 54.0767 22.2675H47.8958C45.7784 22.2675 44.4975 20.9843 44.3871 20.5363V19.4766C44.3871 17.9699 47.3356 16.8529 49.8453 16.8529C52.3551 16.8529 55.2426 18.2476 55.2426 19.4766H61.5365C61.566 17.9878 61.1385 16.526 60.3121 15.29C59.5595 14.135 58.5238 13.1941 57.3046 12.5578C55.0483 11.2058 52.4703 10.492 49.8433 10.4921C47.1814 10.4918 44.5675 11.2049 42.2711 12.5578C41.0724 13.2241 40.0426 14.159 39.2616 15.29C38.4589 16.537 38.0337 17.9914 38.0377 19.4766V20.5363C38.0163 21.7992 38.3238 23.0457 38.9298 24.1522C39.5359 25.2586 40.4193 26.1866 41.4925 26.8439C43.4282 28.0008 45.6438 28.5993 47.8958 28.5736H54.0767C56.1922 28.5736 56.6364 29.9698 56.6364 30.3028C56.6364 32.7039 54.6899 33.8751 50.8468 33.8751H50.1222C48.6715 33.9548 47.2186 33.7658 45.8358 33.3177C42.9948 32.3689 42.9948 30.7482 42.9948 30.1892C42.9718 29.6322 43.1297 29.0828 43.4445 28.6238C42.4961 28.3551 41.5907 27.9516 40.7559 27.4255C39.8059 26.8216 38.999 26.0158 38.3921 25.065C38.1575 24.6911 37.9594 24.2953 37.8004 23.8832H27.2926V23.6617C27.3726 20.9302 26.5693 18.2463 25.0031 16.0124C23.437 13.7785 21.1924 12.1151 18.606 11.2716C16.995 10.7096 15.3007 10.4265 13.5955 10.4344C11.9259 10.4264 10.2676 10.7096 8.69441 11.2716C7.1014 11.7973 5.62609 12.6311 4.35158 13.726C2.97101 14.9324 1.86762 16.4257 1.11771 18.1026C0.367793 19.7796 -0.0107503 21.6003 0.00824978 23.4387V27.4566C0.00479421 29.2306 0.325452 30.9901 0.954277 32.6477C1.1168 33.0293 1.30032 33.4015 1.504 33.7626C2.13744 34.8905 2.96994 35.8931 3.96077 36.7213C6.53449 38.9176 10.0257 40.0863 14.3791 40.1249C14.452 40.1249 14.5245 40.1249 14.5975 40.1249H27.2911V33.7626H14.4135C12.3781 33.7466 10.6599 33.4643 9.36207 32.7582C8.23072 32.2374 7.32244 31.3266 6.80185 30.1908H36.6474C36.6474 34.0404 38.5965 37.0553 42.3276 38.7287C44.7042 39.673 47.2344 40.1661 49.7899 40.1832C52.3221 40.2265 54.8382 39.7709 57.1962 38.8422C60.9813 37.2803 62.9868 34.3789 62.9868 30.3043C62.9868 30.2671 62.9868 30.2304 62.9868 30.1933H72.7319C73.3283 32.8965 74.8195 35.3165 76.9618 37.0578C79.5366 39.1229 82.7438 40.2276 86.0377 40.1842C88.5909 40.1847 91.102 39.5313 93.3341 38.2858V40.1279H99.6809V-0.000518799H93.3331Z" fill="#22253A"/>
<path d="M118.744 16.8992H114.995V16.8419C114.987 16.599 115.03 16.357 115.122 16.1322C115.214 15.9073 115.353 15.7048 115.529 15.5379C115.705 15.3711 115.914 15.2438 116.143 15.1646C116.371 15.0854 116.614 15.0561 116.855 15.0786C117.097 15.0592 117.34 15.0905 117.568 15.1705C117.797 15.2505 118.007 15.3774 118.185 15.5432C118.362 15.709 118.504 15.91 118.6 16.1336C118.696 16.3572 118.745 16.5984 118.743 16.8419L118.744 16.8992ZM119.273 14.3046C118.943 14.0159 118.559 13.7965 118.143 13.6592C117.729 13.5149 117.294 13.4422 116.856 13.4443C116.427 13.4423 116.001 13.515 115.597 13.6592C115.187 13.7948 114.808 14.009 114.481 14.29C114.126 14.6001 113.843 14.9836 113.651 15.4143C113.458 15.845 113.361 16.3125 113.365 16.7846V17.8172C113.365 18.2728 113.447 18.7246 113.609 19.1502C113.78 19.5557 114.044 19.9145 114.381 20.1968C115.157 20.8094 116.127 21.1199 117.113 21.0712H120.374V19.4374H117.113C116.651 19.4619 116.189 19.3731 115.769 19.1788C115.478 19.0452 115.245 18.8112 115.111 18.5194H120.375V16.8419C120.387 16.364 120.295 15.8892 120.105 15.4508C119.915 15.0125 119.632 14.6213 119.275 14.3046" fill="white"/>
<path d="M128.155 14.3182C127.828 14.0335 127.449 13.8152 127.04 13.6753C126.625 13.5333 126.19 13.4607 125.752 13.4604C125.319 13.4583 124.888 13.531 124.479 13.6753C124.067 13.8054 123.687 14.0205 123.363 14.3066C123.007 14.6143 122.724 14.9978 122.534 15.4291C122.344 15.8605 122.252 16.3291 122.264 16.8007V17.8333C122.263 18.2888 122.345 18.7406 122.507 19.1662C122.678 19.5681 122.937 19.926 123.265 20.2129H123.279C124.055 20.8255 125.025 21.136 126.011 21.0873H129.272V19.451H126.011C123.894 19.451 123.894 18.2326 123.894 17.8313V16.856C123.894 15.5502 124.881 15.0931 125.754 15.0931C125.995 15.0738 126.238 15.1051 126.467 15.185C126.696 15.265 126.906 15.3919 127.083 15.5576C127.261 15.7233 127.402 15.9243 127.498 16.1478C127.594 16.3713 127.643 16.6125 127.642 16.856V17.1287H129.272V16.856C129.285 16.3764 129.191 15.9001 128.998 15.4613C128.806 15.0226 128.518 14.6323 128.157 14.3187" fill="white"/>
<path d="M136.536 17.7017C136.535 17.9439 136.485 18.1833 136.388 18.4049C136.29 18.6265 136.149 18.8256 135.972 18.9898C135.794 19.1539 135.585 19.2795 135.358 19.3588C135.13 19.4381 134.888 19.4693 134.648 19.4505C134.409 19.47 134.169 19.439 133.942 19.3597C133.716 19.2803 133.508 19.1542 133.333 18.9896C133.158 18.8249 133.019 18.6253 132.926 18.4035C132.832 18.1817 132.785 17.9427 132.789 17.7017V16.856C132.78 16.613 132.823 16.3711 132.915 16.1462C133.007 15.9214 133.146 15.7188 133.322 15.552C133.498 15.3852 133.707 15.2579 133.936 15.1787C134.164 15.0995 134.407 15.0701 134.648 15.0926C134.89 15.0733 135.133 15.1046 135.362 15.1846C135.59 15.2645 135.8 15.3915 135.978 15.5572C136.155 15.723 136.297 15.9241 136.393 16.1477C136.489 16.3712 136.538 16.6124 136.536 16.856V17.7017ZM137.051 14.29C136.369 13.7441 135.52 13.4504 134.648 13.4583C134.221 13.4599 133.796 13.5276 133.389 13.6592C132.983 13.8004 132.605 14.0141 132.273 14.29C131.917 14.6019 131.633 14.9877 131.441 15.4209C131.248 15.8541 131.152 16.3243 131.158 16.7987V17.7027C131.158 19.9125 132.918 21.0858 134.648 21.0858C135.529 21.0931 136.385 20.7887 137.065 20.2259C137.422 19.9126 137.706 19.5241 137.896 19.088C138.087 18.6518 138.179 18.1789 138.167 17.7027V16.7987C138.173 16.3243 138.076 15.8542 137.884 15.421C137.691 14.9878 137.407 14.6019 137.051 14.29Z" fill="white"/>
<path d="M144.374 10.7634H140.054V12.3836H142.743V19.451H140.054V21.0848H147.063V19.451H144.374V10.7634Z" fill="white"/>
<path d="M154.238 16.8992H150.49V16.8419C150.482 16.599 150.525 16.357 150.617 16.1322C150.709 15.9073 150.848 15.7048 151.023 15.5379C151.199 15.3711 151.409 15.2438 151.637 15.1646C151.866 15.0854 152.109 15.0561 152.35 15.0786C152.591 15.0592 152.834 15.0905 153.063 15.1705C153.292 15.2505 153.502 15.3774 153.679 15.5432C153.857 15.709 153.998 15.91 154.094 16.1336C154.191 16.3572 154.239 16.5984 154.238 16.8419L154.238 16.8992ZM154.768 14.3046C154.438 14.0159 154.053 13.7964 153.638 13.6592C153.224 13.5149 152.788 13.4423 152.35 13.4443C151.921 13.4422 151.495 13.5149 151.091 13.6592C150.682 13.7948 150.304 14.009 149.976 14.29C149.622 14.6 149.338 14.9836 149.145 15.4142C148.953 15.8449 148.855 16.3125 148.86 16.7846V17.8172C148.859 18.2728 148.942 18.7245 149.103 19.1502C149.274 19.5558 149.539 19.9146 149.876 20.1968C150.652 20.8094 151.622 21.1199 152.608 21.0712H155.869V19.4374H152.608C152.145 19.4619 151.684 19.3732 151.263 19.1788C150.973 19.0451 150.739 18.8112 150.605 18.5194H155.869V16.8419C155.881 16.364 155.789 15.8891 155.599 15.4508C155.409 15.0125 155.126 14.6213 154.77 14.3046" fill="white"/>
<path d="M117.013 35.7671H116.827C116.455 35.7874 116.082 35.7387 115.728 35.6234C114.998 35.3798 114.998 34.9926 114.998 34.8495H113.367C113.357 35.3177 113.492 35.7775 113.754 36.1653C114.015 36.5531 114.39 36.8497 114.826 37.0141C115.437 37.2562 116.086 37.3825 116.743 37.3868C117.393 37.398 118.039 37.2811 118.645 37.0427C119.095 36.8863 119.482 36.5885 119.75 36.1935C120.018 35.7984 120.152 35.3272 120.133 34.8495C120.133 33.4302 118.975 32.7853 117.845 32.7853H116.257C116.081 32.7977 115.905 32.7631 115.747 32.685C115.589 32.6069 115.455 32.4882 115.357 32.3408V32.0681C115.357 31.6809 116.115 31.3946 116.757 31.3946C117.398 31.3946 118.144 31.7527 118.144 32.0681H119.761C119.768 31.6857 119.659 31.3102 119.446 30.9928C119.253 30.6957 118.987 30.4535 118.674 30.2897C118.094 29.9426 117.432 29.7594 116.757 29.7593C116.073 29.7592 115.402 29.9423 114.812 30.2897C114.504 30.4615 114.24 30.7021 114.039 30.9928C113.833 31.313 113.723 31.6866 113.724 32.0681V32.3408C113.718 32.6651 113.797 32.9853 113.953 33.2694C114.109 33.5536 114.336 33.7918 114.611 33.9605C115.109 34.2578 115.678 34.4116 116.256 34.405H117.844C118.388 34.405 118.502 34.7636 118.502 34.8495C118.502 35.4657 118.002 35.7671 117.014 35.7671" fill="white"/>
<path d="M125.637 37.3868C126.298 37.3906 126.948 37.2226 127.525 36.8991V37.3868H129.156V29.8463H127.525V34.0037C127.526 34.2463 127.476 34.4862 127.379 34.7084C127.282 34.9306 127.141 35.1302 126.963 35.2946C126.786 35.4589 126.576 35.5845 126.348 35.6633C126.12 35.7422 125.878 35.7725 125.637 35.7525C125.398 35.7733 125.157 35.7432 124.93 35.6643C124.703 35.5854 124.495 35.4594 124.32 35.2944C124.145 35.1295 124.006 34.9294 123.912 34.707C123.819 34.4846 123.773 34.245 123.778 34.0037V29.8463H122.147V34.0037C122.147 36.2136 123.907 37.3868 125.638 37.3868" fill="white"/>
<path d="M136.422 34.0896C136.426 34.3321 136.38 34.5727 136.285 34.7958C136.191 35.0189 136.05 35.2195 135.874 35.3845C135.697 35.5495 135.487 35.6753 135.259 35.7536C135.031 35.8319 134.788 35.8609 134.548 35.8389C134.309 35.8575 134.068 35.826 133.841 35.7464C133.614 35.6669 133.406 35.541 133.23 35.3766C133.054 35.2123 132.914 35.0131 132.818 34.7916C132.723 34.5701 132.674 34.3311 132.675 34.0896V33.2439C132.671 33.0003 132.717 32.7585 132.811 32.5341C132.906 32.3096 133.045 32.1072 133.222 31.94C133.398 31.7727 133.607 31.6442 133.835 31.5626C134.064 31.481 134.306 31.4481 134.548 31.4659C135.421 31.4659 136.422 31.925 136.422 33.2439V34.0896ZM136.966 30.7066C136.369 30.2215 135.642 29.9269 134.877 29.8605C134.113 29.7941 133.346 29.9589 132.675 30.3339V29.8462H131.044V40.6839H132.675V36.985C133.247 37.3068 133.893 37.4747 134.549 37.4727C136.308 37.4727 138.053 36.3115 138.053 34.0891V33.2434C138.068 32.7662 137.978 32.2917 137.79 31.8532C137.602 31.4147 137.321 31.023 136.966 30.7056" fill="white"/>
<path d="M145.318 33.2012H141.57V33.1434C141.57 31.8376 142.57 31.3806 143.43 31.3806C143.671 31.3612 143.914 31.3925 144.143 31.4725C144.372 31.5524 144.582 31.6793 144.759 31.845C144.937 32.0108 145.078 32.2118 145.174 32.4353C145.27 32.6588 145.319 32.8999 145.318 33.1434L145.318 33.2012ZM145.847 30.6061C145.517 30.3174 145.133 30.098 144.718 29.9608C144.304 29.8165 143.868 29.7438 143.43 29.7458C143.001 29.7437 142.575 29.8164 142.171 29.9608C141.762 30.0963 141.383 30.3105 141.055 30.5916C140.701 30.9016 140.418 31.2851 140.225 31.7158C140.033 32.1465 139.935 32.614 139.94 33.0862V34.1182C139.939 34.5739 140.022 35.0259 140.183 35.4517C140.354 35.8572 140.619 36.216 140.955 36.4983C141.732 37.1109 142.702 37.4214 143.688 37.3727H146.949V35.739H143.686C143.223 35.7635 142.762 35.6749 142.342 35.4808C142.051 35.3472 141.817 35.1133 141.684 34.8214H146.947V33.1439C146.96 32.666 146.867 32.1912 146.677 31.7529C146.488 31.3145 146.204 30.9233 145.848 30.6066" fill="white"/>
<path d="M153.785 29.9753C153.39 29.8353 152.974 29.7625 152.555 29.7598C151.897 29.754 151.249 29.9276 150.681 30.2621V29.8467H149.051V37.3873H150.681V33.1585C150.681 31.8682 151.681 31.3951 152.555 31.3951C153.814 31.3951 154.086 32.3413 154.086 33.1439V33.4161H155.702V33.1439C155.728 32.6847 155.66 32.2251 155.503 31.7932C155.345 31.3614 155.101 30.9665 154.787 30.6327C154.508 30.3394 154.166 30.1139 153.787 29.9733" fill="white"/>
<path d="M161.81 27.0649H159.521V29.344H161.81V27.0649Z" fill="white"/>
<path d="M161.48 29.8462H157.704V31.4805H159.849V35.752H157.16V37.3868H164.169V35.752H161.48L161.48 29.8462Z" fill="white"/>
<path d="M171.252 33.2012H167.504V33.1434C167.504 31.8376 168.503 31.3806 169.363 31.3806C169.605 31.3613 169.848 31.3926 170.076 31.4726C170.305 31.5526 170.515 31.6795 170.692 31.8452C170.87 32.011 171.011 32.2119 171.107 32.4354C171.203 32.6589 171.252 32.9 171.251 33.1434L171.252 33.2012ZM171.781 30.6061C171.451 30.3173 171.067 30.0978 170.651 29.9608C170.237 29.8165 169.802 29.7438 169.364 29.7458C168.935 29.7437 168.509 29.8165 168.105 29.9608C167.696 30.0963 167.317 30.3105 166.989 30.5916C166.634 30.9014 166.351 31.285 166.158 31.7157C165.966 32.1464 165.869 32.614 165.874 33.0862V34.1182C165.873 34.5739 165.955 35.0259 166.116 35.4517C166.287 35.8572 166.552 36.216 166.889 36.4983C167.665 37.1109 168.635 37.4214 169.621 37.3727H172.882V35.739H169.621C169.158 35.7635 168.697 35.6749 168.276 35.4808C167.985 35.3471 167.752 35.1131 167.618 34.8214H172.882V33.1439C172.894 32.666 172.802 32.1912 172.612 31.7528C172.422 31.3145 172.139 30.9233 171.783 30.6066" fill="white"/>
<path d="M180.149 34.0032C180.149 34.2458 180.099 34.4857 180.003 34.7079C179.906 34.9301 179.764 35.1297 179.587 35.2941C179.409 35.4584 179.2 35.584 178.971 35.6628C178.743 35.7416 178.501 35.772 178.26 35.752C178.021 35.7728 177.78 35.7428 177.553 35.6639C177.326 35.5851 177.118 35.459 176.943 35.2941C176.768 35.1292 176.629 34.929 176.535 34.7066C176.442 34.4842 176.396 34.2445 176.401 34.0032V29.8462H174.769V34.0032C174.769 36.213 176.528 37.3863 178.259 37.3863C178.92 37.39 179.57 37.2221 180.147 36.8986V37.3863H181.778V29.8462H180.147L180.149 34.0032Z" fill="white"/>
<path d="M188.615 29.9753C188.22 29.8353 187.804 29.7624 187.385 29.7598C186.727 29.7541 186.079 29.9276 185.511 30.2621V29.8467H183.881V37.3873H185.511V33.1585C185.511 31.8682 186.511 31.3951 187.385 31.3951C188.644 31.3951 188.916 32.3413 188.916 33.1439V33.4161H190.532V33.1439C190.558 32.6847 190.49 32.2251 190.333 31.7932C190.175 31.3614 189.932 30.9664 189.617 30.6327C189.338 30.3395 188.996 30.114 188.617 29.9733" fill="white"/>
<path d="M197.369 33.2012H193.621V33.1439C193.612 32.9009 193.655 32.659 193.747 32.4341C193.839 32.2092 193.978 32.0066 194.154 31.8398C194.33 31.6729 194.539 31.5457 194.768 31.4665C194.996 31.3873 195.239 31.358 195.48 31.3806C195.722 31.3612 195.965 31.3925 196.194 31.4725C196.423 31.5525 196.632 31.6794 196.81 31.8452C196.987 32.011 197.129 32.212 197.225 32.4356C197.321 32.6592 197.37 32.9004 197.368 33.1439L197.369 33.2012ZM198.999 33.1439C199.02 32.4424 198.813 31.7531 198.411 31.1794C198.009 30.6057 197.432 30.1783 196.768 29.9613C196.354 29.8167 195.919 29.7438 195.481 29.7458C195.052 29.7438 194.626 29.8167 194.222 29.9613C193.813 30.0967 193.434 30.3109 193.106 30.5921C192.751 30.9019 192.468 31.2855 192.275 31.7162C192.083 32.1469 191.986 32.6145 191.991 33.0867V34.1187C191.99 34.5745 192.072 35.0265 192.234 35.4522C192.405 35.8578 192.67 36.2166 193.006 36.4988C193.782 37.1114 194.752 37.4219 195.738 37.3732H198.999V35.7395H195.738C195.276 35.7639 194.814 35.6752 194.393 35.4808C194.103 35.3471 193.869 35.1132 193.736 34.8214H198.999V33.1439Z" fill="white"/>
<path d="M118.744 50.2912C118.744 51.597 117.744 52.0545 116.87 52.0545C115.996 52.0545 114.997 51.596 114.997 50.2912V49.4595C114.988 49.2165 115.031 48.9746 115.123 48.7498C115.215 48.525 115.354 48.3224 115.53 48.1556C115.706 47.9888 115.915 47.8616 116.144 47.7825C116.372 47.7033 116.615 47.6741 116.856 47.6966C117.098 47.6773 117.34 47.7087 117.569 47.7887C117.798 47.8687 118.008 47.9955 118.185 48.1613C118.363 48.327 118.504 48.528 118.6 48.7514C118.696 48.9749 118.745 49.216 118.744 49.4595V50.2912ZM118.744 46.5495C118.166 46.228 117.516 46.0603 116.856 46.0623C116.427 46.0601 116.001 46.1328 115.597 46.2773C115.188 46.4126 114.809 46.6269 114.482 46.9081C114.125 47.2159 113.84 47.599 113.647 48.0302C113.454 48.4614 113.358 48.93 113.366 49.4027V50.5076C113.382 50.9653 113.495 51.4144 113.697 51.8248C113.899 52.2352 114.186 52.5974 114.539 52.8872C115.201 53.4177 116.024 53.7017 116.871 53.6908C117.526 53.6909 118.171 53.5233 118.744 53.2036V53.6908H120.375V43.3669H118.744L118.744 46.5495Z" fill="white"/>
<path d="M127.64 50.3052C127.64 50.5478 127.59 50.7878 127.494 51.01C127.397 51.2321 127.255 51.4317 127.078 51.5961C126.9 51.7604 126.691 51.886 126.462 51.9648C126.234 52.0437 125.992 52.074 125.752 52.054C125.512 52.0748 125.271 52.0447 125.044 51.9658C124.818 51.8869 124.61 51.7609 124.434 51.5959C124.259 51.431 124.12 51.2309 124.027 51.0085C123.933 50.7861 123.888 50.5465 123.893 50.3052V46.1477H122.262V50.3052C122.262 52.5151 124.021 53.6883 125.752 53.6883C126.412 53.6921 127.063 53.5241 127.64 53.2006V53.6883H129.27V46.1477H127.64V50.3052Z" fill="white"/>
<path d="M143.991 50.2912C143.991 51.597 142.992 52.0545 142.117 52.0545C141.243 52.0545 140.243 51.596 140.243 50.2912V49.4595C140.235 49.2166 140.278 48.9747 140.37 48.7499C140.462 48.5251 140.601 48.3226 140.777 48.1558C140.953 47.989 141.162 47.8618 141.391 47.7827C141.619 47.7035 141.862 47.6741 142.103 47.6966C142.344 47.6773 142.587 47.7086 142.816 47.7885C143.045 47.8685 143.255 47.9953 143.432 48.1611C143.61 48.3268 143.751 48.5278 143.847 48.7513C143.944 48.9748 143.992 49.216 143.991 49.4595L143.991 50.2912ZM143.991 46.5495C143.414 46.2279 142.764 46.0602 142.103 46.0623C141.675 46.0601 141.249 46.1328 140.845 46.2773C140.435 46.4125 140.056 46.6268 139.729 46.9081C139.372 47.2159 139.087 47.599 138.894 48.0302C138.701 48.4614 138.605 48.93 138.613 49.4027V50.5076C138.629 50.9653 138.742 51.4143 138.944 51.8247C139.146 52.2351 139.433 52.5973 139.786 52.8872C140.447 53.4178 141.271 53.7017 142.117 53.6908C142.773 53.691 143.418 53.5233 143.991 53.2036V53.6908H145.622V43.3669H143.991V46.5495Z" fill="white"/>
<path d="M151.829 46.1477H148.053V47.782H150.197V52.054H147.509V53.6883H154.518V52.054H151.828L151.829 46.1477Z" fill="white"/>
<path d="M152.157 43.3669H149.869V45.646H152.157V43.3669Z" fill="white"/>
<path d="M161.783 50.3911C161.782 50.6333 161.732 50.8727 161.634 51.0943C161.537 51.3159 161.396 51.515 161.218 51.6791C161.041 51.8433 160.832 51.9689 160.605 52.0482C160.377 52.1274 160.135 52.1587 159.895 52.1399C159.656 52.1606 159.415 52.1304 159.188 52.0515C158.961 51.9726 158.753 51.8466 158.578 51.6817C158.402 51.5168 158.264 51.3166 158.17 51.0943C158.077 50.872 158.031 50.6324 158.035 50.3911V49.5453C158.024 49.301 158.066 49.0571 158.156 48.8302C158.247 48.6033 158.385 48.3986 158.562 48.2301C158.738 48.0615 158.948 47.9329 159.178 47.8531C159.408 47.7733 159.653 47.7441 159.895 47.7674C160.138 47.7493 160.381 47.7819 160.61 47.8633C160.84 47.9446 161.05 48.0729 161.227 48.24C161.405 48.4071 161.546 48.6094 161.641 48.8341C161.737 49.0588 161.785 49.301 161.783 49.5453V50.3911ZM161.783 46.6349C161.206 46.3131 160.555 46.1452 159.895 46.1472C159.461 46.138 159.029 46.2109 158.622 46.3622C158.207 46.4993 157.822 46.7185 157.492 47.0071C157.135 47.3224 156.852 47.7137 156.664 48.1527C156.476 48.5917 156.388 49.0672 156.405 49.5448V50.3906C156.405 52.6125 158.15 53.7736 159.895 53.7736C160.555 53.7757 161.206 53.6078 161.783 53.286V53.6159C161.783 54.0177 161.783 55.3652 159.652 55.3652H158.853V56.9995H159.652C160.638 57.0456 161.607 56.7354 162.384 56.1251H162.399C162.727 55.8382 162.986 55.4806 163.156 55.079C163.323 54.6093 163.41 54.115 163.414 53.6165V46.1477H161.783V46.6349Z" fill="white"/>
<path d="M169.624 46.1477H165.848V47.782H167.993V52.054H165.304V53.6883H172.313V52.054H169.624V46.1477Z" fill="white"/>
<path d="M169.95 43.3669H167.662V45.646H169.95V43.3669Z" fill="white"/>
<path d="M179.004 50.4343C179.004 51.495 179.004 52.054 178.089 52.054H178.003C177.103 52.054 177.103 51.4664 177.103 50.4343V47.782H179.492V46.1477H177.103V43.3664H175.473V46.1477H173.628V47.782H175.473V50.4343C175.404 51.2221 175.527 52.0149 175.83 52.7446C176.202 53.3899 176.889 53.6908 178.004 53.6908H178.09C179.206 53.6908 179.893 53.3894 180.264 52.7446C180.583 52.0191 180.711 51.2237 180.637 50.4343V49.6031H179.006L179.004 50.4343Z" fill="white"/>
<path d="M187.686 51.7818C187.264 52.0036 186.787 52.0983 186.313 52.0545H186.184C185.705 52.0977 185.224 52.0031 184.796 51.7818C184.639 51.6814 184.438 51.5096 184.438 50.936C184.438 50.3052 184.667 50.1325 184.854 50.0185C185.274 49.8416 185.73 49.7677 186.184 49.803H186.312C186.761 49.7666 187.213 49.8405 187.628 50.0185C187.842 50.133 188.071 50.3047 188.071 50.936C188.071 51.5096 187.856 51.6814 187.684 51.7818M188.972 47.0226C188.689 46.7307 188.347 46.502 187.97 46.3513C187.593 46.2007 187.189 46.1315 186.784 46.1482H183.78V47.782H186.784C187.14 47.7789 187.485 47.912 187.748 48.1544C188.011 48.3967 188.172 48.7304 188.2 49.0878C188.171 48.7292 187.5 48.1702 186.183 48.1702C184.023 48.1702 182.807 49.1451 182.807 50.937C182.801 51.3299 182.874 51.7199 183.022 52.0836C183.165 52.4341 183.397 52.7407 183.695 52.9726C184.417 53.4926 185.296 53.7458 186.183 53.6893H186.312C186.964 53.6646 187.603 53.4984 188.185 53.2021V53.6893H189.816V49.5027C189.817 49.0119 189.745 48.5238 189.602 48.0547C189.464 47.6711 189.25 47.3199 188.972 47.0226Z" fill="white"/>
<path d="M196.311 43.3669H191.991V44.9871H194.68V52.0545H191.991V53.6888H198.999V52.0545H196.31L196.311 43.3669Z" fill="white"/>
<path d="M120.374 10.7634H113.365V12.3836H120.374V10.7634Z" fill="white"/>
<path d="M146.949 27.0724H139.94V28.6921H146.949V27.0724Z" fill="white"/>
</g>
<defs>
<clipPath id="clip0_469_1140">
<rect width="199" height="57" fill="white"/>
</clipPath>
</defs>
</svg>
