<svg width="163" height="47" viewBox="0 0 163 47" fill="none" xmlns="http://www.w3.org/2000/svg">
<path fill-rule="evenodd" clip-rule="evenodd" d="M11.4742 18.3103L9.25287 15.6616L9.15791 16.9178C9.2921 16.9933 9.39326 17.1254 9.42422 17.2911C9.47171 17.547 9.33132 17.7965 9.10423 17.8909C9.16616 18.4446 9.27352 19.1198 9.30035 19.5665C9.33132 20.0552 9.193 20.2523 8.86062 20.2691C8.65418 20.2796 8.45599 20.1118 8.45393 19.5519C8.45186 19.2436 8.57986 18.4613 8.69134 17.8867C8.53238 17.8175 8.41264 17.6728 8.37754 17.4903C8.32387 17.1967 8.5138 16.9136 8.80282 16.8591L8.81108 16.857L8.92875 15.2757L8.77392 15.0911C8.6645 14.9611 8.64592 14.785 8.72643 14.634C8.80695 14.483 8.95972 14.418 9.129 14.4242L19.2923 14.8395C19.4967 14.8479 19.6763 14.9464 19.7961 15.1163L25.6984 23.5596C25.7954 23.7001 25.8243 23.8679 25.7438 24.0168C25.6633 24.1678 25.5084 24.2475 25.3412 24.2244L21.0822 23.6603C21.0409 23.9392 20.9749 24.2139 20.8902 24.4845L20.8469 24.6187H20.8448L20.8118 24.7089C20.5971 25.3024 20.2874 25.8518 19.9241 26.3635L19.8518 26.4684L19.7878 26.5544C19.4307 27.0346 19.0322 27.4709 18.6255 27.905L18.5595 27.9742L18.4604 28.079C18.258 28.2971 17.7481 28.8026 17.7523 29.1192V29.1339L17.7564 29.1486C17.7729 29.2115 17.8926 29.4149 17.9236 29.4779C18.0392 29.7002 18.1548 29.9183 18.2704 30.1406C18.3902 30.3671 18.5099 30.5936 18.6276 30.8222C18.4439 30.7613 18.2519 30.7194 18.0599 30.7005L17.8596 30.6816L17.8637 30.69L17.7874 30.6942C16.7035 30.7404 16.0429 31.7575 15.2047 32.3321L15.151 32.3678V32.3741L14.9776 32.4747C14.4883 32.76 13.9826 32.8879 13.4272 32.8963C13.2972 32.1161 13.0783 31.2814 12.6819 30.602L12.5622 30.3964L12.5581 30.4048L12.523 30.3566C12.3743 30.1427 12.2009 29.9476 11.9965 29.7861C11.6373 29.5219 11.2657 29.3772 10.8322 29.3206L10.7703 29.3143L10.7744 29.3101L10.5494 29.2975C9.96718 29.266 9.44074 29.3353 8.91224 29.0102C8.42296 28.7082 8.60876 28.1336 8.78218 27.7015L8.91224 27.3744L8.90604 27.3786L8.90398 27.3136C8.89366 27.0137 8.43741 26.8941 8.39612 26.7788C8.40438 26.6802 8.57366 26.5124 8.65211 26.4495L8.82346 26.309L8.62321 26.2419C8.58399 26.2209 8.53857 26.1853 8.50554 26.1601C8.4498 26.1203 8.41057 25.9043 8.45806 25.8518C8.62734 25.6715 8.68515 25.51 8.71405 25.2646C8.73469 25.0801 8.6356 24.9186 8.51792 24.7885L8.48283 24.7487L8.49522 24.7466L8.2867 24.5662C8.1938 24.4845 8.09677 24.4069 8.008 24.323C7.78917 24.1195 8.58605 23.5051 8.7285 23.4002C8.89778 23.2744 9.05468 23.1276 9.20126 22.9766L9.37055 22.7983H9.36435L9.39945 22.7564C9.51506 22.6222 9.63067 22.4816 9.73183 22.339L9.90937 22.0727L9.85776 21.7896C9.82473 21.4414 9.84124 21.0891 9.90937 20.7389L9.92589 20.6529H9.92382L9.96305 20.5061C10.1488 19.8035 10.539 19.1891 11.049 18.6836L11.1233 18.6102L11.2162 18.5263C11.3049 18.4487 11.3875 18.3795 11.4742 18.3103Z" fill="white"/>
<path fill-rule="evenodd" clip-rule="evenodd" d="M15.2915 7.57275C19.5133 7.57275 23.3367 9.31132 26.103 12.1216C28.8694 14.9318 30.5809 18.8158 30.5809 23.1066C30.5809 27.3954 28.8694 31.2794 26.103 34.0917C25.8739 34.3245 25.6365 34.5489 25.3929 34.767L26.1485 38.1036C26.2042 38.3511 26.1113 38.5965 25.9049 38.7412C25.6984 38.8859 25.4403 38.8901 25.2318 38.7496L22.4159 36.8558C20.2875 37.9967 17.8638 38.6405 15.2894 38.6405C11.0676 38.6405 7.24419 36.9019 4.47782 34.0917C1.71144 31.2815 0 27.3954 0 23.1066C0 18.8179 1.71144 14.9339 4.47782 12.1216C7.24832 9.31132 11.0696 7.57275 15.2915 7.57275ZM23.4564 14.8122C21.3672 12.6899 18.4811 11.3771 15.2915 11.3771C12.1039 11.3771 9.21782 12.6899 7.12652 14.8122C5.03728 16.9367 3.74493 19.8686 3.74493 23.1066C3.74493 26.3468 5.03728 29.2787 7.12652 31.401C9.21575 33.5234 12.1019 34.8362 15.2915 34.8362C18.4811 34.8362 21.3672 33.5234 23.4564 31.401C25.5456 29.2787 26.838 26.3468 26.838 23.1066C26.838 19.8686 25.5456 16.9367 23.4564 14.8122Z" fill="white"/>
<path d="M37.2109 40.5643C37.0067 40.5643 36.8396 40.4684 36.8396 40.3512V5.0324C36.8396 4.91521 37.0067 4.81934 37.2109 4.81934C37.4151 4.81934 37.5822 4.91521 37.5822 5.0324V40.3512C37.5822 40.4705 37.4188 40.5643 37.2109 40.5643Z" fill="white"/>
<path d="M50.3738 13.8574V15H46.7947V13.8574H50.3738ZM47.2683 7.89062V15H45.8035V7.89062H47.2683ZM52.4099 7.5V8.24219C52.4099 8.45378 52.3692 8.67188 52.2878 8.89648C52.2097 9.12109 52.1039 9.33431 51.9705 9.53613C51.837 9.7347 51.6905 9.90397 51.531 10.0439L50.8718 9.66309C50.9923 9.47103 51.0948 9.2627 51.1794 9.03809C51.2641 8.81022 51.3064 8.54655 51.3064 8.24707V7.5H52.4099ZM56.0281 13.8086V11.4551C56.0281 11.2858 56.0004 11.141 55.9451 11.0205C55.8897 10.8968 55.8035 10.8008 55.6863 10.7324C55.5723 10.6641 55.4242 10.6299 55.2419 10.6299C55.0857 10.6299 54.9506 10.6576 54.8367 10.7129C54.7227 10.765 54.6348 10.8415 54.573 10.9424C54.5111 11.04 54.4802 11.1556 54.4802 11.2891H53.074C53.074 11.0645 53.1261 10.8512 53.2302 10.6494C53.3344 10.4476 53.4858 10.2702 53.6843 10.1172C53.8829 9.96094 54.1189 9.83887 54.3923 9.75098C54.669 9.66309 54.9783 9.61914 55.3201 9.61914C55.7302 9.61914 56.0948 9.6875 56.4138 9.82422C56.7328 9.96094 56.9835 10.166 57.1658 10.4395C57.3513 10.7129 57.4441 11.0547 57.4441 11.4648V13.7256C57.4441 14.0153 57.462 14.2529 57.4978 14.4385C57.5336 14.6208 57.5857 14.7803 57.6541 14.917V15H56.2332C56.1648 14.8568 56.1127 14.6777 56.0769 14.4629C56.0444 14.2448 56.0281 14.0267 56.0281 13.8086ZM56.2136 11.7822L56.2234 12.5781H55.4373C55.2517 12.5781 55.0906 12.5993 54.9539 12.6416C54.8171 12.6839 54.7048 12.7441 54.6169 12.8223C54.5291 12.8971 54.4639 12.985 54.4216 13.0859C54.3826 13.1868 54.363 13.2975 54.363 13.418C54.363 13.5384 54.3907 13.6475 54.446 13.7451C54.5014 13.8395 54.5811 13.9144 54.6853 13.9697C54.7895 14.0218 54.9115 14.0479 55.0515 14.0479C55.2631 14.0479 55.447 14.0055 55.6033 13.9209C55.7595 13.8363 55.88 13.7321 55.9646 13.6084C56.0525 13.4847 56.0981 13.3675 56.1013 13.2568L56.4724 13.8525C56.4203 13.986 56.3487 14.1243 56.2576 14.2676C56.1697 14.4108 56.0574 14.5459 55.9207 14.6729C55.7839 14.7965 55.6195 14.8991 55.4275 14.9805C55.2354 15.0586 55.0076 15.0977 54.7439 15.0977C54.4086 15.0977 54.1042 15.0309 53.8308 14.8975C53.5606 14.7607 53.3458 14.5736 53.1863 14.3359C53.03 14.0951 52.9519 13.8216 52.9519 13.5156C52.9519 13.2389 53.004 12.9932 53.1082 12.7783C53.2123 12.5635 53.3653 12.3828 53.5671 12.2363C53.7722 12.0866 54.0278 11.9743 54.3337 11.8994C54.6397 11.8213 54.9945 11.7822 55.3982 11.7822H56.2136ZM59.905 10.8447V15H58.4988V9.7168H59.8171L59.905 10.8447ZM59.7 12.1729H59.3191C59.3191 11.7822 59.3695 11.4307 59.4705 11.1182C59.5714 10.8024 59.713 10.5339 59.8953 10.3125C60.0776 10.0879 60.294 9.91699 60.5447 9.7998C60.7986 9.67936 61.0818 9.61914 61.3943 9.61914C61.6417 9.61914 61.8679 9.65495 62.073 9.72656C62.2781 9.79818 62.4539 9.91211 62.6003 10.0684C62.7501 10.2246 62.864 10.4313 62.9421 10.6885C63.0235 10.9456 63.0642 11.2598 63.0642 11.6309V15H61.6482V11.626C61.6482 11.3916 61.6156 11.2093 61.5505 11.0791C61.4854 10.9489 61.3894 10.8577 61.2625 10.8057C61.1388 10.7503 60.9858 10.7227 60.8035 10.7227C60.6147 10.7227 60.4503 10.7601 60.3103 10.835C60.1736 10.9098 60.0597 11.014 59.9685 11.1475C59.8806 11.2777 59.8139 11.4307 59.7683 11.6064C59.7227 11.7822 59.7 11.971 59.7 12.1729ZM65.5105 10.8447V15H64.1042V9.7168H65.4226L65.5105 10.8447ZM65.3054 12.1729H64.9246C64.9246 11.7822 64.975 11.4307 65.0759 11.1182C65.1768 10.8024 65.3184 10.5339 65.5007 10.3125C65.683 10.0879 65.8995 9.91699 66.1501 9.7998C66.4041 9.67936 66.6873 9.61914 66.9998 9.61914C67.2472 9.61914 67.4734 9.65495 67.6785 9.72656C67.8835 9.79818 68.0593 9.91211 68.2058 10.0684C68.3556 10.2246 68.4695 10.4313 68.5476 10.6885C68.629 10.9456 68.6697 11.2598 68.6697 11.6309V15H67.2537V11.626C67.2537 11.3916 67.2211 11.2093 67.156 11.0791C67.0909 10.9489 66.9949 10.8577 66.8679 10.8057C66.7442 10.7503 66.5912 10.7227 66.4089 10.7227C66.2201 10.7227 66.0557 10.7601 65.9158 10.835C65.7791 10.9098 65.6651 11.014 65.574 11.1475C65.4861 11.2777 65.4194 11.4307 65.3738 11.6064C65.3282 11.7822 65.3054 11.971 65.3054 12.1729ZM72.864 13.7354V9.7168H74.2703V15H72.947L72.864 13.7354ZM73.0203 12.6514L73.4353 12.6416C73.4353 12.9932 73.3946 13.3203 73.3132 13.623C73.2319 13.9225 73.1098 14.1829 72.947 14.4043C72.7843 14.6224 72.5792 14.7933 72.3318 14.917C72.0844 15.0374 71.7931 15.0977 71.4578 15.0977C71.2006 15.0977 70.963 15.0618 70.7449 14.9902C70.53 14.9154 70.3445 14.7998 70.1882 14.6436C70.0352 14.484 69.9148 14.2806 69.8269 14.0332C69.7423 13.7826 69.7 13.4814 69.7 13.1299V9.7168H71.1062V13.1396C71.1062 13.2959 71.1241 13.4277 71.1599 13.5352C71.199 13.6426 71.2527 13.7305 71.321 13.7988C71.3894 13.8672 71.4692 13.916 71.5603 13.9453C71.6547 13.9746 71.7589 13.9893 71.8728 13.9893C72.1625 13.9893 72.3904 13.9307 72.5564 13.8135C72.7257 13.6963 72.8445 13.5368 72.9128 13.335C72.9845 13.1299 73.0203 12.902 73.0203 12.6514ZM78.196 13.8086V11.4551C78.196 11.2858 78.1684 11.141 78.113 11.0205C78.0577 10.8968 77.9714 10.8008 77.8542 10.7324C77.7403 10.6641 77.5922 10.6299 77.4099 10.6299C77.2537 10.6299 77.1186 10.6576 77.0046 10.7129C76.8907 10.765 76.8028 10.8415 76.741 10.9424C76.6791 11.04 76.6482 11.1556 76.6482 11.2891H75.2419C75.2419 11.0645 75.294 10.8512 75.3982 10.6494C75.5024 10.4476 75.6537 10.2702 75.8523 10.1172C76.0509 9.96094 76.2869 9.83887 76.5603 9.75098C76.837 9.66309 77.1462 9.61914 77.488 9.61914C77.8982 9.61914 78.2628 9.6875 78.5818 9.82422C78.9008 9.96094 79.1514 10.166 79.3337 10.4395C79.5193 10.7129 79.6121 11.0547 79.6121 11.4648V13.7256C79.6121 14.0153 79.63 14.2529 79.6658 14.4385C79.7016 14.6208 79.7537 14.7803 79.822 14.917V15H78.4011C78.3328 14.8568 78.2807 14.6777 78.2449 14.4629C78.2123 14.2448 78.196 14.0267 78.196 13.8086ZM78.3816 11.7822L78.3914 12.5781H77.6052C77.4197 12.5781 77.2585 12.5993 77.1218 12.6416C76.9851 12.6839 76.8728 12.7441 76.7849 12.8223C76.697 12.8971 76.6319 12.985 76.5896 13.0859C76.5505 13.1868 76.531 13.2975 76.531 13.418C76.531 13.5384 76.5587 13.6475 76.614 13.7451C76.6694 13.8395 76.7491 13.9144 76.8533 13.9697C76.9574 14.0218 77.0795 14.0479 77.2195 14.0479C77.4311 14.0479 77.615 14.0055 77.7712 13.9209C77.9275 13.8363 78.0479 13.7321 78.1326 13.6084C78.2205 13.4847 78.266 13.3675 78.2693 13.2568L78.6404 13.8525C78.5883 13.986 78.5167 14.1243 78.4255 14.2676C78.3376 14.4108 78.2253 14.5459 78.0886 14.6729C77.9519 14.7965 77.7875 14.8991 77.5955 14.9805C77.4034 15.0586 77.1755 15.0977 76.9119 15.0977C76.5766 15.0977 76.2722 15.0309 75.9988 14.8975C75.7286 14.7607 75.5138 14.5736 75.3542 14.3359C75.198 14.0951 75.1199 13.8216 75.1199 13.5156C75.1199 13.2389 75.172 12.9932 75.2761 12.7783C75.3803 12.5635 75.5333 12.3828 75.7351 12.2363C75.9402 12.0866 76.1957 11.9743 76.5017 11.8994C76.8077 11.8213 77.1625 11.7822 77.5662 11.7822H78.3816ZM82.1804 9.7168V15H80.7693V9.7168H82.1804ZM80.6814 8.33984C80.6814 8.13477 80.753 7.96549 80.8962 7.83203C81.0395 7.69857 81.2315 7.63184 81.4724 7.63184C81.71 7.63184 81.9005 7.69857 82.0437 7.83203C82.1902 7.96549 82.2634 8.13477 82.2634 8.33984C82.2634 8.54492 82.1902 8.71419 82.0437 8.84766C81.9005 8.98112 81.71 9.04785 81.4724 9.04785C81.2315 9.04785 81.0395 8.98112 80.8962 8.84766C80.753 8.71419 80.6814 8.54492 80.6814 8.33984ZM84.7488 10.8691V15H83.3425V9.7168H84.6658L84.7488 10.8691ZM86.3406 9.68262L86.3162 10.9863C86.2478 10.9766 86.1648 10.9684 86.0671 10.9619C85.9727 10.9521 85.8865 10.9473 85.8083 10.9473C85.6098 10.9473 85.4373 10.9733 85.2908 11.0254C85.1475 11.0742 85.0271 11.1475 84.9294 11.2451C84.835 11.3428 84.7634 11.4616 84.7146 11.6016C84.669 11.7415 84.643 11.901 84.6365 12.0801L84.3533 11.9922C84.3533 11.6504 84.3875 11.3363 84.4558 11.0498C84.5242 10.7601 84.6235 10.5078 84.7537 10.293C84.8871 10.0781 85.0499 9.91211 85.2419 9.79492C85.434 9.67773 85.6537 9.61914 85.9011 9.61914C85.9792 9.61914 86.059 9.62565 86.1404 9.63867C86.2218 9.64844 86.2885 9.66309 86.3406 9.68262ZM89.3386 15.0977C88.9285 15.0977 88.5606 15.0326 88.2351 14.9023C87.9096 14.7689 87.6329 14.585 87.405 14.3506C87.1804 14.1162 87.0079 13.8444 86.8875 13.5352C86.767 13.2227 86.7068 12.8906 86.7068 12.5391V12.3438C86.7068 11.9434 86.7638 11.5771 86.8777 11.2451C86.9916 10.9131 87.1544 10.625 87.366 10.3809C87.5808 10.1367 87.8412 9.94954 88.1472 9.81934C88.4532 9.68587 88.7983 9.61914 89.1824 9.61914C89.5567 9.61914 89.8888 9.68099 90.1785 9.80469C90.4682 9.92839 90.7107 10.1042 90.906 10.332C91.1046 10.5599 91.2543 10.8333 91.3552 11.1523C91.4561 11.4681 91.5066 11.8197 91.5066 12.207V12.793H87.3074V11.8555H90.1248V11.748C90.1248 11.5527 90.0889 11.3786 90.0173 11.2256C89.949 11.0693 89.8448 10.9456 89.7048 10.8545C89.5649 10.7633 89.3858 10.7178 89.1677 10.7178C88.9822 10.7178 88.8227 10.7585 88.6892 10.8398C88.5557 10.9212 88.4467 11.0352 88.3621 11.1816C88.2807 11.3281 88.2188 11.5007 88.1765 11.6992C88.1375 11.8945 88.1179 12.1094 88.1179 12.3438V12.5391C88.1179 12.7507 88.1472 12.946 88.2058 13.125C88.2677 13.304 88.3539 13.4587 88.4646 13.5889C88.5785 13.7191 88.7153 13.82 88.8748 13.8916C89.0375 13.9632 89.2214 13.999 89.4265 13.999C89.6804 13.999 89.9164 13.9502 90.1345 13.8525C90.3559 13.7516 90.5463 13.6003 90.7058 13.3984L91.3894 14.1406C91.2787 14.3001 91.1274 14.4531 90.9353 14.5996C90.7465 14.7461 90.5186 14.8665 90.2517 14.9609C89.9848 15.0521 89.6804 15.0977 89.3386 15.0977ZM97.9177 13.8477V7.5H99.3337V15H98.0593L97.9177 13.8477ZM94.5779 12.4219V12.3193C94.5779 11.9157 94.6235 11.5495 94.7146 11.2207C94.8057 10.8887 94.9392 10.6038 95.115 10.3662C95.2908 10.1286 95.5072 9.94466 95.7644 9.81445C96.0216 9.68424 96.3145 9.61914 96.6433 9.61914C96.9526 9.61914 97.2227 9.68424 97.4539 9.81445C97.6882 9.94466 97.8868 10.1302 98.0496 10.3711C98.2156 10.6087 98.349 10.8903 98.45 11.2158C98.5509 11.5381 98.6241 11.8913 98.6697 12.2754V12.5C98.6241 12.8678 98.5509 13.2096 98.45 13.5254C98.349 13.8411 98.2156 14.1178 98.0496 14.3555C97.8868 14.5898 97.6882 14.7721 97.4539 14.9023C97.2195 15.0326 96.946 15.0977 96.6335 15.0977C96.3048 15.0977 96.0118 15.0309 95.7546 14.8975C95.5007 14.764 95.2859 14.5768 95.1101 14.3359C94.9376 14.0951 94.8057 13.8118 94.7146 13.4863C94.6235 13.1608 94.5779 12.806 94.5779 12.4219ZM95.9841 12.3193V12.4219C95.9841 12.64 96.0004 12.8434 96.033 13.0322C96.0688 13.221 96.1257 13.3887 96.2039 13.5352C96.2852 13.6784 96.3894 13.7907 96.5164 13.8721C96.6466 13.9502 96.8044 13.9893 96.99 13.9893C97.2309 13.9893 97.4294 13.9355 97.5857 13.8281C97.7419 13.7174 97.8608 13.5661 97.9421 13.374C98.0268 13.182 98.0756 12.9606 98.0886 12.71V12.0703C98.0789 11.8652 98.0496 11.6813 98.0007 11.5186C97.9552 11.3525 97.8868 11.2109 97.7957 11.0938C97.7078 10.9766 97.5971 10.8854 97.4636 10.8203C97.3334 10.7552 97.1788 10.7227 96.9998 10.7227C96.8175 10.7227 96.6612 10.765 96.531 10.8496C96.4008 10.931 96.295 11.0433 96.2136 11.1865C96.1355 11.3298 96.0769 11.499 96.0378 11.6943C96.002 11.8864 95.9841 12.0947 95.9841 12.3193ZM102.864 15.0977C102.454 15.0977 102.086 15.0326 101.76 14.9023C101.435 14.7689 101.158 14.585 100.93 14.3506C100.706 14.1162 100.533 13.8444 100.413 13.5352C100.292 13.2227 100.232 12.8906 100.232 12.5391V12.3438C100.232 11.9434 100.289 11.5771 100.403 11.2451C100.517 10.9131 100.68 10.625 100.891 10.3809C101.106 10.1367 101.367 9.94954 101.673 9.81934C101.979 9.68587 102.324 9.61914 102.708 9.61914C103.082 9.61914 103.414 9.68099 103.704 9.80469C103.994 9.92839 104.236 10.1042 104.431 10.332C104.63 10.5599 104.78 10.8333 104.881 11.1523C104.982 11.4681 105.032 11.8197 105.032 12.207V12.793H100.833V11.8555H103.65V11.748C103.65 11.5527 103.614 11.3786 103.543 11.2256C103.474 11.0693 103.37 10.9456 103.23 10.8545C103.09 10.7633 102.911 10.7178 102.693 10.7178C102.508 10.7178 102.348 10.7585 102.215 10.8398C102.081 10.9212 101.972 11.0352 101.887 11.1816C101.806 11.3281 101.744 11.5007 101.702 11.6992C101.663 11.8945 101.643 12.1094 101.643 12.3438V12.5391C101.643 12.7507 101.673 12.946 101.731 13.125C101.793 13.304 101.879 13.4587 101.99 13.5889C102.104 13.7191 102.241 13.82 102.4 13.8916C102.563 13.9632 102.747 13.999 102.952 13.999C103.206 13.999 103.442 13.9502 103.66 13.8525C103.881 13.7516 104.072 13.6003 104.231 13.3984L104.915 14.1406C104.804 14.3001 104.653 14.4531 104.461 14.5996C104.272 14.7461 104.044 14.8665 103.777 14.9609C103.51 15.0521 103.206 15.0977 102.864 15.0977ZM108.689 13.54C108.689 13.4391 108.66 13.348 108.601 13.2666C108.543 13.1852 108.434 13.1104 108.274 13.042C108.118 12.9704 107.892 12.9053 107.595 12.8467C107.329 12.7881 107.08 12.7148 106.848 12.627C106.621 12.5358 106.422 12.4268 106.253 12.2998C106.087 12.1729 105.956 12.0231 105.862 11.8506C105.768 11.6748 105.72 11.4746 105.72 11.25C105.72 11.0286 105.768 10.8203 105.862 10.625C105.96 10.4297 106.098 10.2572 106.277 10.1074C106.459 9.95443 106.681 9.83561 106.941 9.75098C107.205 9.66309 107.501 9.61914 107.83 9.61914C108.289 9.61914 108.683 9.69238 109.011 9.83887C109.344 9.98535 109.597 10.1872 109.773 10.4443C109.952 10.6982 110.042 10.988 110.042 11.3135H108.635C108.635 11.1768 108.606 11.0547 108.548 10.9473C108.492 10.8366 108.404 10.7503 108.284 10.6885C108.167 10.6234 108.014 10.5908 107.825 10.5908C107.669 10.5908 107.534 10.6185 107.42 10.6738C107.306 10.7259 107.218 10.7975 107.156 10.8887C107.097 10.9766 107.068 11.0742 107.068 11.1816C107.068 11.263 107.084 11.3363 107.117 11.4014C107.153 11.4632 107.21 11.5202 107.288 11.5723C107.366 11.6243 107.467 11.6732 107.591 11.7188C107.718 11.7611 107.874 11.8001 108.059 11.8359C108.44 11.9141 108.78 12.0166 109.08 12.1436C109.379 12.2673 109.617 12.4365 109.793 12.6514C109.969 12.863 110.056 13.1413 110.056 13.4863C110.056 13.7207 110.004 13.9355 109.9 14.1309C109.796 14.3262 109.646 14.4971 109.451 14.6436C109.256 14.7868 109.021 14.8991 108.748 14.9805C108.478 15.0586 108.173 15.0977 107.835 15.0977C107.343 15.0977 106.927 15.0098 106.585 14.834C106.246 14.6582 105.989 14.4352 105.813 14.165C105.641 13.8916 105.554 13.6117 105.554 13.3252H106.887C106.894 13.5173 106.943 13.6719 107.034 13.7891C107.128 13.9062 107.247 13.9909 107.39 14.043C107.537 14.0951 107.695 14.1211 107.864 14.1211C108.046 14.1211 108.198 14.0967 108.318 14.0479C108.439 13.9958 108.53 13.9274 108.592 13.8428C108.657 13.7549 108.689 13.654 108.689 13.54ZM48.1472 27.0977C47.7371 27.0977 47.3692 27.0326 47.0437 26.9023C46.7182 26.7689 46.4415 26.585 46.2136 26.3506C45.989 26.1162 45.8165 25.8444 45.696 25.5352C45.5756 25.2227 45.5154 24.8906 45.5154 24.5391V24.3438C45.5154 23.9434 45.5723 23.5771 45.6863 23.2451C45.8002 22.9131 45.963 22.625 46.1746 22.3809C46.3894 22.1367 46.6498 21.9495 46.9558 21.8193C47.2618 21.6859 47.6069 21.6191 47.991 21.6191C48.3653 21.6191 48.6973 21.681 48.9871 21.8047C49.2768 21.9284 49.5193 22.1042 49.7146 22.332C49.9132 22.5599 50.0629 22.8333 50.1638 23.1523C50.2647 23.4681 50.3152 23.8197 50.3152 24.207V24.793H46.116V23.8555H48.9333V23.748C48.9333 23.5527 48.8975 23.3786 48.8259 23.2256C48.7576 23.0693 48.6534 22.9456 48.5134 22.8545C48.3735 22.7633 48.1944 22.7178 47.9763 22.7178C47.7908 22.7178 47.6313 22.7585 47.4978 22.8398C47.3643 22.9212 47.2553 23.0352 47.1707 23.1816C47.0893 23.3281 47.0274 23.5007 46.9851 23.6992C46.946 23.8945 46.9265 24.1094 46.9265 24.3438V24.5391C46.9265 24.7507 46.9558 24.946 47.0144 25.125C47.0763 25.304 47.1625 25.4587 47.2732 25.5889C47.3871 25.7191 47.5238 25.82 47.6833 25.8916C47.8461 25.9632 48.03 25.999 48.2351 25.999C48.489 25.999 48.725 25.9502 48.9431 25.8525C49.1645 25.7516 49.3549 25.6003 49.5144 25.3984L50.198 26.1406C50.0873 26.3001 49.936 26.4531 49.7439 26.5996C49.5551 26.7461 49.3272 26.8665 49.0603 26.9609C48.7934 27.0521 48.489 27.0977 48.1472 27.0977ZM47.156 20.999L48.113 19.4951H49.6414L48.2986 20.999H47.156ZM53.7039 21.7168V22.7129H50.6277V21.7168H53.7039ZM51.3894 20.4131H52.7957V25.4082C52.7957 25.5612 52.8152 25.6784 52.8542 25.7598C52.8966 25.8411 52.9584 25.8981 53.0398 25.9307C53.1212 25.96 53.2237 25.9746 53.3474 25.9746C53.4353 25.9746 53.5134 25.9714 53.5818 25.9648C53.6534 25.9551 53.7136 25.9453 53.7625 25.9355L53.7673 26.9707C53.6469 27.0098 53.5167 27.0407 53.3767 27.0635C53.2367 27.0863 53.0821 27.0977 52.9128 27.0977C52.6036 27.0977 52.3334 27.0472 52.1023 26.9463C51.8744 26.8421 51.6986 26.6761 51.575 26.4482C51.4513 26.2204 51.3894 25.9209 51.3894 25.5498V20.4131ZM57.3562 25.8086V23.4551C57.3562 23.2858 57.3285 23.141 57.2732 23.0205C57.2179 22.8968 57.1316 22.8008 57.0144 22.7324C56.9005 22.6641 56.7524 22.6299 56.5701 22.6299C56.4138 22.6299 56.2787 22.6576 56.1648 22.7129C56.0509 22.765 55.963 22.8415 55.9011 22.9424C55.8393 23.04 55.8083 23.1556 55.8083 23.2891H54.4021C54.4021 23.0645 54.4542 22.8512 54.5583 22.6494C54.6625 22.4476 54.8139 22.2702 55.0125 22.1172C55.211 21.9609 55.447 21.8389 55.7205 21.751C55.9972 21.6631 56.3064 21.6191 56.6482 21.6191C57.0583 21.6191 57.4229 21.6875 57.7419 21.8242C58.061 21.9609 58.3116 22.166 58.4939 22.4395C58.6794 22.7129 58.7722 23.0547 58.7722 23.4648V25.7256C58.7722 26.0153 58.7901 26.2529 58.8259 26.4385C58.8617 26.6208 58.9138 26.7803 58.9822 26.917V27H57.5613C57.4929 26.8568 57.4408 26.6777 57.405 26.4629C57.3725 26.2448 57.3562 26.0267 57.3562 25.8086ZM57.5417 23.7822L57.5515 24.5781H56.7654C56.5798 24.5781 56.4187 24.5993 56.282 24.6416C56.1453 24.6839 56.033 24.7441 55.9451 24.8223C55.8572 24.8971 55.7921 24.985 55.7498 25.0859C55.7107 25.1868 55.6912 25.2975 55.6912 25.418C55.6912 25.5384 55.7188 25.6475 55.7742 25.7451C55.8295 25.8395 55.9093 25.9144 56.0134 25.9697C56.1176 26.0218 56.2397 26.0479 56.3796 26.0479C56.5912 26.0479 56.7751 26.0055 56.9314 25.9209C57.0876 25.8363 57.2081 25.7321 57.2927 25.6084C57.3806 25.4847 57.4262 25.3675 57.4294 25.2568L57.8005 25.8525C57.7485 25.986 57.6768 26.1243 57.5857 26.2676C57.4978 26.4108 57.3855 26.5459 57.2488 26.6729C57.1121 26.7965 56.9477 26.8991 56.7556 26.9805C56.5636 27.0586 56.3357 27.0977 56.072 27.0977C55.7367 27.0977 55.4324 27.0309 55.1589 26.8975C54.8888 26.7607 54.6739 26.5736 54.5144 26.3359C54.3582 26.0951 54.28 25.8216 54.28 25.5156C54.28 25.2389 54.3321 24.9932 54.4363 24.7783C54.5404 24.5635 54.6934 24.3828 54.8953 24.2363C55.1003 24.0866 55.3559 23.9743 55.6619 23.8994C55.9679 23.8213 56.3227 23.7822 56.7263 23.7822H57.5417ZM59.8562 19.5H61.2625V25.7891L61.1208 27H59.8562V19.5ZM64.6072 24.3047V24.4072C64.6072 24.8011 64.5649 25.1624 64.4802 25.4912C64.3988 25.82 64.2719 26.1048 64.0994 26.3457C63.9268 26.5833 63.712 26.7689 63.4548 26.9023C63.2009 27.0326 62.9014 27.0977 62.5564 27.0977C62.2341 27.0977 61.9542 27.0326 61.7166 26.9023C61.4822 26.7721 61.2852 26.5882 61.1257 26.3506C60.9662 26.113 60.8376 25.8346 60.74 25.5156C60.6423 25.1966 60.5691 24.8483 60.5203 24.4707V24.2461C60.5691 23.8685 60.6423 23.5202 60.74 23.2012C60.8376 22.8822 60.9662 22.6038 61.1257 22.3662C61.2852 22.1286 61.4822 21.9447 61.7166 21.8145C61.9509 21.6842 62.2276 21.6191 62.5466 21.6191C62.8949 21.6191 63.1977 21.6859 63.4548 21.8193C63.7153 21.9495 63.9301 22.1351 64.0994 22.376C64.2719 22.6136 64.3988 22.8968 64.4802 23.2256C64.5649 23.5511 64.6072 23.9108 64.6072 24.3047ZM63.2009 24.4072V24.3047C63.2009 24.0898 63.1847 23.888 63.1521 23.6992C63.1228 23.5072 63.0707 23.3395 62.9958 23.1963C62.921 23.0498 62.8184 22.9342 62.6882 22.8496C62.5613 22.765 62.3969 22.7227 62.1951 22.7227C62.003 22.7227 61.8403 22.7552 61.7068 22.8203C61.5733 22.8854 61.4626 22.9766 61.3748 23.0938C61.2901 23.2109 61.2266 23.3509 61.1843 23.5137C61.142 23.6732 61.116 23.849 61.1062 24.041V24.6807C61.116 24.9378 61.1583 25.1657 61.2332 25.3643C61.3113 25.5596 61.4285 25.7142 61.5847 25.8281C61.7442 25.9388 61.9509 25.9941 62.2048 25.9941C62.4034 25.9941 62.5678 25.9551 62.698 25.877C62.8282 25.7988 62.9291 25.6882 63.0007 25.5449C63.0756 25.4017 63.1277 25.234 63.157 25.042C63.1863 24.8467 63.2009 24.6351 63.2009 24.4072ZM66.9656 19.5V27H65.5544V19.5H66.9656ZM69.6121 21.7168V27H68.2009V21.7168H69.6121ZM68.113 20.3398C68.113 20.1348 68.1847 19.9655 68.3279 19.832C68.4711 19.6986 68.6632 19.6318 68.9041 19.6318C69.1417 19.6318 69.3321 19.6986 69.4753 19.832C69.6218 19.9655 69.6951 20.1348 69.6951 20.3398C69.6951 20.5449 69.6218 20.7142 69.4753 20.8477C69.3321 20.9811 69.1417 21.0479 68.9041 21.0479C68.6632 21.0479 68.4711 20.9811 68.3279 20.8477C68.1847 20.7142 68.113 20.5449 68.113 20.3398ZM73.6306 25.54C73.6306 25.4391 73.6013 25.348 73.5427 25.2666C73.4841 25.1852 73.3751 25.1104 73.2156 25.042C73.0593 24.9704 72.8331 24.9053 72.5369 24.8467C72.2699 24.7881 72.0209 24.7148 71.7898 24.627C71.5619 24.5358 71.3634 24.4268 71.1941 24.2998C71.0281 24.1729 70.8979 24.0231 70.8035 23.8506C70.7091 23.6748 70.6619 23.4746 70.6619 23.25C70.6619 23.0286 70.7091 22.8203 70.8035 22.625C70.9011 22.4297 71.0395 22.2572 71.2185 22.1074C71.4008 21.9544 71.6222 21.8356 71.8826 21.751C72.1462 21.6631 72.4425 21.6191 72.7712 21.6191C73.2302 21.6191 73.6241 21.6924 73.9529 21.8389C74.2849 21.9854 74.5388 22.1872 74.7146 22.4443C74.8936 22.6982 74.9832 22.988 74.9832 23.3135H73.5769C73.5769 23.1768 73.5476 23.0547 73.489 22.9473C73.4337 22.8366 73.3458 22.7503 73.2253 22.6885C73.1082 22.6234 72.9552 22.5908 72.7664 22.5908C72.6101 22.5908 72.475 22.6185 72.3611 22.6738C72.2472 22.7259 72.1593 22.7975 72.0974 22.8887C72.0388 22.9766 72.0095 23.0742 72.0095 23.1816C72.0095 23.263 72.0258 23.3363 72.0583 23.4014C72.0942 23.4632 72.1511 23.5202 72.2292 23.5723C72.3074 23.6243 72.4083 23.6732 72.532 23.7188C72.6589 23.7611 72.8152 23.8001 73.0007 23.8359C73.3816 23.9141 73.7218 24.0166 74.0212 24.1436C74.3207 24.2673 74.5583 24.4365 74.7341 24.6514C74.9099 24.863 74.9978 25.1413 74.9978 25.4863C74.9978 25.7207 74.9457 25.9355 74.8416 26.1309C74.7374 26.3262 74.5876 26.4971 74.3923 26.6436C74.197 26.7868 73.9626 26.8991 73.6892 26.9805C73.419 27.0586 73.1147 27.0977 72.7761 27.0977C72.2846 27.0977 71.8679 27.0098 71.5261 26.834C71.1876 26.6582 70.9304 26.4352 70.7546 26.165C70.5821 25.8916 70.4958 25.6117 70.4958 25.3252H71.8289C71.8354 25.5173 71.8842 25.6719 71.9753 25.7891C72.0697 25.9062 72.1886 25.9909 72.3318 26.043C72.4783 26.0951 72.6361 26.1211 72.8054 26.1211C72.9877 26.1211 73.1391 26.0967 73.2595 26.0479C73.38 25.9958 73.4711 25.9274 73.533 25.8428C73.5981 25.7549 73.6306 25.654 73.6306 25.54ZM78.7673 25.54C78.7673 25.4391 78.738 25.348 78.6794 25.2666C78.6208 25.1852 78.5118 25.1104 78.3523 25.042C78.196 24.9704 77.9698 24.9053 77.6736 24.8467C77.4067 24.7881 77.1576 24.7148 76.9265 24.627C76.6986 24.5358 76.5001 24.4268 76.3308 24.2998C76.1648 24.1729 76.0346 24.0231 75.9402 23.8506C75.8458 23.6748 75.7986 23.4746 75.7986 23.25C75.7986 23.0286 75.8458 22.8203 75.9402 22.625C76.0378 22.4297 76.1762 22.2572 76.3552 22.1074C76.5375 21.9544 76.7589 21.8356 77.0193 21.751C77.283 21.6631 77.5792 21.6191 77.908 21.6191C78.3669 21.6191 78.7608 21.6924 79.0896 21.8389C79.4216 21.9854 79.6755 22.1872 79.8513 22.4443C80.0304 22.6982 80.1199 22.988 80.1199 23.3135H78.7136C78.7136 23.1768 78.6843 23.0547 78.6257 22.9473C78.5704 22.8366 78.4825 22.7503 78.3621 22.6885C78.2449 22.6234 78.0919 22.5908 77.9031 22.5908C77.7468 22.5908 77.6117 22.6185 77.4978 22.6738C77.3839 22.7259 77.296 22.7975 77.2341 22.8887C77.1755 22.9766 77.1462 23.0742 77.1462 23.1816C77.1462 23.263 77.1625 23.3363 77.1951 23.4014C77.2309 23.4632 77.2878 23.5202 77.366 23.5723C77.4441 23.6243 77.545 23.6732 77.6687 23.7188C77.7957 23.7611 77.9519 23.8001 78.1375 23.8359C78.5183 23.9141 78.8585 24.0166 79.158 24.1436C79.4574 24.2673 79.6951 24.4365 79.8708 24.6514C80.0466 24.863 80.1345 25.1413 80.1345 25.4863C80.1345 25.7207 80.0824 25.9355 79.9783 26.1309C79.8741 26.3262 79.7244 26.4971 79.5291 26.6436C79.3337 26.7868 79.0994 26.8991 78.8259 26.9805C78.5557 27.0586 78.2514 27.0977 77.9128 27.0977C77.4213 27.0977 77.0046 27.0098 76.6628 26.834C76.3243 26.6582 76.0671 26.4352 75.8914 26.165C75.7188 25.8916 75.6326 25.6117 75.6326 25.3252H76.9656C76.9721 25.5173 77.0209 25.6719 77.1121 25.7891C77.2065 25.9062 77.3253 25.9909 77.4685 26.043C77.615 26.0951 77.7729 26.1211 77.9421 26.1211C78.1244 26.1211 78.2758 26.0967 78.3962 26.0479C78.5167 25.9958 78.6078 25.9274 78.6697 25.8428C78.7348 25.7549 78.7673 25.654 78.7673 25.54ZM83.4792 27.0977C83.0691 27.0977 82.7013 27.0326 82.3757 26.9023C82.0502 26.7689 81.7735 26.585 81.5457 26.3506C81.321 26.1162 81.1485 25.8444 81.0281 25.5352C80.9076 25.2227 80.8474 24.8906 80.8474 24.5391V24.3438C80.8474 23.9434 80.9044 23.5771 81.0183 23.2451C81.1322 22.9131 81.295 22.625 81.5066 22.3809C81.7214 22.1367 81.9819 21.9495 82.2878 21.8193C82.5938 21.6859 82.9389 21.6191 83.323 21.6191C83.6973 21.6191 84.0294 21.681 84.3191 21.8047C84.6088 21.9284 84.8513 22.1042 85.0466 22.332C85.2452 22.5599 85.3949 22.8333 85.4958 23.1523C85.5968 23.4681 85.6472 23.8197 85.6472 24.207V24.793H81.448V23.8555H84.2654V23.748C84.2654 23.5527 84.2296 23.3786 84.158 23.2256C84.0896 23.0693 83.9854 22.9456 83.8455 22.8545C83.7055 22.7633 83.5264 22.7178 83.3083 22.7178C83.1228 22.7178 82.9633 22.7585 82.8298 22.8398C82.6964 22.9212 82.5873 23.0352 82.5027 23.1816C82.4213 23.3281 82.3595 23.5007 82.3171 23.6992C82.2781 23.8945 82.2585 24.1094 82.2585 24.3438V24.5391C82.2585 24.7507 82.2878 24.946 82.3464 25.125C82.4083 25.304 82.4945 25.4587 82.6052 25.5889C82.7192 25.7191 82.8559 25.82 83.0154 25.8916C83.1781 25.9632 83.3621 25.999 83.5671 25.999C83.821 25.999 84.057 25.9502 84.2751 25.8525C84.4965 25.7516 84.6869 25.6003 84.8464 25.3984L85.53 26.1406C85.4194 26.3001 85.268 26.4531 85.0759 26.5996C84.8871 26.7461 84.6593 26.8665 84.3923 26.9609C84.1254 27.0521 83.821 27.0977 83.4792 27.0977ZM87.8542 22.8105V27H86.4431V21.7168H87.7664L87.8542 22.8105ZM87.6589 24.1729H87.2683C87.2683 23.805 87.3123 23.4665 87.4001 23.1572C87.4913 22.8447 87.6231 22.5745 87.7957 22.3467C87.9714 22.1156 88.1879 21.9365 88.4451 21.8096C88.7022 21.6826 89.0001 21.6191 89.3386 21.6191C89.573 21.6191 89.7878 21.6549 89.9832 21.7266C90.1785 21.7949 90.3461 21.904 90.4861 22.0537C90.6293 22.2002 90.74 22.3923 90.8181 22.6299C90.8962 22.8643 90.9353 23.1458 90.9353 23.4746V27H89.5291V23.6309C89.5291 23.39 89.4965 23.2044 89.4314 23.0742C89.3663 22.944 89.2735 22.8529 89.1531 22.8008C89.0359 22.7487 88.8943 22.7227 88.7283 22.7227C88.546 22.7227 88.3865 22.7601 88.2498 22.835C88.1163 22.9098 88.0056 23.014 87.9177 23.1475C87.8298 23.2777 87.7647 23.4307 87.7224 23.6064C87.6801 23.7822 87.6589 23.971 87.6589 24.1729ZM90.8035 24.0117L90.3005 24.0752C90.3005 23.7301 90.3429 23.4095 90.4275 23.1133C90.5154 22.8171 90.644 22.5566 90.8132 22.332C90.9858 22.1074 91.199 21.9333 91.4529 21.8096C91.7068 21.6826 91.9998 21.6191 92.3318 21.6191C92.5857 21.6191 92.8168 21.6566 93.0251 21.7314C93.2335 21.8031 93.4109 21.9186 93.5574 22.0781C93.7071 22.2344 93.821 22.4395 93.8992 22.6934C93.9806 22.9473 94.0212 23.2581 94.0212 23.626V27H92.6101V23.626C92.6101 23.3818 92.5776 23.1963 92.5125 23.0693C92.4506 22.9391 92.3595 22.8496 92.239 22.8008C92.1218 22.7487 91.9819 22.7227 91.8191 22.7227C91.6498 22.7227 91.5017 22.7568 91.3748 22.8252C91.2478 22.8903 91.142 22.9814 91.0574 23.0986C90.9727 23.2158 90.9093 23.3525 90.8669 23.5088C90.8246 23.6618 90.8035 23.8294 90.8035 24.0117ZM97.5417 27.0977C97.1316 27.0977 96.7638 27.0326 96.4382 26.9023C96.1127 26.7689 95.836 26.585 95.6082 26.3506C95.3835 26.1162 95.211 25.8444 95.0906 25.5352C94.9701 25.2227 94.9099 24.8906 94.9099 24.5391V24.3438C94.9099 23.9434 94.9669 23.5771 95.0808 23.2451C95.1947 22.9131 95.3575 22.625 95.5691 22.3809C95.7839 22.1367 96.0444 21.9495 96.3503 21.8193C96.6563 21.6859 97.0014 21.6191 97.3855 21.6191C97.7598 21.6191 98.0919 21.681 98.3816 21.8047C98.6713 21.9284 98.9138 22.1042 99.1091 22.332C99.3077 22.5599 99.4574 22.8333 99.5583 23.1523C99.6593 23.4681 99.7097 23.8197 99.7097 24.207V24.793H95.5105V23.8555H98.3279V23.748C98.3279 23.5527 98.2921 23.3786 98.2205 23.2256C98.1521 23.0693 98.0479 22.9456 97.908 22.8545C97.768 22.7633 97.5889 22.7178 97.3708 22.7178C97.1853 22.7178 97.0258 22.7585 96.8923 22.8398C96.7589 22.9212 96.6498 23.0352 96.5652 23.1816C96.4838 23.3281 96.422 23.5007 96.3796 23.6992C96.3406 23.8945 96.321 24.1094 96.321 24.3438V24.5391C96.321 24.7507 96.3503 24.946 96.4089 25.125C96.4708 25.304 96.557 25.4587 96.6677 25.5889C96.7817 25.7191 96.9184 25.82 97.0779 25.8916C97.2406 25.9632 97.4246 25.999 97.6296 25.999C97.8835 25.999 98.1195 25.9502 98.3376 25.8525C98.559 25.7516 98.7494 25.6003 98.9089 25.3984L99.5925 26.1406C99.4819 26.3001 99.3305 26.4531 99.1384 26.5996C98.9496 26.7461 98.7218 26.8665 98.4548 26.9609C98.1879 27.0521 97.8835 27.0977 97.5417 27.0977ZM101.887 22.8447V27H100.481V21.7168H101.8L101.887 22.8447ZM101.682 24.1729H101.302C101.302 23.7822 101.352 23.4307 101.453 23.1182C101.554 22.8024 101.695 22.5339 101.878 22.3125C102.06 22.0879 102.276 21.917 102.527 21.7998C102.781 21.6794 103.064 21.6191 103.377 21.6191C103.624 21.6191 103.85 21.6549 104.055 21.7266C104.26 21.7982 104.436 21.9121 104.583 22.0684C104.733 22.2246 104.846 22.4313 104.925 22.6885C105.006 22.9456 105.047 23.2598 105.047 23.6309V27H103.631V23.626C103.631 23.3916 103.598 23.2093 103.533 23.0791C103.468 22.9489 103.372 22.8577 103.245 22.8057C103.121 22.7503 102.968 22.7227 102.786 22.7227C102.597 22.7227 102.433 22.7601 102.293 22.835C102.156 22.9098 102.042 23.014 101.951 23.1475C101.863 23.2777 101.796 23.4307 101.751 23.6064C101.705 23.7822 101.682 23.971 101.682 24.1729ZM108.704 21.7168V22.7129H105.628V21.7168H108.704ZM106.389 20.4131H107.796V25.4082C107.796 25.5612 107.815 25.6784 107.854 25.7598C107.897 25.8411 107.958 25.8981 108.04 25.9307C108.121 25.96 108.224 25.9746 108.347 25.9746C108.435 25.9746 108.513 25.9714 108.582 25.9648C108.653 25.9551 108.714 25.9453 108.762 25.9355L108.767 26.9707C108.647 27.0098 108.517 27.0407 108.377 27.0635C108.237 27.0863 108.082 27.0977 107.913 27.0977C107.604 27.0977 107.333 27.0472 107.102 26.9463C106.874 26.8421 106.699 26.6761 106.575 26.4482C106.451 26.2204 106.389 25.9209 106.389 25.5498V20.4131ZM112.361 25.54C112.361 25.4391 112.332 25.348 112.273 25.2666C112.215 25.1852 112.106 25.1104 111.946 25.042C111.79 24.9704 111.564 24.9053 111.267 24.8467C111 24.7881 110.751 24.7148 110.52 24.627C110.292 24.5358 110.094 24.4268 109.925 24.2998C109.759 24.1729 109.628 24.0231 109.534 23.8506C109.44 23.6748 109.392 23.4746 109.392 23.25C109.392 23.0286 109.44 22.8203 109.534 22.625C109.632 22.4297 109.77 22.2572 109.949 22.1074C110.131 21.9544 110.353 21.8356 110.613 21.751C110.877 21.6631 111.173 21.6191 111.502 21.6191C111.961 21.6191 112.355 21.6924 112.683 21.8389C113.015 21.9854 113.269 22.1872 113.445 22.4443C113.624 22.6982 113.714 22.988 113.714 23.3135H112.307C112.307 23.1768 112.278 23.0547 112.219 22.9473C112.164 22.8366 112.076 22.7503 111.956 22.6885C111.839 22.6234 111.686 22.5908 111.497 22.5908C111.341 22.5908 111.205 22.6185 111.092 22.6738C110.978 22.7259 110.89 22.7975 110.828 22.8887C110.769 22.9766 110.74 23.0742 110.74 23.1816C110.74 23.263 110.756 23.3363 110.789 23.4014C110.825 23.4632 110.882 23.5202 110.96 23.5723C111.038 23.6243 111.139 23.6732 111.262 23.7188C111.389 23.7611 111.546 23.8001 111.731 23.8359C112.112 23.9141 112.452 24.0166 112.752 24.1436C113.051 24.2673 113.289 24.4365 113.465 24.6514C113.64 24.863 113.728 25.1413 113.728 25.4863C113.728 25.7207 113.676 25.9355 113.572 26.1309C113.468 26.3262 113.318 26.4971 113.123 26.6436C112.927 26.7868 112.693 26.8991 112.42 26.9805C112.149 27.0586 111.845 27.0977 111.507 27.0977C111.015 27.0977 110.598 27.0098 110.257 26.834C109.918 26.6582 109.661 26.4352 109.485 26.165C109.313 25.8916 109.226 25.6117 109.226 25.3252H110.559C110.566 25.5173 110.615 25.6719 110.706 25.7891C110.8 25.9062 110.919 25.9909 111.062 26.043C111.209 26.0951 111.367 26.1211 111.536 26.1211C111.718 26.1211 111.87 26.0967 111.99 26.0479C112.11 25.9958 112.202 25.9274 112.263 25.8428C112.329 25.7549 112.361 25.654 112.361 25.54ZM48.8357 37.8477V31.5H50.2517V39H48.9773L48.8357 37.8477ZM45.4958 36.4219V36.3193C45.4958 35.9157 45.5414 35.5495 45.6326 35.2207C45.7237 34.8887 45.8572 34.6038 46.033 34.3662C46.2087 34.1286 46.4252 33.9447 46.6824 33.8145C46.9395 33.6842 47.2325 33.6191 47.5613 33.6191C47.8705 33.6191 48.1407 33.6842 48.3718 33.8145C48.6062 33.9447 48.8048 34.1302 48.9675 34.3711C49.1335 34.6087 49.267 34.8903 49.3679 35.2158C49.4688 35.5381 49.5421 35.8913 49.5876 36.2754V36.5C49.5421 36.8678 49.4688 37.2096 49.3679 37.5254C49.267 37.8411 49.1335 38.1178 48.9675 38.3555C48.8048 38.5898 48.6062 38.7721 48.3718 38.9023C48.1375 39.0326 47.864 39.0977 47.5515 39.0977C47.2227 39.0977 46.9298 39.0309 46.6726 38.8975C46.4187 38.764 46.2039 38.5768 46.0281 38.3359C45.8556 38.0951 45.7237 37.8118 45.6326 37.4863C45.5414 37.1608 45.4958 36.806 45.4958 36.4219ZM46.9021 36.3193V36.4219C46.9021 36.64 46.9184 36.8434 46.9509 37.0322C46.9867 37.221 47.0437 37.3887 47.1218 37.5352C47.2032 37.6784 47.3074 37.7907 47.4343 37.8721C47.5645 37.9502 47.7224 37.9893 47.908 37.9893C48.1488 37.9893 48.3474 37.9355 48.5037 37.8281C48.6599 37.7174 48.7787 37.5661 48.8601 37.374C48.9447 37.182 48.9936 36.9606 49.0066 36.71V36.0703C48.9968 35.8652 48.9675 35.6813 48.9187 35.5186C48.8731 35.3525 48.8048 35.2109 48.7136 35.0938C48.6257 34.9766 48.5151 34.8854 48.3816 34.8203C48.2514 34.7552 48.0968 34.7227 47.9177 34.7227C47.7354 34.7227 47.5792 34.765 47.449 34.8496C47.3188 34.931 47.213 35.0433 47.1316 35.1865C47.0535 35.3298 46.9949 35.499 46.9558 35.6943C46.92 35.8864 46.9021 36.0947 46.9021 36.3193ZM52.1414 31.5V32.208L51.9998 34.1562H51.1111L51.116 32.2812V31.5H52.1414ZM55.1003 39.0977C54.6902 39.0977 54.3223 39.0326 53.9968 38.9023C53.6713 38.7689 53.3946 38.585 53.1667 38.3506C52.9421 38.1162 52.7696 37.8444 52.6492 37.5352C52.5287 37.2227 52.4685 36.8906 52.4685 36.5391V36.3438C52.4685 35.9434 52.5255 35.5771 52.6394 35.2451C52.7533 34.9131 52.9161 34.625 53.1277 34.3809C53.3425 34.1367 53.6029 33.9495 53.9089 33.8193C54.2149 33.6859 54.56 33.6191 54.9441 33.6191C55.3184 33.6191 55.6505 33.681 55.9402 33.8047C56.2299 33.9284 56.4724 34.1042 56.6677 34.332C56.8663 34.5599 57.016 34.8333 57.1169 35.1523C57.2179 35.4681 57.2683 35.8197 57.2683 36.207V36.793H53.0691V35.8555H55.8865V35.748C55.8865 35.5527 55.8507 35.3786 55.7791 35.2256C55.7107 35.0693 55.6065 34.9456 55.4666 34.8545C55.3266 34.7633 55.1475 34.7178 54.9294 34.7178C54.7439 34.7178 54.5844 34.7585 54.4509 34.8398C54.3175 34.9212 54.2084 35.0352 54.1238 35.1816C54.0424 35.3281 53.9806 35.5007 53.9382 35.6992C53.8992 35.8945 53.8796 36.1094 53.8796 36.3438V36.5391C53.8796 36.7507 53.9089 36.946 53.9675 37.125C54.0294 37.304 54.1156 37.4587 54.2263 37.5889C54.3403 37.7191 54.477 37.82 54.6365 37.8916C54.7992 37.9632 54.9832 37.999 55.1882 37.999C55.4421 37.999 55.6781 37.9502 55.8962 37.8525C56.1176 37.7516 56.308 37.6003 56.4675 37.3984L57.1511 38.1406C57.0404 38.3001 56.8891 38.4531 56.697 38.5996C56.5082 38.7461 56.2804 38.8665 56.0134 38.9609C55.7465 39.0521 55.4421 39.0977 55.1003 39.0977ZM59.446 34.8447V39H58.0398V33.7168H59.3582L59.446 34.8447ZM59.241 36.1729H58.8601C58.8601 35.7822 58.9106 35.4307 59.0115 35.1182C59.1124 34.8024 59.254 34.5339 59.4363 34.3125C59.6186 34.0879 59.835 33.917 60.0857 33.7998C60.3396 33.6794 60.6228 33.6191 60.9353 33.6191C61.1827 33.6191 61.4089 33.6549 61.614 33.7266C61.8191 33.7982 61.9949 33.9121 62.1414 34.0684C62.2911 34.2246 62.405 34.4313 62.4832 34.6885C62.5645 34.9456 62.6052 35.2598 62.6052 35.6309V39H61.1892V35.626C61.1892 35.3916 61.1567 35.2093 61.0916 35.0791C61.0264 34.9489 60.9304 34.8577 60.8035 34.8057C60.6798 34.7503 60.5268 34.7227 60.3445 34.7227C60.1557 34.7227 59.9913 34.7601 59.8513 34.835C59.7146 34.9098 59.6007 35.014 59.5095 35.1475C59.4216 35.2777 59.3549 35.4307 59.3093 35.6064C59.2638 35.7822 59.241 35.971 59.241 36.1729ZM66.531 37.54C66.531 37.4391 66.5017 37.348 66.4431 37.2666C66.3845 37.1852 66.2755 37.1104 66.116 37.042C65.9597 36.9704 65.7335 36.9053 65.4373 36.8467C65.1703 36.7881 64.9213 36.7148 64.6902 36.627C64.4623 36.5358 64.2638 36.4268 64.0945 36.2998C63.9285 36.1729 63.7983 36.0231 63.7039 35.8506C63.6095 35.6748 63.5623 35.4746 63.5623 35.25C63.5623 35.0286 63.6095 34.8203 63.7039 34.625C63.8015 34.4297 63.9399 34.2572 64.1189 34.1074C64.3012 33.9544 64.5225 33.8356 64.783 33.751C65.0466 33.6631 65.3429 33.6191 65.6716 33.6191C66.1306 33.6191 66.5245 33.6924 66.8533 33.8389C67.1853 33.9854 67.4392 34.1872 67.615 34.4443C67.794 34.6982 67.8835 34.988 67.8835 35.3135H66.4773C66.4773 35.1768 66.448 35.0547 66.3894 34.9473C66.3341 34.8366 66.2462 34.7503 66.1257 34.6885C66.0085 34.6234 65.8556 34.5908 65.6667 34.5908C65.5105 34.5908 65.3754 34.6185 65.2615 34.6738C65.1475 34.7259 65.0597 34.7975 64.9978 34.8887C64.9392 34.9766 64.9099 35.0742 64.9099 35.1816C64.9099 35.263 64.9262 35.3363 64.9587 35.4014C64.9945 35.4632 65.0515 35.5202 65.1296 35.5723C65.2078 35.6243 65.3087 35.6732 65.4324 35.7188C65.5593 35.7611 65.7156 35.8001 65.9011 35.8359C66.282 35.9141 66.6222 36.0166 66.9216 36.1436C67.2211 36.2673 67.4587 36.4365 67.6345 36.6514C67.8103 36.863 67.8982 37.1413 67.8982 37.4863C67.8982 37.7207 67.8461 37.9355 67.7419 38.1309C67.6378 38.3262 67.488 38.4971 67.2927 38.6436C67.0974 38.7868 66.863 38.8991 66.5896 38.9805C66.3194 39.0586 66.0151 39.0977 65.6765 39.0977C65.185 39.0977 64.7683 39.0098 64.4265 38.834C64.088 38.6582 63.8308 38.4352 63.655 38.165C63.4825 37.8916 63.3962 37.6117 63.3962 37.3252H64.7292C64.7358 37.5173 64.7846 37.6719 64.8757 37.7891C64.9701 37.9062 65.0889 37.9909 65.2322 38.043C65.3787 38.0951 65.5365 38.1211 65.7058 38.1211C65.8881 38.1211 66.0395 38.0967 66.1599 38.0479C66.2804 37.9958 66.3715 37.9274 66.4333 37.8428C66.4985 37.7549 66.531 37.654 66.531 37.54ZM71.2429 39.0977C70.8328 39.0977 70.4649 39.0326 70.1394 38.9023C69.8139 38.7689 69.5372 38.585 69.3093 38.3506C69.0847 38.1162 68.9122 37.8444 68.7917 37.5352C68.6713 37.2227 68.6111 36.8906 68.6111 36.5391V36.3438C68.6111 35.9434 68.6681 35.5771 68.782 35.2451C68.8959 34.9131 69.0587 34.625 69.2703 34.3809C69.4851 34.1367 69.7455 33.9495 70.0515 33.8193C70.3575 33.6859 70.7026 33.6191 71.0867 33.6191C71.461 33.6191 71.7931 33.681 72.0828 33.8047C72.3725 33.9284 72.615 34.1042 72.8103 34.332C73.0089 34.5599 73.1586 34.8333 73.2595 35.1523C73.3604 35.4681 73.4109 35.8197 73.4109 36.207V36.793H69.2117V35.8555H72.0291V35.748C72.0291 35.5527 71.9932 35.3786 71.9216 35.2256C71.8533 35.0693 71.7491 34.9456 71.6091 34.8545C71.4692 34.7633 71.2901 34.7178 71.072 34.7178C70.8865 34.7178 70.727 34.7585 70.5935 34.8398C70.46 34.9212 70.351 35.0352 70.2664 35.1816C70.185 35.3281 70.1231 35.5007 70.0808 35.6992C70.0417 35.8945 70.0222 36.1094 70.0222 36.3438V36.5391C70.0222 36.7507 70.0515 36.946 70.1101 37.125C70.172 37.304 70.2582 37.4587 70.3689 37.5889C70.4828 37.7191 70.6195 37.82 70.7791 37.8916C70.9418 37.9632 71.1257 37.999 71.3308 37.999C71.5847 37.999 71.8207 37.9502 72.0388 37.8525C72.2602 37.7516 72.4506 37.6003 72.6101 37.3984L73.2937 38.1406C73.183 38.3001 73.0317 38.4531 72.8396 38.5996C72.6508 38.7461 72.4229 38.8665 72.156 38.9609C71.8891 39.0521 71.5847 39.0977 71.2429 39.0977ZM75.696 33.7168V39H74.2849V33.7168H75.696ZM74.197 32.3398C74.197 32.1348 74.2686 31.9655 74.4119 31.832C74.5551 31.6986 74.7472 31.6318 74.988 31.6318C75.2257 31.6318 75.4161 31.6986 75.5593 31.832C75.7058 31.9655 75.7791 32.1348 75.7791 32.3398C75.7791 32.5449 75.7058 32.7142 75.5593 32.8477C75.4161 32.9811 75.2257 33.0479 74.988 33.0479C74.7472 33.0479 74.5551 32.9811 74.4119 32.8477C74.2686 32.7142 74.197 32.5449 74.197 32.3398ZM80.2029 33.7168H81.4773V38.8242C81.4773 39.306 81.3699 39.7145 81.155 40.0498C80.9434 40.3883 80.6472 40.6439 80.2664 40.8164C79.8855 40.9922 79.4428 41.0801 78.9382 41.0801C78.7169 41.0801 78.4825 41.0508 78.2351 40.9922C77.991 40.9336 77.7566 40.8424 77.532 40.7188C77.3106 40.5951 77.1251 40.4388 76.9753 40.25L77.5955 39.4199C77.7582 39.6087 77.947 39.7552 78.1619 39.8594C78.3767 39.9668 78.6143 40.0205 78.8748 40.0205C79.1287 40.0205 79.3435 39.9733 79.5193 39.8789C79.6951 39.7878 79.8302 39.6527 79.9246 39.4736C80.019 39.2979 80.0662 39.0846 80.0662 38.834V34.9375L80.2029 33.7168ZM76.6482 36.4219V36.3193C76.6482 35.9157 76.697 35.5495 76.7947 35.2207C76.8956 34.8887 77.0372 34.6038 77.2195 34.3662C77.405 34.1286 77.6296 33.9447 77.8933 33.8145C78.157 33.6842 78.4548 33.6191 78.7869 33.6191C79.1384 33.6191 79.433 33.6842 79.6707 33.8145C79.9083 33.9447 80.1036 34.1302 80.2566 34.3711C80.4096 34.6087 80.5284 34.8903 80.613 35.2158C80.7009 35.5381 80.7693 35.8913 80.8181 36.2754V36.5C80.7693 36.8678 80.696 37.2096 80.5984 37.5254C80.5007 37.8411 80.3722 38.1178 80.2126 38.3555C80.0531 38.5898 79.8546 38.7721 79.6169 38.9023C79.3826 39.0326 79.1026 39.0977 78.7771 39.0977C78.4516 39.0977 78.157 39.0309 77.8933 38.8975C77.6329 38.764 77.4099 38.5768 77.2244 38.3359C77.0388 38.0951 76.8956 37.8118 76.7947 37.4863C76.697 37.1608 76.6482 36.806 76.6482 36.4219ZM78.0544 36.3193V36.4219C78.0544 36.64 78.0756 36.8434 78.1179 37.0322C78.1602 37.221 78.2253 37.3887 78.3132 37.5352C78.4044 37.6784 78.5167 37.7907 78.6501 37.8721C78.7869 37.9502 78.948 37.9893 79.1335 37.9893C79.3907 37.9893 79.6007 37.9355 79.7634 37.8281C79.9262 37.7174 80.0483 37.5661 80.1296 37.374C80.211 37.182 80.2582 36.9606 80.2712 36.71V36.0703C80.2647 35.8652 80.2371 35.6813 80.1882 35.5186C80.1394 35.3525 80.071 35.2109 79.9832 35.0938C79.8953 34.9766 79.7813 34.8854 79.6414 34.8203C79.5014 34.7552 79.3354 34.7227 79.1433 34.7227C78.9578 34.7227 78.7966 34.765 78.6599 34.8496C78.5264 34.931 78.4141 35.0433 78.323 35.1865C78.2351 35.3298 78.1684 35.499 78.1228 35.6943C78.0772 35.8864 78.0544 36.0947 78.0544 36.3193ZM83.948 34.8447V39H82.5417V33.7168H83.8601L83.948 34.8447ZM83.7429 36.1729H83.3621C83.3621 35.7822 83.4125 35.4307 83.5134 35.1182C83.6143 34.8024 83.7559 34.5339 83.9382 34.3125C84.1205 34.0879 84.337 33.917 84.5876 33.7998C84.8416 33.6794 85.1248 33.6191 85.4373 33.6191C85.6847 33.6191 85.9109 33.6549 86.116 33.7266C86.321 33.7982 86.4968 33.9121 86.6433 34.0684C86.7931 34.2246 86.907 34.4313 86.9851 34.6885C87.0665 34.9456 87.1072 35.2598 87.1072 35.6309V39H85.6912V35.626C85.6912 35.3916 85.6586 35.2093 85.5935 35.0791C85.5284 34.9489 85.4324 34.8577 85.3054 34.8057C85.1817 34.7503 85.0287 34.7227 84.8464 34.7227C84.6576 34.7227 84.4932 34.7601 84.3533 34.835C84.2166 34.9098 84.1026 35.014 84.0115 35.1475C83.9236 35.2777 83.8569 35.4307 83.8113 35.6064C83.7657 35.7822 83.7429 35.971 83.7429 36.1729ZM90.6082 39.0977C90.198 39.0977 89.8302 39.0326 89.5046 38.9023C89.1791 38.7689 88.9024 38.585 88.6746 38.3506C88.45 38.1162 88.2774 37.8444 88.157 37.5352C88.0365 37.2227 87.9763 36.8906 87.9763 36.5391V36.3438C87.9763 35.9434 88.0333 35.5771 88.1472 35.2451C88.2611 34.9131 88.4239 34.625 88.6355 34.3809C88.8503 34.1367 89.1108 33.9495 89.4167 33.8193C89.7227 33.6859 90.0678 33.6191 90.4519 33.6191C90.8263 33.6191 91.1583 33.681 91.448 33.8047C91.7377 33.9284 91.9802 34.1042 92.1755 34.332C92.3741 34.5599 92.5238 34.8333 92.6248 35.1523C92.7257 35.4681 92.7761 35.8197 92.7761 36.207V36.793H88.5769V35.8555H91.3943V35.748C91.3943 35.5527 91.3585 35.3786 91.2869 35.2256C91.2185 35.0693 91.1143 34.9456 90.9744 34.8545C90.8344 34.7633 90.6554 34.7178 90.4373 34.7178C90.2517 34.7178 90.0922 34.7585 89.9587 34.8398C89.8253 34.9212 89.7162 35.0352 89.6316 35.1816C89.5502 35.3281 89.4884 35.5007 89.446 35.6992C89.407 35.8945 89.3875 36.1094 89.3875 36.3438V36.5391C89.3875 36.7507 89.4167 36.946 89.4753 37.125C89.5372 37.304 89.6235 37.4587 89.7341 37.5889C89.8481 37.7191 89.9848 37.82 90.1443 37.8916C90.307 37.9632 90.491 37.999 90.696 37.999C90.95 37.999 91.186 37.9502 91.4041 37.8525C91.6254 37.7516 91.8158 37.6003 91.9753 37.3984L92.6589 38.1406C92.5483 38.3001 92.3969 38.4531 92.2048 38.5996C92.016 38.7461 91.7882 38.8665 91.5212 38.9609C91.2543 39.0521 90.95 39.0977 90.6082 39.0977ZM94.9832 34.8105V39H93.572V33.7168H94.8953L94.9832 34.8105ZM94.7878 36.1729H94.3972C94.3972 35.805 94.4412 35.4665 94.5291 35.1572C94.6202 34.8447 94.752 34.5745 94.9246 34.3467C95.1003 34.1156 95.3168 33.9365 95.574 33.8096C95.8311 33.6826 96.129 33.6191 96.4675 33.6191C96.7019 33.6191 96.9167 33.6549 97.1121 33.7266C97.3074 33.7949 97.475 33.904 97.615 34.0537C97.7582 34.2002 97.8689 34.3923 97.947 34.6299C98.0251 34.8643 98.0642 35.1458 98.0642 35.4746V39H96.658V35.6309C96.658 35.39 96.6254 35.2044 96.5603 35.0742C96.4952 34.944 96.4024 34.8529 96.282 34.8008C96.1648 34.7487 96.0232 34.7227 95.8572 34.7227C95.6749 34.7227 95.5154 34.7601 95.3787 34.835C95.2452 34.9098 95.1345 35.014 95.0466 35.1475C94.9587 35.2777 94.8936 35.4307 94.8513 35.6064C94.809 35.7822 94.7878 35.971 94.7878 36.1729ZM97.9324 36.0117L97.4294 36.0752C97.4294 35.7301 97.4718 35.4095 97.5564 35.1133C97.6443 34.8171 97.7729 34.5566 97.9421 34.332C98.1147 34.1074 98.3279 33.9333 98.5818 33.8096C98.8357 33.6826 99.1287 33.6191 99.4607 33.6191C99.7146 33.6191 99.9457 33.6566 100.154 33.7314C100.362 33.8031 100.54 33.9186 100.686 34.0781C100.836 34.2344 100.95 34.4395 101.028 34.6934C101.109 34.9473 101.15 35.2581 101.15 35.626V39H99.739V35.626C99.739 35.3818 99.7065 35.1963 99.6414 35.0693C99.5795 34.9391 99.4884 34.8496 99.3679 34.8008C99.2507 34.7487 99.1108 34.7227 98.948 34.7227C98.7787 34.7227 98.6306 34.7568 98.5037 34.8252C98.3767 34.8903 98.2709 34.9814 98.1863 35.0986C98.1016 35.2158 98.0382 35.3525 97.9958 35.5088C97.9535 35.6618 97.9324 35.8294 97.9324 36.0117ZM104.671 39.0977C104.26 39.0977 103.893 39.0326 103.567 38.9023C103.242 38.7689 102.965 38.585 102.737 38.3506C102.512 38.1162 102.34 37.8444 102.219 37.5352C102.099 37.2227 102.039 36.8906 102.039 36.5391V36.3438C102.039 35.9434 102.096 35.5771 102.21 35.2451C102.324 34.9131 102.486 34.625 102.698 34.3809C102.913 34.1367 103.173 33.9495 103.479 33.8193C103.785 33.6859 104.13 33.6191 104.514 33.6191C104.889 33.6191 105.221 33.681 105.51 33.8047C105.8 33.9284 106.043 34.1042 106.238 34.332C106.437 34.5599 106.586 34.8333 106.687 35.1523C106.788 35.4681 106.839 35.8197 106.839 36.207V36.793H102.639V35.8555H105.457V35.748C105.457 35.5527 105.421 35.3786 105.349 35.2256C105.281 35.0693 105.177 34.9456 105.037 34.8545C104.897 34.7633 104.718 34.7178 104.5 34.7178C104.314 34.7178 104.155 34.7585 104.021 34.8398C103.888 34.9212 103.779 35.0352 103.694 35.1816C103.613 35.3281 103.551 35.5007 103.509 35.6992C103.469 35.8945 103.45 36.1094 103.45 36.3438V36.5391C103.45 36.7507 103.479 36.946 103.538 37.125C103.6 37.304 103.686 37.4587 103.797 37.5889C103.911 37.7191 104.047 37.82 104.207 37.8916C104.37 37.9632 104.553 37.999 104.759 37.999C105.012 37.999 105.248 37.9502 105.467 37.8525C105.688 37.7516 105.878 37.6003 106.038 37.3984L106.721 38.1406C106.611 38.3001 106.459 38.4531 106.267 38.5996C106.079 38.7461 105.851 38.8665 105.584 38.9609C105.317 39.0521 105.012 39.0977 104.671 39.0977ZM109.016 34.8447V39H107.61V33.7168H108.928L109.016 34.8447ZM108.811 36.1729H108.43C108.43 35.7822 108.481 35.4307 108.582 35.1182C108.683 34.8024 108.824 34.5339 109.007 34.3125C109.189 34.0879 109.405 33.917 109.656 33.7998C109.91 33.6794 110.193 33.6191 110.506 33.6191C110.753 33.6191 110.979 33.6549 111.184 33.7266C111.389 33.7982 111.565 33.9121 111.712 34.0684C111.861 34.2246 111.975 34.4313 112.053 34.6885C112.135 34.9456 112.176 35.2598 112.176 35.6309V39H110.76V35.626C110.76 35.3916 110.727 35.2093 110.662 35.0791C110.597 34.9489 110.501 34.8577 110.374 34.8057C110.25 34.7503 110.097 34.7227 109.915 34.7227C109.726 34.7227 109.562 34.7601 109.422 34.835C109.285 34.9098 109.171 35.014 109.08 35.1475C108.992 35.2777 108.925 35.4307 108.88 35.6064C108.834 35.7822 108.811 35.971 108.811 36.1729ZM115.833 33.7168V34.7129H112.757V33.7168H115.833ZM113.518 32.4131H114.925V37.4082C114.925 37.5612 114.944 37.6784 114.983 37.7598C115.025 37.8411 115.087 37.8981 115.169 37.9307C115.25 37.96 115.353 37.9746 115.476 37.9746C115.564 37.9746 115.642 37.9714 115.711 37.9648C115.782 37.9551 115.843 37.9453 115.891 37.9355L115.896 38.9707C115.776 39.0098 115.646 39.0407 115.506 39.0635C115.366 39.0863 115.211 39.0977 115.042 39.0977C114.733 39.0977 114.462 39.0472 114.231 38.9463C114.003 38.8421 113.828 38.6761 113.704 38.4482C113.58 38.2204 113.518 37.9209 113.518 37.5498V32.4131ZM121.98 37.54C121.98 37.4391 121.951 37.348 121.892 37.2666C121.834 37.1852 121.725 37.1104 121.565 37.042C121.409 36.9704 121.183 36.9053 120.886 36.8467C120.62 36.7881 120.371 36.7148 120.139 36.627C119.912 36.5358 119.713 36.4268 119.544 36.2998C119.378 36.1729 119.247 36.0231 119.153 35.8506C119.059 35.6748 119.011 35.4746 119.011 35.25C119.011 35.0286 119.059 34.8203 119.153 34.625C119.251 34.4297 119.389 34.2572 119.568 34.1074C119.75 33.9544 119.972 33.8356 120.232 33.751C120.496 33.6631 120.792 33.6191 121.121 33.6191C121.58 33.6191 121.974 33.6924 122.302 33.8389C122.635 33.9854 122.888 34.1872 123.064 34.4443C123.243 34.6982 123.333 34.988 123.333 35.3135H121.927C121.927 35.1768 121.897 35.0547 121.839 34.9473C121.783 34.8366 121.695 34.7503 121.575 34.6885C121.458 34.6234 121.305 34.5908 121.116 34.5908C120.96 34.5908 120.825 34.6185 120.711 34.6738C120.597 34.7259 120.509 34.7975 120.447 34.8887C120.388 34.9766 120.359 35.0742 120.359 35.1816C120.359 35.263 120.375 35.3363 120.408 35.4014C120.444 35.4632 120.501 35.5202 120.579 35.5723C120.657 35.6243 120.758 35.6732 120.882 35.7188C121.009 35.7611 121.165 35.8001 121.35 35.8359C121.731 35.9141 122.071 36.0166 122.371 36.1436C122.67 36.2673 122.908 36.4365 123.084 36.6514C123.26 36.863 123.347 37.1413 123.347 37.4863C123.347 37.7207 123.295 37.9355 123.191 38.1309C123.087 38.3262 122.937 38.4971 122.742 38.6436C122.547 38.7868 122.312 38.8991 122.039 38.9805C121.769 39.0586 121.464 39.0977 121.126 39.0977C120.634 39.0977 120.218 39.0098 119.876 38.834C119.537 38.6582 119.28 38.4352 119.104 38.165C118.932 37.8916 118.845 37.6117 118.845 37.3252H120.178C120.185 37.5173 120.234 37.6719 120.325 37.7891C120.419 37.9062 120.538 37.9909 120.681 38.043C120.828 38.0951 120.986 38.1211 121.155 38.1211C121.337 38.1211 121.489 38.0967 121.609 38.0479C121.73 37.9958 121.821 37.9274 121.883 37.8428C121.948 37.7549 121.98 37.654 121.98 37.54ZM127.385 37.7354V33.7168H128.792V39H127.469L127.385 37.7354ZM127.542 36.6514L127.957 36.6416C127.957 36.9932 127.916 37.3203 127.835 37.623C127.753 37.9225 127.631 38.1829 127.469 38.4043C127.306 38.6224 127.101 38.7933 126.853 38.917C126.606 39.0374 126.315 39.0977 125.979 39.0977C125.722 39.0977 125.484 39.0618 125.266 38.9902C125.052 38.9154 124.866 38.7998 124.71 38.6436C124.557 38.484 124.436 38.2806 124.348 38.0332C124.264 37.7826 124.221 37.4814 124.221 37.1299V33.7168H125.628V37.1396C125.628 37.2959 125.646 37.4277 125.681 37.5352C125.72 37.6426 125.774 37.7305 125.843 37.7988C125.911 37.8672 125.991 37.916 126.082 37.9453C126.176 37.9746 126.28 37.9893 126.394 37.9893C126.684 37.9893 126.912 37.9307 127.078 37.8135C127.247 37.6963 127.366 37.5368 127.434 37.335C127.506 37.1299 127.542 36.902 127.542 36.6514ZM131.272 34.7324V41.0312H129.866V33.7168H131.17L131.272 34.7324ZM134.617 36.2998V36.4023C134.617 36.7865 134.571 37.1429 134.48 37.4717C134.392 37.8005 134.262 38.0869 134.09 38.3311C133.917 38.5719 133.702 38.7607 133.445 38.8975C133.191 39.0309 132.898 39.0977 132.566 39.0977C132.244 39.0977 131.964 39.0326 131.726 38.9023C131.489 38.7721 131.288 38.5898 131.126 38.3555C130.966 38.1178 130.838 37.8428 130.74 37.5303C130.642 37.2178 130.567 36.8825 130.515 36.5244V36.2559C130.567 35.8717 130.642 35.5202 130.74 35.2012C130.838 34.8789 130.966 34.6006 131.126 34.3662C131.288 34.1286 131.487 33.9447 131.721 33.8145C131.959 33.6842 132.237 33.6191 132.556 33.6191C132.892 33.6191 133.186 33.6826 133.44 33.8096C133.697 33.9365 133.912 34.1188 134.085 34.3564C134.26 34.5941 134.392 34.8773 134.48 35.2061C134.571 35.5348 134.617 35.8994 134.617 36.2998ZM133.206 36.4023V36.2998C133.206 36.0752 133.186 35.8685 133.147 35.6797C133.111 35.4876 133.053 35.32 132.971 35.1768C132.893 35.0335 132.789 34.9229 132.659 34.8447C132.532 34.7633 132.377 34.7227 132.195 34.7227C132.003 34.7227 131.839 34.7536 131.702 34.8154C131.568 34.8773 131.459 34.9668 131.375 35.084C131.29 35.2012 131.227 35.3411 131.184 35.5039C131.142 35.6667 131.116 35.8506 131.106 36.0557V36.7344C131.122 36.9753 131.168 37.1917 131.243 37.3838C131.318 37.5726 131.433 37.7223 131.59 37.833C131.746 37.9437 131.951 37.999 132.205 37.999C132.39 37.999 132.547 37.9583 132.674 37.877C132.801 37.7923 132.903 37.6768 132.981 37.5303C133.063 37.3838 133.12 37.2145 133.152 37.0225C133.188 36.8304 133.206 36.6237 133.206 36.4023ZM137.923 39.0977C137.512 39.0977 137.145 39.0326 136.819 38.9023C136.494 38.7689 136.217 38.585 135.989 38.3506C135.764 38.1162 135.592 37.8444 135.471 37.5352C135.351 37.2227 135.291 36.8906 135.291 36.5391V36.3438C135.291 35.9434 135.348 35.5771 135.462 35.2451C135.576 34.9131 135.738 34.625 135.95 34.3809C136.165 34.1367 136.425 33.9495 136.731 33.8193C137.037 33.6859 137.382 33.6191 137.766 33.6191C138.141 33.6191 138.473 33.681 138.762 33.8047C139.052 33.9284 139.295 34.1042 139.49 34.332C139.689 34.5599 139.838 34.8333 139.939 35.1523C140.04 35.4681 140.091 35.8197 140.091 36.207V36.793H135.891V35.8555H138.709V35.748C138.709 35.5527 138.673 35.3786 138.601 35.2256C138.533 35.0693 138.429 34.9456 138.289 34.8545C138.149 34.7633 137.97 34.7178 137.752 34.7178C137.566 34.7178 137.407 34.7585 137.273 34.8398C137.14 34.9212 137.031 35.0352 136.946 35.1816C136.865 35.3281 136.803 35.5007 136.76 35.6992C136.721 35.8945 136.702 36.1094 136.702 36.3438V36.5391C136.702 36.7507 136.731 36.946 136.79 37.125C136.852 37.304 136.938 37.4587 137.049 37.5889C137.163 37.7191 137.299 37.82 137.459 37.8916C137.622 37.9632 137.805 37.999 138.01 37.999C138.264 37.999 138.5 37.9502 138.719 37.8525C138.94 37.7516 139.13 37.6003 139.29 37.3984L139.973 38.1406C139.863 38.3001 139.711 38.4531 139.519 38.5996C139.33 38.7461 139.103 38.8665 138.836 38.9609C138.569 39.0521 138.264 39.0977 137.923 39.0977ZM136.931 32.999L137.888 31.4951H139.417L138.074 32.999H136.931ZM142.298 34.8691V39H140.891V33.7168H142.215L142.298 34.8691ZM143.889 33.6826L143.865 34.9863C143.797 34.9766 143.714 34.9684 143.616 34.9619C143.522 34.9521 143.435 34.9473 143.357 34.9473C143.159 34.9473 142.986 34.9733 142.84 35.0254C142.696 35.0742 142.576 35.1475 142.478 35.2451C142.384 35.3428 142.312 35.4616 142.263 35.6016C142.218 35.7415 142.192 35.901 142.185 36.0801L141.902 35.9922C141.902 35.6504 141.936 35.3363 142.005 35.0498C142.073 34.7601 142.172 34.5078 142.302 34.293C142.436 34.0781 142.599 33.9121 142.791 33.7949C142.983 33.6777 143.203 33.6191 143.45 33.6191C143.528 33.6191 143.608 33.6257 143.689 33.6387C143.771 33.6484 143.837 33.6631 143.889 33.6826ZM146.038 33.7168V39H144.627V33.7168H146.038ZM144.539 32.3398C144.539 32.1348 144.61 31.9655 144.754 31.832C144.897 31.6986 145.089 31.6318 145.33 31.6318C145.567 31.6318 145.758 31.6986 145.901 31.832C146.048 31.9655 146.121 32.1348 146.121 32.3398C146.121 32.5449 146.048 32.7142 145.901 32.8477C145.758 32.9811 145.567 33.0479 145.33 33.0479C145.089 33.0479 144.897 32.9811 144.754 32.8477C144.61 32.7142 144.539 32.5449 144.539 32.3398ZM149.632 39.0977C149.221 39.0977 148.854 39.0326 148.528 38.9023C148.203 38.7689 147.926 38.585 147.698 38.3506C147.473 38.1162 147.301 37.8444 147.18 37.5352C147.06 37.2227 147 36.8906 147 36.5391V36.3438C147 35.9434 147.057 35.5771 147.171 35.2451C147.285 34.9131 147.447 34.625 147.659 34.3809C147.874 34.1367 148.134 33.9495 148.44 33.8193C148.746 33.6859 149.091 33.6191 149.475 33.6191C149.85 33.6191 150.182 33.681 150.471 33.8047C150.761 33.9284 151.004 34.1042 151.199 34.332C151.398 34.5599 151.547 34.8333 151.648 35.1523C151.749 35.4681 151.8 35.8197 151.8 36.207V36.793H147.6V35.8555H150.418V35.748C150.418 35.5527 150.382 35.3786 150.31 35.2256C150.242 35.0693 150.138 34.9456 149.998 34.8545C149.858 34.7633 149.679 34.7178 149.461 34.7178C149.275 34.7178 149.116 34.7585 148.982 34.8398C148.849 34.9212 148.74 35.0352 148.655 35.1816C148.574 35.3281 148.512 35.5007 148.469 35.6992C148.43 35.8945 148.411 36.1094 148.411 36.3438V36.5391C148.411 36.7507 148.44 36.946 148.499 37.125C148.561 37.304 148.647 37.4587 148.758 37.5889C148.872 37.7191 149.008 37.82 149.168 37.8916C149.33 37.9632 149.514 37.999 149.719 37.999C149.973 37.999 150.209 37.9502 150.427 37.8525C150.649 37.7516 150.839 37.6003 150.999 37.3984L151.682 38.1406C151.572 38.3001 151.42 38.4531 151.228 38.5996C151.039 38.7461 150.812 38.8665 150.545 38.9609C150.278 39.0521 149.973 39.0977 149.632 39.0977ZM155.725 37.7354V33.7168H157.132V39H155.808L155.725 37.7354ZM155.882 36.6514L156.297 36.6416C156.297 36.9932 156.256 37.3203 156.175 37.623C156.093 37.9225 155.971 38.1829 155.808 38.4043C155.646 38.6224 155.441 38.7933 155.193 38.917C154.946 39.0374 154.654 39.0977 154.319 39.0977C154.062 39.0977 153.824 39.0618 153.606 38.9902C153.391 38.9154 153.206 38.7998 153.05 38.6436C152.897 38.484 152.776 38.2806 152.688 38.0332C152.604 37.7826 152.561 37.4814 152.561 37.1299V33.7168H153.968V37.1396C153.968 37.2959 153.985 37.4277 154.021 37.5352C154.06 37.6426 154.114 37.7305 154.182 37.7988C154.251 37.8672 154.33 37.916 154.422 37.9453C154.516 37.9746 154.62 37.9893 154.734 37.9893C155.024 37.9893 155.252 37.9307 155.418 37.8135C155.587 37.6963 155.706 37.5368 155.774 37.335C155.846 37.1299 155.882 36.902 155.882 36.6514ZM159.612 34.8691V39H158.206V33.7168H159.529L159.612 34.8691ZM161.204 33.6826L161.179 34.9863C161.111 34.9766 161.028 34.9684 160.93 34.9619C160.836 34.9521 160.75 34.9473 160.672 34.9473C160.473 34.9473 160.301 34.9733 160.154 35.0254C160.011 35.0742 159.89 35.1475 159.793 35.2451C159.698 35.3428 159.627 35.4616 159.578 35.6016C159.532 35.7415 159.506 35.901 159.5 36.0801L159.217 35.9922C159.217 35.6504 159.251 35.3363 159.319 35.0498C159.387 34.7601 159.487 34.5078 159.617 34.293C159.75 34.0781 159.913 33.9121 160.105 33.7949C160.297 33.6777 160.517 33.6191 160.764 33.6191C160.843 33.6191 160.922 33.6257 161.004 33.6387C161.085 33.6484 161.152 33.6631 161.204 33.6826Z" fill="white"/>
</svg>
