<svg width="45" height="45" viewBox="0 0 45 45" fill="none" xmlns="http://www.w3.org/2000/svg">
<path d="M22.5 4.5C11.73 4.5 3 11.8875 3 21C3 25.0142 4.69833 28.6891 7.51465 31.5498C7.57152 31.6913 9.01652 35.41 4.7373 39.2021C4.66235 39.2724 4.60261 39.3572 4.56179 39.4514C4.52097 39.5457 4.49994 39.6473 4.5 39.75C4.5 39.9489 4.57902 40.1397 4.71967 40.2803C4.86032 40.421 5.05109 40.5 5.25 40.5C5.30419 40.5 5.35821 40.4941 5.41113 40.4824C9.72492 40.2269 13.4152 38.0861 15.668 36.4365C17.7971 37.1117 20.0922 37.5 22.5 37.5C33.27 37.5 42 30.1125 42 21C42 11.8875 33.27 4.5 22.5 4.5ZM22.5 11.25C23.742 11.25 24.75 12.258 24.75 13.5C24.75 14.742 23.742 15.75 22.5 15.75C21.258 15.75 20.25 14.742 20.25 13.5C20.25 12.258 21.258 11.25 22.5 11.25ZM21 19.5H24V30H21V19.5Z" fill="#03565C"/>
</svg>
