<svg width="71" height="71" viewBox="0 0 71 71" fill="none" xmlns="http://www.w3.org/2000/svg">
<circle cx="35.5" cy="35.5" r="35.5" fill="#FFD401"/>
<path d="M35.5292 14.3667C35.3724 14.3632 35.2162 14.3866 35.0674 14.4361L18.6674 19.9027C18.497 19.9595 18.3394 20.0492 18.2037 20.1669C18.068 20.2845 17.9567 20.4278 17.8764 20.5884C17.796 20.7491 17.7481 20.9239 17.7354 21.1031C17.7226 21.2823 17.7453 21.4622 17.8021 21.6326C17.8589 21.803 17.9487 21.9605 18.0664 22.0962C18.1841 22.2319 18.3274 22.343 18.488 22.4233C18.6487 22.5036 18.8236 22.5515 19.0028 22.5642C19.1819 22.5769 19.3618 22.5541 19.5322 22.4973L35.4998 17.1748L51.4674 22.4973C51.6377 22.5541 51.8176 22.5768 51.9968 22.5641C52.1759 22.5514 52.3508 22.5035 52.5115 22.4232C52.6721 22.3429 52.8153 22.2318 52.933 22.0961C53.0507 21.9604 53.1405 21.8029 53.1973 21.6325C53.2541 21.4621 53.2768 21.2822 53.264 21.1031C53.2513 20.9239 53.2034 20.7491 53.123 20.5884C53.0427 20.4278 52.9315 20.2846 52.7958 20.1669C52.6601 20.0493 52.5026 19.9595 52.3322 19.9027L35.9322 14.4361C35.8021 14.3929 35.6662 14.3695 35.5292 14.3667ZM28.6665 25.3C25.4776 25.3 21.4007 26.7361 21.4007 26.7361C21.1285 26.8269 20.8918 27.001 20.7241 27.2339C20.5565 27.4667 20.4663 27.7464 20.4665 28.0333V29.779C19.6524 30.2523 19.0998 31.1235 19.0998 32.1333V47.1667C19.0998 48.6768 20.323 49.9 21.8331 49.9H33.1375C33.377 50.3148 33.7213 50.6594 34.1359 50.8993C34.5505 51.1391 35.0208 51.2658 35.4998 51.2667C35.9792 51.2663 36.4501 51.1398 36.8652 50.8999C37.2803 50.6601 37.6251 50.3152 37.8648 49.9H49.1665C50.6766 49.9 51.8998 48.6768 51.8998 47.1667V32.1333C51.8998 31.1235 51.3472 30.2523 50.5331 29.779V28.0333C50.5333 27.7464 50.4431 27.4667 50.2754 27.2339C50.1078 27.001 49.8711 26.8269 49.5989 26.7361C49.5989 26.7361 45.522 25.3 42.3331 25.3C39.4273 25.3 36.1236 26.3962 35.4998 26.608C34.876 26.3962 31.5723 25.3 28.6665 25.3ZM28.6665 28.0333C30.4907 28.0333 33.0076 28.7403 34.1331 29.0717V45.3275C32.7576 44.936 30.649 44.4333 28.6665 44.4333C26.6548 44.4333 24.6717 44.9161 23.1998 45.3382V29.1411C24.1192 28.865 26.7211 28.0333 28.6665 28.0333ZM42.3331 28.0333C44.2784 28.0333 46.8804 28.865 47.7998 29.1411V45.3382C46.3278 44.9161 44.3448 44.4333 42.3331 44.4333C40.3506 44.4333 38.242 44.936 36.8665 45.3275V29.0717C37.992 28.7403 40.5089 28.0333 42.3331 28.0333Z" fill="#03565C"/>
</svg>
