<svg width="25" height="24" viewBox="0 0 25 24" fill="none" xmlns="http://www.w3.org/2000/svg">
<path d="M2.83213 0C1.50613 0 0.432129 1.074 0.432129 2.4V16.8C0.432129 18.126 1.50613 19.2 2.83213 19.2H5.23213V16.8H2.83213V2.4H22.0321V16.8H19.6321V19.2H22.0321C23.3581 19.2 24.4321 18.126 24.4321 16.8V2.4C24.4321 1.074 23.3581 0 22.0321 0H2.83213ZM12.4321 7.2C9.78133 7.2 7.63213 9.3492 7.63213 12V24L12.4321 21.6L17.2321 24V12C17.2321 9.3492 15.0829 7.2 12.4321 7.2ZM12.4321 9.6C13.7581 9.6 14.8321 10.674 14.8321 12C14.8321 13.326 13.7581 14.4 12.4321 14.4C11.1061 14.4 10.0321 13.326 10.0321 12C10.0321 10.674 11.1061 9.6 12.4321 9.6Z" fill="white"/>
</svg>
