<svg width="75" height="72" viewBox="0 0 75 72" fill="none" xmlns="http://www.w3.org/2000/svg">
<path d="M49.5 0L45 4.5L49.5 9L54 4.5L49.5 0ZM25.5 3C23.016 3 21 5.016 21 7.5C21 9.984 23.016 12 25.5 12H30.0352C31.6792 12 33.0172 13.3091 33.0352 14.9531C33.0922 19.9181 33 30 33 30C33 30 39 21 39 12C39 7.404 36 3 30 3H25.5ZM66 3C62.7208 3 60 5.72081 60 9V15H57C53.7208 15 51 17.7208 51 21V24H50.7773C48.3254 24 45.9368 24.7949 43.9746 26.2676L43.7578 26.4316L36.7969 33.9609L41.2031 38.0391L47.6777 31.0312C48.5845 30.379 49.6594 30 50.7773 30H51C54.2792 30 57 27.2792 57 24V21H60C63.2792 21 66 18.2792 66 15V9H75V3H66ZM10.5 6L6 10.5L10.5 15L15 10.5L10.5 6ZM4.5 24L0 28.5L4.5 33L9 28.5L4.5 24ZM70.5 24L66 28.5L70.5 33L75 28.5L70.5 24ZM17.9707 26.9707C17.3739 26.9709 16.7907 27.149 16.2957 27.4823C15.8007 27.8157 15.4163 28.2891 15.1917 28.842C14.9671 29.3949 14.9126 30.0023 15.035 30.5864C15.1574 31.1705 15.4512 31.7049 15.8789 32.1211L16.7871 33.0293L3.31055 66.7207C2.06255 69.8407 5.1593 72.9375 8.2793 71.6895L41.9707 58.2129L42.8789 59.1211C43.1553 59.409 43.4864 59.6389 43.8528 59.7972C44.2192 59.9556 44.6135 60.0393 45.0126 60.0433C45.4118 60.0474 45.8077 59.9718 46.1772 59.8209C46.5468 59.67 46.8825 59.4469 47.1647 59.1647C47.4469 58.8825 47.67 58.5468 47.8209 58.1772C47.9718 57.8077 48.0474 57.4118 48.0433 57.0126C48.0393 56.6135 47.9556 56.2192 47.7972 55.8528C47.6389 55.4864 47.409 55.1553 47.1211 54.8789L33.6973 41.4551L20.1211 27.8789C19.8415 27.5915 19.5072 27.3631 19.1378 27.2071C18.7685 27.0511 18.3716 26.9707 17.9707 26.9707ZM63 36C54 36 45 42 45 42C45 42 55.0819 41.9078 60.0469 41.9648C61.6909 41.9828 63 43.3208 63 44.9648V49.5C63 51.984 65.016 54 67.5 54C69.984 54 72 51.984 72 49.5V45C72 39 67.596 36 63 36ZM58.5 57L54 61.5L58.5 66L63 61.5L58.5 57Z" fill="#03565C"/>
</svg>
