<svg width="30" height="30" viewBox="0 0 30 30" fill="none" xmlns="http://www.w3.org/2000/svg">
<path d="M22.9898 8.99023C22.7909 8.99029 22.5965 9.04967 22.4315 9.16078C22.2665 9.27189 22.1384 9.42969 22.0635 9.61401C21.9886 9.79832 21.9705 10.0008 22.0113 10.1955C22.0521 10.3902 22.15 10.5683 22.2926 10.707L25.5855 14H1.99959C1.86708 13.9981 1.73552 14.0226 1.61255 14.072C1.48958 14.1214 1.37766 14.1948 1.28329 14.2878C1.18892 14.3809 1.11399 14.4918 1.06284 14.614C1.01169 14.7363 0.985352 14.8675 0.985352 15C0.985352 15.1325 1.01169 15.2637 1.06284 15.386C1.11399 15.5082 1.18892 15.6191 1.28329 15.7122C1.37766 15.8052 1.48958 15.8786 1.61255 15.928C1.73552 15.9774 1.86708 16.0019 1.99959 16H25.5855L22.2926 19.293C22.1966 19.3851 22.12 19.4955 22.0672 19.6176C22.0144 19.7397 21.9865 19.8712 21.9852 20.0042C21.9838 20.1373 22.009 20.2692 22.0593 20.3924C22.1096 20.5156 22.1839 20.6275 22.278 20.7216C22.3721 20.8156 22.484 20.89 22.6072 20.9403C22.7304 20.9906 22.8623 21.0158 22.9954 21.0144C23.1284 21.0131 23.2599 20.9852 23.382 20.9324C23.5041 20.8796 23.6145 20.803 23.7066 20.707L28.6187 15.7949C28.7409 15.7019 28.8399 15.5819 28.9082 15.4444C28.9765 15.3069 29.0123 15.1555 29.0126 15.0019C29.013 14.8484 28.978 14.6968 28.9104 14.559C28.8428 14.4211 28.7443 14.3007 28.6226 14.207C28.6207 14.2057 28.6187 14.2044 28.6168 14.2031L23.7066 9.29297C23.6134 9.19717 23.502 9.12103 23.3789 9.06903C23.2558 9.01704 23.1235 8.99024 22.9898 8.99023Z" fill="#EC4B54"/>
</svg>
