<svg width="30" height="30" viewBox="0 0 30 30" fill="none" xmlns="http://www.w3.org/2000/svg">
<path d="M6.98082 8.99024C6.72102 8.99798 6.47444 9.10656 6.29332 9.29298L1.38121 14.2051C1.25908 14.2982 1.16003 14.4181 1.09172 14.5556C1.02341 14.6931 0.987685 14.8445 0.987308 14.9981C0.98693 15.1516 1.02191 15.3032 1.08954 15.441C1.15717 15.5789 1.25564 15.6993 1.3773 15.793C1.37925 15.7943 1.3812 15.7956 1.38316 15.7969L6.29332 20.707C6.38546 20.803 6.49583 20.8796 6.61796 20.9324C6.74009 20.9852 6.87152 21.0131 7.00456 21.0144C7.1376 21.0158 7.26958 20.9906 7.39276 20.9403C7.51593 20.89 7.62784 20.8157 7.72192 20.7216C7.81599 20.6275 7.89036 20.5156 7.94065 20.3924C7.99093 20.2692 8.01614 20.1373 8.01479 20.0042C8.01343 19.8712 7.98555 19.7397 7.93276 19.6176C7.87998 19.4955 7.80335 19.3851 7.70738 19.293L4.41441 16H28.0004C28.1329 16.0019 28.2644 15.9774 28.3874 15.928C28.5104 15.8786 28.6223 15.8052 28.7167 15.7122C28.811 15.6191 28.886 15.5083 28.9371 15.386C28.9883 15.2637 29.0146 15.1325 29.0146 15C29.0146 14.8675 28.9883 14.7363 28.9371 14.614C28.886 14.4918 28.811 14.3809 28.7167 14.2878C28.6223 14.1948 28.5104 14.1214 28.3874 14.072C28.2644 14.0226 28.1329 13.9981 28.0004 14H4.41441L7.70738 10.707C7.85188 10.5666 7.95058 10.3857 7.99054 10.1882C8.0305 9.9907 8.00986 9.78571 7.93132 9.60013C7.85277 9.41454 7.72 9.25701 7.55039 9.14818C7.38078 9.03935 7.18225 8.9843 6.98082 8.99024Z" fill="black"/>
</svg>
