<svg width="31" height="31" viewBox="0 0 31 31" fill="none" xmlns="http://www.w3.org/2000/svg">
<path d="M15.5088 0.946045C7.48149 0.946045 0.977585 7.44995 0.977585 15.4773C0.977585 23.5046 7.48149 30.0085 15.5088 30.0085C23.5362 30.0085 30.0401 23.5046 30.0401 15.4773C30.0401 7.44995 23.5362 0.946045 15.5088 0.946045ZM15.5088 27.196C9.00493 27.196 3.79008 21.9812 3.79008 15.4773C3.79008 9.03198 9.00493 3.75854 15.5088 3.75854C21.9541 3.75854 27.2276 9.03198 27.2276 15.4773C27.2276 21.9812 21.9541 27.196 15.5088 27.196ZM13.6338 8.68042V15.4773H9.70805C9.06352 15.4773 8.77055 16.239 9.18071 16.7078L14.9815 22.5085C15.2745 22.8015 15.6846 22.8015 15.9776 22.5085L21.7784 16.7078C22.2471 16.239 21.8956 15.4773 21.3096 15.4773H17.3838V8.68042C17.3838 8.32886 17.0323 7.97729 16.6807 7.97729H14.337C13.9268 7.97729 13.6338 8.32886 13.6338 8.68042Z" fill="black"/>
</svg>
