<svg width="21" height="22" viewBox="0 0 21 22" fill="none" xmlns="http://www.w3.org/2000/svg">
<path d="M9 0C6.8 0 5 1.8 5 4C5 6.2 6.8 8 9 8C11.2 8 13 6.2 13 4C13 1.8 11.2 0 9 0ZM9 11C5.86 11 0 12.55 0 15.5V18H10.99C10.73 17.62 10.5 17.21 10.29 16.8C9.53 15.31 9.09 13.67 9.02 12C9.01 11.85 9 11.7 9 11.56C9 11.37 9.02 11.18 9.06 11.01C9.04 11 9.02 11 9 11ZM11.56 11C11.31 11 11 11.18 11 11.56C11 14.08 12.02 16.49 13.76 18.25C15.52 19.99 17.92 21.01 20.44 21.01C20.81 21.01 21 20.7 21 20.45V18.5C21 18.2 20.76 17.95 20.46 17.94C20.11 17.93 19.67 17.91 19.39 17.86C19.09 17.81 18.73 17.7 18.47 17.62C18.27 17.56 18.05 17.61 17.9 17.76L17.18 18.42C17.18 18.42 16 17.99 15 16.99C14 15.99 13.52 14.76 13.52 14.76L14.23 14.09C14.38 13.94 14.43 13.72 14.37 13.52C14.29 13.27 14.19 12.9 14.13 12.6C14.08 12.32 14.06 11.88 14.05 11.53C14.04 11.23 13.8 10.99 13.49 10.99H11.56V11Z" fill="#03565C"/>
</svg>
