<svg width="53" height="66" viewBox="0 0 53 66" fill="none" xmlns="http://www.w3.org/2000/svg">
<path d="M27.6102 0.0986328C26.7662 0.0986328 25.5906 0.142917 24.2135 0.323582C23.9469 0.368748 23.6563 0.41515 23.3675 0.460316C23.0566 0.505482 22.7675 0.551354 22.4565 0.619104C22.2566 0.641687 22.0583 0.684207 21.8362 0.729373C14.3733 2.31019 3.66613 7.52902 3.1997 23.7889C3.17748 24.1728 3.17801 24.5562 3.17801 24.9401V30.9696L4.15408 30.3168C4.95368 29.7522 5.93149 29.4567 6.90877 29.4567C8.15259 29.4567 9.35199 29.9311 10.2404 30.7667C10.2626 30.6312 10.3088 30.4964 10.3532 30.3609C10.3754 30.248 10.4173 30.1342 10.4617 30.0213C10.5505 29.7729 10.6408 29.5232 10.774 29.32C10.7962 29.2296 10.8419 29.1633 10.9085 29.073C10.9973 28.8471 11.131 28.6455 11.2642 28.4422C11.2864 28.3971 11.3277 28.3286 11.3944 28.2834C11.5054 28.0802 11.664 27.8995 11.8195 27.7189C11.8861 27.6285 11.9514 27.5578 12.0624 27.4675C12.2179 27.2868 12.4178 27.1095 12.6177 26.9514C12.6399 26.9288 12.6389 26.9068 12.6611 26.9293C12.861 26.7487 13.0376 26.5885 13.2598 26.453C13.3264 26.4078 13.3965 26.3619 13.4853 26.2942C13.7297 26.1361 13.9948 26.0018 14.2835 25.8663C14.5723 25.7083 14.8831 25.574 15.2162 25.4385C15.5272 25.303 15.8591 25.1672 16.1923 25.0768C19.4351 24.0154 23.5237 23.6985 27.4106 22.6597C27.7438 22.592 28.0752 22.4766 28.4084 22.3863C29.0303 22.2056 29.6524 22.0039 30.2521 21.7555C30.5631 21.6426 30.8955 21.5078 31.2065 21.3497C31.3175 21.3046 31.43 21.2582 31.5188 21.213C31.852 21.0549 32.1623 20.8996 32.4732 20.719C32.7175 20.5835 32.9409 20.4448 33.163 20.2867C33.3851 20.1738 33.6051 20.017 33.805 19.8589C35.804 18.4813 37.5163 16.494 38.7157 13.6485C38.7157 13.6485 39.6941 14.5518 40.8935 16.4714C41.0712 16.7424 41.2494 17.0595 41.4271 17.3756C41.6492 17.7369 41.8475 18.1203 42.0474 18.5268C43.3356 21.1013 44.6253 24.6917 45.1361 29.4567C45.225 30.1794 45.2918 30.9246 45.314 31.715C45.3584 32.4377 45.3791 33.2055 45.3791 33.9733H47.6002V36.2317C47.6002 38.4448 46.8447 39.3921 46.1339 40.047C45.4231 40.6793 44.8455 40.8144 44.8455 40.8144L43.6482 41.11L43.2707 42.2832C43.2707 42.2832 40.2018 51.9492 31.0286 53.9365L35.0067 56.4683C35.2954 56.6489 35.5611 56.8732 35.7832 57.099C43.3349 53.6664 46.5098 46.1455 47.1317 44.5195C47.7536 44.2711 48.1336 44.2474 49.0665 43.4344C50.5768 42.102 52.0424 39.6643 52.0424 36.2317V24.9401C52.0424 15.9068 47.6002 4.61526 38.7157 4.61526C38.7157 4.61526 36.4946 0.0986328 27.6102 0.0986328ZM17.6152 31.715C16.7316 31.715 15.8842 32.0719 15.2594 32.7072C14.6346 33.3425 14.2835 34.2041 14.2835 35.1025C14.2835 36.0009 14.6346 36.8625 15.2594 37.4978C15.8842 38.1331 16.7316 38.49 17.6152 38.49C18.4988 38.49 19.3462 38.1331 19.9711 37.4978C20.5959 36.8625 20.9469 36.0009 20.9469 35.1025C20.9469 34.2041 20.5959 33.3425 19.9711 32.7072C19.3462 32.0719 18.4988 31.715 17.6152 31.715ZM37.6052 31.715C36.7216 31.715 35.8742 32.0719 35.2493 32.7072C34.6245 33.3425 34.2735 34.2041 34.2735 35.1025C34.2735 36.0009 34.6245 36.8625 35.2493 37.4978C35.8742 38.1331 36.7216 38.49 37.6052 38.49C38.4888 38.49 39.3362 38.1331 39.961 37.4978C40.5858 36.8625 40.9369 36.0009 40.9369 35.1025C40.9369 34.2041 40.5858 33.3425 39.961 32.7072C39.3362 32.0719 38.4888 31.715 37.6052 31.715ZM6.48798 33.9733C6.31029 33.9733 6.11039 33.9723 5.9327 34.0174C5.19973 34.1981 4.24258 34.6508 3.24308 35.6671L3.17801 35.7332C0.0906644 38.9175 -1.46429 44.294 10.2187 56.1727C21.9906 68.1418 27.2548 66.4495 30.3866 63.2653C31.3861 62.249 31.8313 61.2758 32.009 60.5306C32.1867 59.7628 31.8511 58.9743 31.1848 58.5678C31.1626 58.5452 31.1425 58.5424 31.098 58.4972C29.41 57.5036 25.901 55.406 24.2352 54.4349C23.7021 54.1187 23.0113 54.1182 22.4782 54.457L19.7018 56.1286C19.0799 56.49 18.3272 56.4656 17.7497 56.014C16.7724 55.2235 15.1921 53.9164 13.815 52.5162C12.4379 51.1161 11.1523 49.5093 10.3749 48.5156C9.9307 47.9285 9.88454 47.1405 10.2621 46.5308L11.9063 43.7079C12.0617 43.4595 12.1492 43.1414 12.1492 42.8478C12.1714 42.5316 12.084 42.1931 11.9063 41.8995L11.7284 41.5819L11.5722 41.11L11.4421 41.0659L7.86316 34.8555C7.79652 34.7426 7.70907 34.6288 7.62022 34.5159C7.30927 34.1997 6.90999 34.0185 6.48798 33.9733Z" fill="#03565C"/>
</svg>
