<svg width="21" height="21" viewBox="0 0 21 21" fill="none" xmlns="http://www.w3.org/2000/svg">
<path d="M10.5 0.916504C5.21577 0.916504 0.916687 5.21559 0.916687 10.4998C0.916687 15.7841 5.21577 20.0832 10.5 20.0832C15.7843 20.0832 20.0834 15.7841 20.0834 10.4998C20.0834 5.21559 15.7843 0.916504 10.5 0.916504ZM7.89383 12.8664C8.17462 13.1468 8.17462 13.6024 7.89383 13.8828C7.75344 14.0236 7.56944 14.0936 7.38544 14.0936C7.20144 14.0936 7.01744 14.0236 6.87704 13.8832L4.00204 11.0082C3.72125 10.7279 3.72125 10.2722 4.00204 9.99192L6.87704 7.11692C7.15783 6.83613 7.61256 6.83613 7.89335 7.11692C8.17414 7.39723 8.17414 7.85292 7.89335 8.13323L5.52675 10.4998L7.89383 12.8664ZM10.5 11.4582C9.97054 11.4582 9.54169 11.0293 9.54169 10.4998C9.54169 9.97036 9.97054 9.5415 10.5 9.5415C11.0295 9.5415 11.4584 9.97036 11.4584 10.4998C11.4584 11.0293 11.0295 11.4582 10.5 11.4582ZM16.998 11.0082L14.123 13.8832C13.9826 14.0236 13.7986 14.0936 13.6146 14.0936C13.4306 14.0936 13.2466 14.0236 13.1062 13.8832C12.8254 13.6029 12.8254 13.1472 13.1062 12.8669L15.4733 10.4998L13.1067 8.13323C12.8259 7.85292 12.8259 7.39723 13.1067 7.11692C13.3875 6.83613 13.8422 6.83613 14.123 7.11692L16.998 9.99192C17.2783 10.2722 17.2783 10.7274 16.998 11.0082Z" fill="#03565C"/>
</svg>
