<svg width="30" height="30" viewBox="0 0 30 30" fill="none" xmlns="http://www.w3.org/2000/svg">
<path d="M12.2797 0.039978C5.88879 0.039978 0.719727 5.20904 0.719727 11.6C0.719727 17.9909 5.88879 23.16 12.2797 23.16C14.5614 23.16 16.6732 22.4906 18.4635 21.3537L26.8147 29.705L29.7047 26.815L21.4597 18.5912C22.9419 16.6469 23.8397 14.2376 23.8397 11.6C23.8397 5.20904 18.6707 0.039978 12.2797 0.039978ZM12.2797 2.75998C17.1752 2.75998 21.1197 6.70451 21.1197 11.6C21.1197 16.4954 17.1752 20.44 12.2797 20.44C7.38426 20.44 3.43973 16.4954 3.43973 11.6C3.43973 6.70451 7.38426 2.75998 12.2797 2.75998Z" fill="#EC4B54"/>
</svg>
