<svg width="17" height="19" viewBox="0 0 17 19" fill="none" xmlns="http://www.w3.org/2000/svg">
<path d="M3.13331 0.300049C1.86295 0.300049 0.833313 1.32968 0.833313 2.60005V16.4C0.833332 16.5011 0.853317 16.6011 0.89212 16.6944C0.930923 16.7877 0.987779 16.8724 1.05942 16.9436C1.32993 17.9127 2.08325 18.7 3.13331 18.7H15.4C15.5016 18.7015 15.6024 18.6827 15.6967 18.6448C15.791 18.6069 15.8768 18.5507 15.9491 18.4794C16.0215 18.408 16.0789 18.323 16.1182 18.2293C16.1574 18.1356 16.1776 18.035 16.1776 17.9334C16.1776 17.8318 16.1574 17.7312 16.1182 17.6375C16.0789 17.5437 16.0215 17.4587 15.9491 17.3874C15.8768 17.3161 15.791 17.2598 15.6967 17.2219C15.6024 17.184 15.5016 17.1653 15.4 17.1667H3.13331C2.70012 17.1667 2.36665 16.8332 2.36665 16.4C2.36665 15.9669 2.70012 15.6334 3.13331 15.6334H14.6333C15.4805 15.6334 16.1666 14.9472 16.1666 14.1V1.83338C16.1666 0.986215 15.4805 0.300049 14.6333 0.300049H3.13331ZM6.19998 4.90005H11.5666C11.9898 4.90005 12.3333 5.24352 12.3333 5.66671C12.3333 6.08991 11.9898 6.43338 11.5666 6.43338H6.19998C5.77678 6.43338 5.43331 6.08991 5.43331 5.66671C5.43331 5.24352 5.77678 4.90005 6.19998 4.90005Z" fill="#03565C"/>
</svg>
