<svg width="19" height="22" viewBox="0 0 19 22" fill="none" xmlns="http://www.w3.org/2000/svg">
<path d="M9.46069 0.91669C9.35884 0.921318 9.25837 0.942169 9.16309 0.978457L1.53011 3.84035C1.52448 3.84217 1.51886 3.84405 1.51326 3.84597L1.49642 3.85346C1.31396 3.92199 1.15674 4.04452 1.04571 4.20471C0.934685 4.36489 0.875134 4.55512 0.875 4.75002V17.2084C0.875134 17.4033 0.934685 17.5935 1.04571 17.7537C1.15674 17.9139 1.31396 18.0364 1.49642 18.1049L9.15373 20.9762L9.16309 20.9799C9.18952 20.9898 9.21637 20.9986 9.24357 21.0061C9.26829 21.0127 9.29327 21.0184 9.31844 21.023C9.32467 21.0243 9.33091 21.0255 9.33716 21.0267C9.3409 21.0274 9.34464 21.028 9.34839 21.0286C9.37631 21.0329 9.40442 21.0361 9.43262 21.0379C9.46439 21.0402 9.49625 21.0408 9.52808 21.0398C9.53182 21.0398 9.53556 21.0398 9.53931 21.0398C9.56748 21.0386 9.59558 21.0361 9.62353 21.0323C9.65562 21.0283 9.68748 21.0227 9.71899 21.0155C9.72212 21.0149 9.72524 21.0143 9.72835 21.0136C9.75615 21.0067 9.78363 20.9986 9.81071 20.9893C9.81384 20.988 9.81696 20.9868 9.82007 20.9855C9.8257 20.9837 9.83132 20.9818 9.83691 20.9799L17.5036 18.1049C17.686 18.0364 17.8433 17.9139 17.9543 17.7537C18.0653 17.5935 18.1249 17.4033 18.125 17.2084V4.75002C18.1249 4.55512 18.0653 4.36489 17.9543 4.20471C17.8433 4.04452 17.686 3.92199 17.5036 3.85346L17.498 3.85159L9.83691 0.978457C9.71691 0.932881 9.58897 0.911876 9.46069 0.91669V0.91669ZM9.5 2.89887L14.4377 4.75002L9.5 6.60118L4.56234 4.75002L9.5 2.89887ZM2.79167 6.13324L8.54167 8.28949V18.7001L2.79167 16.5439V6.13324ZM16.2083 6.13324V16.5458L10.4583 18.702V8.28949L16.2083 6.13324ZM3.75 8.60207V10.6629L5.1875 11.2001V9.13926L3.75 8.60207ZM15.25 8.60207L13.8125 9.13926V11.2001L15.25 10.6629V8.60207ZM6.14583 9.49302V11.5538L7.58333 12.1004V10.0396L6.14583 9.49302ZM12.8542 9.49302L11.4167 10.0396V12.1004L12.8542 11.5538V9.49302ZM3.75 12.7517V14.8125L5.1875 15.3497V13.2889L3.75 12.7517ZM15.25 12.7517L13.8125 13.2889V15.3497L15.25 14.8125V12.7517ZM6.14583 13.6427V15.7035L7.58333 16.25V14.1892L6.14583 13.6427ZM12.8542 13.6427L11.4167 14.1892V16.25L12.8542 15.7035V13.6427Z" fill="#03565C"/>
</svg>
