<svg width="108" height="93" viewBox="0 0 108 93" fill="none" xmlns="http://www.w3.org/2000/svg">
<path d="M40.9471 0C34.998 0 30.1305 4.98006 30.1305 11.0668C30.1305 17.1535 34.998 22.1336 40.9471 22.1336C46.8962 22.1336 51.7637 17.1535 51.7637 11.0668C51.7637 4.98006 46.8962 0 40.9471 0ZM40.9471 22.1336C35.0065 22.1336 30.1305 27.1223 30.1305 33.2004V54.4348L26.0067 58.654C24.0462 60.6599 21.0041 61.9741 18.4351 61.9741H15.6634C8.4129 61.9741 1.63564 67.0146 0.317367 74.355C0.308917 74.381 0.325817 74.3983 0.317367 74.4242C-1.63469 84.1249 5.6834 92.9611 14.9873 92.9611H26.8856C30.8573 92.9611 34.7022 91.4048 37.4993 88.3269C37.5247 88.3009 37.5416 88.2836 37.5669 88.2577L81.8473 42.953C83.8078 40.9471 86.85 39.633 89.4189 39.633H92.8667C102.196 39.633 109.489 30.8055 107.739 21.0961V20.9577C106.201 13.8854 99.7284 8.85344 92.4611 8.85344H80.9685C76.9967 8.85344 73.1518 10.4097 70.3547 13.4877C70.3293 13.5136 70.3124 13.5309 70.2871 13.5568L51.6961 32.4395C51.2989 26.7246 46.6343 22.1336 40.9471 22.1336ZM40.9471 4.42672C44.5555 4.42672 47.4371 7.37498 47.4371 11.0668C47.4371 14.7586 44.5555 17.7069 40.9471 17.7069C37.3388 17.7069 34.4572 14.7586 34.4572 11.0668C34.4572 7.37498 37.3388 4.42672 40.9471 4.42672ZM80.9685 13.2802H92.4611C97.7088 13.2802 102.382 17.0238 103.48 21.8569C104.756 28.9639 99.5425 35.2062 92.8667 35.2062H89.4189C85.4979 35.2062 81.6022 36.9787 78.8051 39.8405L34.4572 85.2143H34.3896V85.2835C32.4291 87.4709 29.8094 88.5344 26.8856 88.5344H14.9873C8.31149 88.5344 3.11447 82.3525 4.57639 75.2542V75.1851C5.45524 70.1618 10.3819 66.4008 15.6634 66.4008H18.4351C22.3561 66.4008 26.2518 64.6284 29.0489 61.7666L73.3969 16.6002H73.4645V16.531C75.425 14.3436 78.0446 13.2802 80.9685 13.2802ZM40.9471 26.5603C44.5301 26.5603 47.4371 29.5345 47.4371 33.2004V36.7971L34.4572 50.0773V33.2004C34.4572 29.5345 37.3641 26.5603 40.9471 26.5603ZM83.3346 55.334C82.1431 55.4637 81.2811 56.5704 81.4079 57.7894C81.5346 59.0085 82.6163 59.8904 83.8078 59.7607H96.3145L67.5153 89.1569C66.6534 90.0388 66.6534 91.4567 67.5153 92.3386C68.3773 93.2205 69.7632 93.2205 70.6251 92.3386L99.3566 62.8732V75.6692C99.3482 76.4646 99.7538 77.2082 100.43 77.6146C101.106 78.0123 101.934 78.0123 102.61 77.6146C103.286 77.2082 103.692 76.4646 103.683 75.6692V55.334H83.8078C83.7148 55.3253 83.6303 55.3253 83.5374 55.334C83.4698 55.334 83.4022 55.334 83.3346 55.334Z" fill="#03565C"/>
</svg>
