<svg width="99" height="99" viewBox="0 0 99 99" fill="none" xmlns="http://www.w3.org/2000/svg">
<path d="M49.5 0C22.2279 0 0 19.9775 0 44.9912C0 59.502 7.59987 72.1406 19.2855 80.3936C19.2687 80.877 19.3023 81.668 18.697 84.0234C17.9404 86.9502 16.4103 91.0635 13.3166 95.7041L11.114 99H14.9643C28.2809 99 35.9901 89.9209 37.1838 88.4619C41.1519 89.4375 45.2293 89.9648 49.5 89.9648C76.7637 89.9648 99 69.9873 99 44.9824C99 19.9775 76.7721 0 49.5 0ZM49.5 4.5C74.4181 4.5 94.6957 22.6582 94.6957 44.9912C94.6957 67.3154 74.4181 85.4736 49.5 85.4736C45.6917 85.4736 41.9842 85.0166 38.1675 84.085L35.6118 83.4609L33.9136 85.5352C32.4423 87.3369 27.4907 92.6279 19.3359 94.1133C20.8996 91.1777 22.0766 88.1895 22.8416 85.1924C23.4469 82.8721 23.5562 81.6504 23.5814 80.5781L23.6823 78.0732L21.6899 76.667C10.6432 68.8535 4.30435 57.3047 4.30435 44.9912C4.30435 22.6582 24.5819 4.5 49.5 4.5ZM49.5 21.5947C45.1957 21.5947 41.7572 22.9482 39.3865 25.6553C36.8055 28.3535 35.7295 31.9482 35.5109 36.2197H40.8913C41.1099 33.75 41.5386 31.5 42.1776 30.1553C43.4722 27.6768 45.843 26.3232 49.2898 26.3232C51.8708 26.3232 54.0145 27 55.0906 28.5732C56.1667 29.9268 56.8224 31.7285 56.8224 33.75C56.8224 35.3232 56.3853 36.6768 55.5278 38.0303C55.099 38.9268 54.4517 39.6035 53.8044 40.2803L51.442 42.75C49.0712 45.2285 47.5664 47.25 46.9191 49.0518C46.2717 50.8535 45.843 53.3232 45.843 56.25H51.2234C51.2234 53.5518 51.4336 51.75 52.0809 50.625C52.7283 49.2715 54.0229 47.6982 55.9565 45.6768C58.756 42.9785 60.4795 40.9482 61.337 39.5947C62.1945 38.25 62.6232 36.4482 62.6232 34.1982C62.6232 30.5947 61.337 27.4482 58.9746 25.1982C56.6039 22.7197 53.3756 21.5947 49.5 21.5947ZM45.843 61.4268V67.9482H51.6522V61.4268H45.843Z" fill="#03565C"/>
</svg>
