<svg width="17" height="22" viewBox="0 0 17 22" fill="none" xmlns="http://www.w3.org/2000/svg">
<path d="M8.5 0.996094C3.80568 0.996094 0 4.82764 0 9.55387C0 15.1818 5.52655 17.8759 6.21891 18.503C6.92595 19.1432 7.51014 20.5786 7.74582 21.3924C7.86018 21.7876 8.18164 21.9875 8.5 21.9961C8.81914 21.9868 9.13982 21.7868 9.25418 21.3924C9.48986 20.5786 10.074 19.144 10.7811 18.503C11.4735 17.8759 17 15.1818 17 9.55387C17 4.82764 13.1943 0.996094 8.5 0.996094ZM8.5 11.8878C7.21959 11.8878 6.18182 10.843 6.18182 9.55387C6.18182 8.26476 7.21959 7.21993 8.5 7.21993C9.78041 7.21993 10.8182 8.26476 10.8182 9.55387C10.8182 10.843 9.78041 11.8878 8.5 11.8878Z" fill="#03565C"/>
</svg>
