<svg width="15" height="23" viewBox="0 0 15 23" fill="none" xmlns="http://www.w3.org/2000/svg">
<path d="M8.8268 0C7.607 0 6.61526 0.991737 6.61526 2.21154C6.61526 3.43134 7.607 4.42308 8.8268 4.42308C10.0466 4.42308 11.0383 3.43134 11.0383 2.21154C11.0383 0.991737 10.0466 0 8.8268 0ZM6.55997 5.30769C5.99326 5.30769 5.77211 5.5012 5.42656 5.69471L2.49627 8.18269C2.2371 8.33128 2.09888 8.5628 1.99867 8.8738L1.36286 13.0757C1.27301 13.7461 1.62548 14.0156 2.02632 14.0986C2.35114 14.1642 2.84182 14.0156 2.93858 13.5457C3.01805 13.1587 3.60204 9.73077 3.60204 9.73077L5.50949 8.26562C5.19504 9.72386 4.87022 11.3203 4.7631 11.8594C4.58341 12.7889 5.06373 13.4938 5.42656 14.0433C5.76174 14.5478 10.0535 21.3483 10.6237 22.0877C11.1938 22.8272 11.7087 23.1935 12.5035 22.7512C13.1669 22.3815 13.0667 21.5245 12.697 20.899C12.3272 20.2736 7.96983 13.1863 7.96983 13.1863L8.71622 10.0349C8.71622 10.0349 9.22764 10.7605 9.49026 11.1683C9.61466 11.3618 9.72869 11.4482 10.0708 11.6382C10.4716 11.8594 12.4102 12.7267 13.0011 12.9928C13.5263 13.2278 14.2036 13.3176 14.4662 12.8546C14.7288 12.3915 14.3902 11.8456 13.9963 11.6659C13.5678 11.4689 10.7066 10.0349 10.7066 10.0349C10.7066 10.0349 9.68031 7.89934 9.15853 6.71755C8.66784 5.60487 8.33957 5.30769 7.6381 5.30769H6.55997ZM4.37608 14.5132L3.49146 17.6094C3.49146 17.6094 1.65312 20.2909 1.1417 21.0373C0.758138 21.5971 0.457508 22.2536 1.11406 22.7512C1.85009 23.3075 2.44444 22.5992 2.828 22.1707C3.17701 21.7767 4.6076 19.776 5.01189 19.268C5.28143 18.9294 5.4231 18.6391 5.53713 18.3558C5.61316 18.1657 5.90342 17.3986 6.09002 16.8906L4.37608 14.5132Z" fill="#03565C"/>
</svg>
