<svg width="30" height="30" viewBox="0 0 30 30" fill="none" xmlns="http://www.w3.org/2000/svg">
<path d="M12.28 0C5.88903 0 0.719971 5.16906 0.719971 11.56C0.719971 17.9509 5.88903 23.12 12.28 23.12C14.5617 23.12 16.6734 22.4506 18.4637 21.3137L26.815 29.665L29.705 26.775L21.46 18.5513C22.9422 16.6069 23.84 14.1977 23.84 11.56C23.84 5.16906 18.6709 0 12.28 0ZM12.28 2.72C17.1754 2.72 21.12 6.66453 21.12 11.56C21.12 16.4555 17.1754 20.4 12.28 20.4C7.3845 20.4 3.43997 16.4555 3.43997 11.56C3.43997 6.66453 7.3845 2.72 12.28 2.72Z" fill="white"/>
</svg>
