<svg width="99" height="102" viewBox="0 0 99 102" fill="none" xmlns="http://www.w3.org/2000/svg">
<path d="M49.5 0C22.1897 0 0 22.8621 0 51C0 61.7276 3.15843 72.0162 9.21791 80.7214C9.72998 81.4248 10.4967 81.8634 11.2649 81.8634C11.7769 81.8634 12.29 81.6879 12.7167 81.3362C13.8262 80.4569 14.1669 78.8748 13.3135 77.6438C8.02208 69.8179 5.12069 60.5845 5.12069 51C5.12069 26.6431 23.6405 6.77035 46.9397 5.36345V13.2772C40.9655 13.7169 35.1614 15.6517 30.0407 18.9052C28.8459 19.6966 28.5045 21.279 29.1873 22.51C29.9554 23.741 31.4929 24.0928 32.6877 23.3893C37.8084 20.1359 43.5259 18.4655 49.5 18.4655C66.9103 18.4655 81.0776 33.0621 81.0776 51C81.0776 57.1552 79.4564 63.0462 76.2986 68.2341C75.5305 69.4652 75.8719 71.1355 77.1521 71.839C77.5788 72.1028 78.0052 72.2786 78.5172 72.2786C79.3707 72.2786 80.2241 71.8403 80.6509 71.049C84.2353 65.0697 86.1983 58.1224 86.1983 51C86.1983 31.0397 71.0922 14.6841 52.0603 13.2772V5.36345C60.4241 5.89104 68.4472 8.70449 75.3601 13.8045C76.4696 14.6838 78.0905 14.4207 78.944 13.1897C79.7974 12.0466 79.542 10.3765 78.3472 9.49724C69.8981 3.25414 59.9121 0 49.5 0ZM87.6318 20.1709C87.1417 20.1776 86.6463 20.3341 86.1983 20.6638C85.0888 21.5431 84.7481 23.1252 85.6015 24.3562C90.9783 32.1821 93.8793 41.3276 93.8793 51C93.8793 75.3569 75.3595 95.2297 52.0603 96.6366V88.7228C58.0345 88.2831 63.8386 86.3483 68.9593 83.0948C70.1541 82.3035 70.4955 80.721 69.8127 79.49C69.0446 78.259 67.5071 77.9072 66.3123 78.6107C61.1916 81.8641 55.4741 83.5345 49.5 83.5345C32.0897 83.5345 17.9224 68.9379 17.9224 51C17.9224 44.8448 19.5436 38.9538 22.7014 33.7659C23.4695 32.5348 23.1281 30.8645 21.8479 30.161C20.6531 29.3697 19.0319 29.7214 18.3491 31.0403C14.7647 36.9317 12.8017 43.8776 12.8017 51C12.8017 70.9604 27.9078 87.3159 46.9397 88.7228V96.6366C38.5759 96.109 30.5528 93.2955 23.6399 88.1955C22.5304 87.3162 20.9095 87.5793 20.056 88.8103C19.2026 89.9535 19.458 91.6235 20.6528 92.5028C29.1019 98.7459 39.0879 102 49.5 102C76.8103 102 99 79.1379 99 51C99 40.2724 95.8416 29.9838 89.7821 21.2786C89.2487 20.5642 88.4486 20.1597 87.6318 20.1709ZM49.5 28.1379C43.3552 28.1379 38.4052 33.2379 38.4052 39.569C38.4052 45.9 43.3552 51 49.5 51C55.6448 51 60.5948 45.9 60.5948 39.569C60.5948 33.2379 55.6448 28.1379 49.5 28.1379ZM49.5 33.4138C52.8284 33.4138 55.4741 36.1397 55.4741 39.569C55.4741 42.9983 52.8284 45.7241 49.5 45.7241C46.1716 45.7241 43.5259 42.9983 43.5259 39.569C43.5259 36.1397 46.1716 33.4138 49.5 33.4138ZM49.5 54.5172C42.4164 54.5172 35.9302 58.4738 32.431 64.7169C31.7483 66.0359 32.1747 67.6183 33.3695 68.3217C33.7962 68.5855 34.2229 68.6738 34.6497 68.6738C35.5031 68.6738 36.4416 68.2338 36.8683 67.4424C39.4286 62.7821 44.294 59.8807 49.5 59.8807C54.706 59.8807 59.5714 62.7821 62.1317 67.4424C62.8145 68.6735 64.4357 69.1145 65.6305 68.411C66.8253 67.7076 67.2517 66.0355 66.569 64.8045C63.0698 58.4735 56.5836 54.5172 49.5 54.5172Z" fill="#03565C"/>
</svg>
