<svg width="17" height="20" viewBox="0 0 17 20" fill="none" xmlns="http://www.w3.org/2000/svg">
<path d="M10.0333 0.533203C9.61012 0.533203 9.26665 0.87667 9.26665 1.29987V2.41543L5.54562 1.29987H4.66665C3.82864 1.29987 3.13332 1.99519 3.13332 2.8332V10.4999H4.66665V2.8332H5.32101L12.3333 4.93704V18.1665H7.73332V13.5665C7.73332 12.7194 7.04715 12.0332 6.19998 12.0332H1.59998V10.4999C1.59998 10.0767 1.25652 9.7332 0.833317 9.7332C0.410117 9.7332 0.0666504 10.0767 0.0666504 10.4999V14.3332V19.6999H7.73332H13.8666H16.9333V7.4332C16.9333 6.58604 16.2471 5.89987 15.4 5.89987H13.8666V5.1332V1.29987C13.8666 0.87667 13.5232 0.533203 13.1 0.533203C12.6768 0.533203 12.3333 0.87667 12.3333 1.29987V3.33633L10.8 2.87663V1.29987C10.8 0.87667 10.4565 0.533203 10.0333 0.533203ZM6.19998 5.89987V7.4332H7.73332V5.89987H6.19998ZM9.26665 5.89987V7.4332H10.8V5.89987H9.26665ZM13.8666 7.4332H15.4V8.96654H13.8666V7.4332ZM6.19998 8.96654V10.4999H7.73332V8.96654H6.19998ZM9.26665 8.96654V10.4999H10.8V8.96654H9.26665ZM13.8666 10.4999H15.4V12.0332H13.8666V10.4999ZM9.26665 12.0332V13.5665H10.8V12.0332H9.26665ZM1.59998 13.5665H3.13332V15.0999H1.59998V13.5665ZM4.66665 13.5665H6.19998V15.0999H4.66665V13.5665ZM13.8666 13.5665H15.4V15.0999H13.8666V13.5665ZM9.26665 15.0999V16.6332H10.8V15.0999H9.26665ZM1.59998 16.6332H3.13332V18.1665H1.59998V16.6332ZM4.66665 16.6332H6.19998V18.1665H4.66665V16.6332ZM13.8666 16.6332H15.4V18.1665H13.8666V16.6332Z" fill="#03565C"/>
</svg>
