<svg width="30" height="30" viewBox="0 0 30 30" fill="none" xmlns="http://www.w3.org/2000/svg">
<path d="M6.98033 8.99018C6.72053 8.99792 6.47395 9.1065 6.29283 9.29292L1.38072 14.205C1.2586 14.2981 1.15954 14.418 1.09123 14.5555C1.02292 14.6931 0.987197 14.8445 0.986819 14.998C0.986442 15.1516 1.02142 15.3031 1.08905 15.441C1.15669 15.5788 1.25515 15.6992 1.37681 15.7929C1.37876 15.7942 1.38072 15.7955 1.38267 15.7968L6.29283 20.707C6.38498 20.803 6.49534 20.8796 6.61747 20.9324C6.7396 20.9851 6.87104 21.013 7.00408 21.0144C7.13712 21.0157 7.26909 20.9905 7.39227 20.9402C7.51544 20.89 7.62735 20.8156 7.72143 20.7215C7.81551 20.6274 7.88987 20.5155 7.94016 20.3924C7.99045 20.2692 8.01565 20.1372 8.0143 20.0042C8.01294 19.8711 7.98506 19.7397 7.93227 19.6176C7.87949 19.4954 7.80287 19.3851 7.70689 19.2929L4.41392 15.9999H27.9999C28.1324 16.0018 28.2639 15.9773 28.3869 15.9279C28.5099 15.8785 28.6218 15.8052 28.7162 15.7121C28.8105 15.6191 28.8855 15.5082 28.9366 15.3859C28.9878 15.2637 29.0141 15.1325 29.0141 14.9999C29.0141 14.8674 28.9878 14.7362 28.9366 14.614C28.8855 14.4917 28.8105 14.3808 28.7162 14.2878C28.6218 14.1947 28.5099 14.1214 28.3869 14.072C28.2639 14.0226 28.1324 13.9981 27.9999 13.9999H4.41392L7.70689 10.707C7.8514 10.5665 7.95009 10.3857 7.99005 10.1882C8.03001 9.99063 8.00937 9.78565 7.93083 9.60007C7.85229 9.41448 7.71951 9.25695 7.5499 9.14812C7.38029 9.03929 7.18176 8.98424 6.98033 8.99018Z" fill="black"/>
</svg>
