<svg width="21" height="25" viewBox="0 0 21 25" fill="none" xmlns="http://www.w3.org/2000/svg">
<path d="M10.6332 0C5.12181 0 0.65332 4.19767 0.65332 9.37502C0.65332 13.1548 2.05508 14.2107 9.60826 24.4959C10.1037 25.168 11.1627 25.168 11.6581 24.4959C19.2114 14.2107 20.6132 13.1548 20.6132 9.37502C20.6132 4.19767 16.1447 0 10.6332 0ZM10.6332 13.75C8.43139 13.75 6.64125 12.0684 6.64125 10C6.64125 7.93166 8.43139 6.25001 10.6332 6.25001C12.8352 6.25001 14.6251 7.93166 14.6251 10C14.6251 12.0684 12.8352 13.75 10.6332 13.75Z" fill="#0DAD8D"/>
</svg>
