<svg width="28" height="25" viewBox="0 0 28 25" fill="none" xmlns="http://www.w3.org/2000/svg">
<rect x="0.8125" width="27.1875" height="25" rx="3" fill="#01669A"/>
<path d="M10.5814 20H7.26429V9.31762H10.5814V20ZM8.92107 7.86044C7.86036 7.86044 7 6.98185 7 5.92111C7 5.4116 7.2024 4.92296 7.56267 4.56268C7.92294 4.2024 8.41157 4 8.92107 4C9.43057 4 9.9192 4.2024 10.2795 4.56268C10.6397 4.92296 10.8421 5.4116 10.8421 5.92111C10.8421 6.98185 9.98143 7.86044 8.92107 7.86044ZM22.9964 20H19.6864V14.7999C19.6864 13.5606 19.6614 11.9712 17.9618 11.9712C16.2371 11.9712 15.9729 13.3177 15.9729 14.7106V20H12.6593V9.31762H15.8407V10.7748H15.8871C16.33 9.93549 17.4118 9.04976 19.0257 9.04976C22.3829 9.04976 23 11.2605 23 14.132V20H22.9964Z" fill="white"/>
</svg>
