<svg width="14" height="19" viewBox="0 0 14 19" fill="none" xmlns="http://www.w3.org/2000/svg">
<path d="M11.6317 0.5H2.29834C1.33219 0.5 0.54834 1.25586 0.54834 2.1875V16.8125C0.54834 17.7441 1.33219 18.5 2.29834 18.5H11.6317C12.5978 18.5 13.3817 17.7441 13.3817 16.8125V2.1875C13.3817 1.25586 12.5978 0.5 11.6317 0.5ZM8.71501 16.25C8.71501 16.5607 8.45386 16.8125 8.13167 16.8125H5.79834C5.47616 16.8125 5.21501 16.5607 5.21501 16.25C5.21501 15.9393 5.47616 15.6875 5.79834 15.6875H8.13167C8.45386 15.6875 8.71501 15.9393 8.71501 16.25ZM11.0483 14H2.88167V2.75H11.0483V14Z" fill="#828282"/>
</svg>
