<svg width="39" height="39" viewBox="0 0 39 39" fill="none" xmlns="http://www.w3.org/2000/svg">
<circle cx="19.5" cy="19.5" r="19.5" fill="white"/>
<path d="M11.2331 8.13335C10.9687 8.13335 10.704 8.23406 10.5025 8.43608L8.43584 10.5027C8.0318 10.9068 8.0318 11.5609 8.43584 11.9639L15.9719 19.5L8.43584 27.0361C8.0318 27.4401 8.0318 28.0943 8.43584 28.4973L10.5025 30.5639C10.9065 30.968 11.5607 30.968 11.9637 30.5639L19.4998 23.0279L27.0358 30.5639C27.4388 30.968 28.094 30.968 28.497 30.5639L30.5637 28.4973C30.9677 28.0932 30.9677 27.4391 30.5637 27.0361L23.0276 19.5L30.5637 11.9639C30.9677 11.5609 30.9677 10.9057 30.5637 10.5027L28.497 8.43608C28.093 8.03205 27.4388 8.03205 27.0358 8.43608L19.4998 15.9722L11.9637 8.43608C11.7617 8.23406 11.4975 8.13335 11.2331 8.13335Z" fill="#03565C"/>
</svg>
