<svg width="17" height="21" viewBox="0 0 17 21" fill="none" xmlns="http://www.w3.org/2000/svg">
<path d="M8.5 0C3.80568 0 0 3.83155 0 8.55777C0 14.1857 5.52655 16.8798 6.21891 17.5069C6.92595 18.1472 7.51014 19.5825 7.74582 20.3963C7.86018 20.7915 8.18164 20.9914 8.5 21C8.81914 20.9907 9.13982 20.7907 9.25418 20.3963C9.48986 19.5825 10.074 18.1479 10.7811 17.5069C11.4735 16.8798 17 14.1857 17 8.55777C17 3.83155 13.1943 0 8.5 0ZM8.5 10.8917C7.21959 10.8917 6.18182 9.84689 6.18182 8.55777C6.18182 7.26866 7.21959 6.22384 8.5 6.22384C9.78041 6.22384 10.8182 7.26866 10.8182 8.55777C10.8182 9.84689 9.78041 10.8917 8.5 10.8917Z" fill="white"/>
</svg>
