<svg width="11" height="12" viewBox="0 0 11 12" fill="none" xmlns="http://www.w3.org/2000/svg">
<path d="M5.34375 12C4.55413 12 3.91518 11.3291 3.91518 10.5H6.77232C6.77232 11.3291 6.13337 12 5.34375 12ZM0.536272 8.49023C0.96596 8.00391 1.77511 7.27148 1.77511 4.875C1.77511 3.05273 2.98884 1.59668 4.62946 1.23926V0.75C4.62946 0.336914 4.95034 0 5.34375 0C5.73716 0 6.05804 0.336914 6.05804 0.75V1.23926C7.69866 1.59668 8.91239 3.05273 8.91239 4.875C8.91239 7.27148 9.72154 8.00391 10.1512 8.49023C10.2852 8.64258 10.3438 8.82422 10.3438 9C10.341 9.38379 10.0536 9.75 9.62667 9.75H1.06083C0.633928 9.75 0.34654 9.38379 0.34375 9C0.34375 8.82422 0.402344 8.64258 0.536272 8.49023Z" fill="white"/>
</svg>
