<svg width="23" height="24" viewBox="0 0 23 24" fill="none" xmlns="http://www.w3.org/2000/svg">
<path d="M11.4321 0C9.83829 0 8.49457 1.0044 7.98979 2.4H2.87651C1.52596 2.4 0.432068 3.474 0.432068 4.8V21.6C0.432068 22.926 1.52596 24 2.87651 24H19.9876C21.3382 24 22.4321 22.926 22.4321 21.6V4.8C22.4321 3.474 21.3382 2.4 19.9876 2.4H14.8743C14.3696 1.0044 13.0258 0 11.4321 0ZM11.4321 2.4C12.1067 2.4 12.6543 2.9376 12.6543 3.6C12.6543 4.2624 12.1067 4.8 11.4321 4.8H19.9876V21.6H2.87651V4.8H11.4321C10.7574 4.8 10.2098 4.2624 10.2098 3.6C10.2098 2.9376 10.7574 2.4 11.4321 2.4ZM11.4321 7.2L9.8088 10.9711L5.64561 11.3203L8.80142 14.0039L7.85373 17.9977L11.4321 15.8813L15.0104 18L14.0627 13.9945L17.2185 11.3133L13.0553 10.9641L11.4321 7.2Z" fill="white"/>
</svg>
