<svg width="28" height="28" viewBox="0 0 28 28" fill="none" xmlns="http://www.w3.org/2000/svg">
<path d="M14 0C6.2685 0 0 6.2685 0 14C0 21.7315 6.2685 28 14 28C21.7315 28 28 21.7315 28 14C28 6.2685 21.7315 0 14 0ZM21.8248 11.3248L13.0048 20.1448C12.7855 20.3642 12.4892 20.4867 12.18 20.4867C11.8708 20.4867 11.5733 20.3642 11.3552 20.1448L7.32667 16.1163C6.8705 15.6602 6.8705 14.9228 7.32667 14.4667C7.78283 14.0105 8.52017 14.0105 8.97633 14.4667L12.18 17.6703L20.1752 9.67517C20.6313 9.219 21.3687 9.219 21.8248 9.67517C22.281 10.1313 22.281 10.8687 21.8248 11.3248Z" fill="#03565C"/>
</svg>
