<svg width="28" height="25" viewBox="0 0 28 25" fill="none" xmlns="http://www.w3.org/2000/svg">
<rect x="0.512695" width="27.1875" height="25" rx="3" fill="#03A9F4"/>
<path d="M21.1498 8.73827C21.1612 8.90232 21.1612 9.06641 21.1612 9.23047C21.1612 14.2344 17.4493 20 10.665 20C8.57488 20 6.63326 19.3789 5 18.3008C5.29697 18.3359 5.58247 18.3477 5.89086 18.3477C7.61546 18.3477 9.20305 17.75 10.4708 16.7305C8.84899 16.6953 7.48985 15.6055 7.02156 14.1055C7.25001 14.1406 7.47842 14.164 7.71829 14.164C8.0495 14.164 8.38074 14.1172 8.6891 14.0352C6.99875 13.6836 5.73094 12.1601 5.73094 10.3203V10.2734C6.22204 10.5547 6.79315 10.7305 7.39844 10.7539C6.40478 10.0742 5.75379 8.91405 5.75379 7.60154C5.75379 6.89842 5.9365 6.25389 6.25631 5.69139C8.07232 7.98826 10.802 9.48824 13.8629 9.65233C13.8058 9.37108 13.7716 9.07814 13.7716 8.78516C13.7716 6.6992 15.4162 5 17.4607 5C18.5228 5 19.4822 5.45703 20.1561 6.19531C20.9898 6.03126 21.7893 5.71484 22.4975 5.28125C22.2233 6.16018 21.6409 6.89846 20.8756 7.36718C21.618 7.28519 22.3376 7.0742 23 6.78126C22.4975 7.53123 21.8693 8.19917 21.1498 8.73827Z" fill="white"/>
</svg>
