<svg width="20" height="25" viewBox="0 0 20 25" fill="none" xmlns="http://www.w3.org/2000/svg">
<path d="M19.0244 4.55972L15.3392 0.915332C14.7465 0.329199 13.9428 0 13.1046 0H4.14836C2.40297 0 0.988037 1.39902 0.988037 3.125L0.989025 21.875C0.989025 23.6008 2.40396 25 4.14935 25H16.7896C18.5278 25 19.95 23.5937 19.95 21.875V6.76958C19.95 5.94063 19.617 5.14565 19.0244 4.55972ZM17.5798 21.875C17.5798 22.3064 17.2261 22.6562 16.7897 22.6562H4.14925C3.71283 22.6562 3.35917 22.3064 3.35917 21.875L3.35828 3.1311C3.35828 2.69966 3.71204 2.34985 4.14836 2.34985H12.0496V6.25C12.0496 7.11289 12.757 7.8125 13.6297 7.8125H17.5798V21.875ZM5.72852 13.6719C5.72852 14.3188 6.25935 14.8438 6.91364 14.8438H14.0244C14.6786 14.8438 15.2095 14.3188 15.2095 13.6719C15.2095 13.0249 14.6786 12.5 14.0244 12.5H6.91364C6.25935 12.5 5.72852 13.0249 5.72852 13.6719ZM14.0244 17.1875H6.91364C6.25935 17.1875 5.72852 17.7124 5.72852 18.3594C5.72852 19.0063 6.25935 19.5312 6.91364 19.5312H14.0244C14.6786 19.5312 15.2095 19.0063 15.2095 18.3594C15.2095 17.7124 14.6786 17.1875 14.0244 17.1875Z" fill="#0DAD8D"/>
</svg>
