<svg width="72" height="72" viewBox="0 0 72 72" fill="none" xmlns="http://www.w3.org/2000/svg">
<path d="M36 0C16.1533 0 0 16.1533 0 36C0 55.8467 16.1533 72 36 72C55.8467 72 72 55.8467 72 36C72 16.1533 55.8467 0 36 0ZM36 6C52.6041 6 66 19.3959 66 36C66 52.6041 52.6041 66 36 66C19.3959 66 6 52.6041 6 36C6 19.3959 19.3959 6 36 6ZM22.5 27C21.3065 27 20.1619 27.4741 19.318 28.318C18.4741 29.1619 18 30.3065 18 31.5C18 32.6935 18.4741 33.8381 19.318 34.682C20.1619 35.5259 21.3065 36 22.5 36C23.6935 36 24.8381 35.5259 25.682 34.682C26.5259 33.8381 27 32.6935 27 31.5C27 30.3065 26.5259 29.1619 25.682 28.318C24.8381 27.4741 23.6935 27 22.5 27ZM49.5 27C48.3065 27 47.1619 27.4741 46.318 28.318C45.4741 29.1619 45 30.3065 45 31.5C45 32.6935 45.4741 33.8381 46.318 34.682C47.1619 35.5259 48.3065 36 49.5 36C50.6935 36 51.8381 35.5259 52.682 34.682C53.5259 33.8381 54 32.6935 54 31.5C54 30.3065 53.5259 29.1619 52.682 28.318C51.8381 27.4741 50.6935 27 49.5 27ZM36 42C31.029 42 27 49.029 27 54C27 58.971 31.029 60 36 60C40.971 60 45 58.971 45 54C45 49.029 40.971 42 36 42Z" fill="#03565C"/>
</svg>
